<svg version="1.1" id="Layer_1" xmlns="http://www.w3.org/2000/svg" xmlns:xlink="http://www.w3.org/1999/xlink" x="0px" y="0px"
	 width="100%" viewBox="0 0 1920 1080" enable-background="new 0 0 1920 1080" xml:space="preserve">
<path fill="#4326F3" opacity="1.000000" stroke="none" 
	d="
M546.040466,738.183044 
	C553.300903,744.722961 561.375671,749.293823 571.146118,751.575195 
	C584.543152,754.703369 597.644531,759.100769 610.863708,762.984741 
	C613.952271,763.892273 616.366089,765.452698 615.673828,769.527222 
	C610.226074,769.007568 605.130493,768.350037 600.104614,767.344666 
	C580.732361,763.469604 561.382324,759.483215 542.079895,755.102722 
	C541.078308,754.431946 540.020874,754.196838 538.976807,753.992249 
	C538.990051,754.022766 539.053772,754.003540 538.941895,753.640991 
	C533.119629,751.123169 527.470703,748.775269 521.664612,746.918945 
	C519.683105,746.285461 517.306946,746.886780 514.735046,746.843750 
	C511.047363,745.697144 507.735718,744.630615 504.424072,743.564148 
	C504.188446,743.950195 503.952850,744.336304 503.717255,744.722412 
	C505.138214,746.464478 506.257751,748.648132 508.038269,749.863281 
	C512.813660,753.122314 517.562012,756.772278 522.878784,758.817322 
	C536.188782,763.936768 549.807312,768.254211 563.302063,772.893433 
	C569.571106,775.269348 575.856323,777.604004 582.100891,780.042786 
	C584.408508,780.943970 586.713379,781.928955 588.853210,783.163879 
	C591.811768,784.871582 593.389587,787.977356 591.220642,790.566772 
	C589.765869,792.303589 585.862000,793.620178 583.770630,792.935608 
	C566.385925,787.244324 549.144104,781.110901 531.908386,774.972595 
	C520.406677,770.876404 509.240601,766.023315 499.781036,758.071106 
	C497.689758,756.313110 496.201263,753.838013 494.283142,750.992188 
	C491.470520,743.285217 491.786530,736.340759 495.230011,729.207764 
	C489.114594,730.594849 483.686218,731.826172 478.257843,733.057434 
	C471.827698,732.038330 469.460449,726.446594 473.849915,721.102905 
	C478.291626,715.695618 483.366943,710.733704 488.609894,706.078003 
	C496.004395,699.511780 503.802063,693.399048 511.447632,687.117065 
	C512.193115,686.504517 513.080566,686.064758 514.362061,685.188354 
	C532.438843,670.192627 550.132446,655.643799 567.606995,640.836609 
	C571.052246,637.917236 573.896240,635.344482 578.388245,639.753174 
	C581.438843,633.042725 587.064209,628.072693 586.129761,620.312683 
	C590.465149,619.333984 594.415466,619.374695 596.748840,624.098816 
	C596.989929,624.586853 597.661926,624.938599 598.209473,625.186890 
	C604.636353,628.101013 605.190979,631.349182 599.819458,635.946228 
	C589.874939,644.456970 579.735901,652.743469 569.897339,661.373596 
	C566.185669,664.629395 563.082581,668.579102 559.441040,671.790527 
	C560.545410,668.732544 561.910828,666.096436 563.276245,663.460388 
	C562.901001,663.239441 562.525757,663.018555 562.150513,662.797607 
	C549.179199,676.940918 535.660278,690.629578 525.278381,706.922791 
	C525.534851,707.391174 525.791321,707.859558 526.047791,708.327881 
	C531.248169,706.984253 536.448486,705.640564 541.648865,704.296875 
	C564.503479,699.120483 586.753845,692.048035 608.452209,683.194336 
	C627.035583,675.611694 645.749023,668.343079 664.265564,660.602417 
	C677.562073,655.044006 690.760620,649.212830 703.773438,643.021179 
	C739.938843,625.813171 776.075623,608.539185 812.026550,590.889771 
	C824.105713,584.959717 835.591736,577.821411 848.030212,571.107788 
	C850.209961,570.328857 851.793945,569.823914 853.194458,569.005188 
	C912.030457,534.612854 964.771790,492.173950 1014.926270,446.336639 
	C1015.937256,445.412628 1016.278381,443.755615 1016.932007,442.440582 
	C1017.137024,441.738495 1017.342041,441.036407 1017.731873,440.572449 
	C1018.546631,441.151428 1019.564941,441.926575 1019.745667,441.764984 
	C1021.326355,440.351715 1022.757263,438.771088 1024.463379,437.152832 
	C1025.005371,436.899261 1025.204590,436.645233 1025.510742,436.188751 
	C1026.008179,435.871002 1026.192017,435.602875 1026.561523,435.214783 
	C1027.218506,434.767242 1027.595093,434.374634 1028.198486,433.883759 
	C1028.386719,433.598297 1028.348267,433.411133 1028.309937,433.223938 
	C1028.227661,433.499756 1028.145264,433.775604 1027.755249,433.875366 
	C1026.901367,434.068512 1026.355347,434.437714 1025.566650,434.881195 
	C1025.144653,435.232941 1024.965454,435.510437 1024.536865,435.849854 
	C1024.095947,436.184326 1023.904480,436.456909 1023.359375,436.730713 
	C1022.307068,436.891022 1021.608276,437.050140 1020.909546,437.209290 
	C1028.860352,429.179138 1036.972656,421.301514 1044.725342,413.084381 
	C1057.637207,399.399017 1070.407593,385.577393 1083.074463,371.664520 
	C1099.279663,353.865234 1115.432373,336.009949 1128.563477,315.701141 
	C1130.796631,312.247253 1133.541138,309.469666 1138.555176,310.576538 
	C1137.613037,315.153839 1137.222900,319.948212 1134.859375,323.385681 
	C1130.406250,329.862061 1124.889160,335.620941 1119.675049,341.555573 
	C1115.455444,346.358154 1111.031128,350.980835 1106.469971,355.783447 
	C1105.944092,356.078979 1105.769287,356.353088 1105.486328,356.805420 
	C1105.083130,357.186218 1104.911621,357.467560 1104.500122,357.909546 
	C1104.279053,358.341278 1104.298218,358.612335 1104.317261,358.883423 
	C1104.676392,358.723083 1105.035400,358.562744 1105.614746,358.292908 
	C1106.090454,357.970612 1106.288696,357.713684 1106.641235,357.296143 
	C1107.099731,356.967285 1107.294556,356.714783 1107.738770,356.281921 
	C1118.371094,345.883209 1128.747437,335.670044 1138.999878,325.333984 
	C1141.541260,322.771912 1144.120972,321.174683 1147.782959,322.541046 
	C1151.068237,326.497803 1150.184326,329.494476 1146.547119,333.088104 
	C1120.231689,359.088989 1094.450439,385.637207 1067.864990,411.355682 
	C1045.303711,433.181030 1022.270813,454.554962 998.768433,475.362640 
	C964.054260,506.096558 927.357056,534.325134 888.736572,560.062317 
	C860.573181,578.830688 832.874878,598.295593 804.821106,617.230652 
	C797.031311,622.488464 788.713379,626.963989 780.401123,631.580017 
	C786.205750,627.282288 792.290771,623.265991 798.279297,619.110657 
	C811.621338,609.853088 824.915222,600.526123 838.479309,591.119019 
	C838.740479,590.779663 838.751038,590.548706 838.761597,590.317749 
	C838.415405,590.450500 838.069214,590.583252 837.364990,590.769470 
	C829.587891,594.585083 822.117981,598.250671 814.759521,602.127869 
	C794.225342,612.947388 773.650024,623.693665 753.251892,634.765442 
	C724.585876,650.325012 696.554138,667.138245 667.359802,681.618347 
	C629.717590,700.288452 589.406738,712.265320 549.384827,724.750122 
	C546.911804,725.521606 544.298218,725.842285 542.119690,726.220276 
	C558.169861,719.725952 573.711426,713.009888 589.562622,707.127930 
	C614.612061,697.832764 639.872375,689.106140 665.030884,680.103638 
	C666.732178,679.494812 668.327881,678.591125 669.972717,677.824524 
	C669.796021,677.389221 669.619263,676.953979 669.442566,676.518677 
	C667.755981,676.944397 666.031372,677.257629 664.389038,677.813965 
	C653.229187,681.594788 642.150452,685.626831 630.926636,689.204773 
	C598.520081,699.535400 566.057251,709.689697 533.710938,719.550415 
	C526.789124,716.185852 520.275146,721.129822 519.491089,729.790039 
	C516.673767,728.083801 514.225159,726.359558 511.494080,724.436401 
	C511.163177,724.969421 510.152618,726.597046 508.750366,728.855591 
	C512.712219,730.762512 516.346680,732.511841 520.074341,734.584351 
	C522.428650,739.754456 526.432495,741.844116 531.518433,741.178162 
	C536.406006,740.538086 541.203430,739.209229 546.040466,738.183044 
M1102.499634,361.862183 
	C1102.658813,361.565186 1102.817993,361.268219 1103.406616,360.776184 
	C1103.318604,360.577728 1103.230713,360.379272 1103.142700,360.180817 
	C1103.109741,360.469025 1103.076782,360.757263 1102.404541,360.945892 
	C1102.281250,361.310913 1102.157837,361.675934 1101.531128,361.862396 
	C1101.437622,362.063660 1101.343994,362.264954 1101.250366,362.466187 
	C1101.496094,362.305481 1101.741943,362.144745 1102.499634,361.862183 
M513.315552,700.908569 
	C506.997131,705.961731 500.678711,711.014893 493.487640,716.765930 
	C504.640015,714.874207 508.347168,711.874634 514.440002,700.880432 
	C514.393311,700.669617 514.346558,700.458862 514.299805,700.248047 
	C514.206848,700.505493 514.113831,700.763000 513.315552,700.908569 
M1029.580933,431.331696 
	C1029.493530,431.404327 1029.345581,431.469849 1029.335938,431.551636 
	C1029.326538,431.632294 1029.457275,431.729370 1029.526489,431.819214 
	C1029.614746,431.746857 1029.703125,431.674500 1029.580933,431.331696 
z"/>
<path fill="#FC48C2" opacity="1.000000" stroke="none" 
	d="
M838.228760,591.227417 
	C824.915222,600.526123 811.621338,609.853088 798.279297,619.110657 
	C792.290771,623.265991 786.205750,627.282288 780.057129,631.676208 
	C779.949646,631.990723 779.984619,631.957275 779.667969,631.995850 
	C778.227600,632.710022 777.103821,633.385498 775.979980,634.060974 
	C775.979980,634.060974 775.984558,633.985901 775.799194,634.115417 
	C775.394897,634.504639 775.175842,634.764282 774.956848,635.023987 
	C774.956848,635.023987 774.968689,634.964539 774.671570,635.024170 
	C773.564270,635.715210 772.754089,636.346497 771.943909,636.977844 
	C771.943909,636.977844 771.971619,636.968323 771.698608,637.044800 
	C770.938599,637.418030 770.451599,637.714905 769.964600,638.011719 
	C769.964600,638.011719 769.977661,637.973328 769.714172,638.058228 
	C768.956177,638.449402 768.461670,638.755737 767.967163,639.062012 
	C767.967163,639.062012 767.982483,638.975708 767.812012,639.115662 
	C767.411987,639.494873 767.182373,639.734192 766.952759,639.973450 
	C766.952759,639.973450 766.981140,639.983459 766.733459,640.059143 
	C766.038208,640.379700 765.590698,640.624573 765.143188,640.869507 
	C756.116699,646.227295 747.222473,651.824707 738.036377,656.893188 
	C718.696838,667.563721 699.404480,678.349976 679.726318,688.368896 
	C652.594360,702.182861 623.954346,712.379333 595.100159,721.941895 
	C579.022339,727.270081 562.907776,732.487305 546.425110,737.968750 
	C541.203430,739.209229 536.406006,740.538086 531.518433,741.178162 
	C526.432495,741.844116 522.428650,739.754456 520.076233,734.135254 
	C519.943237,732.166077 519.901550,730.968994 519.859863,729.771973 
	C520.275146,721.129822 526.789124,716.185852 533.596436,719.848755 
	C534.342651,723.001465 535.297668,725.492981 536.267761,728.023743 
	C538.616333,727.316406 540.183167,726.844543 541.750000,726.372681 
	C544.298218,725.842285 546.911804,725.521606 549.384827,724.750122 
	C589.406738,712.265320 629.717590,700.288452 667.359802,681.618347 
	C696.554138,667.138245 724.585876,650.325012 753.251892,634.765442 
	C773.650024,623.693665 794.225342,612.947388 814.759521,602.127869 
	C822.117981,598.250671 829.587891,594.585083 837.491455,590.897339 
	C837.975952,590.971741 838.228760,591.227478 838.228760,591.227417 
z"/>
<path fill="#4326F3" opacity="1.000000" stroke="none" 
	d="
M883.409485,544.233459 
	C889.075806,539.085083 894.672607,533.857422 900.427612,528.810242 
	C906.328186,523.635437 912.451782,518.715027 918.355896,513.544067 
	C928.154541,504.962128 937.972229,496.395599 947.560974,487.582336 
	C955.238647,480.525482 962.583984,473.107361 970.084412,465.857452 
	C981.546082,454.778687 993.002380,443.694336 1004.483459,432.635742 
	C1013.800659,423.661530 1023.820068,415.311462 1032.343384,405.640503 
	C1048.677612,387.107025 1064.318237,367.952850 1079.966309,348.826843 
	C1092.869141,333.056030 1102.059082,314.973022 1111.529907,297.048431 
	C1114.963867,290.549194 1119.880615,284.818909 1124.259277,278.839203 
	C1126.570190,275.683350 1130.092041,275.050385 1132.978638,277.247650 
	C1136.311401,279.784424 1134.727173,282.607422 1132.542480,285.764435 
	C1126.527832,294.456055 1120.301514,303.146637 1115.558105,312.543945 
	C1103.360962,336.708069 1087.776611,358.555908 1070.049927,378.721985 
	C1051.078003,400.304718 1030.826050,420.764740 1011.054749,441.640717 
	C1005.821899,447.165924 1000.301331,452.418579 994.762207,458.349243 
	C988.281799,464.490875 982.246338,470.462067 975.569031,475.599030 
	C952.544434,493.312164 929.342285,510.796082 906.105347,528.230774 
	C898.704285,533.783813 890.983826,538.911316 883.409485,544.233459 
z"/>
<path fill="#FC48C2" opacity="1.000000" stroke="none" 
	d="
M542.024048,755.538330 
	C561.382324,759.483215 580.732361,763.469604 600.104614,767.344666 
	C605.130493,768.350037 610.226074,769.007568 615.608887,769.852905 
	C617.912964,770.085876 619.961365,770.049011 621.868469,770.550049 
	C625.075378,771.392700 626.915283,773.917114 625.772278,776.921692 
	C625.103882,778.678894 622.566223,779.982544 620.597534,780.917847 
	C618.460938,781.932983 615.996582,782.848022 613.696777,782.798462 
	C609.756775,782.713745 605.524841,782.607910 601.959595,781.165833 
	C589.828247,776.258667 577.123962,774.407166 563.798096,772.914795 
	C549.807312,768.254211 536.188782,763.936768 522.878784,758.817322 
	C517.562012,756.772278 512.813660,753.122314 508.038269,749.863281 
	C506.257751,748.648132 505.138214,746.464478 503.717255,744.722412 
	C503.952850,744.336304 504.188446,743.950195 504.424072,743.564148 
	C507.735718,744.630615 511.047363,745.697144 514.915405,747.148682 
	C523.332458,749.690308 531.193115,751.846924 539.053772,754.003540 
	C539.053772,754.003540 538.990051,754.022766 539.162476,754.298706 
	C540.231262,754.895874 541.127686,755.217163 542.024048,755.538330 
z"/>
<path fill="#FC48C2" opacity="1.000000" stroke="none" 
	d="
M883.148926,544.458984 
	C890.983826,538.911316 898.704285,533.783813 906.105347,528.230774 
	C929.342285,510.796082 952.544434,493.312164 975.569031,475.599030 
	C982.246338,470.462067 988.281799,464.490875 994.863037,458.718262 
	C1000.378601,454.552277 1005.656250,450.588287 1010.898804,446.578369 
	C1012.700684,445.200134 1014.414795,443.707306 1016.550537,442.353729 
	C1016.278381,443.755615 1015.937256,445.412628 1014.926270,446.336639 
	C964.771790,492.173950 912.030457,534.612854 853.194458,569.005188 
	C851.793945,569.823914 850.209961,570.328857 848.341187,570.933105 
	C854.851746,565.659485 861.713928,560.407837 868.620178,555.214783 
	C873.344543,551.662415 878.130188,548.191711 883.148926,544.458984 
z"/>
<path fill="#FC48C2" opacity="1.000000" stroke="none" 
	d="
M585.797729,620.133057 
	C587.064209,628.072693 581.438843,633.042725 578.388245,639.753174 
	C573.896240,635.344482 571.052246,637.917236 567.606995,640.836609 
	C550.132446,655.643799 532.438843,670.192627 514.486938,684.851685 
	C517.300598,680.907288 520.230774,676.743103 523.640320,673.017578 
	C532.759888,663.052917 542.069580,653.261841 551.333252,643.429749 
	C558.700562,635.610413 566.025513,627.748169 573.536621,620.068665 
	C577.745178,615.765869 580.897217,615.895325 585.797729,620.133057 
z"/>
<path fill="#FC48C2" opacity="1.000000" stroke="none" 
	d="
M541.733276,703.907227 
	C536.448486,705.640564 531.248169,706.984253 526.047791,708.327881 
	C525.791321,707.859558 525.534851,707.391174 525.278381,706.922791 
	C535.660278,690.629578 549.179199,676.940918 562.150513,662.797607 
	C562.525757,663.018555 562.901001,663.239441 563.276245,663.460388 
	C561.910828,666.096436 560.545410,668.732544 559.092102,671.715149 
	C559.004211,672.061707 558.999207,671.993896 558.787170,672.164368 
	C558.372375,672.901428 558.169617,673.468018 557.966919,674.034607 
	C557.966919,674.034607 557.970459,673.971008 557.826599,674.077881 
	C557.421875,674.324585 557.261292,674.539368 557.200867,674.829041 
	C552.073120,684.391907 546.945435,693.954773 541.733276,703.907227 
z"/>
<path fill="#FC48C2" opacity="1.000000" stroke="none" 
	d="
M1148.042969,322.198486 
	C1144.120972,321.174683 1141.541260,322.771912 1138.999878,325.333984 
	C1128.747437,335.670044 1118.371094,345.883209 1107.552979,356.098267 
	C1106.942749,355.931000 1106.820190,355.807190 1106.697632,355.683350 
	C1111.031128,350.980835 1115.455444,346.358154 1119.675049,341.555573 
	C1124.889160,335.620941 1130.406250,329.862061 1134.859375,323.385681 
	C1137.222900,319.948212 1137.613037,315.153839 1138.967041,310.559692 
	C1139.040039,310.147369 1139.078003,309.916199 1139.185059,309.792755 
	C1139.292236,309.669312 1139.617065,309.582184 1139.617065,309.582184 
	C1141.719971,307.178314 1144.566772,306.161591 1146.935181,308.248444 
	C1148.589844,309.706360 1149.622192,312.498260 1149.829590,314.793976 
	C1150.036377,317.083313 1148.868286,319.496826 1148.042969,322.198486 
z"/>
<path fill="#FC48C2" opacity="1.000000" stroke="none" 
	d="
M478.233276,733.445374 
	C483.686218,731.826172 489.114594,730.594849 495.230011,729.207764 
	C491.786530,736.340759 491.470520,743.285217 494.114014,750.709473 
	C487.621521,748.182495 481.779083,744.512085 478.985901,737.510986 
	C478.528381,736.364258 478.458038,735.063110 478.233276,733.445374 
z"/>
<path fill="#FC48C2" opacity="1.000000" stroke="none" 
	d="
M1024.232666,437.240112 
	C1022.757263,438.771088 1021.326355,440.351715 1019.745667,441.764984 
	C1019.564941,441.926575 1018.546631,441.151428 1017.981567,440.423584 
	C1018.046509,440.036591 1018.019409,440.013062 1018.318604,439.916321 
	C1019.119263,439.198914 1019.620789,438.578247 1020.122314,437.957642 
	C1020.118591,437.649139 1020.245789,437.410889 1020.706726,437.226074 
	C1021.608276,437.050140 1022.307068,436.891022 1023.491943,436.857422 
	C1023.978027,436.982941 1024.232666,437.240112 1024.232666,437.240112 
z"/>
<path fill="#4326F3" opacity="1.000000" stroke="none" 
	d="
M776.322998,634.095215 
	C777.103821,633.385498 778.227600,632.710022 779.692139,631.997803 
	C778.910583,632.683899 777.788330,633.406616 776.322998,634.095215 
z"/>
<path fill="#4326F3" opacity="1.000000" stroke="none" 
	d="
M772.244995,636.883179 
	C772.754089,636.346497 773.564270,635.715210 774.701843,635.022705 
	C774.201477,635.570557 773.373779,636.179504 772.244995,636.883179 
z"/>
<path fill="#4326F3" opacity="1.000000" stroke="none" 
	d="
M1019.872681,438.124908 
	C1019.620789,438.578247 1019.119263,439.198914 1018.323425,439.927277 
	C1018.560425,439.454071 1019.091736,438.873138 1019.872681,438.124908 
z"/>
<path fill="#4326F3" opacity="1.000000" stroke="none" 
	d="
M558.255859,673.866699 
	C558.169617,673.468018 558.372375,672.901428 558.820435,672.157349 
	C558.892090,672.552795 558.718445,673.125793 558.255859,673.866699 
z"/>
<path fill="#4326F3" opacity="1.000000" stroke="none" 
	d="
M765.402222,640.817505 
	C765.590698,640.624573 766.038208,640.379700 766.737549,640.044678 
	C766.546631,640.224854 766.103943,640.495178 765.402222,640.817505 
z"/>
<path fill="#4326F3" opacity="1.000000" stroke="none" 
	d="
M768.274353,639.036987 
	C768.461670,638.755737 768.956177,638.449402 769.734253,638.055542 
	C769.539124,638.316040 769.060364,638.664001 768.274353,639.036987 
z"/>
<path fill="#4326F3" opacity="1.000000" stroke="none" 
	d="
M770.241577,637.916260 
	C770.451599,637.714905 770.938599,637.418030 771.710938,637.036987 
	C771.503784,637.242065 771.011230,637.531433 770.241577,637.916260 
z"/>
<path fill="#4326F3" opacity="1.000000" stroke="none" 
	d="
M1139.537109,309.573853 
	C1139.617065,309.582184 1139.292236,309.669312 1139.296143,309.755341 
	C1139.300049,309.841370 1139.457275,309.565552 1139.537109,309.573853 
z"/>
<path fill="#4326F3" opacity="1.000000" stroke="none" 
	d="
M557.395264,674.751221 
	C557.261292,674.539368 557.421875,674.324585 557.858093,674.073120 
	C557.921387,674.221191 557.773438,674.458496 557.395264,674.751221 
z"/>
<path fill="#4326F3" opacity="1.000000" stroke="none" 
	d="
M767.208618,639.880371 
	C767.182373,639.734192 767.411987,639.494873 767.855713,639.118591 
	C767.868103,639.250122 767.666260,639.518738 767.208618,639.880371 
z"/>
<path fill="#4326F3" opacity="1.000000" stroke="none" 
	d="
M775.221436,634.911743 
	C775.175842,634.764282 775.394897,634.504639 775.836792,634.114380 
	C775.868530,634.255737 775.677307,634.527588 775.221436,634.911743 
z"/>
<path fill="#FC48C2" opacity="1.000000" stroke="none" 
	d="
M513.988403,700.990662 
	C508.347168,711.874634 504.640015,714.874207 493.487640,716.765930 
	C500.678711,711.014893 506.997131,705.961731 513.659790,700.956177 
	C514.003967,701.003845 513.988403,700.990662 513.988403,700.990662 
z"/>
<path fill="#FC48C2" opacity="1.000000" stroke="none" 
	d="
M1025.809204,434.806946 
	C1026.355347,434.437714 1026.901367,434.068512 1027.732422,433.857910 
	C1028.017456,434.016510 1027.971802,433.981995 1027.971802,433.981995 
	C1027.595093,434.374634 1027.218506,434.767242 1026.441162,435.099121 
	C1026.040527,435.038391 1025.809204,434.806915 1025.809204,434.806946 
z"/>
<path fill="#FC48C2" opacity="1.000000" stroke="none" 
	d="
M1029.686157,431.466919 
	C1029.703125,431.674500 1029.614746,431.746857 1029.526489,431.819214 
	C1029.457275,431.729370 1029.326538,431.632294 1029.335938,431.551636 
	C1029.345581,431.469849 1029.493530,431.404327 1029.686157,431.466919 
z"/>
<path fill="#FC48C2" opacity="1.000000" stroke="none" 
	d="
M1107.251221,356.238434 
	C1107.294556,356.714783 1107.099731,356.967285 1106.460815,357.119141 
	C1106.068848,357.058655 1105.718140,356.705933 1105.718140,356.705933 
	C1105.769287,356.353088 1105.944092,356.078979 1106.469971,355.783447 
	C1106.820190,355.807190 1106.942749,355.931000 1107.251221,356.238434 
z"/>
<path fill="#FC48C2" opacity="1.000000" stroke="none" 
	d="
M1104.740234,357.748871 
	C1104.911621,357.467560 1105.083130,357.186218 1105.486328,356.805420 
	C1105.718140,356.705933 1106.068848,357.058655 1106.249268,357.235657 
	C1106.288696,357.713684 1106.090454,357.970612 1105.452393,358.128479 
	C1105.069580,358.073517 1104.740234,357.748871 1104.740234,357.748871 
z"/>
<path fill="#FC48C2" opacity="1.000000" stroke="none" 
	d="
M1105.232056,358.237976 
	C1105.035400,358.562744 1104.676392,358.723083 1104.317261,358.883423 
	C1104.298218,358.612335 1104.279053,358.341278 1104.500122,357.909546 
	C1104.740234,357.748871 1105.069580,358.073517 1105.232056,358.237976 
z"/>
<path fill="#FC48C2" opacity="1.000000" stroke="none" 
	d="
M1103.043823,361.045471 
	C1103.076782,360.757263 1103.109741,360.469025 1103.142700,360.180817 
	C1103.230713,360.379272 1103.318604,360.577728 1103.208008,360.892700 
	C1103.009521,361.009216 1103.043823,361.045471 1103.043823,361.045471 
z"/>
<path fill="#FC48C2" opacity="1.000000" stroke="none" 
	d="
M1102.993408,360.990234 
	C1102.817993,361.268219 1102.658813,361.565186 1102.255127,361.937073 
	C1102.010742,362.011993 1102.034424,362.040955 1102.034424,362.040955 
	C1102.157837,361.675934 1102.281250,361.310913 1102.724121,360.995667 
	C1103.043823,361.045471 1103.009521,361.009216 1102.993408,360.990234 
z"/>
<path fill="#FC48C2" opacity="1.000000" stroke="none" 
	d="
M1101.999268,361.997986 
	C1101.741943,362.144745 1101.496094,362.305481 1101.250366,362.466217 
	C1101.343994,362.264954 1101.437622,362.063660 1101.782715,361.951660 
	C1102.034424,362.040955 1102.010742,362.011993 1101.999268,361.997986 
z"/>
<path fill="#FC48C2" opacity="1.000000" stroke="none" 
	d="
M514.012451,701.012146 
	C514.113831,700.763000 514.206848,700.505493 514.299805,700.248047 
	C514.346558,700.458862 514.393311,700.669617 514.214233,700.935547 
	C513.988403,700.990662 514.003967,701.003845 514.012451,701.012146 
z"/>
<path fill="#FC48C2" opacity="1.000000" stroke="none" 
	d="
M837.849487,590.843872 
	C838.069214,590.583252 838.415405,590.450500 838.761597,590.317749 
	C838.751038,590.548706 838.740479,590.779663 838.479309,591.119019 
	C838.228760,591.227478 837.975952,590.971741 837.849487,590.843872 
z"/>
<path fill="#FC48C2" opacity="1.000000" stroke="none" 
	d="
M1028.040283,434.033966 
	C1028.145264,433.775604 1028.227661,433.499756 1028.309937,433.223938 
	C1028.348267,433.411133 1028.386719,433.598297 1028.198486,433.883728 
	C1027.971802,433.981995 1028.017456,434.016510 1028.040283,434.033966 
z"/>
<path fill="#FC48C2" opacity="1.000000" stroke="none" 
	d="
M1025.292114,436.303406 
	C1025.204590,436.645233 1025.005371,436.899261 1024.463379,437.152832 
	C1024.232666,437.240112 1023.978027,436.982941 1023.845459,436.856232 
	C1023.904480,436.456909 1024.095947,436.184326 1024.664551,435.977509 
	C1025.041504,436.043274 1025.292114,436.303406 1025.292114,436.303406 
z"/>
<path fill="#FC48C2" opacity="1.000000" stroke="none" 
	d="
M1024.913818,435.915588 
	C1024.965454,435.510437 1025.144653,435.232941 1025.566650,434.881165 
	C1025.809204,434.806915 1026.040527,435.038391 1026.160889,435.154053 
	C1026.192017,435.602875 1026.008179,435.871002 1025.510742,436.188751 
	C1025.292114,436.303406 1025.041504,436.043274 1024.913818,435.915588 
z"/>
</svg>