<svg id="svg" version="1.1" xmlns="http://www.w3.org/2000/svg" style="display: block;" viewBox="0 0 414 218"><path d="M0 0 C0.72558105 0.29285889 1.45116211 0.58571777 2.19873047 0.88745117 C4.0078125 1.76953125 4.0078125 1.76953125 6.0078125 3.76953125 C5.6328125 5.89453125 5.6328125 5.89453125 5.0078125 7.76953125 C-1.18208115 7.36363658 -6.13145152 6.09863618 -11.90625 3.890625 C-21.46523038 0.41793213 -30.75735447 -2.11985932 -40.9921875 -1.23046875 C-42.20390625 -1.13636719 -43.415625 -1.04226562 -44.6640625 -0.9453125 C-63.65138155 0.81659075 -80.6498212 8.22762947 -96.9921875 17.76953125 C-96.59 18.75953125 -96.59 18.75953125 -96.1796875 19.76953125 C-95.591875 21.25453125 -95.591875 21.25453125 -94.9921875 22.76953125 C-94.72792969 23.37410156 -94.46367187 23.97867188 -94.19140625 24.6015625 C-91.11470057 31.99440506 -91.20518643 37.29551885 -94.1171875 44.70703125 C-98.3288016 54.07403851 -103.67936891 63.17075362 -113.22265625 67.8671875 C-118.2367644 69.72266642 -122.67672779 70.30107722 -127.9921875 69.76953125 C-131.20042997 68.27235143 -133.72150864 66.49434589 -135.9921875 63.76953125 C-137.8339593 58.24421585 -138.02897816 53.28458471 -135.78125 47.83203125 C-128.9461234 35.50954948 -119.39871623 26.70706413 -107.9921875 18.76953125 C-113.5775774 15.04593798 -119.40524294 14.40354098 -125.9921875 14.45703125 C-127.1073877 14.46549072 -127.1073877 14.46549072 -128.24511719 14.47412109 C-153.02273121 15.00680288 -178.38016209 25.34499256 -199.9921875 36.76953125 C-201.09175781 37.34832031 -202.19132812 37.92710938 -203.32421875 38.5234375 C-209.56981879 41.97896204 -214.70620236 45.88426897 -219.8359375 50.8515625 C-221.83172679 52.62680261 -223.55331356 53.72192403 -225.9921875 54.76953125 C-213.2239251 38.97720671 -197.94572274 30.138656 -178.97460938 23.77197266 C-176.15981939 22.82587511 -173.35228809 21.86015267 -170.54588318 20.88951111 C-167.91585275 19.98219055 -165.28264489 19.08438182 -162.64846802 18.18917847 C-160.73981045 17.53998105 -158.83264759 16.88639427 -156.92553711 16.23266602 C-140.89155746 10.86668293 -122.38987693 5.24454245 -106.2890625 13.08984375 C-103.13030515 14.02457807 -101.88088166 13.28202865 -98.9921875 11.76953125 C-97.03490799 10.59350717 -95.0990834 9.38142052 -93.1796875 8.14453125 C-60.83156841 -12.11563106 -35.08602188 -14.19553221 0 0 Z " transform="translate(338.9921875,57.23046875)" style="fill: #30E9B7;"/><path d="M0 0 C3 1 3 1 4.16796875 2.78515625 C6.89257959 8.87116436 8.34249777 13.71607454 6.3046875 20.21875 C2.68716806 29.09535232 -2.81693806 35.95755885 -11 41 C-15.07123851 42.3570795 -18.7475929 42.64791492 -23 42 C-26.60618265 39.57134638 -27.75449705 38.11592249 -28.6875 33.875 C-26.40301838 20.99883086 -16.41598502 11.09949817 -6.125 3.8125 C-5.56546631 3.41337402 -5.00593262 3.01424805 -4.42944336 2.60302734 C-2.8203125 1.51953125 -2.8203125 1.51953125 0 0 Z " transform="translate(235,79)" style="fill: #FAFEFD;"/><path d="M0 0 C2.375 0.75 2.375 0.75 3.375 1.75 C3.44589844 2.74128906 3.51679687 3.73257813 3.58984375 4.75390625 C4.25388507 9.83882541 7.09174011 13.54143035 9.9375 17.6875 C10.45763672 18.46673828 10.97777344 19.24597656 11.51367188 20.04882812 C12.78973625 21.95707119 14.07681233 23.85676978 15.375 25.75 C19.96411806 24.38846949 23.76596219 22.50584141 27.875 20.0625 C38.25704305 14.03080497 48.63442105 8.82331973 59.9375 4.75 C60.7948877 4.43474365 61.65227539 4.1194873 62.53564453 3.79467773 C70.03831894 1.18914956 70.03831894 1.18914956 74.375 2.75 C73.375 5.75 73.375 5.75 71.6953125 6.68212891 C70.97085938 6.94429199 70.24640625 7.20645508 69.5 7.4765625 C68.68821289 7.78118408 67.87642578 8.08580566 67.04003906 8.3996582 C66.16057617 8.721521 65.28111328 9.04338379 64.375 9.375 C38.58309294 19.13526455 38.58309294 19.13526455 18.375 36.75 C13.21409777 38.02307337 8.14203895 38.61548847 3.3125 36.25 C-0.99723435 30.68905245 -2.21911535 24.66946704 -3.25 17.875 C-3.61771769 12.91284014 -3.61771769 12.91284014 -5.625 8.75 C-6.08191383 3.49549098 -6.08191383 3.49549098 -4.4375 0.8125 C-2.625 -0.25 -2.625 -0.25 0 0 Z " transform="translate(62.625,156.25)" style="fill: #2EE8B6;"/><path d="M0 0 C-0.83917969 0.14695312 -1.67835938 0.29390625 -2.54296875 0.4453125 C-24.57787513 4.55471626 -45.18933286 11.52769448 -65 22 C-66.09957031 22.57878906 -67.19914062 23.15757813 -68.33203125 23.75390625 C-74.57763129 27.20943079 -79.71401486 31.11473772 -84.84375 36.08203125 C-86.83953929 37.85727136 -88.56112606 38.95239278 -91 40 C-77.38569138 23.16124987 -61.11961708 14.73254596 -41 8 C-39.10712115 7.3563762 -37.21425315 6.71272023 -35.3216095 6.06840515 C-31.92497639 4.91394998 -28.52543802 3.76819318 -25.125 2.625 C-24.46112274 2.40167999 -23.79724548 2.17835999 -23.11325073 1.94827271 C-21.20434815 1.30814909 -19.29360822 0.67351269 -17.3828125 0.0390625 C-16.27309082 -0.33009277 -15.16336914 -0.69924805 -14.02001953 -1.07958984 C-8.12236348 -2.87701614 -5.36055136 -3.57370091 0 0 Z " transform="translate(204,72)" style="fill: #4FECC2;"/><path d="M0 0 C0 3.90203105 -1.76785123 6.16285323 -3.75 9.375 C-10.5938628 20.97981084 -12.70977582 32.77520212 -14 46 C-15.485 46.495 -15.485 46.495 -17 47 C-17.96585236 28.86343908 -11.51109926 13.95668078 0 0 Z " transform="translate(97,130)" style="fill: #47EBBF;"/><path d="M0 0 C-0.83917969 0.14695312 -1.67835938 0.29390625 -2.54296875 0.4453125 C-13.12915677 2.41958551 -23.37356198 5.26838215 -33.6953125 8.32080078 C-36.79147598 9.23325065 -39.89496377 10.11827096 -43 11 C-43.33 10.34 -43.66 9.68 -44 9 C-39.3931415 7.4478589 -34.78496392 5.89972191 -30.17553711 4.35522461 C-28.60876481 3.82962179 -27.04235376 3.30294084 -25.47631836 2.77514648 C-23.22083924 2.01520258 -20.9640748 1.25918915 -18.70703125 0.50390625 C-18.01100296 0.26845596 -17.31497467 0.03300568 -16.59785461 -0.20957947 C-5.74302545 -3.82868363 -5.74302545 -3.82868363 0 0 Z " transform="translate(204,72)" style="fill: #56EDC4;"/><path d="M0 0 C0 4.62 0 9.24 0 14 C-0.99 14.33 -1.98 14.66 -3 15 C-3 10.38 -3 5.76 -3 1 C-1 0 -1 0 0 0 Z " transform="translate(83,162)" style="fill: #3AEABB;"/><path d="M0 0 C0.99 0.33 1.98 0.66 3 1 C-1.29 5.29 -5.58 9.58 -10 14 C-10 9.84439769 -7.7179548 8.15900671 -5 5.3125 C-4.52304688 4.80138672 -4.04609375 4.29027344 -3.5546875 3.76367188 C-2.37640085 2.50290516 -1.18904747 1.25062314 0 0 Z " transform="translate(112,112)" style="fill: #C6F9EB;"/><path d="M0 0 C-2.43218059 1.19963643 -4.86970578 2.38484438 -7.3125 3.5625 C-8.00279297 3.90474609 -8.69308594 4.24699219 -9.40429688 4.59960938 C-14.66015625 7.11328125 -14.66015625 7.11328125 -18 6 C-16.44000409 2.88000818 -13.87220503 2.54883154 -10.6875 1.3125 C-9.53636719 0.85488281 -8.38523438 0.39726563 -7.19921875 -0.07421875 C-4.13717158 -0.96030566 -2.88822927 -1.176686 0 0 Z " transform="translate(161,83)" style="fill: #35E9B9;"/><path d="M0 0 C-2.97 1.32 -5.94 2.64 -9 4 C-9.33 3.01 -9.66 2.02 -10 1 C-5.8922935 -0.58706842 -4.40767604 -1.10191901 0 0 Z " transform="translate(161,83)" style="fill: #48EBC0;"/><path d="M0 0 C0.99 0.33 1.98 0.66 3 1 C-1.625 5 -1.625 5 -5 5 C-3.35 3.35 -1.7 1.7 0 0 Z " transform="translate(129,96)" style="fill: #50ECC2;"/></svg>