<svg id="svg" version="1.1" xmlns="http://www.w3.org/2000/svg" style="display: block;" viewBox="0 0 626 555"><path d="M0 0 C1.30130809 0.66941828 2.60464408 1.33491181 3.91015625 1.99609375 C18.58168747 9.64553454 28.91408326 20.15454386 34 36 C37.84214061 49.53818642 38.61069365 61.80931483 31.75 74.625 C27.04269174 82.44224165 21.52781528 89.75107008 16 97 C17.41539062 97.52787109 17.41539062 97.52787109 18.859375 98.06640625 C42.71980043 107.14805606 56.59737624 120.72674858 67.7265625 143.5390625 C76.65384348 164.16055949 78.11545506 193.933332 70 215 C69.48307839 216.49910644 68.96893413 217.99917239 68.45703125 219.5 C60.97769056 240.73301718 46.05834981 254.95262328 26.125 265 C14.73748827 270.8636537 9.2032688 278.97946107 3 290 C2.53158691 290.82516113 2.06317383 291.65032227 1.58056641 292.50048828 C-7.06410332 306.50701207 -7.06410332 306.50701207 -11 322 C-11 323.32 -11 324.64 -11 326 C-12.32 326.33 -13.64 326.66 -15 327 C-15.19142578 327.81404297 -15.19142578 327.81404297 -15.38671875 328.64453125 C-17.02957756 334.95436475 -19.08425575 341.22823913 -21.875 347.125 C-26.27360167 356.62039408 -29.16629807 366.94411971 -32 377 C-32.33 377.99 -32.66 378.98 -33 380 C-30.69 380 -28.38 380 -26 380 C-26.33 381.65 -26.66 383.3 -27 385 C-29.64 385 -32.28 385 -35 385 C-35.04898437 385.67804688 -35.09796875 386.35609375 -35.1484375 387.0546875 C-35.74342068 394.4612023 -36.47208247 401.86563493 -39.0625 408.875 C-41.01164623 415.3721541 -41.61396814 422.38637115 -40 429 C-40.99 429.66 -41.98 430.32 -43 431 C-43.81412684 433.4330363 -43.81412684 433.4330363 -44.24609375 436.3125 C-44.44396484 437.38886719 -44.64183594 438.46523438 -44.84570312 439.57421875 C-45.04099609 440.70472656 -45.23628906 441.83523438 -45.4375 443 C-49.22989308 464.78391446 -49.22989308 464.78391446 -57 471 C-66.44624407 477.11235468 -85.32034296 472.29869958 -96 471.0625 C-120.34890152 468.24806943 -144.59771436 467.8536284 -169.09243441 467.93153763 C-172.737022 467.94171995 -176.38161581 467.94506527 -180.0262146 467.94897461 C-189.22582408 467.95992809 -198.42540751 467.97954653 -207.625 468 C-217.62672133 468.02212777 -227.62843313 468.04260677 -237.63017404 468.05341816 C-241.94713815 468.05837568 -246.26405464 468.06819296 -250.58099961 468.08184814 C-252.61196969 468.08751834 -254.64292798 468.09088903 -256.67390442 468.0932312 C-259.14251942 468.0960932 -261.611134 468.10254357 -264.07972717 468.11331177 C-265.71869713 468.11341751 -265.71869713 468.11341751 -267.39077759 468.11352539 C-268.80690558 468.11685631 -268.80690558 468.11685631 -270.25164223 468.12025452 C-273.23399139 467.9897617 -276.06449169 467.5292557 -279 467 C-280.49673667 466.88773291 -281.99598066 466.80375895 -283.49609375 466.75390625 C-284.30240234 466.72103516 -285.10871094 466.68816406 -285.93945312 466.65429688 C-287.60077762 466.59324742 -289.26224387 466.53593716 -290.92382812 466.48242188 C-297.58338448 466.20073274 -304.56925597 465.56629577 -309.78515625 460.9453125 C-312.14433662 457.16758959 -312.1904784 452.69997869 -312.640625 448.3515625 C-312.91034355 444.93696208 -312.91034355 444.93696208 -314 441.5 C-314.96510428 438.12213504 -315.43219451 434.98029581 -315.875 431.5 C-316.71995599 425.25780578 -318.15950055 419.38941967 -319.859375 413.33203125 C-321.56175346 407.07952369 -322.83678813 400.72412741 -324.16137695 394.38305664 C-325.16383821 389.63757771 -326.25789061 384.95359067 -327.5625 380.28125 C-328.7715686 375.94756581 -329.68432857 371.68482308 -330.4375 367.25 C-331.60889739 360.62764732 -333.2322095 354.21088773 -335.02734375 347.7265625 C-336.30507772 342.831148 -337.26795232 337.89866668 -338.19140625 332.92578125 C-338.78245528 329.87790901 -339.54674292 326.89974311 -340.33984375 323.8984375 C-342.97031691 313.52317732 -344.64387219 302.92322665 -346.52050781 292.39135742 C-347.02880797 289.5476047 -347.54523278 286.70541454 -348.0625 283.86328125 C-348.21259521 283.00680496 -348.36269043 282.15032867 -348.51733398 281.26789856 C-350.4548491 270.45229114 -350.4548491 270.45229114 -355.7421875 261.0078125 C-356.2487085 260.37166016 -356.75522949 259.73550781 -357.27709961 259.08007812 C-357.80440674 258.43490234 -358.33171387 257.78972656 -358.875 257.125 C-363.62044612 251.03431569 -367.42343703 245.34320447 -370 238 C-370.43828125 236.76636719 -370.8765625 235.53273438 -371.328125 234.26171875 C-374.26935626 225.62250704 -376.20511888 217.12021495 -377 208 C-377.11859375 206.9171875 -377.2371875 205.834375 -377.359375 204.71875 C-378.47043866 186.42893281 -368.0049234 165.23006133 -356.30859375 151.52734375 C-355.54675781 150.69332031 -354.78492188 149.85929688 -354 149 C-353.53996582 148.49227051 -353.07993164 147.98454102 -352.60595703 147.46142578 C-344.90363823 139.06093629 -336.90255301 132.6042055 -327 127 C-326.28569824 126.58621094 -325.57139648 126.17242187 -324.83544922 125.74609375 C-307.74188042 115.92178228 -290.21767293 110.90323106 -271 107 C-271.41572266 105.82244141 -271.41572266 105.82244141 -271.83984375 104.62109375 C-272.38318359 103.04521484 -272.38318359 103.04521484 -272.9375 101.4375 C-273.29714844 100.40496094 -273.65679687 99.37242187 -274.02734375 98.30859375 C-278.46228619 83.22266505 -277.3298615 66.05985523 -270.046875 52.1875 C-256.04934493 26.87835911 -229.46150057 15.3449884 -203 7 C-197.38714648 5.38480647 -191.72678882 4.13579319 -186 3 C-184.97132813 2.77570312 -183.94265625 2.55140625 -182.8828125 2.3203125 C-164.7654807 -1.26387509 -142.35767577 -0.34854736 -126.4375 9.6015625 C-118.60350455 15.39766048 -112.84379435 22.60706601 -108 31 C-107.6596875 29.63875 -107.6596875 29.63875 -107.3125 28.25 C-105.75028538 24.38165904 -104.39884636 23.36441486 -101 21 C-99.83001479 20.12944229 -98.66371394 19.25392319 -97.5 18.375 C-96.46552734 17.60929687 -96.46552734 17.60929687 -95.41015625 16.828125 C-93.62369034 15.47307468 -91.86457605 14.08180098 -90.12109375 12.671875 C-82.25030473 6.33114075 -74.20497567 1.19554604 -65 -3 C-63.29070312 -3.79470703 -63.29070312 -3.79470703 -61.546875 -4.60546875 C-41.58548514 -12.31782392 -18.42794839 -10.35869298 0 0 Z " transform="translate(454,29)" style="fill: #DE962E;"/><path d="M0 0 C1.40934814 0.01740234 1.40934814 0.01740234 2.84716797 0.03515625 C7.20305402 0.26661742 9.92545375 0.60010359 13.609375 3.03515625 C15.75 5.5625 15.75 5.5625 17.68359375 8.33203125 C24.66430668 18.1499756 40.13357195 25.45356966 51.625 28.0625 C65.49501863 29.69109705 76.51024491 27.83889436 88.625 21.0625 C90.28789063 20.15371094 90.28789063 20.15371094 91.984375 19.2265625 C93.86645705 18.18800427 95.73628065 17.12651508 97.5859375 16.03125 C98.25882812 15.7115625 98.93171875 15.391875 99.625 15.0625 C100.285 15.3925 100.945 15.7225 101.625 16.0625 C100.91537109 16.97515625 100.91537109 16.97515625 100.19140625 17.90625 C91.33781386 29.64200599 83.3331401 43.04683765 78.375 56.9375 C77.87226562 58.32582031 77.87226562 58.32582031 77.359375 59.7421875 C76.52441806 61.97467053 76.52441806 61.97467053 76.625 64.0625 C76.625 65.3825 76.625 66.7025 76.625 68.0625 C75.305 68.3925 73.985 68.7225 72.625 69.0625 C72.49738281 69.60519531 72.36976563 70.14789063 72.23828125 70.70703125 C70.59542244 77.01686475 68.54074425 83.29073913 65.75 89.1875 C61.35139833 98.68289408 58.45870193 109.00661971 55.625 119.0625 C55.295 120.0525 54.965 121.0425 54.625 122.0625 C56.935 122.0625 59.245 122.0625 61.625 122.0625 C61.295 123.7125 60.965 125.3625 60.625 127.0625 C57.985 127.0625 55.345 127.0625 52.625 127.0625 C52.57601563 127.74054688 52.52703125 128.41859375 52.4765625 129.1171875 C51.88157932 136.5237023 51.15291753 143.92813493 48.5625 150.9375 C46.61335377 157.4346541 46.01103186 164.44887115 47.625 171.0625 C46.14 172.0525 46.14 172.0525 44.625 173.0625 C43.81087316 175.4955363 43.81087316 175.4955363 43.37890625 178.375 C43.18103516 179.45136719 42.98316406 180.52773438 42.77929688 181.63671875 C42.58400391 182.76722656 42.38871094 183.89773438 42.1875 185.0625 C38.39510692 206.84641446 38.39510692 206.84641446 30.625 213.0625 C21.17875593 219.17485468 2.30465704 214.36119958 -8.375 213.125 C-32.72390152 210.31056943 -56.97271436 209.9161284 -81.46743441 209.99403763 C-85.112022 210.00421995 -88.75661581 210.00756527 -92.4012146 210.01147461 C-101.60082408 210.02242809 -110.80040751 210.04204653 -120 210.0625 C-130.00172133 210.08462777 -140.00343313 210.10510677 -150.00517404 210.11591816 C-154.32213815 210.12087568 -158.63905464 210.13069296 -162.95599961 210.14434814 C-164.98696969 210.15001834 -167.01792798 210.15338903 -169.04890442 210.1557312 C-171.51751942 210.1585932 -173.986134 210.16504357 -176.45472717 210.17581177 C-178.09369713 210.17591751 -178.09369713 210.17591751 -179.76577759 210.17602539 C-181.18190558 210.17935631 -181.18190558 210.17935631 -182.62664223 210.18275452 C-185.60899139 210.0522617 -188.43949169 209.5917557 -191.375 209.0625 C-192.87173667 208.95023291 -194.37098066 208.86625895 -195.87109375 208.81640625 C-197.08055664 208.76709961 -197.08055664 208.76709961 -198.31445312 208.71679688 C-199.97577762 208.65574742 -201.63724387 208.59843716 -203.29882812 208.54492188 C-209.95838448 208.26323274 -216.94425597 207.62879577 -222.16015625 203.0078125 C-224.51933662 199.23008959 -224.5654784 194.76247869 -225.015625 190.4140625 C-225.28534355 186.99946208 -225.28534355 186.99946208 -226.375 183.5625 C-227.34010428 180.18463504 -227.80719451 177.04279581 -228.25 173.5625 C-229.09495599 167.32030578 -230.53450055 161.45191967 -232.234375 155.39453125 C-233.93675346 149.14202369 -235.21178813 142.78662741 -236.53637695 136.44555664 C-237.53883821 131.70007771 -238.63289061 127.01609067 -239.9375 122.34375 C-241.1465686 118.01006581 -242.05932857 113.74732308 -242.8125 109.3125 C-243.98389739 102.69014732 -245.6072095 96.27338773 -247.40234375 89.7890625 C-248.68007772 84.893648 -249.64295232 79.96116668 -250.56640625 74.98828125 C-251.1570967 71.9451849 -251.91725693 68.96994089 -252.70703125 65.97265625 C-255.11233504 56.47827023 -256.73821112 46.8171136 -258.5 37.1875 C-258.86294725 35.22129248 -259.22622609 33.25514615 -259.58984375 31.2890625 C-262.38488769 16.14285262 -262.38488769 16.14285262 -263.375 10.0625 C-262.4675 10.866875 -261.56 11.67125 -260.625 12.5 C-259.21395664 13.69417642 -257.79647634 14.88076158 -256.375 16.0625 C-255.52550781 16.7740625 -254.67601562 17.485625 -253.80078125 18.21875 C-239.81050132 29.36516675 -223.40409713 36.01543455 -205.375 34.0625 C-182.13388686 30.44984337 -159.55215508 24.19929296 -138.24194336 14.14453125 C-134.93531941 12.60315874 -133.12508198 12.0625 -129.375 12.0625 C-126.86035156 13.18823242 -126.86035156 13.18823242 -124.015625 14.73046875 C-117.24409175 18.22827197 -110.3055936 20.8463501 -103.125 23.375 C-101.91070312 23.81650391 -100.69640625 24.25800781 -99.4453125 24.71289062 C-93.41758032 26.8567409 -87.78867744 28.82444409 -81.375 29.0625 C-80.37774902 29.1049585 -79.38049805 29.14741699 -78.35302734 29.19116211 C-74.79692718 29.3049026 -71.24525182 29.34656831 -67.6875 29.375 C-65.90182617 29.41850586 -65.90182617 29.41850586 -64.08007812 29.46289062 C-45.51148388 29.59415312 -31.90969486 22.01955499 -18.85986328 9.57055664 C-17.31619262 8.0454472 -17.31619262 8.0454472 -15.82373047 6.19311523 C-11.05993307 0.70542806 -7.14965881 -0.1625211 0 0 Z " transform="translate(366.375,286.9375)" style="fill: #E9CB62;"/><path d="M0 0 C0.80953125 0.57105469 1.6190625 1.14210937 2.453125 1.73046875 C11.66549852 8.28813158 19.3836584 18.1350082 21.69921875 29.40234375 C21.79847656 30.25957031 21.89773438 31.11679688 22 32 C51.03378688 31.19125942 74.81042067 27.04088569 95.50390625 5.37890625 C96.64507954 4.04237553 97.76274487 2.68467577 98.8359375 1.29296875 C99.41214844 0.65294922 99.41214844 0.65294922 100 0 C100.66 0 101.32 0 102 0 C102.26296875 -0.53238281 102.5259375 -1.06476563 102.796875 -1.61328125 C104.24802013 -4.49201396 105.71628239 -7.35150416 107.25 -10.1875 C107.81203125 -11.25355469 108.3740625 -12.31960937 108.953125 -13.41796875 C111 -16 111 -16 113.90234375 -17.02734375 C117.52643396 -16.99535304 119.22412578 -16.2325999 122.3125 -14.375 C123.25351562 -13.82328125 124.19453125 -13.2715625 125.1640625 -12.703125 C126.56785156 -11.86007813 126.56785156 -11.86007813 128 -11 C129.72559835 -10.03525626 131.4544379 -9.07627068 133.1875 -8.125 C134.45858156 -7.4171122 135.72951673 -6.70896103 137 -6 C136.38645354 -2.72044808 135.23162077 -0.72338769 133.25 1.9375 C126.29067152 12.26050392 123.85883725 24.00524539 121.14257812 35.97851562 C119.74198477 42.12961465 118.0745074 48.0457718 116 54 C109.27741595 74.32673218 116.37563265 96.86755426 125.19140625 115.4921875 C127.41353844 119.80206808 129.88332327 123.86056075 132.6171875 127.86328125 C134 130 134 130 135 133 C133.73027344 132.82597656 132.46054687 132.65195312 131.15234375 132.47265625 C121.62020291 131.44610643 121.62020291 131.44610643 112.7578125 134.359375 C108.59945327 137.8963702 105.14471273 142.0675362 101.61816406 146.21826172 C94.03083348 154.57256748 80.25560978 160.59531325 69.03662109 161.14526367 C65.48265143 161.16999203 61.92906217 161.18565852 58.375 161.1875 C56.54388672 161.20586914 56.54388672 161.20586914 54.67578125 161.22460938 C42.35212711 161.24437994 32.09006437 159.00740431 20.5625 154.75 C19.46591064 154.35176025 18.36932129 153.95352051 17.23950195 153.54321289 C10.61222882 151.09493662 4.29463118 148.47583293 -1.86328125 144.99609375 C-4.21131955 143.71831827 -4.21131955 143.71831827 -8 144 C-10.10648525 144.81229214 -10.10648525 144.81229214 -12.375 146 C-26.25872903 152.53242478 -41.05437987 157.56826599 -56 161 C-57.33417969 161.31928467 -57.33417969 161.31928467 -58.6953125 161.64501953 C-78.35073175 166.30929201 -94.30885486 168.97195163 -113 160 C-114.05960938 159.49339844 -115.11921875 158.98679687 -116.2109375 158.46484375 C-133.95580297 148.98694316 -150.52714638 130.09759292 -157 111 C-157.43570313 109.77023437 -157.87140625 108.54046875 -158.3203125 107.2734375 C-161.26957991 98.63166565 -163.20469969 90.12502461 -164 81 C-164.11859375 79.9171875 -164.2371875 78.834375 -164.359375 77.71875 C-165.47043866 59.42893281 -155.0049234 38.23006133 -143.30859375 24.52734375 C-142.54675781 23.69332031 -141.78492188 22.85929687 -141 22 C-140.53996582 21.49227051 -140.07993164 20.98454102 -139.60595703 20.46142578 C-131.90363823 12.06093629 -123.90255301 5.6042055 -114 0 C-113.28569824 -0.41378906 -112.57139648 -0.82757813 -111.83544922 -1.25390625 C-100.31749516 -7.87370399 -88.84685739 -12.63699359 -76 -16 C-74.74960938 -16.33902344 -73.49921875 -16.67804688 -72.2109375 -17.02734375 C-44.59381887 -23.55557332 -22.20533362 -16.54568151 0 0 Z " transform="translate(241,156)" style="fill: #C59D8C;"/><path d="M0 0 C6.50045265 5.50221129 11.42767415 11.8243532 15.9609375 19 C16.34507812 19.556875 16.72921875 20.11375 17.125 20.6875 C17.455 20.6875 17.785 20.6875 18.125 20.6875 C18.24875 21.76 18.3725 22.8325 18.5 23.9375 C19.04544086 27.21014516 19.63423081 28.85910866 21.125 31.6875 C30.27746237 53.40520732 30.24385278 79.5726417 22.125 101.6875 C20.28199118 105.7187033 17.90214912 109.23879844 15.125 112.6875 C14.465 113.6775 13.805 114.6675 13.125 115.6875 C12.465 115.6875 11.805 115.6875 11.125 115.6875 C10.86847656 116.26886719 10.61195313 116.85023438 10.34765625 117.44921875 C4.72041353 127.75084839 -7.90734504 135.17280377 -17.875 140.6875 C-18.71160156 141.19539062 -19.54820312 141.70328125 -20.41015625 142.2265625 C-25.50326967 144.37405339 -30.67599861 145.0256576 -36.125 145.8125 C-37.27274902 145.98426758 -38.42049805 146.15603516 -39.60302734 146.33300781 C-49.01710618 147.68632271 -58.37185627 148.44194073 -67.875 148.6875 C-68.184375 146.8003125 -68.184375 146.8003125 -68.5 144.875 C-71.18976858 132.97650982 -78.8316027 122.67103375 -89.0625 116.1875 C-89.99320313 115.63449219 -90.92390625 115.08148438 -91.8828125 114.51171875 C-94.60661951 112.85112101 -97.18878506 111.06561443 -99.77319336 109.19750977 C-114.19598319 98.81995599 -128.59863167 97.45713892 -145.875 96.6875 C-152.51284861 81.54289395 -155.09490416 63.79455937 -149.328125 47.875 C-138.01543939 23.06007673 -117.54408338 9.94165239 -92.77075195 0.48510742 C-82.61450115 -3.27021117 -72.4907554 -6.20707878 -61.875 -8.3125 C-60.84632813 -8.53679688 -59.81765625 -8.76109375 -58.7578125 -8.9921875 C-39.85750985 -12.73127176 -15.89030379 -11.75667747 0 0 Z " transform="translate(329.875,40.3125)" style="fill: #F5DC61;"/><path d="M0 0 C0.73605469 0.42023438 1.47210938 0.84046875 2.23046875 1.2734375 C4.0313765 2.30252764 5.82857318 3.33810756 7.625 4.375 C6.88996202 7.6449005 5.88348193 9.61554359 3.875 12.3125 C-3.08432848 22.63550392 -5.51616275 34.38024539 -8.23242188 46.35351562 C-9.63301523 52.50461465 -11.3004926 58.4207718 -13.375 64.375 C-20.09758405 84.70173218 -12.99936735 107.24255426 -4.18359375 125.8671875 C-1.96146156 130.17706808 0.50832327 134.23556075 3.2421875 138.23828125 C4.625 140.375 4.625 140.375 5.625 143.375 C4.35527344 143.20097656 3.08554687 143.02695312 1.77734375 142.84765625 C-7.75479709 141.82110643 -7.75479709 141.82110643 -16.6171875 144.734375 C-20.77554673 148.2713702 -24.23028727 152.4425362 -27.75683594 156.59326172 C-35.34416652 164.94756748 -49.11939022 170.97031325 -60.33837891 171.52026367 C-63.89234857 171.54499203 -67.44593783 171.56065852 -71 171.5625 C-72.22074219 171.57474609 -73.44148438 171.58699219 -74.69921875 171.59960938 C-87.02109672 171.61937709 -97.28725137 169.3857318 -108.8125 165.125 C-109.90763916 164.72385986 -111.00277832 164.32271973 -112.13110352 163.90942383 C-132.13253708 156.47094809 -132.13253708 156.47094809 -134.66015625 152.20703125 C-134.89605469 151.60246094 -135.13195312 150.99789062 -135.375 150.375 C-134.50875 149.859375 -133.6425 149.34375 -132.75 148.8125 C-128.8976781 146.22917826 -126.17097615 143.0447187 -123.375 139.375 C-122.941875 138.82457031 -122.50875 138.27414062 -122.0625 137.70703125 C-107.37213452 116.91098262 -108.09647098 79.72489257 -108.375 55.5625 C-108.4003517 53.26436832 -108.42143792 50.96618413 -108.4375 48.66796875 C-108.44910156 47.6730542 -108.46070313 46.67813965 -108.47265625 45.65307617 C-108.375 43.375 -108.375 43.375 -107.375 42.375 C-105.77203721 42.27791612 -104.16825263 42.18913813 -102.56323242 42.13598633 C-75.03230936 41.18424545 -53.32456233 36.11783357 -33.87109375 15.75390625 C-32.72992046 14.41737553 -31.61225513 13.05967577 -30.5390625 11.66796875 C-30.15492188 11.24128906 -29.77078125 10.81460938 -29.375 10.375 C-28.715 10.375 -28.055 10.375 -27.375 10.375 C-27.11460937 9.84261719 -26.85421875 9.31023437 -26.5859375 8.76171875 C-25.11733608 5.86715272 -23.58136799 3.02222297 -22 0.1875 C-21.41476562 -0.87855469 -20.82953125 -1.94460937 -20.2265625 -3.04296875 C-18.375 -5.625 -18.375 -5.625 -16.5234375 -6.61328125 C-10.41188993 -6.64661696 -5.12322576 -2.96461527 0 0 Z " transform="translate(370.375,145.625)" style="fill: #DE80CE;"/><path d="M0 0 C1.30130809 0.66941828 2.60464408 1.33491181 3.91015625 1.99609375 C18.58168747 9.64553454 28.91408326 20.15454386 34 36 C37.84214061 49.53818642 38.61069365 61.80931483 31.75 74.625 C29.27626986 78.73302633 26.56400677 82.67812779 23.75390625 86.5625 C22.61905414 88.1396664 21.51961504 89.74319098 20.46484375 91.375 C17.90948742 95.19099879 16.86224616 96.75155619 12.3125 98.0625 C9 98 9 98 6 97 C4.03026154 97.07259965 2.06305504 97.22383646 0.1015625 97.41796875 C-1.09017578 97.53575684 -2.28191406 97.65354492 -3.50976562 97.77490234 C-4.78529297 97.91105957 -6.06082031 98.0472168 -7.375 98.1875 C-8.67888672 98.32623535 -9.98277344 98.4649707 -11.32617188 98.60791016 C-36.27842027 101.34643148 -56.18460207 105.47454661 -75 123 C-75.495 122.01 -75.495 122.01 -76 121 C-77.65941807 120.31549004 -79.32778618 119.65262789 -81 119 C-84.05614559 117.24027787 -87.05667588 115.40272819 -90.0625 113.55859375 C-92.84581906 112.08180611 -94.88175516 111.30023641 -98 111 C-99.485 111.495 -99.485 111.495 -101 112 C-102.32604207 108.66404511 -101.67885421 106.38184778 -100.66357422 103.02832031 C-94.86490603 83.46075927 -95.98720869 60.78956808 -104 42 C-104.66 41.01 -105.32 40.02 -106 39 C-106.91907243 34.64589438 -107.3081702 30.44325402 -107 26 C-104.81804285 23.3704619 -103.82345928 22.54873294 -101 21 C-99.8002953 20.12057846 -98.61354982 19.22331306 -97.4375 18.3125 C-96.756875 17.81105469 -96.07625 17.30960938 -95.375 16.79296875 C-93.60004965 15.45299801 -91.85448655 14.07393954 -90.125 12.67578125 C-82.25351045 6.33280796 -74.20670896 1.19633606 -65 -3 C-63.86046875 -3.52980469 -62.7209375 -4.05960938 -61.546875 -4.60546875 C-41.58548514 -12.31782392 -18.42794839 -10.35869298 0 0 Z " transform="translate(454,29)" style="fill: #E44441;"/><path d="M0 0 C3.24435205 2.16707685 4.95642675 4.12883993 7.1328125 7.34375 C9.1787429 10.2542786 11.15542047 11.64897155 14.125 13.5625 C16.3671875 15.2578125 16.3671875 15.2578125 18 17 C18.23349768 20.67758843 17.90987809 22.52987984 17 26 C16.60702167 28.02846169 16.24704917 30.06162175 15.88574219 32.09594727 C14.99372755 37.07711509 13.9997925 42.03949105 13 47 C12.34 47 11.68 47 11 47 C10.81824219 48.95292969 10.81824219 48.95292969 10.6328125 50.9453125 C10.46390615 52.6719107 10.29461499 54.39847128 10.125 56.125 C10.04636719 56.9809375 9.96773438 57.836875 9.88671875 58.71875 C9.41267297 63.45920784 8.51306366 67.47231519 7 72 C6.35880925 75.67214061 5.89889616 79.36400699 5.4375 83.0625 C5.18757742 85.01189611 4.9363199 86.96112163 4.68359375 88.91015625 C4.57587646 89.76746338 4.46815918 90.62477051 4.35717773 91.50805664 C3.99582372 94.02913689 3.52232224 96.50774486 3 99 C2.34 99 1.68 99 1 99 C1.0825 100.010625 1.165 101.02125 1.25 102.0625 C1.2992699 108.87406325 -1.10805762 115.51334039 -3 122 C-5.31258946 122.02801252 -7.62481388 122.04729925 -9.9375 122.0625 C-11.22527344 122.07410156 -12.51304687 122.08570313 -13.83984375 122.09765625 C-18.15381595 122.06569423 -22.44611039 121.80556521 -26.75 121.53125 C-36.84788101 120.89480703 -46.94847289 120.66237854 -57.0625 120.4375 C-58.9121158 120.39415343 -60.76172525 120.35053504 -62.61132812 120.30664062 C-67.07415209 120.20130721 -71.53704463 120.09960381 -76 120 C-76.84447523 117.06442707 -77.12209423 114.46554711 -77.11352539 111.41503906 C-77.11344986 110.51440735 -77.11337433 109.61377563 -77.11329651 108.68585205 C-77.10813522 107.72217712 -77.10297394 106.7585022 -77.09765625 105.765625 C-77.0962413 104.77246277 -77.09482635 103.77930054 -77.09336853 102.75604248 C-77.08777588 99.58733088 -77.0752247 96.41869021 -77.0625 93.25 C-77.05748405 91.10026144 -77.05292131 88.95052177 -77.04882812 86.80078125 C-77.03780885 81.53382688 -77.02054923 76.26692546 -77 71 C-71.06 70.67 -65.12 70.34 -59 70 C-64.61 69.34 -70.22 68.68 -76 68 C-76 55.46 -76 42.92 -76 30 C-70.39 29.01 -64.78 28.02 -59 27 C-47.95207878 23.45497248 -37.7309083 18.099637 -30.46484375 8.82421875 C-22.37875148 -1.10364916 -12.53790483 -3.53842105 0 0 Z " transform="translate(377,288)" style="fill: #D2AF33;"/><path d="M0 0 C0.33 0.66 0.66 1.32 1 2 C16.84 2.33 32.68 2.66 49 3 C49 18.18 49 33.36 49 49 C32.665 49.495 32.665 49.495 16 50 C15.34 51.98 14.68 53.96 14 56 C14.99 56 15.98 56 17 56 C17 56.66 17 57.32 17 58 C17.6798999 57.99476318 18.3597998 57.98952637 19.06030273 57.98413086 C22.18602549 57.96314929 25.31173335 57.95027313 28.4375 57.9375 C29.50677734 57.92912109 30.57605469 57.92074219 31.67773438 57.91210938 C37.87165119 57.89316773 43.86771437 58.09315735 50 59 C52.15708507 61.15708507 51.74954171 65.63914605 52.0625 68.625 C52.15337891 69.40101563 52.24425781 70.17703125 52.33789062 70.9765625 C53.16736809 78.75992999 53 86.02961448 53 94 C40.46 94 27.92 94 15 94 C15 91.69 15 89.38 15 87 C14.34 87 13.68 87 13 87 C11.77482692 81.33357449 11.90771133 75.76291482 12 70 C11.34 70 10.68 70 10 70 C9.31639332 66.25288996 8.6563727 62.50196829 8 58.75 C7.80921875 57.70585937 7.6184375 56.66171875 7.421875 55.5859375 C6.16627679 48.32140501 5.76203674 41.36694583 6 34 C5.34 34 4.68 34 4 34 C2.56205146 25.92437827 1.70400628 18.2056037 2 10 C1.34 10 0.68 10 0 10 C0 6.7 0 3.4 0 0 Z " transform="translate(132,355)" style="fill: #D2AF34;"/><path d="M0 0 C0.80953125 0.57105469 1.6190625 1.14210937 2.453125 1.73046875 C11.85430232 8.42252818 19.63857229 18.20782845 21.6640625 29.80078125 C21.94680911 33.88445018 22.01992875 37.90986058 22 42 C22.02190003 43.43494198 22.04666299 44.86984299 22.07421875 46.3046875 C22.20433349 55.25032784 21.79110125 64.08598415 21 73 C20.67 73 20.34 73 20 73 C19.98018066 72.29617187 19.96036133 71.59234375 19.93994141 70.8671875 C19.98458268 40.46389408 19.98458268 40.46389408 7 14 C5.89914063 14.30421875 4.79828125 14.6084375 3.6640625 14.921875 C-2.60977635 15.700925 -6.78765764 11.78180962 -11.625 8.25 C-13.44851397 6.96069857 -15.27398263 5.67415653 -17.1015625 4.390625 C-17.95451904 3.79032471 -18.80747559 3.19002441 -19.6862793 2.5715332 C-33.77856229 -7.00027492 -55.61235938 -5.65962574 -71.77832031 -2.92138672 C-91.54832562 0.9490351 -111.65906094 8.67985255 -127 22 C-127.80824219 22.66515625 -128.61648437 23.3303125 -129.44921875 24.015625 C-140.22609999 33.19165252 -147.3156943 44.114592 -153 57 C-153.43570313 57.95261719 -153.87140625 58.90523438 -154.3203125 59.88671875 C-160.10122625 74.3794291 -157.84376025 91.2746594 -152.02392578 105.36279297 C-148.16583772 114.30235019 -144.08622391 122.36792071 -138 130 C-137.27296875 130.94746094 -136.5459375 131.89492188 -135.796875 132.87109375 C-126.63893267 144.35347564 -117.2019832 153.20059134 -103.125 157.75 C-102.15312744 158.06662598 -102.15312744 158.06662598 -101.16162109 158.38964844 C-92.51834936 161.00387863 -84.21456881 161.33422412 -75.3125 160.0625 C-74.39549316 159.93407715 -73.47848633 159.8056543 -72.53369141 159.67333984 C-63.85877961 158.33643812 -55.37058195 156.29680769 -46.875 154.125 C-46.2228653 153.9604129 -45.57073059 153.79582581 -44.89883423 153.62625122 C-36.25796912 151.42576555 -28.11727997 148.68981013 -20 145 C-19.28682617 144.68015137 -18.57365234 144.36030273 -17.83886719 144.03076172 C-2.47511065 136.91586985 6.08173062 127.32911 13 112 C13.66 111.01 14.32 110.02 15 109 C14.22987988 120.80850856 6.51808673 131.20721571 -2 139 C-2.99 139.33 -3.98 139.66 -5 140 C-5.76570312 140.78761719 -6.53140625 141.57523438 -7.3203125 142.38671875 C-11.97360347 146.92469493 -18.02494414 148.71323413 -24 151 C-25.17151611 151.4626123 -25.17151611 151.4626123 -26.36669922 151.93457031 C-49.91328925 161.14386249 -82.7267628 172.6472977 -107.32958984 162.61499023 C-109.23747476 161.77657632 -111.12131955 160.90178692 -113 160 C-114.05960938 159.49339844 -115.11921875 158.98679687 -116.2109375 158.46484375 C-133.95580297 148.98694316 -150.52714638 130.09759292 -157 111 C-157.43570313 109.77023437 -157.87140625 108.54046875 -158.3203125 107.2734375 C-161.26957991 98.63166565 -163.20469969 90.12502461 -164 81 C-164.11859375 79.9171875 -164.2371875 78.834375 -164.359375 77.71875 C-165.47043866 59.42893281 -155.0049234 38.23006133 -143.30859375 24.52734375 C-142.54675781 23.69332031 -141.78492188 22.85929687 -141 22 C-140.53996582 21.49227051 -140.07993164 20.98454102 -139.60595703 20.46142578 C-131.90363823 12.06093629 -123.90255301 5.6042055 -114 0 C-113.28569824 -0.41378906 -112.57139648 -0.82757813 -111.83544922 -1.25390625 C-100.31749516 -7.87370399 -88.84685739 -12.63699359 -76 -16 C-74.74960938 -16.33902344 -73.49921875 -16.67804688 -72.2109375 -17.02734375 C-44.59381887 -23.55557332 -22.20533362 -16.54568151 0 0 Z " transform="translate(241,156)" style="fill: #A07B6C;"/><path d="M0 0 C2.58624185 0.00534197 5.17230843 0.00003024 7.75854492 -0.00634766 C18.46987931 -0.01016917 29.10382671 0.36927046 39.7878418 1.13037109 C39.14775398 7.3966385 38.26604111 13.55985545 37.15893555 19.75927734 C37.00497818 20.63438461 36.85102081 21.50949188 36.69239807 22.41111755 C36.2060259 25.17217696 35.71575343 27.93252661 35.2253418 30.69287109 C34.89240003 32.57889302 34.55971534 34.46496034 34.22729492 36.35107422 C33.41711235 40.94470295 32.60343411 45.53769991 31.7878418 50.13037109 C24.06488861 50.18113078 16.34197855 50.21612987 8.61889648 50.24023438 C5.99225253 50.25028448 3.36561973 50.26392669 0.73901367 50.28125 C-3.03900918 50.30554137 -6.81688393 50.31686428 -10.5949707 50.32568359 C-11.76706085 50.33600616 -12.939151 50.34632874 -14.14675903 50.35696411 C-24.2242671 50.35834718 -24.2242671 50.35834718 -29.2121582 48.13037109 C-31.53213147 16.73977542 -31.53213147 16.73977542 -31.2121582 1.13037109 C-20.7909352 0.18621324 -10.45620096 -0.02559658 0 0 Z " transform="translate(333.212158203125,410.86962890625)" style="fill: #D2AF34;"/><path d="M0 0 C0.80566406 0.6703125 1.61132812 1.340625 2.44140625 2.03125 C17.68792203 15.96546787 28.00152265 37.41600545 29 58 C29.10495906 63.99993827 29.05882553 69.99979638 29 76 C28.67 76 28.34 76 28 76 C27.93006836 75.4423999 27.86013672 74.8847998 27.78808594 74.31030273 C24.92237534 51.88450476 20.48554465 33.98726762 6 16 C5.20851563 14.98808594 4.41703125 13.97617188 3.6015625 12.93359375 C-5.6176301 2.53777747 -20.21115982 -4.63537328 -34 -6 C-40.36953521 -6.26761418 -46.51354216 -5.73235731 -52.8125 -4.8125 C-54.16468628 -4.61611938 -54.16468628 -4.61611938 -55.54418945 -4.41577148 C-72.48218697 -1.81298501 -89.86638229 1.38912058 -103 13 C-103.6909375 13.6084375 -104.381875 14.216875 -105.09375 14.84375 C-112.64483472 21.93015258 -118.66458556 30.90738637 -121.40185547 40.93066406 C-122.6169211 45.13429521 -124.113941 49.24735354 -125.5625 53.375 C-125.87896484 54.28894531 -126.19542969 55.20289063 -126.52148438 56.14453125 C-126.9768457 57.44583984 -126.9768457 57.44583984 -127.44140625 58.7734375 C-127.85434937 59.95558838 -127.85434937 59.95558838 -128.27563477 61.16162109 C-129 63 -129 63 -130 64 C-132.33297433 64.04092937 -134.66705225 64.04241723 -137 64 C-139.34445719 70.06075677 -140.52393111 75.37883796 -140.4375 81.875 C-140.42722778 83.09449341 -140.42722778 83.09449341 -140.41674805 84.33862305 C-140.05657176 98.37470645 -136.37212906 112.08470448 -131 125 C-130.59394531 125.97839844 -130.18789063 126.95679688 -129.76953125 127.96484375 C-122.05489773 144.81939499 -109.55105261 159.91618865 -91.875 166.625 C-90.26444114 167.13174905 -88.63893865 167.59432212 -87 168 C-86.27941406 168.185625 -85.55882812 168.37125 -84.81640625 168.5625 C-71.64076994 170.60920079 -59.05893442 169.74433669 -47 164 C-46.36787598 163.70528809 -45.73575195 163.41057617 -45.08447266 163.10693359 C-40.31695604 160.87139727 -35.6458545 158.47724144 -31 156 C-29.83597656 155.38253906 -28.67195313 154.76507813 -27.47265625 154.12890625 C-4.19971266 141.30612748 13.22287658 126.63854362 22.7734375 101.21484375 C23.73351471 98.69846305 24.77454029 96.38773469 26 94 C25.49568238 100.44760496 24.32787901 105.87586077 21.9375 111.875 C21.62659424 112.6580249 21.31568848 113.4410498 20.99536133 114.24780273 C9.99604664 140.80458319 -20.15520379 155.19203786 -44.25 168.0625 C-44.91628418 168.42029541 -45.58256836 168.77809082 -46.26904297 169.14672852 C-54.30562064 173.35776536 -60.96459806 175.56710917 -70.125 175.5 C-71.04861328 175.49355469 -71.97222656 175.48710937 -72.92382812 175.48046875 C-89.54850662 175.04023336 -103.34151512 166.61141725 -115.48828125 155.6640625 C-117 154 -117 154 -117 152 C-117.57234375 151.77441406 -118.1446875 151.54882812 -118.734375 151.31640625 C-133.3582221 142.81944681 -139.4665931 117.95635805 -143.48510742 102.97680664 C-147.18740497 88.76272261 -145.97092785 73.17967568 -140.01171875 59.77734375 C-138.43955267 55.46147471 -137.63777924 50.98745076 -136.6875 46.5 C-132.1772582 26.07932422 -124.57734501 10.45490488 -106.63671875 -1.44140625 C-89.70618833 -11.4492309 -69.15359351 -12.97067619 -50 -15 C-48.53929077 -15.15879639 -48.53929077 -15.15879639 -47.04907227 -15.32080078 C-29.70745586 -17.0788829 -13.35405194 -11.13979034 0 0 Z " transform="translate(499,141)" style="fill: #C38120;"/><path d="M0 0 C6.50045265 5.50221129 11.42767415 11.8243532 15.9609375 19 C16.34507812 19.556875 16.72921875 20.11375 17.125 20.6875 C17.455 20.6875 17.785 20.6875 18.125 20.6875 C18.24875 21.76 18.3725 22.8325 18.5 23.9375 C19.04544086 27.21014516 19.63423081 28.85910866 21.125 31.6875 C30.27746237 53.40520732 30.24385278 79.5726417 22.125 101.6875 C20.28199118 105.7187033 17.90214912 109.23879844 15.125 112.6875 C14.465 113.6775 13.805 114.6675 13.125 115.6875 C12.465 115.6875 11.805 115.6875 11.125 115.6875 C10.86847656 116.26886719 10.61195313 116.85023438 10.34765625 117.44921875 C4.72041353 127.75084839 -7.90734504 135.17280377 -17.875 140.6875 C-18.71160156 141.19539062 -19.54820312 141.70328125 -20.41015625 142.2265625 C-25.50326967 144.37405339 -30.67599861 145.0256576 -36.125 145.8125 C-37.27274902 145.98426758 -38.42049805 146.15603516 -39.60302734 146.33300781 C-49.01710618 147.68632271 -58.37185627 148.44194073 -67.875 148.6875 C-67.875 147.0375 -67.875 145.3875 -67.875 143.6875 C-66.91013672 143.66562622 -66.91013672 143.66562622 -65.92578125 143.64331055 C-41.20473331 143.01955372 -23.95333179 140.29678375 -3.875 124.6875 C-2.92367187 124.00300781 -2.92367187 124.00300781 -1.953125 123.3046875 C10.52237917 113.74776458 18.81592717 95.81360029 21.125 80.6875 C24.27773744 55.2001068 18.62014942 33.16927023 3.125 12.6875 C2.62226563 11.98753906 2.11953125 11.28757812 1.6015625 10.56640625 C-4.4823794 2.6713487 -13.12069818 -1.9440197 -22.875 -3.3125 C-26.77579145 -3.59804224 -30.65227799 -3.64611787 -34.5625 -3.625 C-35.6239624 -3.62081055 -36.6854248 -3.61662109 -37.77905273 -3.61230469 C-45.89107362 -3.49586123 -53.05123785 -2.52335605 -60.875 -0.3125 C-62.06738281 -0.0340625 -63.25976562 0.244375 -64.48828125 0.53125 C-88.3570515 6.28156641 -114.9028634 18.7722725 -129.875 38.6875 C-139.89683663 55.55197719 -137.7799998 73.03840127 -133.25 91.4375 C-132.569375 94.03625 -132.569375 94.03625 -131.875 96.6875 C-136.495 96.6875 -141.115 96.6875 -145.875 96.6875 C-152.40917336 81.44109548 -155.12914723 63.88908954 -149.328125 47.875 C-138.01543939 23.06007673 -117.54408338 9.94165239 -92.77075195 0.48510742 C-82.61450115 -3.27021117 -72.4907554 -6.20707878 -61.875 -8.3125 C-60.84632813 -8.53679688 -59.81765625 -8.76109375 -58.7578125 -8.9921875 C-39.85750985 -12.73127176 -15.89030379 -11.75667747 0 0 Z " transform="translate(329.875,40.3125)" style="fill: #FEBF38;"/><path d="M0 0 C1.30130809 0.66941828 2.60464408 1.33491181 3.91015625 1.99609375 C18.58168747 9.64553454 28.91408326 20.15454386 34 36 C37.84214061 49.53818642 38.61069365 61.80931483 31.75 74.625 C29.27626986 78.73302633 26.56400677 82.67812779 23.75390625 86.5625 C22.61905414 88.1396664 21.51961504 89.74319098 20.46484375 91.375 C17.94979006 95.13081351 16.76274597 96.73698415 12.375 98.25 C9 98 9 98 6.5625 96.5 C4.97865599 93.96584958 4.1808975 92.13271731 4.35546875 89.11328125 C6.16776162 83.17115735 11.1490731 78.29544085 14.984375 73.5390625 C21.63426286 65.21249352 24.10031446 58.72504311 23 48 C22.52150726 45.18038397 21.91732728 42.40558378 21.25 39.625 C21.09329834 38.95927979 20.93659668 38.29355957 20.77514648 37.60766602 C19.58735728 33.07676527 17.78330213 29.74199508 15 26 C14.38511719 25.14148437 13.77023437 24.28296875 13.13671875 23.3984375 C4.37388498 13.56227674 -12.1917543 5.40686602 -25.328125 4.46484375 C-49.39121929 3.6581637 -69.52014595 13.53922146 -88.52978516 27.5871582 C-91.16765796 30.12209176 -91.9287695 32.55480936 -92.5 36.125 C-93 39 -93 39 -95 41 C-97.09375 41.265625 -97.09375 41.265625 -99.5 41.25 C-100.2940625 41.25515625 -101.088125 41.2603125 -101.90625 41.265625 C-104 41 -104 41 -106 39 C-106.94889751 34.65286329 -107.30452361 30.4405079 -107 26 C-104.81804285 23.3704619 -103.82345928 22.54873294 -101 21 C-99.8002953 20.12057846 -98.61354982 19.22331306 -97.4375 18.3125 C-96.756875 17.81105469 -96.07625 17.30960938 -95.375 16.79296875 C-93.60004965 15.45299801 -91.85448655 14.07393954 -90.125 12.67578125 C-82.25351045 6.33280796 -74.20670896 1.19633606 -65 -3 C-63.86046875 -3.52980469 -62.7209375 -4.05960938 -61.546875 -4.60546875 C-41.58548514 -12.31782392 -18.42794839 -10.35869298 0 0 Z " transform="translate(454,29)" style="fill: #C33A38;"/><path d="M0 0 C16.17 0 32.34 0 49 0 C49 16.83 49 33.66 49 51 C32.14336578 51.17468015 15.75461033 50.73336372 -1 49 C-1.02535418 42.66455947 -1.04286866 36.32913203 -1.05493164 29.99365234 C-1.05996052 27.83837393 -1.06678442 25.68309893 -1.07543945 23.52783203 C-1.08756821 20.43000446 -1.09324278 17.33222199 -1.09765625 14.234375 C-1.10281754 13.27070007 -1.10797882 12.30702515 -1.11329651 11.31414795 C-1.11337204 10.41351624 -1.11344757 9.51288452 -1.11352539 8.58496094 C-1.115746 7.79442322 -1.11796661 7.0038855 -1.12025452 6.18939209 C-1 4 -1 4 0 0 Z " transform="translate(189,357)" style="fill: #D2AF33;"/><path d="M0 0 C15.84 0 31.68 0 48 0 C48 16.15237136 48 16.15237136 47.59765625 23.20703125 C47.53462563 24.37234627 47.53462563 24.37234627 47.47032166 25.561203 C47.38227954 27.16826829 47.29232939 28.77523022 47.20043945 30.38208008 C47.06014355 32.85401938 46.92921422 35.32634832 46.79882812 37.79882812 C46.71149088 39.37242664 46.62362118 40.94599572 46.53515625 42.51953125 C46.47727684 43.62709526 46.47727684 43.62709526 46.41822815 44.7570343 C46.11481367 49.88518633 46.11481367 49.88518633 45 51 C43.52645652 51.09304018 42.04849409 51.11746265 40.57202148 51.11352539 C39.63112167 51.11344986 38.69022186 51.11337433 37.72080994 51.11329651 C36.69790359 51.10813522 35.67499725 51.10297394 34.62109375 51.09765625 C33.57929459 51.0962413 32.53749542 51.09482635 31.46412659 51.09336853 C28.12188906 51.0877508 24.77971743 51.0751953 21.4375 51.0625 C19.17773534 51.05748728 16.91796963 51.05292398 14.65820312 51.04882812 C9.10544609 51.03777561 3.55272775 51.02102024 -2 51 C-2.11426134 38.69468832 -1.89231373 26.52482184 -1 14.25 C-0.67 9.5475 -0.34 4.845 0 0 Z " transform="translate(247,358)" style="fill: #D2AF34;"/><path d="M0 0 C0.33 14.85 0.66 29.7 1 45 C-39.74626866 45.41791045 -39.74626866 45.41791045 -50 42 C-50.02501955 38.05306991 -50.04300863 34.10617158 -50.05493164 30.15917969 C-50.06233777 28.16860325 -50.07505474 26.17804883 -50.08789062 24.1875 C-50.12553343 9.2809488 -50.12553343 9.2809488 -49 3 C-47.16047624 1.16047624 -44.19838305 1.62917506 -41.71875 1.46484375 C-40.74923401 1.40037804 -40.74923401 1.40037804 -39.76013184 1.33460999 C-38.37816152 1.24410215 -36.99603196 1.1559997 -35.61376953 1.07006836 C-33.56356184 0.94148638 -31.51427578 0.80244387 -29.46484375 0.66210938 C-19.58306366 0.02963741 -9.94620461 0 0 0 Z " transform="translate(293,414)" style="fill: #D2AF34;"/><path d="M0 0 C4.93556142 1.5990604 9.8050243 3.28575062 14.64453125 5.15625 C27.73038867 10.16131311 40.04357332 13.64334176 54 15 C54.02493556 18.98355132 54.04297028 22.96707167 54.05493164 26.95068359 C54.06236421 28.96323241 54.07507829 30.97575949 54.08789062 32.98828125 C54.10405483 39.42163371 54.02960975 45.6439839 53 52 C42.8741646 52.47218922 32.94973369 51.6463872 22.875 50.625 C21.59407471 50.49891357 20.31314941 50.37282715 18.9934082 50.24291992 C17.77613037 50.11377197 16.55885254 49.98462402 15.3046875 49.8515625 C14.21140137 49.73635254 13.11811523 49.62114258 11.99169922 49.50244141 C9.0784841 49.01318103 6.68618376 48.20763049 4 47 C3.96261719 45.79988281 3.92523438 44.59976563 3.88671875 43.36328125 C3.5037345 33.1192309 2.6298922 23.10907558 1.01635742 12.98168945 C0.3249662 8.59974671 -0.16690713 4.4556948 0 0 Z " transform="translate(243,303)" style="fill: #D2AF34;"/><path d="M0 0 C1.6874269 0.00015917 3.37485866 0.00585622 5.06225586 0.01586914 C6.39189613 0.01799156 6.39189613 0.01799156 7.74839783 0.02015686 C10.59133215 0.02577324 13.43418892 0.03832848 16.27709961 0.05102539 C18.19962452 0.05603828 20.12215065 0.06060155 22.04467773 0.06469727 C26.7680151 0.07574798 31.49129419 0.09302356 36.21459961 0.11352539 C35.22459961 4.07352539 34.23459961 8.03352539 33.21459961 12.11352539 C32.55459961 12.11352539 31.89459961 12.11352539 31.21459961 12.11352539 C31.12823242 12.74516602 31.04186523 13.37680664 30.95288086 14.02758789 C29.6751781 22.1626862 27.14615113 29.44897275 24.21459961 37.11352539 C23.55459961 37.11352539 22.89459961 37.11352539 22.21459961 37.11352539 C21.88459961 39.75352539 21.55459961 42.39352539 21.21459961 45.11352539 C20.55459961 45.11352539 19.89459961 45.11352539 19.21459961 45.11352539 C18.88459961 47.75352539 18.55459961 50.39352539 18.21459961 53.11352539 C6.33459961 53.11352539 -5.54540039 53.11352539 -17.78540039 53.11352539 C-17.78540039 51.79352539 -17.78540039 50.47352539 -17.78540039 49.11352539 C-17.12540039 49.11352539 -16.46540039 49.11352539 -15.78540039 49.11352539 C-15.73641602 48.51024414 -15.68743164 47.90696289 -15.63696289 47.28540039 C-15.56219727 46.48618164 -15.48743164 45.68696289 -15.41040039 44.86352539 C-15.34079102 44.07461914 -15.27118164 43.28571289 -15.19946289 42.47290039 C-14.76710013 40.00924843 -13.92507062 38.32163647 -12.78540039 36.11352539 C-12.39790826 33.78857262 -12.055572 31.45501271 -11.78540039 29.11352539 C-11.12540039 29.11352539 -10.46540039 29.11352539 -9.78540039 29.11352539 C-9.86790039 28.22665039 -9.95040039 27.33977539 -10.03540039 26.42602539 C-10.06580059 21.44039289 -8.27430639 16.97776483 -6.73852539 12.28930664 C-5.60995275 8.52893959 -5.15995212 5.00886335 -4.78540039 1.11352539 C-3.78540039 0.11352539 -3.78540039 0.11352539 0 0 Z " transform="translate(398.785400390625,356.886474609375)" style="fill: #D2AF33;"/><path d="M0 0 C3.65792632 6.60807461 3.15452351 14.58316503 3.31640625 21.97265625 C3.33718735 22.78117538 3.35796844 23.58969452 3.37937927 24.42271423 C3.44401616 26.96923514 3.50335409 29.51584627 3.5625 32.0625 C3.6057672 33.80404525 3.64938388 35.54558186 3.69335938 37.28710938 C3.79960748 41.52465052 3.90110823 45.76228106 4 50 C3.14341797 49.96241577 3.14341797 49.96241577 2.26953125 49.92407227 C-12.81952023 49.26287675 -27.90940639 48.62505417 -43 48 C-43 37.77 -43 27.54 -43 17 C-43.66 16.67 -44.32 16.34 -45 16 C-43.92250488 15.75237915 -43.92250488 15.75237915 -42.82324219 15.49975586 C-35.10126519 13.65647335 -27.70216258 11.28768033 -20.25 8.5625 C-18.64318359 7.98918945 -18.64318359 7.98918945 -17.00390625 7.40429688 C-11.11528992 5.27121261 -5.53415042 2.93416912 0 0 Z " transform="translate(233,299)" style="fill: #D2AF33;"/><path d="M0 0 C1 2 1 2 0 5 C-0.66 5 -1.32 5 -2 5 C-2.2475 5.804375 -2.495 6.60875 -2.75 7.4375 C-3.70762267 10.16672461 -4.73776346 12.69238571 -5.9375 15.3125 C-7.9646487 19.77678252 -9.54053287 24.32307123 -11 29 C-11.66 29 -12.32 29 -13 29 C-13 30.65 -13 32.3 -13 34 C-13.66 34 -14.32 34 -15 34 C-15.33 36.64 -15.66 39.28 -16 42 C-16.66 42 -17.32 42 -18 42 C-18 42.99 -18 43.98 -18 45 C-31.61534164 47.51636677 -45.20197236 47.20381134 -59 47 C-58.02742782 34.24662995 -58.02742782 34.24662995 -57 28.8125 C-56.835 27.91144531 -56.67 27.01039063 -56.5 26.08203125 C-56 24 -56 24 -55 23 C-54.62238734 20.41571333 -54.29229374 17.84410696 -54 15.25 C-53.48743904 10.79712662 -52.96619929 6.38240394 -52 2 C-51.16082031 2.3609375 -50.32164062 2.721875 -49.45703125 3.09375 C-36.3803894 8.13939959 -22.09170866 9.96038298 -8.83374023 4.48535156 C-5.8179992 3.10080705 -2.90240193 1.60925255 0 0 Z " transform="translate(455,308)" style="fill: #D2AF34;"/><path d="M0 0 C24.75 0.495 24.75 0.495 50 1 C50 13.21 50 25.42 50 38 C47.009375 37.855625 44.01875 37.71125 40.9375 37.5625 C40.00929443 37.51939697 39.08108887 37.47629395 38.12475586 37.43188477 C33.35827099 37.19098859 28.71200826 36.7608263 24 36 C24 35.34 24 34.68 24 34 C22.68644531 34.02320313 21.37289062 34.04640625 20.01953125 34.0703125 C18.28385987 34.08907651 16.54818232 34.10727604 14.8125 34.125 C13.94818359 34.14175781 13.08386719 34.15851563 12.19335938 34.17578125 C11.35224609 34.18222656 10.51113281 34.18867188 9.64453125 34.1953125 C8.87471924 34.20578613 8.10490723 34.21625977 7.31176758 34.22705078 C5 34 5 34 0 32 C0 21.44 0 10.88 0 0 Z " transform="translate(188,416)" style="fill: #D2AF33;"/><path d="M0 0 C11.22 0 22.44 0 34 0 C34.495 2.475 34.495 2.475 35 5 C34.34 5 33.68 5 33 5 C33 7.31 33 9.62 33 12 C32.34 12 31.68 12 31 12 C31 14.31 31 16.62 31 19 C30.34 19 29.68 19 29 19 C28.95101562 19.70125 28.90203125 20.4025 28.8515625 21.125 C28.39116058 26.96734159 27.59596049 32.36093962 26 38 C25.34 38 24.68 38 24 38 C24 39.65 24 41.3 24 43 C20.535 43.495 20.535 43.495 17 44 C17 44.66 17 45.32 17 46 C7.63914824 48.26439611 -1.44349683 48.20166126 -11 48 C-11 45.69 -11 43.38 -11 41 C-10.34 41 -9.68 41 -9 41 C-8.97421875 40.14019531 -8.9484375 39.28039062 -8.921875 38.39453125 C-8.55761584 30.8030392 -7.41326529 24.24377897 -4.98046875 17.05078125 C-3.82083108 13.44250628 -3.10926376 9.85503478 -2.4921875 6.12109375 C-2 4 -2 4 0 0 Z " transform="translate(380,413)" style="fill: #D2AF34;"/><path d="M0 0 C1.84464844 0.83144531 1.84464844 0.83144531 3.7265625 1.6796875 C5.35930797 2.41160788 6.99212422 3.14337039 8.625 3.875 C9.43324219 4.23980469 10.24148437 4.60460937 11.07421875 4.98046875 C18.1553331 8.14682069 24.13038581 10.37002116 32 10.3125 C33.10843262 10.31056641 33.10843262 10.31056641 34.23925781 10.30859375 C40.42227121 10.20249313 46.04857454 9.19136007 52.046875 7.65625 C55 7 55 7 60 7 C60 16.57 60 26.14 60 36 C57.71829272 37.14085364 56.27390577 37.18826118 53.73388672 37.29711914 C52.85312469 37.33708511 51.97236267 37.37705109 51.06491089 37.41822815 C49.63672531 37.47610756 49.63672531 37.47610756 48.1796875 37.53515625 C47.20589142 37.57813339 46.23209534 37.62111053 45.22879028 37.66539001 C42.11102776 37.80200791 38.99303742 37.93232206 35.875 38.0625 C33.76430494 38.15388258 31.65362754 38.2456742 29.54296875 38.33789062 C24.36217501 38.5633447 19.18118025 38.78362048 14 39 C13.01 41.475 13.01 41.475 12 44 C11.34 43.67 10.68 43.34 10 43 C9.5859375 40.49609375 9.5859375 40.49609375 9.375 37.4375 C9.26285156 35.91962891 9.26285156 35.91962891 9.1484375 34.37109375 C9.09945312 33.58863281 9.05046875 32.80617188 9 32 C8.34 32 7.68 32 7 32 C6.32667007 28.91808296 5.66251141 25.8342592 5 22.75 C4.80921875 21.87730469 4.6184375 21.00460937 4.421875 20.10546875 C4.24140625 19.26113281 4.0609375 18.41679687 3.875 17.546875 C3.62363281 16.38430176 3.62363281 16.38430176 3.3671875 15.19824219 C3 13 3 13 3 9 C2.34 9 1.68 9 1 9 C0.67 6.03 0.34 3.06 0 0 Z " transform="translate(120,311)" style="fill: #D2AF34;"/><path d="M0 0 C19.47 0 38.94 0 59 0 C58.67 3.63 58.34 7.26 58 11 C57.34 11 56.68 11 56 11 C56 13.64 56 16.28 56 19 C55.34 19 54.68 19 54 19 C54.04125 19.928125 54.0825 20.85625 54.125 21.8125 C54 25 54 25 52 28 C49.78536987 28.32279968 49.78536987 28.32279968 46.99951172 28.2487793 C45.43811966 28.21840828 45.43811966 28.21840828 43.84518433 28.18742371 C42.71807037 28.15006607 41.59095642 28.11270844 40.4296875 28.07421875 C38.70264084 28.03455742 38.70264084 28.03455742 36.94070435 27.99409485 C33.25162248 27.90609877 29.56349941 27.79702854 25.875 27.6875 C23.37894096 27.62426564 20.88284688 27.56239881 18.38671875 27.50195312 C12.257071 27.35309608 6.1291721 27.17578483 0 27 C0 18.09 0 9.18 0 0 Z " transform="translate(305,464)" style="fill: #D2AF33;"/><path d="M0 0 C7.38728102 -0.02526692 14.77455098 -0.0428316 22.16186523 -0.05493164 C24.67716895 -0.05997363 27.19246972 -0.06680703 29.70776367 -0.07543945 C33.31429775 -0.08751094 36.92079323 -0.09322949 40.52734375 -0.09765625 C42.22575661 -0.10539818 42.22575661 -0.10539818 43.95848083 -0.11329651 C45.51998619 -0.11340981 45.51998619 -0.11340981 47.11303711 -0.11352539 C48.03459091 -0.115746 48.95614471 -0.11796661 49.90562439 -0.12025452 C52 0 52 0 53 1 C53.9798665 7.02994772 54.12339133 12.90149942 54.0625 19 C54.05798828 19.87011719 54.05347656 20.74023438 54.04882812 21.63671875 C54.0371736 23.75784293 54.01924357 25.8789311 54 28 C47.52214391 28.02535173 41.04430062 28.04286762 34.56640625 28.05493164 C32.36262534 28.05996088 30.15884778 28.06678505 27.95507812 28.07543945 C24.78775204 28.0875666 21.62047006 28.09324241 18.453125 28.09765625 C17.46757629 28.10281754 16.48202759 28.10797882 15.46661377 28.11329651 C14.08563507 28.11340981 14.08563507 28.11340981 12.67675781 28.11352539 C11.46430389 28.11685631 11.46430389 28.11685631 10.22735596 28.12025452 C8.02689405 28.001452 6.11251793 27.60974898 4 27 C4 25.35 4 23.7 4 22 C3.34 22 2.68 22 2 22 C1.65561441 20.21042488 1.32520774 18.41815936 1 16.625 C0.814375 15.62726563 0.62875 14.62953125 0.4375 13.6015625 C0.07108866 10.58521204 -0.04468131 7.8024734 -0.02734375 4.77490234 C-0.023396 3.87927582 -0.01944824 2.98364929 -0.01538086 2.06088257 C-0.01030518 1.38079132 -0.00522949 0.70070007 0 0 Z " transform="translate(243,464)" style="fill: #D2B035;"/><path d="M0 0 C13.244287 -0.19740396 26.42481381 -0.29315737 39.625 0.9375 C40.55973145 1.02435059 41.49446289 1.11120117 42.45751953 1.20068359 C48.85535105 1.85535105 48.85535105 1.85535105 50 3 C50.21413131 6.02460477 50.37767876 9.03391676 50.5 12.0625 C50.75160457 18.09635024 51.16983424 24.01588848 52 30 C39.68921062 30.2278802 27.46892205 30.06800421 15.1875 29.125 C14.10283447 29.04652832 13.01816895 28.96805664 11.90063477 28.88720703 C10.89572998 28.80325684 9.8908252 28.71930664 8.85546875 28.6328125 C7.96496826 28.55949707 7.07446777 28.48618164 6.15698242 28.41064453 C4 28 4 28 2 26 C1.3671875 23.1640625 1.3671875 23.1640625 0.875 19.625 C0.70742187 18.48289062 0.53984375 17.34078125 0.3671875 16.1640625 C-0.2335761 10.795949 -0.0703866 5.39295429 0 0 Z " transform="translate(189,460)" style="fill: #D2B034;"/><path d="M0 0 C-0.33 2.64 -0.66 5.28 -1 8 C-1.66 8 -2.32 8 -3 8 C-3.144375 9.175625 -3.28875 10.35125 -3.4375 11.5625 C-3.91410176 15.38212272 -4.44453544 19.19110019 -5 23 C-5.66 23 -6.32 23 -7 23 C-7.33 24.98 -7.66 26.96 -8 29 C-8.66 29 -9.32 29 -10 29 C-10 29.66 -10 30.32 -10 31 C-19.57 31 -29.14 31 -39 31 C-38.67 28.36 -38.34 25.72 -38 23 C-37.8419758 21.63186223 -37.68619114 20.26345822 -37.53515625 18.89453125 C-37.29882812 16.85351562 -37.29882812 16.85351562 -37.0625 14.8125 C-36.98837891 14.12736328 -36.91425781 13.44222656 -36.83789062 12.73632812 C-36.37609605 8.83547802 -35.52838527 5.60137651 -34 2 C-32.91114502 1.96241577 -32.91114502 1.96241577 -31.80029297 1.92407227 C-28.49170554 1.80758759 -25.18336624 1.68509986 -21.875 1.5625 C-20.73289062 1.52318359 -19.59078125 1.48386719 -18.4140625 1.44335938 C-16.75117188 1.38051758 -16.75117188 1.38051758 -15.0546875 1.31640625 C-14.03874512 1.27974854 -13.02280273 1.24309082 -11.97607422 1.20532227 C-7.93332329 0.92640893 -4.05410774 0 0 0 Z " transform="translate(402,462)" style="fill: #D2AF33;"/><path d="M0 0 C11.88 0 23.76 0 36 0 C38.25 7.875 38.25 7.875 38.1953125 12.27734375 C38.18886719 13.20224609 38.18242187 14.12714844 38.17578125 15.08007812 C38.15902344 16.02302734 38.14226562 16.96597656 38.125 17.9375 C38.11597656 18.90751953 38.10695312 19.87753906 38.09765625 20.87695312 C38.07426107 23.25156407 38.04148176 25.62564776 38 28 C31.66069045 27.74562433 25.33079585 27.41595571 19 27 C18.29794434 26.95681641 17.59588867 26.91363281 16.87255859 26.86914062 C13.11799622 26.6060639 9.56252704 26.24688446 6 25 C2.92887687 20.64924224 2.62648217 16.22068476 2 11 C1.67 10.67 1.34 10.34 1 10 C0.67 6.7 0.34 3.4 0 0 Z " transform="translate(149,458)" style="fill: #D2B035;"/><path d="M0 0 C0.66 0 1.32 0 2 0 C2.79664063 1.53720703 2.79664063 1.53720703 3.609375 3.10546875 C4.3226349 4.46629356 5.03619238 5.82696242 5.75 7.1875 C6.27207031 8.19780273 6.27207031 8.19780273 6.8046875 9.22851562 C8.88653007 13.18016125 11.17510629 16.51978185 14 20 C14 20.66 14 21.32 14 22 C12.73027344 21.82597656 11.46054687 21.65195312 10.15234375 21.47265625 C0.62020291 20.44610643 0.62020291 20.44610643 -8.2421875 23.359375 C-12.40054673 26.8963702 -15.85528727 31.0675362 -19.38183594 35.21826172 C-26.96916652 43.57256748 -40.74439022 49.59531325 -51.96337891 50.14526367 C-55.51734857 50.16999203 -59.07093783 50.18565852 -62.625 50.1875 C-64.45611328 50.20586914 -64.45611328 50.20586914 -66.32421875 50.22460938 C-78.64609672 50.24437709 -88.91225137 48.0107318 -100.4375 43.75 C-102.08020874 43.14828979 -102.08020874 43.14828979 -103.75610352 42.53442383 C-123.75753708 35.09594809 -123.75753708 35.09594809 -126.28515625 30.83203125 C-126.52105469 30.22746094 -126.75695312 29.62289063 -127 29 C-123.51899479 27.82391378 -123.10535114 27.9512502 -119.48828125 29.625 C-118.09136662 30.40783244 -116.69973139 31.20013364 -115.3125 32 C-94.3632443 43.55359839 -73.31403857 50.09038264 -49.3671875 44.08984375 C-37.21108836 40.15532906 -28.75030336 33.98781159 -20 25 C-19.22140625 24.20722656 -18.4428125 23.41445313 -17.640625 22.59765625 C-12.43854952 17.05430986 -7.9793935 11.04497068 -3.62866211 4.82519531 C-2.46493665 3.1833337 -1.2377225 1.58682372 0 0 Z " transform="translate(362,267)" style="fill: #D65DBE;"/><path d="M0 0 C5.26122171 1.51031916 9.67232586 3.90374191 14.375 6.625 C15.11105469 7.04523438 15.84710938 7.46546875 16.60546875 7.8984375 C18.4063765 8.92752764 20.20357318 9.96310756 22 11 C21.28839233 14.14364834 20.38003448 16.15995402 18.4375 18.75 C17.98246094 19.36359375 17.52742188 19.9771875 17.05859375 20.609375 C16.70925781 21.06828125 16.35992187 21.5271875 16 22 C15.29875 21.55269531 14.5975 21.10539062 13.875 20.64453125 C12.92625 20.03996094 11.9775 19.43539062 11 18.8125 C10.00226563 18.17054688 9.00453125 17.52859375 7.9765625 16.8671875 C6.18626174 15.74413794 4.37361914 14.65420615 2.5234375 13.6328125 C-2.7043927 10.72423788 -2.7043927 10.72423788 -4.25 6.9375 C-4 4 -4 4 -2.0625 1.625 C-1.381875 1.08875 -0.70125 0.5525 0 0 Z " transform="translate(356,139)" style="fill: #D65BC1;"/><path d="M0 0 C2.48667344 2.41228577 4.73693992 4.80423063 6.75 7.625 C7.17796875 8.21539062 7.6059375 8.80578125 8.046875 9.4140625 C9 11 9 11 9 13 C3.06 13 -2.88 13 -9 13 C-9 8.86218946 -7.28490393 7.79080004 -4.5 4.8125 C-3.6646875 3.91144531 -2.829375 3.01039063 -1.96875 2.08203125 C-0.99421875 1.05142578 -0.99421875 1.05142578 0 0 Z " transform="translate(367,276)" style="fill: #FDF9F6;"/><path d="M0 0 C0.83974365 -0.00563965 1.6794873 -0.0112793 2.54467773 -0.01708984 C3.92623047 -0.02675781 3.92623047 -0.02675781 5.33569336 -0.03662109 C6.29024414 -0.01728516 7.24479492 0.00205078 8.22827148 0.02197266 C9.18668945 0.00263672 10.14510742 -0.01669922 11.13256836 -0.03662109 C12.05231445 -0.03017578 12.97206055 -0.02373047 13.91967773 -0.01708984 C15.17760132 -0.00863037 15.17760132 -0.00863037 16.4609375 0 C18.66577148 0.64697266 18.66577148 0.64697266 21.66577148 5.64697266 C12.42577148 5.64697266 3.18577148 5.64697266 -6.33422852 5.64697266 C-2.33422852 0.64697266 -2.33422852 0.64697266 0 0 Z " transform="translate(358.334228515625,287.35302734375)" style="fill: #E9CA64;"/><path d="M0 0 C10.72407184 -0.11813543 21.30759925 0.12842148 32 1 C31.67 1.66 31.34 2.32 31 3 C8.89452657 3.25837566 8.89452657 3.25837566 1 2 C0.67 1.34 0.34 0.68 0 0 Z " transform="translate(341,409)" style="fill: #DEBD4C;"/><path d="M0 0 C-2.03807293 7.1178153 -4.40344742 14.06707281 -7 21 C-7.66 20.34 -8.32 19.68 -9 19 C-8.64223406 14.53431441 -7.25419595 10.78232368 -5.5 6.6875 C-5.0565625 5.63949219 -4.613125 4.59148437 -4.15625 3.51171875 C-2.53965785 0 -2.53965785 0 0 0 Z " transform="translate(432,375)" style="fill: #EDD375;"/></svg>