<svg id="svg" version="1.1" xmlns="http://www.w3.org/2000/svg" style="display: block;" viewBox="0 0 500 450"><path d="M0 0 C1.31436035 0.00906372 1.31436035 0.00906372 2.65527344 0.01831055 C8.97514226 0.1149715 15.00625879 0.56574719 21.125 2.25 C21.82367188 2.43304688 22.52234375 2.61609375 23.2421875 2.8046875 C35.9694492 6.81600345 42.84863969 17.44017914 48.73046875 28.63671875 C52.51093374 38.43204119 53.60360746 48.00458595 53.4375 58.4375 C53.4269458 59.61078857 53.4163916 60.78407715 53.40551758 61.99291992 C53.12760743 80.33876198 51.52436441 98.67828102 43.125 115.25 C42.58939453 116.44302734 42.58939453 116.44302734 42.04296875 117.66015625 C39.59562016 122.97859931 36.5563666 127.46524462 33.0625 132.125 C29.11336279 137.41496024 26.71765885 142.24643277 24.9140625 148.66015625 C24.05538068 151.47850303 22.69613552 153.72014215 21.12890625 156.203125 C19.16143695 160.21461883 18.25203469 164.63150342 17.15234375 168.9453125 C16.0650846 172.44273168 14.75376839 175.62123161 12.125 178.25 C8.23750349 178.62379774 5.92435719 178.76890266 2.59765625 176.609375 C-0.15820357 173.979771 -1.54501075 171.61253573 -3.1875 168.1875 C-3.69925781 167.14464844 -4.21101563 166.10179687 -4.73828125 165.02734375 C-5.875 162.25 -5.875 162.25 -5.875 159.25 C-6.6484375 159.45496094 -7.421875 159.65992188 -8.21875 159.87109375 C-9.2603125 160.14050781 -10.301875 160.40992188 -11.375 160.6875 C-12.3959375 160.95433594 -13.416875 161.22117188 -14.46875 161.49609375 C-31.71380814 165.31294721 -53.87733791 166.31200348 -69.71484375 157.70703125 C-77.04184259 153.00527135 -83.52041843 146.21015892 -85.5 137.5 C-85.93796735 133.70428297 -85.94085298 130.0694728 -85.875 126.25 C-89.46373101 129.74243232 -92.74606972 133.3898554 -95.9375 137.25 C-101.69435134 144.13009109 -107.72187191 150.72395505 -113.875 157.25 C-114.51050781 157.93964844 -115.14601563 158.62929687 -115.80078125 159.33984375 C-118.28165163 161.95097462 -120.35069909 163.97301084 -123.56640625 165.671875 C-128.89754611 168.65333804 -131.84253918 171.33642457 -133.69140625 177.1953125 C-136.15052958 186.65682437 -138.47770595 197.46505843 -136.875 207.25 C-135.11363645 209.43331689 -135.11363645 209.43331689 -132.9296875 209.4453125 C-130.91145833 209.38020833 -128.89322917 209.31510417 -126.875 209.25 C-126.54628906 210.0853125 -126.54628906 210.0853125 -126.2109375 210.9375 C-122.86005154 219.00142069 -118.21280248 225.28500943 -111.875 231.25 C-114.0625 232.0625 -114.0625 232.0625 -116.875 232.25 C-117.6175 231.425 -118.36 230.6 -119.125 229.75 C-121.51008708 227.07656031 -121.51008708 227.07656031 -123.91015625 227.06640625 C-129.00847119 227.61733908 -133.91435732 228.99023721 -138.875 230.25 C-138.85928955 230.92466309 -138.8435791 231.59932617 -138.82739258 232.29443359 C-138.76433921 235.40453424 -138.72578869 238.51449972 -138.6875 241.625 C-138.66236328 242.68589844 -138.63722656 243.74679687 -138.61132812 244.83984375 C-138.5387364 252.72814445 -138.87687583 260.66890724 -144.125 266.9375 C-147.87048221 268.72511651 -149.92345331 268.39954086 -153.875 267.25 C-157.4735508 264.33335095 -158.69316731 261.64271491 -160 257.25 C-161.20467064 253.12773943 -161.20467064 253.12773943 -162.9921875 249.25 C-164.18590886 246.54564011 -163.93115577 244.17606359 -163.875 241.25 C-164.77742432 241.6939209 -165.67984863 242.1378418 -166.60961914 242.59521484 C-169.98195204 244.2522348 -173.3579688 245.90162772 -176.73510742 247.54882812 C-178.19184119 248.26064305 -179.64758934 248.97447896 -181.10229492 249.69042969 C-183.20230728 250.72352929 -185.30584333 251.74913157 -187.41015625 252.7734375 C-188.05211441 253.09122162 -188.69407257 253.40900574 -189.35548401 253.73641968 C-192.45406979 255.23625889 -195.46060603 256.47241546 -198.78295898 257.34228516 C-200.31351929 257.791604 -200.31351929 257.791604 -201.875 258.25 C-202.184375 258.91 -202.49375 259.57 -202.8125 260.25 C-203.163125 260.91 -203.51375 261.57 -203.875 262.25 C-205.76575602 262.7100928 -207.65754157 263.16633331 -209.55407715 263.60198975 C-213.69338058 264.75769859 -217.41344629 266.75836003 -221.234375 268.6953125 C-223.07369573 269.60928214 -224.91305271 270.52317885 -226.75244141 271.43701172 C-227.71031555 271.91652283 -228.6681897 272.39603394 -229.65509033 272.89007568 C-250.46958478 283.29710903 -271.51013077 293.03418131 -292.875 302.25 C-293.83889648 302.66878418 -294.80279297 303.08756836 -295.79589844 303.51904297 C-306.82671734 308.30500188 -318.01040303 312.67743074 -329.22314453 317.01782227 C-335.06478638 319.29514672 -340.84963193 321.6433345 -346.5703125 324.2109375 C-348.13700684 324.91404053 -348.13700684 324.91404053 -349.73535156 325.63134766 C-351.69423547 326.52068222 -353.64715891 327.42330737 -355.59277344 328.34130859 C-363.81949382 332.08472411 -363.81949382 332.08472411 -368.875 330.25 C-369.88142948 328.92151309 -370.88192179 327.58849671 -371.875 326.25 C-373.54114608 326.20834635 -375.20885392 326.20834635 -376.875 326.25 C-378.6875 325.125 -378.6875 325.125 -379.875 323.25 C-380.83769648 317.06396021 -377.8319944 313.01891072 -374.75 307.9375 C-373.63893808 306.05698525 -372.5296359 304.17542994 -371.421875 302.29296875 C-370.54692383 300.81449463 -370.54692383 300.81449463 -369.65429688 299.30615234 C-367.27215715 295.21454627 -365.00689397 291.06296928 -362.73461914 286.90966797 C-349.36089799 262.54897843 -333.28182859 239.88658085 -315.875 218.25 C-315.11751465 217.30326416 -315.11751465 217.30326416 -314.34472656 216.33740234 C-303.52798899 202.82812917 -292.29183009 189.75630484 -280.5 177.08984375 C-278.45820775 174.88094053 -276.46106045 172.65473277 -274.5 170.375 C-266.10179889 160.6863436 -257.21806941 151.41174287 -247.984375 142.51953125 C-245.82493373 140.42057554 -245.82493373 140.42057554 -244.828125 138.07421875 C-243.5867497 135.69830783 -242.26535345 135.3663986 -239.875 134.25 C-238.06404482 132.45226347 -236.50341058 130.5251793 -234.88671875 128.55078125 C-232.875 126.25 -232.875 126.25 -230.45703125 124.16796875 C-225.40869237 119.58513647 -223.43209346 116.14459969 -223.10498047 109.42724609 C-223.06242797 106.93327831 -223.0357534 104.43952098 -223.01171875 101.9453125 C-222.80507109 87.04871182 -214.56232827 77.03688931 -204.75 66.625 C-189.93179043 52.34041017 -170.72925997 43.11278195 -150.875 38.25 C-149.20630859 37.75693359 -149.20630859 37.75693359 -147.50390625 37.25390625 C-137.3168293 34.43573749 -126.81405306 32.97429081 -116.25 32.8125 C-115.52901123 32.7904248 -114.80802246 32.76834961 -114.06518555 32.74560547 C-106.42203226 32.77575597 -100.21161163 36.29793378 -94.609375 41.34765625 C-89.59098326 46.85206341 -86.01807244 53.1412719 -83.875 60.25 C-83.639021 59.69127197 -83.40304199 59.13254395 -83.15991211 58.55688477 C-74.69242622 38.67768176 -74.69242622 38.67768176 -67.875 31.25 C-67.153125 30.26 -66.43125 29.27 -65.6875 28.25 C-54.21312032 14.81387154 -35.60223822 6.51313441 -18.875 2.25 C-18.17342773 2.06453613 -17.47185547 1.87907227 -16.74902344 1.68798828 C-11.1155417 0.29504021 -5.79105599 -0.06425815 0 0 Z " transform="translate(396.875,47.75)" style="fill: #EACC62;"/><path d="M0 0 C0.87624023 0.00604248 1.75248047 0.01208496 2.65527344 0.01831055 C8.97514226 0.1149715 15.00625879 0.56574719 21.125 2.25 C21.82367188 2.43304688 22.52234375 2.61609375 23.2421875 2.8046875 C35.9694492 6.81600345 42.84863969 17.44017914 48.73046875 28.63671875 C52.51093374 38.43204119 53.60360746 48.00458595 53.4375 58.4375 C53.4269458 59.61078857 53.4163916 60.78407715 53.40551758 61.99291992 C53.12760743 80.33876198 51.52436441 98.67828102 43.125 115.25 C42.76792969 116.04535156 42.41085937 116.84070313 42.04296875 117.66015625 C39.59562016 122.97859931 36.5563666 127.46524462 33.0625 132.125 C29.11336279 137.41496024 26.71765885 142.24643277 24.9140625 148.66015625 C24.05538068 151.47850303 22.69613552 153.72014215 21.12890625 156.203125 C19.16143695 160.21461883 18.25203469 164.63150342 17.15234375 168.9453125 C16.0650846 172.44273168 14.75376839 175.62123161 12.125 178.25 C8.23750349 178.62379774 5.92435719 178.76890266 2.59765625 176.609375 C-0.15820357 173.979771 -1.54501075 171.61253573 -3.1875 168.1875 C-3.69925781 167.14464844 -4.21101563 166.10179687 -4.73828125 165.02734375 C-5.875 162.25 -5.875 162.25 -5.875 159.25 C-6.6484375 159.45496094 -7.421875 159.65992188 -8.21875 159.87109375 C-9.2603125 160.14050781 -10.301875 160.40992188 -11.375 160.6875 C-12.3959375 160.95433594 -13.416875 161.22117188 -14.46875 161.49609375 C-31.71380814 165.31294721 -53.87733791 166.31200348 -69.71484375 157.70703125 C-77.04184259 153.00527135 -83.52041843 146.21015892 -85.5 137.5 C-86.35202929 130.11574612 -85.88772914 125.72855575 -82.96484375 118.95703125 C-78.37500146 107.55645525 -78.314455 97.35814612 -80.25 85.4375 C-80.3843042 84.56383789 -80.5186084 83.69017578 -80.65698242 82.79003906 C-81.53300023 77.1463322 -82.53082721 71.53652952 -83.73828125 65.953125 C-84.08174579 59.16234047 -81.15462778 53.14622626 -78.125 47.25 C-77.77010498 46.55084473 -77.41520996 45.85168945 -77.04956055 45.13134766 C-74.43855038 40.09503049 -71.54658451 35.58525285 -67.875 31.25 C-67.17375 30.280625 -66.4725 29.31125 -65.75 28.3125 C-54.21940728 14.85407948 -35.66218521 6.52841261 -18.875 2.25 C-17.8226416 1.9718042 -17.8226416 1.9718042 -16.74902344 1.68798828 C-11.1155417 0.29504021 -5.79105599 -0.06425815 0 0 Z " transform="translate(396.875,47.75)" style="fill: #895130;"/><path d="M0 0 C0.72098877 -0.0220752 1.44197754 -0.04415039 2.18481445 -0.06689453 C9.82026149 -0.03677442 16.0694614 3.47716393 21.64453125 8.5546875 C28.09783366 15.5761136 31.52919128 23.19790893 33.375 32.4375 C33.53597168 33.22576172 33.69694336 34.01402344 33.86279297 34.82617188 C41.78528046 73.8578659 41.78528046 73.8578659 32.0859375 90.0234375 C28.22785288 95.46703634 23.78039737 100.43560783 19.375 105.4375 C18.73046875 106.18257813 18.0859375 106.92765625 17.421875 107.6953125 C15.75292256 109.62162676 14.06757861 111.53192273 12.375 113.4375 C11.66730469 114.23800781 10.95960938 115.03851563 10.23046875 115.86328125 C-2.72604731 130.40901222 -2.72604731 130.40901222 -7.39453125 132.9375 C-12.70698928 135.8959773 -15.597336 138.54992881 -17.4375 144.37890625 C-19.90093629 153.84066654 -22.22793541 164.65115749 -20.625 174.4375 C-18.86363645 176.62081689 -18.86363645 176.62081689 -16.6796875 176.6328125 C-14.66145833 176.56770833 -12.64322917 176.50260417 -10.625 176.4375 C-10.40585937 176.994375 -10.18671875 177.55125 -9.9609375 178.125 C-6.61005154 186.18892069 -1.96280248 192.47250943 4.375 198.4375 C2.1875 199.25 2.1875 199.25 -0.625 199.4375 C-1.3675 198.6125 -2.11 197.7875 -2.875 196.9375 C-5.26008708 194.26406031 -5.26008708 194.26406031 -7.66015625 194.25390625 C-12.75847119 194.80483908 -17.66435732 196.17773721 -22.625 197.4375 C-22.60928955 198.11216309 -22.5935791 198.78682617 -22.57739258 199.48193359 C-22.51433921 202.59203424 -22.47578869 205.70199972 -22.4375 208.8125 C-22.41236328 209.87339844 -22.38722656 210.93429687 -22.36132812 212.02734375 C-22.2887364 219.91564445 -22.62687583 227.85640724 -27.875 234.125 C-31.62048221 235.91261651 -33.67345331 235.58704086 -37.625 234.4375 C-41.25943652 231.49989154 -42.48020488 228.73898256 -43.8125 224.3125 C-45.0000386 220.28710855 -45.0000386 220.28710855 -46.625 216.4375 C-46.74727926 214.46112586 -46.80049929 212.4801169 -46.8125 210.5 C-46.82667969 209.43910156 -46.84085938 208.37820313 -46.85546875 207.28515625 C-46.625 204.4375 -46.625 204.4375 -44.625 201.4375 C-44.44243503 196.95161778 -45.33945962 192.69948903 -47.1875 188.625 C-48.625 185.4375 -48.625 185.4375 -48.625 181.4375 C-49.615 181.4375 -50.605 181.4375 -51.625 181.4375 C-51.625 182.0975 -51.625 182.7575 -51.625 183.4375 C-54.6875 184.4375 -54.6875 184.4375 -58.625 184.4375 C-61.44388526 182.18626211 -63.43697915 179.28597068 -65.625 176.4375 C-67.21330289 174.61108251 -68.81774151 172.79857982 -70.4375 171 C-71.56091797 169.73349609 -71.56091797 169.73349609 -72.70703125 168.44140625 C-74.46918571 166.37501766 -74.46918571 166.37501766 -76.625 165.4375 C-76.625 164.4475 -76.625 163.4575 -76.625 162.4375 C-75.305 162.1075 -73.985 161.7775 -72.625 161.4375 C-72.625 160.7775 -72.625 160.1175 -72.625 159.4375 C-69.16 158.4475 -69.16 158.4475 -65.625 157.4375 C-65.625 156.7775 -65.625 156.1175 -65.625 155.4375 C-62.655 154.4475 -59.685 153.4575 -56.625 152.4375 C-56.8827051 150.7063281 -57.15679489 148.97759159 -57.4375 147.25 C-57.58832031 146.28707031 -57.73914063 145.32414063 -57.89453125 144.33203125 C-58.87378718 140.45166417 -59.84274046 137.60140885 -63.31665039 135.33276367 C-65.43491324 134.20045965 -67.58029572 133.15516057 -69.75 132.125 C-76.46542023 128.76622451 -82.70695011 125.28031141 -87.625 119.4375 C-87.625 118.7775 -87.625 118.1175 -87.625 117.4375 C-88.285 117.4375 -88.945 117.4375 -89.625 117.4375 C-91.33592895 115.56002044 -92.89406726 113.69681607 -94.4375 111.6875 C-95.11026978 110.81254883 -95.11026978 110.81254883 -95.79663086 109.91992188 C-104.26655732 98.50975391 -105.83069834 87.52899524 -105.9375 73.6875 C-105.96650391 72.45 -105.99550781 71.2125 -106.02539062 69.9375 C-106.1316627 54.56892282 -98.9242751 44.80728951 -88.5625 33.875 C-73.71975893 19.56162966 -54.51922581 10.31007053 -34.625 5.4375 C-32.95630859 4.94443359 -32.95630859 4.94443359 -31.25390625 4.44140625 C-21.0668293 1.62323749 -10.56405306 0.16179081 0 0 Z " transform="translate(280.625,80.5625)" style="fill: #A1D124;"/><path d="M0 0 C0 2.22955604 -0.04946521 4.45922384 -0.125 6.6875 C-0.06305234 15.17432973 2.47111349 21.59570646 8 28 C20.57695773 39.74465905 36.14037538 39.6915568 52.36328125 39.33984375 C59.3657534 39.06694227 66.10012182 38.1591369 72.9375 36.65625 C76 36 76 36 79 36 C80.73461434 41.1502642 81.22002208 45.49527479 80.8125 50.9375 C80.78091797 51.58267578 80.74933594 52.22785156 80.71679688 52.89257812 C79.86698904 65.95991308 76.81048686 77.89217091 71.60400391 89.84741211 C70.74586943 91.82200456 69.91643871 93.80694881 69.08984375 95.79492188 C60.66299828 115.75067838 60.66299828 115.75067838 53.0625 121 C46.76269618 125.97352933 44.56325699 134.63153294 41.83447266 141.9128418 C41 144 41 144 39.91748047 146.11645508 C38.77635005 148.45914298 38.65806142 150.40779275 38.5 153 C38.28635015 156.50385747 37.84027445 158.97954954 36 162 C33.50130318 163.87402261 32.1469366 164.00306118 29 163.9375 C25.15521203 162.73600376 24.27036116 161.29336975 22 158 C17.64306854 147.92610047 14.54145216 138.00514821 15 127 C14.27296875 126.90203125 13.5459375 126.8040625 12.796875 126.703125 C-0.88398855 124.66853504 -11.09596674 120.48056091 -22 112 C-22.57492187 111.55672363 -23.14984375 111.11344727 -23.7421875 110.65673828 C-39.42278552 98.42151611 -39.42278552 98.42151611 -41.875 88.4375 C-41.91625 87.633125 -41.9575 86.82875 -42 86 C-43.258125 86.226875 -44.51625 86.45375 -45.8125 86.6875 C-48.42764271 87.15908311 -49.48785524 87.33988839 -51.73046875 85.8515625 C-55.73713984 80.00798681 -52.96134165 69.41303471 -51.91772461 62.7800293 C-50.33116014 54.28766285 -48.69926519 48.01079754 -41.4375 42.875 C-39.58455105 41.64238719 -37.71453736 40.44367182 -35.83105469 39.25830078 C-32.73160973 37.1283622 -30.17125242 34.50594405 -27.5625 31.8125 C-27.06580811 31.30396484 -26.56911621 30.79542969 -26.05737305 30.27148438 C-19.96835762 23.97143798 -14.43857713 17.33851724 -9 10.4765625 C-6.10458385 6.89122297 -3.07076837 3.43542211 0 0 Z " transform="translate(312,171)" style="fill: #EF82A4;"/><path d="M0 0 C2.29933132 2.22268694 2.37925941 3.72170916 2.875 6.8125 C3.54402344 6.61914062 4.21304688 6.42578125 4.90234375 6.2265625 C20.17166015 2.0864257 35.52600372 1.43919438 51.25439453 1.44189453 C54.16364812 1.43744083 57.07147379 1.40073195 59.98046875 1.36328125 C61.84634907 1.35742527 63.71223645 1.35344774 65.578125 1.3515625 C66.87027924 1.33000595 66.87027924 1.33000595 68.1885376 1.30801392 C72.22961767 1.33887844 74.38090206 1.5186201 77.92480469 3.62646484 C79.875 5.8125 79.875 5.8125 80.375 9.25 C79.81968228 13.20663873 79.53680725 14.83753896 76.875 17.8125 C69.14007384 23.01440389 61.23432932 23.90049914 52.125 24.625 C50.83722656 24.74552734 49.54945313 24.86605469 48.22265625 24.99023438 C42.75364244 25.48612941 37.36920649 25.87622948 31.875 25.8125 C31.58625 26.59625 31.2975 27.38 31 28.1875 C29.875 30.8125 29.875 30.8125 27.875 32.8125 C25.25349388 32.93903333 22.73787072 32.94710171 20.12109375 32.8671875 C18.52800394 32.84186569 16.93490447 32.81714598 15.34179688 32.79296875 C12.83587365 32.74361743 10.33045687 32.68798289 7.82495117 32.62060547 C-5.15750638 32.25880705 -5.15750638 32.25880705 -17.125 36.8125 C-20.06757346 37.96415504 -23.06150181 38.94941801 -26.0625 39.9375 C-26.84520264 40.19901855 -27.62790527 40.46053711 -28.43432617 40.72998047 C-33.27376251 42.3125188 -38.01113661 43.58569675 -43.08203125 44.1953125 C-45.34828786 44.72538568 -45.34828786 44.72538568 -47.4296875 46.84375 C-50.94960368 49.41481921 -53.12043067 49.28451279 -57.4375 49.1875 C-58.69175781 49.17460937 -59.94601562 49.16171875 -61.23828125 49.1484375 C-65.125 48.8125 -65.125 48.8125 -68.42504883 47.81518555 C-74.89382719 46.15691747 -81.5770439 46.47336527 -88.2109375 46.43359375 C-89.67771473 46.41738321 -91.14448149 46.40019961 -92.61123657 46.38209534 C-96.45746972 46.33663061 -100.30371795 46.30172781 -104.15008545 46.26989746 C-110.29735224 46.21784663 -116.44446183 46.152187 -122.59154129 46.08168221 C-124.72168889 46.05914134 -126.85181777 46.04268121 -128.98202515 46.02696228 C-148.65849919 45.82508389 -148.65849919 45.82508389 -152.75 43 C-154.125 40.8125 -154.125 40.8125 -154.125 36.8125 C-155.86136719 36.88210938 -155.86136719 36.88210938 -157.6328125 36.953125 C-159.17184906 36.99066248 -160.7109137 37.02706051 -162.25 37.0625 C-163.01054687 37.09601563 -163.77109375 37.12953125 -164.5546875 37.1640625 C-170.91832112 37.27378032 -174.37389705 35.38611244 -179.0625 31 C-180.72126971 27.5848859 -180.13478025 25.40984214 -179.125 21.8125 C-174.19906348 15.76063514 -168.46641297 12.68291302 -161.08984375 10.6640625 C-158.24722183 9.84760456 -155.46931051 8.90353732 -152.67993164 7.92236328 C-134.7393464 1.67209488 -112.90197581 -0.63912341 -95.0625 7.5625 C-87.50019492 10.6997008 -77.8910285 8.4504163 -70.52075195 5.61303711 C-61.78381114 2.69360076 -52.49424734 2.53812403 -43.375 2.375 C-35.84125358 2.17424999 -28.56697211 1.83203438 -21.1875 0.25 C-14.01179026 -1.28657076 -7.02704158 -2.6702758 0 0 Z " transform="translate(393.125,353.1875)" style="fill: #EF82A4;"/><path d="M0 0 C-0.721875 0.556875 -1.44375 1.11375 -2.1875 1.6875 C-3.115625 2.450625 -4.04375 3.21375 -5 4 C-5.928125 4.7425 -6.85625 5.485 -7.8125 6.25 C-10.00527967 9.0066373 -10.40875108 9.73226659 -10.625 13.0625 C-10.364022 17.05778127 -10.364022 17.05778127 -7.75 19.4375 C-5.21029544 21.10014639 -5.21029544 21.10014639 -2.875 21.3125 C-2.25625 21.539375 -1.6375 21.76625 -1 22 C-0.24998636 23.72829231 0.49492036 25.45967745 1.1796875 27.21484375 C2.56745884 30.23489853 4.10574276 31.39892153 7 33 C9.54709425 33.37627529 12.02402401 33.56149215 14.59765625 33.62890625 C17.47160216 34.07284911 18.75876172 35.2107364 21 37 C11.9153875 36.89203195 2.83084965 36.7793085 -6.25362968 36.66066074 C-10.47277296 36.60570296 -14.6919234 36.55232934 -18.91113281 36.50268555 C-22.98957898 36.45463788 -27.06795004 36.40228596 -31.14630508 36.34705925 C-32.69544711 36.32681704 -34.24460957 36.30807643 -35.79378891 36.29092598 C-58.49843576 36.03679435 -58.49843576 36.03679435 -62.625 33.1875 C-64 31 -64 31 -64 27 C-65.73636719 27.06960938 -65.73636719 27.06960938 -67.5078125 27.140625 C-69.04684906 27.17816248 -70.5859137 27.21456051 -72.125 27.25 C-72.88554687 27.28351563 -73.64609375 27.31703125 -74.4296875 27.3515625 C-80.79332112 27.46128032 -84.24889705 25.57361244 -88.9375 21.1875 C-90.59626971 17.7723859 -90.00978025 15.59734214 -89 12 C-84.07406348 5.94813514 -78.34141297 2.87041302 -70.96484375 0.8515625 C-68.12222183 0.03510456 -65.34431051 -0.90896268 -62.55493164 -1.89013672 C-42.22569281 -8.97258122 -19.61290869 -9.9784974 0 0 Z " transform="translate(303,363)" style="fill: #A2D226;"/><path d="M0 0 C0.87624023 0.00604248 1.75248047 0.01208496 2.65527344 0.01831055 C8.97514226 0.1149715 15.00625879 0.56574719 21.125 2.25 C21.82367188 2.43304688 22.52234375 2.61609375 23.2421875 2.8046875 C35.9694492 6.81600345 42.84863969 17.44017914 48.73046875 28.63671875 C52.51093374 38.43204119 53.60360746 48.00458595 53.4375 58.4375 C53.4269458 59.61078857 53.4163916 60.78407715 53.40551758 61.99291992 C53.12769643 80.3328873 51.53241203 98.68689485 43.125 115.25 C42.75632812 116.05695313 42.38765625 116.86390625 42.0078125 117.6953125 C38.56476389 125.08005813 34.04085818 131.77000512 29.125 138.25 C28.795 138.25 28.465 138.25 28.125 138.25 C27.07352191 130.55585082 28.83762124 126.42692059 33.18359375 120.140625 C47.35815617 99.03564272 47.81914025 70.72279929 44.125 46.3125 C41.65067092 35.69155913 36.44540846 22.65530199 27.125 16.25 C17.73379776 10.81943522 4.6983535 8.92901996 -5.875 11.25 C-6.98875 11.476875 -8.1025 11.70375 -9.25 11.9375 C-24.88133546 15.58481161 -37.66486587 22.99545936 -49.875 33.25 C-50.71933594 33.930625 -51.56367188 34.61125 -52.43359375 35.3125 C-60.62801874 42.16652158 -66.01741036 50.33048377 -69.875 60.25 C-69.545 60.58 -69.215 60.91 -68.875 61.25 C-68.48097544 64.79622103 -68.48964487 66.648846 -70.4375 69.6875 C-72.875 71.25 -72.875 71.25 -76.4375 71.0625 C-79.875 70.25 -79.875 70.25 -82.875 69.25 C-84.8982208 61.15711678 -81.77009392 54.34403928 -78.125 47.25 C-77.77010498 46.55084473 -77.41520996 45.85168945 -77.04956055 45.13134766 C-74.43855038 40.09503049 -71.54658451 35.58525285 -67.875 31.25 C-67.17375 30.280625 -66.4725 29.31125 -65.75 28.3125 C-54.21940728 14.85407948 -35.66218521 6.52841261 -18.875 2.25 C-17.8226416 1.9718042 -17.8226416 1.9718042 -16.74902344 1.68798828 C-11.1155417 0.29504021 -5.79105599 -0.06425815 0 0 Z " transform="translate(396.875,47.75)" style="fill: #BA7C58;"/><path d="M0 0 C0.495 2.475 0.495 2.475 1 5 C1.66 5 2.32 5 3 5 C3 5.99 3 6.98 3 8 C3.66 8 4.32 8 5 8 C5.495 10.475 5.495 10.475 6 13 C6.66 13 7.32 13 8 13 C8.495 15.475 8.495 15.475 9 18 C9.66 18 10.32 18 11 18 C11 18.99 11 19.98 11 21 C11.66 21 12.32 21 13 21 C13 21.99 13 22.98 13 24 C13.66 24 14.32 24 15 24 C14.99609375 26.10546875 14.99609375 26.10546875 14 29 C11.57446518 31.40567217 8.84158751 33.33567285 6.0625 35.3125 C5.32064453 35.86228516 4.57878906 36.41207031 3.81445312 36.97851562 C-1.69572981 41 -1.69572981 41 -4 41 C-4 41.66 -4 42.32 -4 43 C-5.98 43.495 -5.98 43.495 -8 44 C-8 44.66 -8 45.32 -8 46 C-9.98 46.495 -9.98 46.495 -12 47 C-12 47.66 -12 48.32 -12 49 C-13.98 49.495 -13.98 49.495 -16 50 C-16 50.66 -16 51.32 -16 52 C-17.485 52.495 -17.485 52.495 -19 53 C-19.515625 53.515625 -20.03125 54.03125 -20.5625 54.5625 C-22 56 -22 56 -24 56 C-24 56.66 -24 57.32 -24 58 C-28.38461538 61 -28.38461538 61 -31 61 C-33.53309233 56.35796103 -35.46515599 52.34844008 -36 47 C-36.66 47 -37.32 47 -38 47 C-38 45.35 -38 43.7 -38 42 C-38.66 42 -39.32 42 -40 42 C-40.2475 41.01 -40.495 40.02 -40.75 39 C-41.78870448 35.30431956 -43.38015165 32.07117814 -45.1953125 28.69921875 C-46 27 -46 27 -46 25 C-44.35 24.67 -42.7 24.34 -41 24 C-41 23.34 -41 22.68 -41 22 C-39.35 21.67 -37.7 21.34 -36 21 C-36 20.34 -36 19.68 -36 19 C-34.35 18.67 -32.7 18.34 -31 18 C-31 17.34 -31 16.68 -31 16 C-29.35 15.67 -27.7 15.34 -26 15 C-26 14.34 -26 13.68 -26 13 C-25.01 13 -24.02 13 -23 13 C-23 12.34 -23 11.68 -23 11 C-21.35 10.67 -19.7 10.34 -18 10 C-18 9.34 -18 8.68 -18 8 C-17.01 8 -16.02 8 -15 8 C-15 7.34 -15 6.68 -15 6 C-13.35 5.67 -11.7 5.34 -10 5 C-10 4.34 -10 3.68 -10 3 C-9.01 3 -8.02 3 -7 3 C-7 2.34 -7 1.68 -7 1 C-4 0 -4 0 0 0 Z " transform="translate(136,243)" style="fill: #D2AF33;"/><path d="M0 0 C0.99 0 1.98 0 3 0 C4.83984375 1.984375 4.83984375 1.984375 6.9375 4.75 C9.57660119 8.14500268 12.14727408 11.22717525 15.328125 14.12109375 C15.88508057 14.63381836 16.44203613 15.14654297 17.01586914 15.67480469 C18.11279244 16.66743456 19.22900331 17.63923875 20.36499023 18.58691406 C21.88671875 19.98046875 21.88671875 19.98046875 24 23 C23.83383694 26.00119205 23.0508384 28.13099546 22 31 C21.01 31 20.02 31 19 31 C19 31.66 19 32.32 19 33 C15.01939223 34.17076699 11.08378283 35.25749403 7 36 C7 36.66 7 37.32 7 38 C5.35 38 3.7 38 2 38 C2 38.66 2 39.32 2 40 C-1.465 40.495 -1.465 40.495 -5 41 C-5 41.66 -5 42.32 -5 43 C-6.65 43 -8.3 43 -10 43 C-10 43.66 -10 44.32 -10 45 C-11.65 45 -13.3 45 -15 45 C-15 45.66 -15 46.32 -15 47 C-16.65 47 -18.3 47 -20 47 C-20 47.66 -20 48.32 -20 49 C-21.65 49 -23.3 49 -25 49 C-25 49.66 -25 50.32 -25 51 C-29.1901634 51.49882898 -30.71226646 51.19920015 -34.25 48.75 C-36.61568536 46.38431464 -37.71473548 44.96599505 -39 42 C-39.53625 41.46375 -40.0725 40.9275 -40.625 40.375 C-42 39 -42 39 -42 37 C-42.66 37 -43.32 37 -44 37 C-44 36.01 -44 35.02 -44 34 C-44.66 34 -45.32 34 -46 34 C-45.67 32.68 -45.34 31.36 -45 30 C-44.34 30 -43.68 30 -43 30 C-43 29.34 -43 28.68 -43 28 C-41.35 27.67 -39.7 27.34 -38 27 C-38 26.34 -38 25.68 -38 25 C-37.01 25 -36.02 25 -35 25 C-35 24.34 -35 23.68 -35 23 C-34.01 23 -33.02 23 -32 23 C-32 22.34 -32 21.68 -32 21 C-31.01 21 -30.02 21 -29 21 C-29 20.34 -29 19.68 -29 19 C-28.01 19 -27.02 19 -26 19 C-26 18.34 -26 17.68 -26 17 C-25.01 17 -24.02 17 -23 17 C-23 16.34 -23 15.68 -23 15 C-17.25 12 -17.25 12 -15 12 C-15 11.34 -15 10.68 -15 10 C-12 8 -12 8 -9 8 C-9 7.34 -9 6.68 -9 6 C-8.01 6 -7.02 6 -6 6 C-6 5.34 -6 4.68 -6 4 C-5.01 4 -4.02 4 -3 4 C-3 3.34 -3 2.68 -3 2 C-2.01 2 -1.02 2 0 2 C0 1.34 0 0.68 0 0 Z " transform="translate(153,275)" style="fill: #D2AF33;"/><path d="M0 0 C3.8665284 3.222107 4.88059018 6.14922412 6 11 C6.66 11 7.32 11 8 11 C8.66 13.31 9.32 15.62 10 18 C10.66 18 11.32 18 12 18 C12.495 20.475 12.495 20.475 13 23 C13.66 23 14.32 23 15 23 C15 23.99 15 24.98 15 26 C15.66 26 16.32 26 17 26 C17.495 27.98 17.495 27.98 18 30 C20.31 29.67 22.62 29.34 25 29 C24.690625 28.071875 24.38125 27.14375 24.0625 26.1875 C23.375 24.125 22.6875 22.0625 22 20 C21.34 20 20.68 20 20 20 C20 19.01 20 18.02 20 17 C19.34 17 18.68 17 18 17 C18 16.01 18 15.02 18 14 C20.4140625 12.09765625 20.4140625 12.09765625 23.625 10.0625 C24.66914062 9.39347656 25.71328125 8.72445313 26.7890625 8.03515625 C27.84867188 7.36355469 28.90828125 6.69195312 30 6 C31.05960937 5.23558594 32.11921875 4.47117187 33.2109375 3.68359375 C34.13132812 3.12800781 35.05171875 2.57242187 36 2 C36.99 2.33 37.98 2.66 39 3 C39.495 5.475 39.495 5.475 40 8 C40.66 8 41.32 8 42 8 C43 9.66666667 44 11.33333333 45 13 C46.64646685 14.68662458 48.31183067 16.35511706 50 18 C50.99 19.485 50.99 19.485 52 21 C47.66335081 24.11696661 44.19591612 24.55966813 39 25 C39 25.66 39 26.32 39 27 C37.03125 27.65625 37.03125 27.65625 35.0625 28.3125 C34.24136719 28.58707031 33.42023438 28.86164063 32.57421875 29.14453125 C30.93307776 29.68991801 29.29002058 30.22959533 27.64453125 30.76171875 C24.04268172 31.93340474 20.52975805 33.15846074 17.0625 34.6875 C14 36 14 36 12 36 C12 36.66 12 37.32 12 38 C11.21882813 38.28230469 10.43765625 38.56460938 9.6328125 38.85546875 C-0.71003501 42.78298657 -10.49342888 47.63843462 -20.33740234 52.68041992 C-21.97443115 53.51536987 -21.97443115 53.51536987 -23.64453125 54.3671875 C-24.62784424 54.87362793 -25.61115723 55.38006836 -26.62426758 55.90185547 C-29 57 -29 57 -31 57 C-31 57.66 -31 58.32 -31 59 C-31.66 59 -32.32 59 -33 59 C-32.505 56.03 -32.505 56.03 -32 53 C-31.34 53 -30.68 53 -30 53 C-29.01 50.03 -28.02 47.06 -27 44 C-26.34 44 -25.68 44 -25 44 C-24.34 41.69 -23.68 39.38 -23 37 C-22.34 37 -21.68 37 -21 37 C-21 36.01 -21 35.02 -21 34 C-20.34 34 -19.68 34 -19 34 C-18.67 32.35 -18.34 30.7 -18 29 C-17.34 29 -16.68 29 -16 29 C-15.67 27.35 -15.34 25.7 -15 24 C-14.34 24 -13.68 24 -13 24 C-12.01 20.535 -12.01 20.535 -11 17 C-10.34 17 -9.68 17 -9 17 C-8.34 14.69 -7.68 12.38 -7 10 C-6.34 10 -5.68 10 -5 10 C-4.731875 8.906875 -4.46375 7.81375 -4.1875 6.6875 C-3.12336261 3.38307337 -2.65345336 2.05039578 0 0 Z " transform="translate(63,309)" style="fill: #D2AF34;"/><path d="M0 0 C3.95588582 0.54992892 5.77646999 2.40253333 8.546875 5.18359375 C9.81337891 6.45106445 9.81337891 6.45106445 11.10546875 7.74414062 C11.97816406 8.63294922 12.85085937 9.52175781 13.75 10.4375 C14.63816406 11.32244141 15.52632812 12.20738281 16.44140625 13.11914062 C23 19.73314492 23 19.73314492 23 22 C22.34 22 21.68 22 21 22 C21 22.66 21 23.32 21 24 C20.01 24 19.02 24 18 24 C18 24.66 18 25.32 18 26 C17.01 26 16.02 26 15 26 C15 26.66 15 27.32 15 28 C13.00715862 29.3440093 11.00580329 30.67541292 9 32 C8.113125 32.886875 7.22625 33.77375 6.3125 34.6875 C4 37 4 37 1 38 C0.566875 38.433125 0.13375 38.86625 -0.3125 39.3125 C-2.61287008 41.61287008 -5.29768306 43.19845537 -8 45 C-8.53625 45.598125 -9.0725 46.19625 -9.625 46.8125 C-11 48 -11 48 -12.875 48.0625 C-15.46935803 46.76532099 -16.91579921 44.95525036 -18.65625 42.66796875 C-20.02549189 40.90569365 -20.02549189 40.90569365 -21.890625 39.12109375 C-24.18034513 36.81865295 -26.21263138 34.40284626 -28.25 31.875 C-28.95640625 31.00617188 -29.6628125 30.13734375 -30.390625 29.2421875 C-32 27 -32 27 -32 25 C-32.66 25 -33.32 25 -34 25 C-33.67 24.01 -33.34 23.02 -33 22 C-32.34 22 -31.68 22 -31 22 C-31 21.34 -31 20.68 -31 20 C-30.01 20 -29.02 20 -28 20 C-28 19.34 -28 18.68 -28 18 C-26.5459375 17.319375 -26.5459375 17.319375 -25.0625 16.625 C-21.92920418 15.34213779 -21.92920418 15.34213779 -21 13 C-20.01 13 -19.02 13 -18 13 C-18 12.34 -18 11.68 -18 11 C-16.35 10.67 -14.7 10.34 -13 10 C-13 9.34 -13 8.68 -13 8 C-12.01 8 -11.02 8 -10 8 C-10 7.34 -10 6.68 -10 6 C-8.35 5.67 -6.7 5.34 -5 5 C-5 4.34 -5 3.68 -5 3 C-3.35 2.67 -1.7 2.34 0 2 C0 1.34 0 0.68 0 0 Z " transform="translate(196,247)" style="fill: #D2AF33;"/><path d="M0 0 C2.90925359 -0.0044537 5.81707926 -0.04116259 8.72607422 -0.07861328 C10.59195453 -0.08446927 12.45784192 -0.08844679 14.32373047 -0.09033203 C15.6158847 -0.11188858 15.6158847 -0.11188858 16.93414307 -0.13388062 C20.97522314 -0.10301609 23.12650753 0.07672557 26.67041016 2.18457031 C28.62060547 4.37060547 28.62060547 4.37060547 29.12060547 7.80810547 C28.56528775 11.7647442 28.28241272 13.39564442 25.62060547 16.37060547 C17.90036085 21.55656316 10.02343119 22.45754312 0.93310547 23.18310547 C-0.34628906 23.30363281 -1.62568359 23.42416016 -2.94384766 23.54833984 C-8.78042786 24.07893804 -14.51559957 24.42772488 -20.37939453 24.37060547 C-20.44126953 23.58685547 -20.50314453 22.80310547 -20.56689453 21.99560547 C-21.09974257 19.17930693 -21.09974257 19.17930693 -23.62939453 18.18310547 C-24.53689453 17.91498047 -25.44439453 17.64685547 -26.37939453 17.37060547 C-27.09611328 17.03544922 -27.81283203 16.70029297 -28.55126953 16.35498047 C-32.14445874 15.1043124 -35.61474041 14.95049552 -39.37939453 14.80810547 C-43.7901292 14.61686513 -48.06580798 14.39002729 -52.37939453 13.37060547 C-50.71888387 9.50831273 -49.02958297 6.22374404 -45.19580078 4.24169922 C-30.71515585 0.03195313 -14.95746787 -0.00256781 0 0 Z " transform="translate(444.37939453125,354.62939453125)" style="fill: #8B5434;"/><path d="M0 0 C2.475 0.495 2.475 0.495 5 1 C5.495 2.98 5.495 2.98 6 5 C6.66 5 7.32 5 8 5 C8.495 6.485 8.495 6.485 9 8 C9.96669367 9.03223222 10.97060778 10.03028269 12 11 C12.96828907 12.11644259 13.92638681 13.24179181 14.875 14.375 C16.78698626 16.63592376 18.73651492 18.76514355 20.875 20.8125 C23 23 23 23 23 25 C22.34 25 21.68 25 21 25 C21 25.66 21 26.32 21 27 C20.195625 27.28875 19.39125 27.5775 18.5625 27.875 C15.8673532 28.73262568 15.8673532 28.73262568 15 31 C14.01 31 13.02 31 12 31 C12 31.66 12 32.32 12 33 C11.01 33.33 10.02 33.66 9 34 C8.505 34.99 8.505 34.99 8 36 C7.01 36.33 6.02 36.66 5 37 C4.566875 37.433125 4.13375 37.86625 3.6875 38.3125 C1.38712992 40.61287008 -1.29768306 42.19845537 -4 44 C-4.5775 44.5775 -5.155 45.155 -5.75 45.75 C-7 47 -7 47 -9 47 C-9 47.66 -9 48.32 -9 49 C-9.99 49 -10.98 49 -12 49 C-15 45.66666667 -15 45.66666667 -15 43 C-15.66 43 -16.32 43 -17 43 C-20 38.61538462 -20 38.61538462 -20 36 C-20.66 36 -21.32 36 -22 36 C-22 35.01 -22 34.02 -22 33 C-22.66 33 -23.32 33 -24 33 C-24 32.01 -24 31.02 -24 30 C-24.66 30 -25.32 30 -26 30 C-26 29.01 -26 28.02 -26 27 C-26.66 27 -27.32 27 -28 27 C-28.6875 24.6875 -28.6875 24.6875 -29 22 C-27.6875 20.1875 -27.6875 20.1875 -26 19 C-25.34 19 -24.68 19 -24 19 C-24 18.34 -24 17.68 -24 17 C-23.01 17 -22.02 17 -21 17 C-21 16.34 -21 15.68 -21 15 C-20.01 15 -19.02 15 -18 15 C-18 14.34 -18 13.68 -18 13 C-16.68 12.67 -15.36 12.34 -14 12 C-14 11.34 -14 10.68 -14 10 C-13.01 9.67 -12.02 9.34 -11 9 C-10.67 8.34 -10.34 7.68 -10 7 C-9.01 7 -8.02 7 -7 7 C-7 6.34 -7 5.68 -7 5 C-5.68 4.67 -4.36 4.34 -3 4 C-3 3.34 -3 2.68 -3 2 C-2.01 2 -1.02 2 0 2 C0 1.34 0 0.68 0 0 Z " transform="translate(169,216)" style="fill: #D2AF34;"/><path d="M0 0 C1.15822266 0.02707031 1.15822266 0.02707031 2.33984375 0.0546875 C2.90832031 0.07789062 3.47679687 0.10109375 4.0625 0.125 C4.0625 0.455 4.0625 0.785 4.0625 1.125 C2.83015625 1.42792969 1.5978125 1.73085937 0.328125 2.04296875 C-28.61443923 9.29985878 -53.83496541 23.01847922 -70.9375 48.125 C-77.04492486 58.87248141 -75.90828303 72.58997807 -72.90234375 84.12890625 C-68.89369996 96.57680013 -59.00981762 106.16639867 -48.9375 114.125 C-48.09445313 114.5478125 -47.25140625 114.970625 -46.3828125 115.40625 C-43.09261582 117.71884831 -41.98549627 120.563652 -40.5625 124.1875 C-40.29050781 124.82494141 -40.01851562 125.46238281 -39.73828125 126.11914062 C-39.0642266 127.75934028 -38.49262982 129.44082796 -37.9375 131.125 C-38.2675 131.785 -38.5975 132.445 -38.9375 133.125 C-59.00662442 123.17108295 -59.00662442 123.17108295 -64.9375 116.125 C-64.9375 115.465 -64.9375 114.805 -64.9375 114.125 C-65.5975 114.125 -66.2575 114.125 -66.9375 114.125 C-68.64842895 112.24752044 -70.20656726 110.38431607 -71.75 108.375 C-72.42276978 107.50004883 -72.42276978 107.50004883 -73.10913086 106.60742188 C-81.57905732 95.19725391 -83.14319834 84.21649524 -83.25 70.375 C-83.27900391 69.1375 -83.30800781 67.9 -83.33789062 66.625 C-83.4441627 51.25642282 -76.2367751 41.49478951 -65.875 30.5625 C-51.03225893 16.24912966 -31.83172581 6.99757053 -11.9375 2.125 C-10.16439453 1.58552734 -10.16439453 1.58552734 -8.35546875 1.03515625 C-5.35818622 0.23702273 -3.06868892 -0.0944212 0 0 Z " transform="translate(257.9375,83.875)" style="fill: #83AE13;"/><path d="M0 0 C0.99 0.33 1.98 0.66 3 1 C3.6875 3.0625 3.6875 3.0625 4 5 C4.66 5 5.32 5 6 5 C6 5.99 6 6.98 6 8 C6.66 8 7.32 8 8 8 C8.495 9.485 8.495 9.485 9 11 C9.66 11.33 10.32 11.66 11 12 C11 12.99 11 13.98 11 15 C11.66 15 12.32 15 13 15 C13 15.99 13 16.98 13 18 C13.66 18 14.32 18 15 18 C15.495 20.475 15.495 20.475 16 23 C14.68 23.33 13.36 23.66 12 24 C12 24.66 12 25.32 12 26 C11.01 26 10.02 26 9 26 C9 26.66 9 27.32 9 28 C8.01 28 7.02 28 6 28 C6 28.66 6 29.32 6 30 C4.35 30.33 2.7 30.66 1 31 C1 31.66 1 32.32 1 33 C0.01 33 -0.98 33 -2 33 C-2 33.66 -2 34.32 -2 35 C-4.475 35.495 -4.475 35.495 -7 36 C-7 36.66 -7 37.32 -7 38 C-7.99 38 -8.98 38 -10 38 C-10 38.66 -10 39.32 -10 40 C-12.475 40.495 -12.475 40.495 -15 41 C-15 41.66 -15 42.32 -15 43 C-15.94875 43.0825 -16.8975 43.165 -17.875 43.25 C-18.90625 43.4975 -19.9375 43.745 -21 44 C-22.10836423 45.88316159 -22.10836423 45.88316159 -23 48 C-27.28571429 51 -27.28571429 51 -30 51 C-30 51.66 -30 52.32 -30 53 C-30.99 53 -31.98 53 -33 53 C-33 53.66 -33 54.32 -33 55 C-33.99 55 -34.98 55 -36 55 C-36 55.66 -36 56.32 -36 57 C-36.63808594 57.33773437 -37.27617188 57.67546875 -37.93359375 58.0234375 C-39.17302734 58.69246094 -39.17302734 58.69246094 -40.4375 59.375 C-41.26121094 59.81585938 -42.08492187 60.25671875 -42.93359375 60.7109375 C-45.13466578 61.83418559 -45.13466578 61.83418559 -46 64 C-46.99 64 -47.98 64 -49 64 C-49 64.66 -49 65.32 -49 66 C-49.99 65.67 -50.98 65.34 -52 65 C-52 64.34 -52 63.68 -52 63 C-51.01 62.505 -51.01 62.505 -50 62 C-49.67 61.01 -49.34 60.02 -49 59 C-48.0206121 57.97980427 -47.02104551 56.97850195 -46 56 C-45.67 55.34 -45.34 54.68 -45 54 C-44.34 54 -43.68 54 -43 54 C-42.896875 53.401875 -42.79375 52.80375 -42.6875 52.1875 C-41.88246919 49.62603834 -40.9536379 48.80892398 -39 47 C-37.65080468 45.34614767 -36.31866272 43.678298 -35 42 C-32.33333333 38.66666667 -29.66666667 35.33333333 -27 32 C-26.360625 31.195625 -25.72125 30.39125 -25.0625 29.5625 C-21.86106365 25.58495787 -18.58768486 21.67573193 -15.25 17.8125 C-11.76296445 13.76391587 -8.41035262 9.60762086 -5.05078125 5.453125 C-3.43711607 3.52287408 -1.81899042 1.73237183 0 0 Z " transform="translate(152,189)" style="fill: #D2AF34;"/><path d="M0 0 C0.99 0.33 1.98 0.66 3 1 C2.82984375 1.54785156 2.6596875 2.09570312 2.484375 2.66015625 C1.63631925 5.43438119 0.82003733 8.21736286 0 11 C-0.35964844 12.15886719 -0.71929687 13.31773437 -1.08984375 14.51171875 C-4.21619052 25.15909903 -6.7588317 36.67205105 -1.32421875 46.98828125 C1.10286136 50.67543834 3.93187744 53.83776325 7 57 C7.62003906 57.6703125 8.24007813 58.340625 8.87890625 59.03125 C19.52692113 70.21704341 31.87149214 76.17943074 47 79 C47 80.98 47 82.96 47 85 C32.95654145 82.89901014 22.22111982 78.7271735 11 70 C10.42507813 69.55672363 9.85015625 69.11344727 9.2578125 68.65673828 C-6.42278552 56.42151611 -6.42278552 56.42151611 -8.875 46.4375 C-8.91625 45.633125 -8.9575 44.82875 -9 44 C-10.258125 44.226875 -11.51625 44.45375 -12.8125 44.6875 C-15.42764271 45.15908311 -16.48785524 45.33988839 -18.73046875 43.8515625 C-22.04110174 39.02313161 -20.47760652 31.76378929 -19.52832031 26.27050781 C-15.89750928 7.89750928 -15.89750928 7.89750928 -13 5 C-12.01 5 -11.02 5 -10 5 C-9.67 9.95 -9.34 14.9 -9 20 C-8.2575 18.185 -7.515 16.37 -6.75 14.5 C-4.69050397 9.54782152 -2.47076614 4.75851256 0 0 Z " transform="translate(279,213)" style="fill: #FDACC4;"/><path d="M0 0 C7.67857791 -0.46071467 13.56216052 -0.46450172 20 4 C20.88945312 4.60134766 20.88945312 4.60134766 21.796875 5.21484375 C30.52000761 11.872987 34.90293236 21.50267857 37 32 C37.24145752 33.18239258 37.24145752 33.18239258 37.48779297 34.38867188 C45.41028046 73.4203659 45.41028046 73.4203659 35.7109375 89.5859375 C31.85285288 95.02953634 27.40539737 99.99810783 23 105 C22.35546875 105.74507813 21.7109375 106.49015625 21.046875 107.2578125 C19.37792256 109.18412676 17.69257861 111.09442273 16 113 C15.29230469 113.80050781 14.58460938 114.60101563 13.85546875 115.42578125 C-0.87844986 131.96692667 -0.87844986 131.96692667 -9 137 C-9.66 137 -10.32 137 -11 137 C-10.47697243 132.03123812 -8.82482758 127.9400874 -6.890625 123.390625 C-5.84295118 120.91485146 -5.84295118 120.91485146 -5.75 117.75 C-4.72296881 113.98421896 -2.81758935 113.17430045 0.34765625 111.05078125 C4.62748858 107.74163254 8.23853431 103.73517323 11.89916992 99.76171875 C14.65650777 96.87895911 16.38336931 95.19836192 20.2421875 93.95703125 C23 94 23 94 26 96 C37.43289603 80.71437462 38.57301675 66.07477446 36.12866211 47.36572266 C33.77702334 31.12106905 28.92104658 16.90295208 16 6 C10.76143787 2.39121276 5.18815971 2.31931785 -1 2 C-0.67 1.34 -0.34 0.68 0 0 Z " transform="translate(277,81)" style="fill: #81AD11;"/><path d="M0 0 C2.21875 1.3828125 2.21875 1.3828125 4.5 3.125 C9.47212796 6.77371947 14.68101172 9.52230608 20.21484375 12.2265625 C23.31676577 14.20169938 24.59022287 15.61861573 26 19 C25.84838867 20.98168945 25.84838867 20.98168945 25 23 C21.85070202 25.37529804 18.25807547 27.02119187 14.75 28.8125 C13.79480469 29.32748047 12.83960938 29.84246094 11.85546875 30.37304688 C10.46521484 31.09524414 10.46521484 31.09524414 9.046875 31.83203125 C8.19963867 32.27264893 7.35240234 32.7132666 6.47949219 33.16723633 C3.49796605 34.16861341 1.95742526 34.01511124 -1 33 C-2.83380952 31.02865476 -4.40143555 29.14137917 -6 27 C-7.2684375 25.4840625 -7.2684375 25.4840625 -8.5625 23.9375 C-10.73915694 21.31434933 -12.87908123 18.66825265 -15 16 C-15.7425 15.154375 -16.485 14.30875 -17.25 13.4375 C-19 11 -19 11 -19 7 C-18.01 7 -17.02 7 -16 7 C-16 6.34 -16 5.68 -16 5 C-13.69 4.34 -11.38 3.68 -9 3 C-9 2.34 -9 1.68 -9 1 C-5.60052796 -1.14040832 -3.82216534 -1.09285616 0 0 Z " transform="translate(197,203)" style="fill: #D2AF33;"/><path d="M0 0 C3 2 3 2 3.51171875 3.9453125 C3.67447917 5.96354167 3.83723958 7.98177083 4 10 C4.66 10 5.32 10 6 10 C6.33 12.64 6.66 15.28 7 18 C7.66 18 8.32 18 9 18 C9 19.65 9 21.3 9 23 C9.66 23 10.32 23 11 23 C11.58384377 24.93117554 12.14147054 26.87029395 12.6875 28.8125 C13.00074219 29.89144531 13.31398438 30.97039062 13.63671875 32.08203125 C14 35 14 35 12.71875 36.84375 C10.81908866 38.12170399 9.24563358 38.6128218 7 39 C7 39.66 7 40.32 7 41 C4.91796875 42.7265625 4.91796875 42.7265625 2.1875 44.625 C1.29417969 45.25664062 0.40085937 45.88828125 -0.51953125 46.5390625 C-3 48 -3 48 -6 48 C-6 47.34 -6 46.68 -6 46 C-6.66 46 -7.32 46 -8 46 C-8 45.01 -8 44.02 -8 43 C-8.66 43 -9.32 43 -10 43 C-11.84827434 39.3874638 -13.55049545 35.7910119 -15 32 C-15.66 32 -16.32 32 -17 32 C-18.125 27.25 -18.125 27.25 -17 25 C-16.34 25 -15.68 25 -15 25 C-14.67 23.35 -14.34 21.7 -14 20 C-13.34 20 -12.68 20 -12 20 C-12 19.01 -12 18.02 -12 17 C-11.34 17 -10.68 17 -10 17 C-10 16.01 -10 15.02 -10 14 C-9.34 14 -8.68 14 -8 14 C-7.773125 13.34 -7.54625 12.68 -7.3125 12 C-5.50864932 7.87691274 -3.21873476 3.21873476 0 0 Z " transform="translate(85,274)" style="fill: #D2AF34;"/><path d="M0 0 C0.12117188 0.64066406 0.24234375 1.28132812 0.3671875 1.94140625 C2.21024335 13.6912875 2.21024335 13.6912875 9 23 C28.20593724 34.88668789 49.75722839 31.55103048 71 28 C71 30.31 71 32.62 71 35 C69.16830682 35.48539869 67.33453941 35.96297186 65.5 36.4375 C64.4790625 36.70433594 63.458125 36.97117188 62.40625 37.24609375 C45.16119186 41.06294721 22.99766209 42.06200348 7.16015625 33.45703125 C-0.16684259 28.75527135 -6.64541843 21.96015892 -8.625 13.25 C-9.08060466 9.30142631 -9.39124907 5.97769892 -9 2 C-5.77473795 -0.95649022 -4.04845709 -1.23702856 0 0 Z " transform="translate(320,172)" style="fill: #BA7A57;"/><path d="M0 0 C4.20022628 0.57650165 5.4794045 2.27805525 8.1875 5.4375 C8.8475 6.0975 9.5075 6.7575 10.1875 7.4375 C12.13478395 16.50318863 13.44411495 26.54552527 10.1875 35.4375 C8.3046875 37.75390625 8.3046875 37.75390625 6.1875 39.4375 C1.34254897 39.71701641 -1.41449003 38.283214 -5.0625 35.3125 C-9.61035293 30.97617511 -11.81921078 26.58699057 -12.4375 20.3125 C-12.25512914 13.71295455 -7.03656252 1.09457639 0 0 Z " transform="translate(405.8125,268.5625)" style="fill: #8B5434;"/><path d="M0 0 C0.21914062 0.82242188 0.43828125 1.64484375 0.6640625 2.4921875 C3.54813647 12.64506578 7.28126375 20.73530706 15 28 C15 28.66 15 29.32 15 30 C15.66 30.33 16.32 30.66 17 31 C16.01 31 15.02 31 14 31 C14 31.66 14 32.32 14 33 C11.7536764 34.00904375 9.50356063 35.0073602 7.25 36 C6.61578125 36.28617188 5.9815625 36.57234375 5.328125 36.8671875 C1.91582896 38.36006702 -0.20781917 39 -4 39 C-4.33 37.68 -4.66 36.36 -5 35 C-5.66 35 -6.32 35 -7 35 C-7.33 33.68 -7.66 32.36 -8 31 C-8.66 31 -9.32 31 -10 31 C-10 30.01 -10 29.02 -10 28 C-10.66 28 -11.32 28 -12 28 C-12.33 26.68 -12.66 25.36 -13 24 C-13.66 24 -14.32 24 -15 24 C-15 23.01 -15 22.02 -15 21 C-15.66 21 -16.32 21 -17 21 C-17.9375 18.5 -17.9375 18.5 -18 15 C-14.87522643 9.86125277 -6.35588315 0 0 0 Z " transform="translate(176,168)" style="fill: #D1AF34;"/><path d="M0 0 C1.73461434 5.1502642 2.22002208 9.49527479 1.8125 14.9375 C1.76512695 15.90526367 1.76512695 15.90526367 1.71679688 16.89257812 C0.86698904 29.95991308 -2.18951314 41.89217091 -7.39599609 53.84741211 C-8.25413057 55.82200456 -9.08356129 57.80694881 -9.91015625 59.79492188 C-14.50654711 70.6787864 -19.40275204 80.75309848 -29 88 C-30.27720684 84.16837949 -29.63451518 81.57643918 -28 78 C-26.7734375 76.48046875 -26.7734375 76.48046875 -25.3125 74.9375 C-16.47202876 65.2151326 -12.69586989 51.32544676 -9 39 C-8.66871094 37.9584375 -8.33742188 36.916875 -7.99609375 35.84375 C-4.86566249 24.59234489 -5.24542338 12.59998354 -5 1 C-3 0 -3 0 0 0 Z " transform="translate(391,207)" style="fill: #FDACC6;"/><path d="M0 0 C2.43893784 9.64432781 4.80670096 19.29631332 7 29 C6.01 29 5.02 29 4 29 C4 29.66 4 30.32 4 31 C0.9375 32 0.9375 32 -3 32 C-5.81888526 29.74876211 -7.81197915 26.84847068 -10 24 C-11.58830289 22.17358251 -13.19274151 20.36107982 -14.8125 18.5625 C-15.56144531 17.71816406 -16.31039062 16.87382812 -17.08203125 16.00390625 C-18.84418571 13.93751766 -18.84418571 13.93751766 -21 13 C-21 12.01 -21 11.02 -21 10 C-19.68 9.67 -18.36 9.34 -17 9 C-17 8.34 -17 7.68 -17 7 C-14.69 6.34 -12.38 5.68 -10 5 C-10 4.34 -10 3.68 -10 3 C-3.375 0 -3.375 0 0 0 Z " transform="translate(225,233)" style="fill: #D1AF33;"/><path d="M0 0 C0.33 0 0.66 0 1 0 C2.905247 5.10334017 4.42589023 9.46342706 4 15 C0.17679443 16.42258812 -2.91281305 17.24042276 -7 17 C-7 17.66 -7 18.32 -7 19 C-8.65 19 -10.3 19 -12 19 C-12 19.66 -12 20.32 -12 21 C-14.81142124 22.10697816 -17.62407652 23.21063123 -20.4375 24.3125 C-21.22060547 24.62123047 -22.00371094 24.92996094 -22.81054688 25.24804688 C-28.15541757 27.33760538 -33.53839227 29.23827009 -39 31 C-39.33 30.34 -39.66 29.68 -40 29 C-39.34 29 -38.68 29 -38 29 C-38 28.34 -38 27.68 -38 27 C-37.01 27 -36.02 27 -35 27 C-35 26.34 -35 25.68 -35 25 C-34.01 25 -33.02 25 -32 25 C-32 24.34 -32 23.68 -32 23 C-30.68 22.67 -29.36 22.34 -28 22 C-28 21.34 -28 20.68 -28 20 C-27.01 20 -26.02 20 -25 20 C-25 19.34 -25 18.68 -25 18 C-23.68 17.67 -22.36 17.34 -21 17 C-21 16.34 -21 15.68 -21 15 C-19.68 14.67 -18.36 14.34 -17 14 C-17 13.34 -17 12.68 -17 12 C-15.5459375 11.319375 -15.5459375 11.319375 -14.0625 10.625 C-10.92920418 9.34213779 -10.92920418 9.34213779 -10 7 C-9.01 7 -8.02 7 -7 7 C-7 6.34 -7 5.68 -7 5 C-5.35 4.67 -3.7 4.34 -2 4 C-2 3.34 -2 2.68 -2 2 C-1.34 2 -0.68 2 0 2 C0 1.34 0 0.68 0 0 Z " transform="translate(233,267)" style="fill: #D3B136;"/><path d="M0 0 C0.33 0 0.66 0 1 0 C1.309375 1.134375 1.61875 2.26875 1.9375 3.4375 C2.62924531 6.78775099 2.62924531 6.78775099 4 8 C6.67058851 8.14115161 9.32432238 8.04247107 12 8 C12.32871094 8.8353125 12.32871094 8.8353125 12.6640625 9.6875 C16.01494846 17.75142069 20.66219752 24.03500943 27 30 C24.8125 30.8125 24.8125 30.8125 22 31 C21.2575 30.175 20.515 29.35 19.75 28.5 C17.36491292 25.82656031 17.36491292 25.82656031 14.96484375 25.81640625 C9.82908472 26.37138536 5.03796338 27.74050916 0 29 C0 19.43 0 9.86 0 0 Z " transform="translate(258,249)" style="fill: #EACC66;"/><path d="M0 0 C2 0 2 0 3.62109375 1.609375 C4.22050781 2.31578125 4.81992187 3.0221875 5.4375 3.75 C6.03433594 4.44609375 6.63117188 5.1421875 7.24609375 5.859375 C8.89081098 7.86673589 10.46126108 9.91070312 12 12 C8.7169902 15.2830098 4.49701411 15.19284362 0 16 C0 10.72 0 5.44 0 0 Z " transform="translate(258,258)" style="fill: #D3B137;"/><path d="M0 0 C-2.41532601 3.11774224 -3.54778322 3.9409717 -7.53125 4.4609375 C-8.8409375 4.43257813 -10.150625 4.40421875 -11.5 4.375 C-12.8096875 4.36210937 -14.119375 4.34921875 -15.46875 4.3359375 C-18.61443852 4.03667952 -20.379792 3.67105102 -23 2 C-20.29215006 1.66227261 -17.58383004 1.32969313 -14.875 1 C-14.11445313 0.90460938 -13.35390625 0.80921875 -12.5703125 0.7109375 C-8.35090048 0.20169812 -4.25995656 -0.10888068 0 0 Z " transform="translate(347,398)" style="fill: #A7D333;"/><path d="M0 0 C0 0.33 0 0.66 0 1 C-3.0404598 1.81706167 -6.08256683 2.6278202 -9.125 3.4375 C-9.9809375 3.66759766 -10.836875 3.89769531 -11.71875 4.13476562 C-16.12947383 5.30530387 -20.47452542 6.35456346 -25 7 C-24.67 6.01 -24.34 5.02 -24 4 C-21.63292401 3.09725036 -19.44456405 2.41476263 -17 1.8125 C-16.32316162 1.6381543 -15.64632324 1.46380859 -14.94897461 1.28417969 C-9.80281971 0.02940924 -5.25989724 -0.3691156 0 0 Z " transform="translate(262,84)" style="fill: #8BB323;"/><path d="M0 0 C-2.35539468 4.87903185 -4.36402918 7.21841751 -9 10 C-11.3915261 11.93505224 -13.70275603 13.95432741 -16 16 C-14.33536962 11.71357676 -11.20924163 8.91382783 -8 5.75 C-7.4534375 5.19570312 -6.906875 4.64140625 -6.34375 4.0703125 C-2.2533867 0 -2.2533867 0 0 0 Z " transform="translate(147,194)" style="fill: #ECD070;"/></svg>