<svg id="svg" version="1.1" xmlns="http://www.w3.org/2000/svg" style="display: block;" viewBox="0 0 394 628"><path d="M0 0 C130.02 0 260.04 0 394 0 C394 207.24 394 414.48 394 628 C263.98 628 133.96 628 0 628 C0 420.76 0 213.52 0 0 Z " transform="translate(0,0)" style="fill: #FEFEFE;"/><path d="M0 0 C1.98 0.495 1.98 0.495 4 1 C3.50518446 3.57304081 2.80657249 5.3387487 1.4921875 7.640625 C-1.68892357 14.80228867 -1.15470677 23.9256688 0.9609375 31.390625 C5.69322687 41.83995759 14.45301868 49.32362145 23.4921875 56.0625 C26.74233383 58.57351648 29.83304967 61.24979334 32.9375 63.9375 C36.88195379 67.34744945 40.83844686 70.71291153 44.9375 73.9375 C61.61169641 87.12302599 77.86300568 101.24044306 91 118 C91.45487793 118.57314941 91.90975586 119.14629883 92.37841797 119.73681641 C106.7226314 137.93031347 113.17523289 157.44015923 113.1875 180.625 C113.19974609 181.81996094 113.21199219 183.01492187 113.22460938 184.24609375 C113.24252717 195.27150781 112.44029126 205.72417842 107.90234375 215.87890625 C107.03909024 217.90811255 106.47287486 219.85012563 106 222 C105.34 222 104.68 222 104 222 C103.690625 223.2065625 103.690625 223.2065625 103.375 224.4375 C97.90151187 238.61881016 86.91179545 243.81195442 73.99658203 250.02734375 C72.11845698 250.94229242 70.25813348 251.88444946 68.40234375 252.84375 C66.81099609 253.66359375 66.81099609 253.66359375 65.1875 254.5 C64.25292969 254.9846875 63.31835938 255.469375 62.35546875 255.96875 C60 257 60 257 57 257 C57.10441406 257.71542969 57.20882812 258.43085938 57.31640625 259.16796875 C56.86119435 263.24239629 54.9019041 264.55556429 51.9375 267.3125 C50.91620164 268.28590973 49.89666978 269.26117622 48.87890625 270.23828125 C47.45384766 271.60533203 47.45384766 271.60533203 46 273 C38.49669257 281.0084806 31.50268088 289.66427989 25.19140625 298.63671875 C24.60166016 299.31154297 24.60166016 299.31154297 24 300 C23.34 300 22.68 300 22 300 C21.5978125 300.8353125 21.5978125 300.8353125 21.1875 301.6875 C19.36133496 305.24371613 17.71083325 308.31078422 14.81640625 311.1171875 C11.22251177 314.64815769 8.27948605 318.67428197 5.25 322.6875 C4.66089844 323.45900391 4.07179688 324.23050781 3.46484375 325.02539062 C0.47616801 328.84978819 0.47616801 328.84978819 -2 333 C0.475 334.485 0.475 334.485 3 336 C2.67 337.32 2.34 338.64 2 340 C1.3709375 339.96777344 0.741875 339.93554688 0.09375 339.90234375 C-3.8910304 339.95635433 -6.88742251 340.15689082 -10.12890625 342.61328125 C-14.62591974 347.58270828 -18.36993659 353.22743142 -22.03149414 358.83300781 C-22.97303528 360.25495301 -23.98115518 361.6323805 -25 363 C-25.66 363 -26.32 363 -27 363 C-27.22945312 363.69609375 -27.45890625 364.3921875 -27.6953125 365.109375 C-29.26838108 368.59461677 -31.47286426 371.31700794 -33.875 374.25 C-37.40117605 378.65272194 -40.1751929 382.64802135 -41.890625 388.09765625 C-43 390 -43 390 -45.8125 391.87109375 C-49.33388727 394.22300069 -51.27372435 396.58444737 -53.75 400 C-54.88695312 401.546875 -54.88695312 401.546875 -56.046875 403.125 C-57.5899805 405.39645129 -58.79095785 407.55492816 -60 410 C-62.15734447 412.2172707 -64.35622802 414.38311776 -66.58984375 416.5234375 C-70.59944342 420.69969534 -71.84096724 424.13275723 -72.578125 429.86328125 C-73 432 -73 432 -75 434 C-76.03125 434.144375 -77.0625 434.28875 -78.125 434.4375 C-83.33153337 435.71457422 -85.53132776 440.4309882 -88.30078125 444.6640625 C-89.14189453 445.82035156 -89.14189453 445.82035156 -90 447 C-90.66 447 -91.32 447 -92 447 C-92.2371875 447.70253906 -92.474375 448.40507812 -92.71875 449.12890625 C-94.23248531 452.52096557 -96.18474928 455.03244648 -98.5 457.9375 C-107.21344979 469.016303 -115.58175131 480.47880083 -122.75 492.625 C-126.88669376 499.59890257 -131.47284 506.27649505 -136 513 C-145.56596937 527.09843156 -145.56596937 527.09843156 -154.125 541.8125 C-156.42849374 546.06089611 -158.44006037 549.70054376 -162 553 C-165.75 553.9375 -165.75 553.9375 -169 554 C-169.33 553.67 -169.66 553.34 -170 553 C-169.99391529 551.60355817 -169.94326031 550.20728577 -169.875 548.8125 C-169.78980963 541.37964028 -171.60852895 534.2413792 -173.50733948 527.08895874 C-175.07344875 520.82845718 -175.32642559 514.82016929 -175.37890625 508.38671875 C-175.39590073 507.29591507 -175.4128952 506.20511139 -175.43040466 505.08125305 C-175.48317259 501.61672663 -175.52362496 498.15220781 -175.5625 494.6875 C-175.6067533 491.2335665 -175.65376601 487.77971456 -175.70530701 484.32588196 C-175.7366942 482.1854726 -175.7637474 480.04499329 -175.78553772 477.90446472 C-175.01896566 465.57847272 -175.01896566 465.57847272 -179 455 C-179.23046875 453.125 -179.23046875 453.125 -179.1875 451 C-179.18105469 450.29875 -179.17460937 449.5975 -179.16796875 448.875 C-179 447 -179 447 -178 445 C-177.90547094 443.59145794 -177.87205931 442.17855543 -177.87060547 440.7668457 C-177.86750366 439.88483994 -177.86440186 439.00283417 -177.86120605 438.09410095 C-177.86317993 437.13105545 -177.86515381 436.16800995 -177.8671875 435.17578125 C-177.86577759 434.17531265 -177.86436768 433.17484406 -177.86291504 432.14405823 C-177.86076696 428.86683696 -177.86710539 425.58971161 -177.875 422.3125 C-177.8765509 421.19433899 -177.87810181 420.07617798 -177.87969971 418.9241333 C-177.90794155 401.62492074 -178.11155723 384.35998257 -178.90496826 367.07678223 C-179.00946524 364.79315081 -179.11043496 362.50937499 -179.21142578 360.22558594 C-179.40372624 355.91740011 -179.60557398 351.60974092 -179.81402588 347.30230713 C-179.89433122 345.64233269 -179.97345606 343.98230057 -180.0512085 342.32220459 C-180.99155909 322.04422378 -180.99155909 322.04422378 -184 302 C-184.01929026 299.91665181 -183.99425507 297.83266432 -183.9375 295.75 C-183.87678819 289.35502273 -184.43307503 283.19610739 -185.28881836 276.86230469 C-185.82135384 272.87375167 -186.10059605 269.02384214 -186 265 C-186.99 264.67 -187.98 264.34 -189 264 C-189.04254356 262.00045254 -189.04080783 259.99958364 -189 258 C-188.67 257.67 -188.34 257.34 -188 257 C-187.98294007 254.2397417 -188.02979069 251.50735591 -188.12109375 248.75 C-188.15651024 247.4808374 -188.15651024 247.4808374 -188.19264221 246.18603516 C-188.26944251 243.45719289 -188.35304286 240.72861518 -188.4375 238 C-189.05177133 217.48445797 -189.05177133 217.48445797 -189.09765625 207.25 C-189.10389511 206.5286084 -189.11013397 205.8072168 -189.11656189 205.06396484 C-189.11730138 203.37552962 -189.06436763 201.68720801 -189 200 C-188.67 199.67 -188.34 199.34 -188 199 C-187.66439157 195.97952417 -187.74547558 194.41369387 -189.35546875 191.796875 C-191.29081466 188.50540785 -192.42619269 185.12041131 -193.5625 181.5 C-195.14381034 176.44909506 -195.14381034 176.44909506 -197.125 171.546875 C-201.12341999 159.90861681 -197.79735322 144.93931275 -193 134 C-190.66787565 129.6987472 -187.9926632 125.86366219 -185 122 C-184.3709375 121.12859375 -183.741875 120.2571875 -183.09375 119.359375 C-167.83680045 98.97508994 -144.88051998 90.41896982 -121 85 C-117.63430074 84.22917329 -114.26890924 83.45702979 -110.90380859 82.68359375 C-108.58997727 82.15340077 -106.27522302 81.62721608 -103.95947266 81.10546875 C-102.88745605 80.86183594 -101.81543945 80.61820312 -100.7109375 80.3671875 C-99.75493652 80.15175293 -98.79893555 79.93631836 -97.81396484 79.71435547 C-94.9368368 79.02141002 -94.9368368 79.02141002 -91.93701172 77.97241211 C-89.36827725 77.12193252 -86.95488892 76.54074912 -84.296875 76.07421875 C-58.30509629 71.07318279 -31.91849897 58.77994302 -16 36.875 C-13.11789775 32.47785622 -10.90348233 27.89466885 -9 23 C-8.34 23 -7.68 23 -7 23 C-6.67 16.73 -6.34 10.46 -6 4 C-4.68 3.67 -3.36 3.34 -2 3 C-1.34 2.01 -0.68 1.02 0 0 Z " transform="translate(252,37)" style="fill: #674627;"/><path d="M0 0 C2.6465335 2.6465335 3.59941997 5.56221264 5 9 C6.20011719 8.96132812 7.40023437 8.92265625 8.63671875 8.8828125 C15.11190523 8.88534434 21.42226503 9.91185395 27.8125 10.875 C29.60397461 11.13603516 29.60397461 11.13603516 31.43164062 11.40234375 C37.03897378 12.22650268 42.62691462 13.10602527 48.20703125 14.09765625 C53.76742602 15.03679033 59.24433003 15.39225113 64.875 15.5625 C70.33228653 15.74676183 75.62712959 15.92719914 81 17 C81.495 20.96 81.495 20.96 82 25 C83.98 24.67 85.96 24.34 88 24 C88.33 22.35 88.66 20.7 89 19 C93.90312723 18.86241225 98.21660748 19.31552052 103 20.375 C109.59236681 21.79449686 116.15567696 22.72347825 122.85546875 23.47265625 C125.72845916 23.9544621 127.47377169 24.66099057 130 26 C132.09373245 26.19940309 134.18747056 26.3987472 136.28125 26.59765625 C141.64783508 27.39184916 147.0535083 28.76449801 152 31 C154.31338907 34.26247177 154.17870701 37.06844568 154 41 C156.3295947 41.50241322 156.3295947 41.50241322 159 41 C161.35322796 38.09587454 161.35322796 38.09587454 163 35 C166.96245332 35.48322602 170.14212385 36.46200559 173.7578125 38.1171875 C176.74051942 39.2915634 179.78324427 40.093085 182.875 40.9375 C196.80197563 44.80197563 196.80197563 44.80197563 200 48 C201.59668537 48.311925 203.20354808 48.57171978 204.8125 48.8125 C211.5154835 49.87467746 218.14914947 51.2098791 224.79223633 52.59106445 C229.85196218 53.62738181 234.86655079 54.42633114 240 55 C240.433125 56.2065625 240.433125 56.2065625 240.875 57.4375 C241.73262568 60.1326468 241.73262568 60.1326468 244 61 C244.31640625 63.16796875 244.31640625 63.16796875 244 66 C241.83984375 68.61328125 241.83984375 68.61328125 238.9375 71.3125 C237.91620164 72.28590973 236.89666978 73.26117622 235.87890625 74.23828125 C234.92886719 75.14964844 233.97882813 76.06101562 233 77 C225.49669257 85.0084806 218.50268088 93.66427989 212.19140625 102.63671875 C211.79824219 103.08660156 211.40507812 103.53648437 211 104 C210.34 104 209.68 104 209 104 C208.731875 104.556875 208.46375 105.11375 208.1875 105.6875 C206.36133496 109.24371613 204.71083325 112.31078422 201.81640625 115.1171875 C198.22251177 118.64815769 195.27948605 122.67428197 192.25 126.6875 C191.66089844 127.45900391 191.07179688 128.23050781 190.46484375 129.02539062 C187.47616801 132.84978819 187.47616801 132.84978819 185 137 C186.65 137.99 188.3 138.98 190 140 C189.67 141.32 189.34 142.64 189 144 C188.3709375 143.96777344 187.741875 143.93554688 187.09375 143.90234375 C183.1089696 143.95635433 180.11257749 144.15689082 176.87109375 146.61328125 C172.37408026 151.58270828 168.63006341 157.22743142 164.96850586 162.83300781 C164.02696472 164.25495301 163.01884482 165.6323805 162 167 C161.34 167 160.68 167 160 167 C159.77054688 167.69609375 159.54109375 168.3921875 159.3046875 169.109375 C157.73161892 172.59461677 155.52713574 175.31700794 153.125 178.25 C149.59882395 182.65272194 146.8248071 186.64802135 145.109375 192.09765625 C144 194 144 194 141.1875 195.87109375 C137.66611273 198.22300069 135.72627565 200.58444737 133.25 204 C132.11304688 205.546875 132.11304688 205.546875 130.953125 207.125 C129.4100195 209.39645129 128.20904215 211.55492816 127 214 C124.84265553 216.2172707 122.64377198 218.38311776 120.41015625 220.5234375 C116.40055658 224.69969534 115.15903276 228.13275723 114.421875 233.86328125 C114 236 114 236 112 238 C110.453125 238.2165625 110.453125 238.2165625 108.875 238.4375 C103.66846663 239.71457422 101.46867224 244.4309882 98.69921875 248.6640625 C98.13847656 249.43492187 97.57773438 250.20578125 97 251 C96.34 251 95.68 251 95 251 C94.7628125 251.70253906 94.525625 252.40507812 94.28125 253.12890625 C92.76751469 256.52096557 90.81525072 259.03244648 88.5 261.9375 C79.78655021 273.016303 71.41824869 284.47880083 64.25 296.625 C60.11330624 303.59890257 55.52716 310.27649505 51 317 C41.43403063 331.09843156 41.43403063 331.09843156 32.875 345.8125 C30.57150626 350.06089611 28.55993963 353.70054376 25 357 C21.25 357.9375 21.25 357.9375 18 358 C17.67 357.67 17.34 357.34 17 357 C17.00608471 355.60355817 17.05673969 354.20728577 17.125 352.8125 C17.21019037 345.37964028 15.39147105 338.2413792 13.49266052 331.08895874 C11.92655125 324.82845718 11.67357441 318.82016929 11.62109375 312.38671875 C11.60409927 311.29591507 11.5871048 310.20511139 11.56959534 309.08125305 C11.51682741 305.61672663 11.47637504 302.15220781 11.4375 298.6875 C11.3932467 295.2335665 11.34623399 291.77971456 11.29469299 288.32588196 C11.2633058 286.1854726 11.2362526 284.04499329 11.21446228 281.90446472 C11.98103434 269.57847272 11.98103434 269.57847272 8 259 C7.76953125 257.125 7.76953125 257.125 7.8125 255 C7.82216797 253.948125 7.82216797 253.948125 7.83203125 252.875 C8 251 8 251 9 249 C9.09452906 247.59145794 9.12794069 246.17855543 9.12939453 244.7668457 C9.13249634 243.88483994 9.13559814 243.00283417 9.13879395 242.09410095 C9.13583313 240.6495327 9.13583313 240.6495327 9.1328125 239.17578125 C9.13492737 237.67507835 9.13492737 237.67507835 9.13708496 236.14405823 C9.13923304 232.86683696 9.13289461 229.58971161 9.125 226.3125 C9.1234491 225.19433899 9.12189819 224.07617798 9.12030029 222.9241333 C9.09205845 205.62492074 8.88844277 188.35998257 8.09503174 171.07678223 C7.99053476 168.79315081 7.88956504 166.50937499 7.78857422 164.22558594 C7.59627376 159.91740011 7.39442602 155.60974092 7.18597412 151.30230713 C7.10566878 149.64233269 7.02654394 147.98230057 6.9487915 146.32220459 C6.00844091 126.04422378 6.00844091 126.04422378 3 106 C2.98070974 103.91665181 3.00574493 101.83266432 3.0625 99.75 C3.12321181 93.35502273 2.56692497 87.19610739 1.71118164 80.86230469 C1.17864616 76.87375167 0.89940395 73.02384214 1 69 C0.01 68.67 -0.98 68.34 -2 68 C-2.04254356 66.00045254 -2.04080783 63.99958364 -2 62 C-1.505 61.505 -1.505 61.505 -1 61 C-0.98294007 58.2397417 -1.02979069 55.50735591 -1.12109375 52.75 C-1.14470474 51.9038916 -1.16831573 51.0577832 -1.19264221 50.18603516 C-1.26944251 47.45719289 -1.35304286 44.72861518 -1.4375 42 C-1.64707745 35.00049551 -1.8431956 28.00090482 -2 21 C-2.01879211 20.17000488 -2.03758423 19.34000977 -2.0569458 18.48486328 C-2.10394508 16.13571867 -2.13510713 13.78697002 -2.16015625 11.4375 C-2.17477402 10.74124512 -2.18939178 10.04499023 -2.20445251 9.32763672 C-2.22415979 5.70217627 -1.98756888 3.08207968 0 0 Z " transform="translate(65,233)" style="fill: #E9CB61;"/><path d="M0 0 C1.8125 0.1875 1.8125 0.1875 4 1 C6.49929847 4.5332722 7.62517028 7.80076284 8.5625 12 C9.21741877 14.90088314 9.83980108 17.615459 10.98413086 20.36230469 C11.99452073 22.98577313 12.54107986 25.37173852 13 28.140625 C13.24592896 29.6100354 13.24592896 29.6100354 13.49682617 31.10913086 C13.74589722 32.66386108 13.74589722 32.66386108 14 34.25 C14.17442627 35.3232251 14.34885254 36.3964502 14.52856445 37.50219727 C21.20525424 79.27598849 21.20525424 79.27598849 17.25 99.125 C17.07025635 100.04498779 16.8905127 100.96497559 16.70532227 101.9128418 C14.63210236 112.24283823 11.79504555 122.16738197 8 132 C7.28224841 134.32266196 6.63565392 136.65297015 6 139 C5.34 139 4.68 139 4 139 C3.91492188 139.825 3.82984375 140.65 3.7421875 141.5 C2.83717132 145.76786579 1.13939052 149.15893994 -0.875 153 C-1.22691406 153.68578125 -1.57882813 154.3715625 -1.94140625 155.078125 C-2.63428244 156.42781691 -3.33010112 157.77600288 -4.02905273 159.12255859 C-5.38003596 161.73484449 -6.69059205 164.36667543 -8 167 C-9.66666667 170.33333333 -11.33333333 173.66666667 -13 177 C-15 176 -15 176 -16 173 C-21.70972162 170.53598323 -27.87117632 168.95382158 -34.0625 168.375 C-38 168 -38 168 -39.89038086 167.0390625 C-42.49207756 165.75763429 -44.82258761 165.4148917 -47.69140625 165 C-48.80193359 164.835 -49.91246094 164.67 -51.05664062 164.5 C-52.21357422 164.335 -53.37050781 164.17 -54.5625 164 C-56.83485342 163.66815603 -59.10699179 163.33483598 -61.37890625 163 C-63.03237061 162.75636719 -63.03237061 162.75636719 -64.71923828 162.5078125 C-69.49764169 161.76818762 -74.24986818 160.90193135 -79 160 C-79 161.65 -79 163.3 -79 165 C-79.33 165 -79.66 165 -80 165 C-84.12077729 121.62087141 -84.12077729 121.62087141 -79 111 C-78.37337749 109.5423631 -77.74847644 108.08398535 -77.125 106.625 C-75.03520258 101.9189058 -72.5712811 97.45758977 -70 93 C-69.34 93 -68.68 93 -68 93 C-67.87625 92.4225 -67.7525 91.845 -67.625 91.25 C-66.99351176 88.97664233 -66.11141809 87.0746471 -65 85 C-64.34 85 -63.68 85 -63 85 C-62.731875 84.195625 -62.46375 83.39125 -62.1875 82.5625 C-61.795625 81.716875 -61.40375 80.87125 -61 80 C-59.515 79.505 -59.515 79.505 -58 79 C-57.39938767 77.09821215 -57.39938767 77.09821215 -57 75 C-56.34 74.01 -55.68 73.02 -55 72 C-54.34 72 -53.68 72 -53 72 C-52.773125 71.29875 -52.54625 70.5975 -52.3125 69.875 C-50.66158712 66.25871465 -48.7091165 63.91230024 -46 61 C-45.34 61 -44.68 61 -44 61 C-43.89558594 60.41734375 -43.79117188 59.8346875 -43.68359375 59.234375 C-42.89706383 56.66354577 -41.82434109 55.2659942 -40.0625 53.25 C-39.53785156 52.63640625 -39.01320312 52.0228125 -38.47265625 51.390625 C-37 50 -37 50 -35 50 C-34.690625 49.38125 -34.38125 48.7625 -34.0625 48.125 C-33.375 46.75 -32.6875 45.375 -32 44 C-31.34 44 -30.68 44 -30 44 C-29.71125 43.236875 -29.4225 42.47375 -29.125 41.6875 C-28 39 -28 39 -26 36 C-25.34 36 -24.68 36 -24 36 C-23.67 34.68 -23.34 33.36 -23 32 C-22.34 32 -21.68 32 -21 32 C-21 31.01 -21 30.02 -21 29 C-20.34 28.67 -19.68 28.34 -19 28 C-18.505 26.515 -18.505 26.515 -18 25 C-17.34 25 -16.68 25 -16 25 C-14.79371992 22.66785852 -13.8345262 20.50357861 -13 18 C-12.34 18 -11.68 18 -11 18 C-9.79371992 15.66785852 -8.8345262 13.50357861 -8 11 C-7.34 11 -6.68 11 -6 11 C-5.690625 10.21625 -5.38125 9.4325 -5.0625 8.625 C-4 6 -4 6 -3 4 C-2.34 4 -1.68 4 -1 4 C-0.67 2.68 -0.34 1.36 0 0 Z " transform="translate(233,92)" style="fill: #654426;"/><path d="M0 0 C1.32 0.33 2.64 0.66 4 1 C3.50518446 3.57304081 2.80657249 5.3387487 1.4921875 7.640625 C-1.68892357 14.80228867 -1.15470677 23.9256688 0.9609375 31.390625 C5.80868277 42.0948949 14.93922005 49.79410669 24.22265625 56.66015625 C26 58 26 58 28 60 C28 60.99 28 61.98 28 63 C27.34 63 26.68 63 26 63 C26 62.34 26 61.68 26 61 C24.68 60.67 23.36 60.34 22 60 C22 59.34 22 58.68 22 58 C21.01 58 20.02 58 19 58 C18.67 57.34 18.34 56.68 18 56 C17.01 55.67 16.02 55.34 15 55 C15 54.34 15 53.68 15 53 C13.02 52.505 13.02 52.505 11 52 C11 51.34 11 50.68 11 50 C10.4225 49.731875 9.845 49.46375 9.25 49.1875 C6.96587952 47.98199197 5.04568469 46.56864477 3 45 C3.31453125 45.52207031 3.6290625 46.04414062 3.953125 46.58203125 C6.31971334 50.65227806 8.30386145 54.59747111 9.8125 59.0625 C14.46085857 72.39643694 21.9747366 84.72530458 28.87207031 96.9921875 C30.42649296 99.7591944 31.96822729 102.53289293 33.5 105.3125 C33.9434375 106.11300781 34.386875 106.91351563 34.84375 107.73828125 C36.0562667 110.11006223 37.01537135 112.52642071 38 115 C38.61875 116.093125 39.2375 117.18625 39.875 118.3125 C51.92622441 142.55086489 44.97338119 170.38644506 38 195 C37.34 195 36.68 195 36 195 C35.773125 196.216875 35.54625 197.43375 35.3125 198.6875 C34.13148098 204.07055045 32.15674138 209.06942669 30.12109375 214.1796875 C29.35832729 216.09856339 28.65298525 218.04104425 28 220 C27.34 220 26.68 220 26 220 C25.814375 221.918125 25.814375 221.918125 25.625 223.875 C25.25 227.75 25.25 227.75 23 230 C22.35232207 232.57061311 22.35232207 232.57061311 22 235 C21.34 235 20.68 235 20 235 C19.87625 236.11375 19.7525 237.2275 19.625 238.375 C19 242 19 242 17 244 C13.57569353 244.62260118 11.33586706 243.77675816 8.3125 242.3125 C2.90633813 239.73726749 -2.74753632 238.31695666 -8.52807617 236.83911133 C-13.02124843 235.66266254 -16.84482311 234.12375708 -21 232 C-21.99 232 -22.98 232 -24 232 C-24.61875 232.99 -25.2375 233.98 -25.875 235 C-26.57625 235.99 -27.2775 236.98 -28 238 C-30.6875 238.4375 -30.6875 238.4375 -33 238 C-34 237 -34 237 -34.0625 234.4375 C-34.041875 233.633125 -34.02125 232.82875 -34 232 C-33.34 232 -32.68 232 -32 232 C-31.9175 231.29875 -31.835 230.5975 -31.75 229.875 C-30.82451185 226.32729543 -29.05737852 224.02555664 -27 221 C-26.26552673 219.30751811 -25.53283023 217.61380931 -24.84375 215.90234375 C-23.89037239 213.75283034 -22.74919933 211.77969001 -21.5625 209.75 C-18.70305684 204.73297701 -16.82779641 199.46296692 -15 194 C-14.34 194 -13.68 194 -13 194 C-12.80664062 193.02417969 -12.61328125 192.04835937 -12.4140625 191.04296875 C-12.02347656 189.13451172 -12.02347656 189.13451172 -11.625 187.1875 C-11.36976563 185.92292969 -11.11453125 184.65835938 -10.8515625 183.35546875 C-10 180 -10 180 -8 177 C-6.76543662 172.74093434 -5.88676822 168.39310321 -4.9375 164.0625 C-4.66873047 162.88880859 -4.39996094 161.71511719 -4.12304688 160.50585938 C-0.99299908 146.38551909 -0.3698222 132.61664915 -1.75 118.25 C-1.83507812 117.35748535 -1.92015625 116.4649707 -2.0078125 115.54541016 C-2.97784584 106.13838077 -4.67673667 96.88741073 -6.49780273 87.61328125 C-7.20781437 83.91859745 -7.85105872 80.21252714 -8.49243164 76.50537109 C-9.93838321 69.36811519 -12.75121841 62.49756319 -16 56 C-17.485 55.505 -17.485 55.505 -19 55 C-19.33 56.32 -19.66 57.64 -20 59 C-20.66 59 -21.32 59 -22 59 C-22.309375 59.78375 -22.61875 60.5675 -22.9375 61.375 C-24 64 -24 64 -25 66 C-25.66 66 -26.32 66 -27 66 C-27.12375 66.598125 -27.2475 67.19625 -27.375 67.8125 C-28 70 -28 70 -30 73 C-30.66 73 -31.32 73 -32 73 C-32.12375 73.598125 -32.2475 74.19625 -32.375 74.8125 C-33 77 -33 77 -35 80 C-35.66 80 -36.32 80 -37 80 C-37.495 81.98 -37.495 81.98 -38 84 C-38.66 84 -39.32 84 -40 84 C-40 84.99 -40 85.98 -40 87 C-40.66 87 -41.32 87 -42 87 C-42.495 88.98 -42.495 88.98 -43 91 C-43.66 91 -44.32 91 -45 91 C-45.28875 91.5775 -45.5775 92.155 -45.875 92.75 C-46.91666667 94.83333333 -47.95833333 96.91666667 -49 99 C-49.66 99 -50.32 99 -51 99 C-51.309375 99.61875 -51.61875 100.2375 -51.9375 100.875 C-52.625 102.25 -53.3125 103.625 -54 105 C-54.66 105 -55.32 105 -56 105 C-56.2475 105.5775 -56.495 106.155 -56.75 106.75 C-58.16599656 109.29879381 -59.94723215 110.94723215 -62 113 C-62.495 114.485 -62.495 114.485 -63 116 C-63.66 116 -64.32 116 -65 116 C-65.495 117.485 -65.495 117.485 -66 119 C-66.66 119 -67.32 119 -68 119 C-68.28875 119.763125 -68.5775 120.52625 -68.875 121.3125 C-70 124 -70 124 -72 127 C-72.66 127 -73.32 127 -74 127 C-75.20628008 129.33214148 -76.1654738 131.49642139 -77 134 C-78.31266518 135.35368596 -79.64567325 136.68799596 -81 138 C-81.33 138.66 -81.66 139.32 -82 140 C-82.66 140 -83.32 140 -84 140 C-85.07525194 142.65228812 -86.09456151 145.28368454 -87 148 C-87.66 148 -88.32 148 -89 148 C-89.268125 148.721875 -89.53625 149.44375 -89.8125 150.1875 C-91 153 -91 153 -92.4453125 155.29296875 C-94.10800549 158.18805981 -95.0766266 160.93987055 -96.0625 164.125 C-97.12833808 167.55794033 -97.99363908 169.99045862 -100 173 C-101.69485806 182.2848746 -100.66532993 191.54186415 -99.70703125 200.84375 C-99.03883447 207.58382189 -98.89363209 214.22791 -99 221 C-100.98 221 -102.96 221 -105 221 C-107.00723632 212.6578689 -108.4940268 204.30471525 -109.6875 195.8125 C-109.81874268 194.91128418 -109.94998535 194.01006836 -110.08520508 193.08154297 C-112.38409152 176.11202974 -109.15668025 163.05490126 -101 148 C-100.32799827 146.66934757 -99.65912319 145.33707847 -99 144 C-98.34 144 -97.68 144 -97 144 C-97 143.01 -97 142.02 -97 141 C-96.34 140.67 -95.68 140.34 -95 140 C-94.67 139.01 -94.34 138.02 -94 137 C-93.34 137 -92.68 137 -92 137 C-91.67 136.01 -91.34 135.02 -91 134 C-90.34 134 -89.68 134 -89 134 C-88.731875 133.195625 -88.46375 132.39125 -88.1875 131.5625 C-87.795625 130.716875 -87.40375 129.87125 -87 129 C-86.01 128.67 -85.02 128.34 -84 128 C-83.64587656 126.67203709 -83.31478446 125.33783393 -83 124 C-81.5625 122.25 -81.5625 122.25 -80 121 C-79.34 121 -78.68 121 -78 121 C-77.731875 120.4225 -77.46375 119.845 -77.1875 119.25 C-75.97070811 116.94449957 -74.69666121 114.97943808 -73 113 C-72.34 113 -71.68 113 -71 113 C-70.34 111.68 -69.68 110.36 -69 109 C-68.34 109 -67.68 109 -67 109 C-67 108.34 -67 107.68 -67 107 C-66.34 107 -65.68 107 -65 107 C-64.73058594 106.41347656 -64.46117187 105.82695312 -64.18359375 105.22265625 C-63.00154813 103.00290721 -61.71899616 101.32160632 -60.0625 99.4375 C-59.55847656 98.85871094 -59.05445313 98.27992188 -58.53515625 97.68359375 C-55.44868421 94.29868421 -55.44868421 94.29868421 -54 93 C-53.34 93 -52.68 93 -52 93 C-51.71125 92.401875 -51.4225 91.80375 -51.125 91.1875 C-50 89 -50 89 -48 86 C-47.34 86 -46.68 86 -46 86 C-45.505 84.02 -45.505 84.02 -45 82 C-44.34 82 -43.68 82 -43 82 C-42.62875 81.13375 -42.62875 81.13375 -42.25 80.25 C-40.83400344 77.70120619 -39.05276785 76.05276785 -37 74 C-36.505 72.515 -36.505 72.515 -36 71 C-35.34 71 -34.68 71 -34 71 C-33.505 69.515 -33.505 69.515 -33 68 C-32.34 68 -31.68 68 -31 68 C-31 67.01 -31 66.02 -31 65 C-30.34 65 -29.68 65 -29 65 C-28.76152344 64.48308594 -28.52304688 63.96617188 -28.27734375 63.43359375 C-26.57020825 60.18116127 -24.5672304 57.13598813 -22.5625 54.0625 C-21.39126408 52.26074556 -20.22206427 50.45792157 -19.0612793 48.64941406 C-18.11094405 47.1724265 -17.14624193 45.70470611 -16.1796875 44.23828125 C-14.69138089 41.98191011 -14.69138089 41.98191011 -15.5625 39.125 C-16.16688539 34.80796147 -14.24103138 32.47826746 -12 29 C-10.98553388 27.00729869 -9.98034504 25.00970734 -9 23 C-8.34 23 -7.68 23 -7 23 C-6.67 16.73 -6.34 10.46 -6 4 C-4.68 3.67 -3.36 3.34 -2 3 C-1.34 2.01 -0.68 1.02 0 0 Z " transform="translate(252,37)" style="fill: #634325;"/><path d="M0 0 C2.91706203 0.30911254 5.8336109 0.62215425 8.75 0.9375 C9.575 1.02451172 10.4 1.11152344 11.25 1.20117188 C12.04921875 1.28818359 12.8484375 1.37519531 13.671875 1.46484375 C14.4050293 1.543396 15.13818359 1.62194824 15.89355469 1.70288086 C17.98147994 1.9973877 19.96552768 2.45117496 22 3 C22 3.66 22 4.32 22 5 C22.80695313 5.13277344 23.61390625 5.26554687 24.4453125 5.40234375 C28.59269518 6.09965095 32.73388782 6.82903183 36.875 7.5625 C37.65875 7.70107422 38.4425 7.83964844 39.25 7.98242188 C41.16671297 8.32135283 43.08336295 8.66063999 45 9 C46.29426907 13.44226545 45.58253661 16.34972444 44.3125 20.75 C42.8805986 25.85244355 41.83150642 30.85124242 41.19140625 36.1171875 C39.57839414 49.21611175 37.73801187 59.51646579 28 69 C27.34 69 26.68 69 26 69 C25.7628125 69.70253906 25.525625 70.40507812 25.28125 71.12890625 C23.76751469 74.52096557 21.81525072 77.03244648 19.5 79.9375 C15.80629069 84.6339037 12.21724317 89.38367055 8.75 94.25 C8.12327393 95.12615967 8.12327393 95.12615967 7.48388672 96.02001953 C4.61389313 100.06041274 1.90926847 104.18124466 -0.6484375 108.42578125 C-2.30982563 110.36086627 -3.5177496 110.63558452 -6 111 C-6.226875 112.051875 -6.45375 113.10375 -6.6875 114.1875 C-7.81684567 118.19667711 -9.94824308 120.17154237 -13 123 C-13.556875 123.928125 -14.11375 124.85625 -14.6875 125.8125 C-15.3371875 126.8953125 -15.3371875 126.8953125 -16 128 C-16.66 128 -17.32 128 -18 128 C-18.061875 128.556875 -18.12375 129.11375 -18.1875 129.6875 C-19.32655851 132.92943577 -21.5843041 134.5843041 -24 137 C-25.79320824 140.16645474 -25.79320824 140.16645474 -27 143 C-27.66 143 -28.32 143 -29 143 C-29 143.99 -29 144.98 -29 146 C-29.66 146.33 -30.32 146.66 -31 147 C-32.04808041 148.97522846 -33.0520411 150.97481509 -34 153 C-34.66 153 -35.32 153 -36 153 C-37.07525194 155.65228812 -38.09456151 158.28368454 -39 161 C-39.66 161 -40.32 161 -41 161 C-41.66 162.65 -42.32 164.3 -43 166 C-43.99 166 -44.98 166 -46 166 C-45.58097151 149.73407596 -39.98281509 133.49507486 -35.55224609 117.94921875 C-34.74403936 115.09655625 -33.96484231 112.23620363 -33.1875 109.375 C-32.95417969 108.51648438 -32.72085938 107.65796875 -32.48046875 106.7734375 C-32.32191406 106.18820312 -32.16335937 105.60296875 -32 105 C-27.76570244 106.31061591 -23.92592596 107.94356259 -20 110 C-20 110.66 -20 111.32 -20 112 C-19.01 112 -18.02 112 -17 112 C-17 112.66 -17 113.32 -17 114 C-14.66705225 114.04241723 -12.33297433 114.04092937 -10 114 C-8.77949757 112.95845606 -8.77949757 112.95845606 -8.5 110.75 C-8.76401217 107.6924421 -8.76401217 107.6924421 -11.8125 105.5 C-15.85821298 102.84993339 -20.25427482 101.07563294 -24.7421875 99.30859375 C-27 98 -27 98 -27.91015625 96.30078125 C-28.04066028 92.95874337 -27.3153234 90.00219708 -26.5625 86.75 C-26.27503906 85.48671875 -25.98757812 84.2234375 -25.69140625 82.921875 C-25.46324219 81.95765625 -25.23507813 80.9934375 -25 80 C-24.34 80 -23.68 80 -23 80 C-22.896875 79.030625 -22.79375 78.06125 -22.6875 77.0625 C-22.04762079 72.50915661 -20.53886684 68.31551787 -19 64 C-18.67 63.01 -18.34 62.02 -18 61 C-15.6568787 61.25561323 -13.32156597 61.59270772 -11 62 C-10.67 62.66 -10.34 63.32 -10 64 C-8.28677468 64.83586755 -8.28677468 64.83586755 -6.25 65.5 C-5.53199219 65.75652344 -4.81398437 66.01304687 -4.07421875 66.27734375 C-3.38972656 66.51582031 -2.70523438 66.75429688 -2 67 C2.88311688 68.76623377 2.88311688 68.76623377 4 71 C8.09194801 72.41644354 11.66708088 73.26260116 16 73 C16 71.02 16 69.04 16 67 C14.8553125 66.443125 14.8553125 66.443125 13.6875 65.875 C10.70665956 64.38807022 7.79195326 62.79583458 4.875 61.1875 C-0.1979502 58.39702945 -5.35493505 55.81789878 -10.56640625 53.296875 C-13 52 -13 52 -15 50 C-14.54997868 41.97012651 -11.33244927 33.68093871 -9.125 26 C-8.78597656 24.7934375 -8.44695312 23.586875 -8.09765625 22.34375 C-5.91055666 14.69305941 -3.56814454 7.13628909 0 0 Z " transform="translate(134,415)" style="fill: #D2AF34;"/><path d="M0 0 C5.57830269 0.48067007 10.61704479 1.39455722 16 3 C17.43606004 3.29493146 18.87528008 3.57466196 20.31640625 3.84375 C27.10305493 5.17751714 33.79402513 6.87557167 40.5 8.5625 C41.77359375 8.87896484 43.0471875 9.19542969 44.359375 9.52148438 C46.17695313 9.9768457 46.17695313 9.9768457 48.03125 10.44140625 C49.13017578 10.71670166 50.22910156 10.99199707 51.36132812 11.27563477 C54 12 54 12 56 13 C58.20266316 13.38787256 60.41224568 13.73709495 62.625 14.0625 C64.40777344 14.32740234 64.40777344 14.32740234 66.2265625 14.59765625 C67.14179688 14.73042969 68.05703125 14.86320312 69 15 C67.549889 18.93415765 66.06817237 21.12977424 63 24 C62.67 24.66 62.34 25.32 62 26 C61.34 26 60.68 26 60 26 C59.71125 26.5775 59.4225 27.155 59.125 27.75 C58.568125 28.86375 58.568125 28.86375 58 30 C57.731875 30.639375 57.46375 31.27875 57.1875 31.9375 C55.90884009 34.15833037 54.32802633 35.63228457 52.48828125 37.390625 C48.64518888 41.54640992 45.67372975 46.52235282 42.51171875 51.203125 C41.38737239 52.83491971 40.19992806 54.42295169 39 56 C38.34 56 37.68 56 37 56 C36.91363281 56.59167969 36.82726562 57.18335938 36.73828125 57.79296875 C36.59777344 58.58316406 36.45726562 59.37335938 36.3125 60.1875 C36.12107422 61.35345703 36.12107422 61.35345703 35.92578125 62.54296875 C34.6637306 65.89246183 32.58760623 67.53526893 30 70 C27.91040667 72.42459548 25.92552635 74.92933594 23.9375 77.4375 C23.42123047 78.08009766 22.90496094 78.72269531 22.37304688 79.38476562 C20.03299254 82.32101214 17.78954021 85.25355773 15.75390625 88.41015625 C14 91 14 91 12 92 C6.86467543 92.30207792 2.89592815 91.4601891 -2 90 C-3.37176599 89.80852979 -4.74725158 89.64216916 -6.125 89.5 C-9.60015795 89.05159252 -11.80955936 88.29136883 -15 87 C-17.58933096 86.43191149 -20.18471237 85.9380057 -22.79296875 85.46484375 C-25 85 -25 85 -27 84 C-25.99351885 76.11589766 -24.3233207 68.63528021 -21.71875 61.12109375 C-21.08353875 59.24653011 -20.53490848 57.34311147 -20 55.4375 C-18.86276902 51.52826851 -17.46567888 47.79744074 -16 44 C-9.48873841 44.35898591 -3.74132579 45.26285233 2.4453125 47.30859375 C6.12124011 48.30345489 9.76176875 48.50894806 13.5546875 48.69140625 C16.13482529 49.01701469 17.72170275 49.79575717 20 51 C22.32495277 51.38749213 24.65851268 51.72982839 27 52 C26.67 50.35 26.34 48.7 26 47 C25.41621582 46.91959473 24.83243164 46.83918945 24.23095703 46.75634766 C21.52853241 46.38232995 18.82677435 46.00368535 16.125 45.625 C15.2071875 45.49867188 14.289375 45.37234375 13.34375 45.2421875 C4.74817581 44.03154325 -3.68868155 42.5295317 -12 40 C-12.22577402 34.5814234 -11.46670113 30.22512279 -10 25 C-9.34 25 -8.68 25 -8 25 C-7.90203125 24.41734375 -7.8040625 23.8346875 -7.703125 23.234375 C-6.42923534 16.24994549 -4.3666891 9.68647116 -2 3 C-1.34 3 -0.68 3 0 3 C0 2.01 0 1.02 0 0 Z " transform="translate(235,280)" style="fill: #D2AF34;"/><path d="M0 0 C1.32 0.33 2.64 0.66 4 1 C3.50518446 3.57304081 2.80657249 5.3387487 1.4921875 7.640625 C-1.68892357 14.80228867 -1.15470677 23.9256688 0.9609375 31.390625 C5.80868277 42.0948949 14.93922005 49.79410669 24.22265625 56.66015625 C26 58 26 58 28 60 C28 60.99 28 61.98 28 63 C27.34 63 26.68 63 26 63 C26 62.34 26 61.68 26 61 C24.68 60.67 23.36 60.34 22 60 C22 59.34 22 58.68 22 58 C21.01 58 20.02 58 19 58 C18.67 57.34 18.34 56.68 18 56 C17.01 55.67 16.02 55.34 15 55 C15 54.34 15 53.68 15 53 C13.02 52.505 13.02 52.505 11 52 C11 51.34 11 50.68 11 50 C10.4225 49.731875 9.845 49.46375 9.25 49.1875 C6.96587952 47.98199197 5.04568469 46.56864477 3 45 C3.31453125 45.52207031 3.6290625 46.04414062 3.953125 46.58203125 C6.31971334 50.65227806 8.30386145 54.59747111 9.8125 59.0625 C14.46085857 72.39643694 21.9747366 84.72530458 28.87207031 96.9921875 C30.42649296 99.7591944 31.96822729 102.53289293 33.5 105.3125 C33.9434375 106.11300781 34.386875 106.91351563 34.84375 107.73828125 C36.0562667 110.11006223 37.01537135 112.52642071 38 115 C38.61875 116.093125 39.2375 117.18625 39.875 118.3125 C51.92622441 142.55086489 44.97338119 170.38644506 38 195 C37.34 195 36.68 195 36 195 C35.773125 196.216875 35.54625 197.43375 35.3125 198.6875 C34.13148098 204.07055045 32.15674138 209.06942669 30.12109375 214.1796875 C29.35832729 216.09856339 28.65298525 218.04104425 28 220 C27.34 220 26.68 220 26 220 C25.814375 221.918125 25.814375 221.918125 25.625 223.875 C25.25 227.75 25.25 227.75 23 230 C22.35232207 232.57061311 22.35232207 232.57061311 22 235 C21.34 235 20.68 235 20 235 C19.87625 236.11375 19.7525 237.2275 19.625 238.375 C19 242 19 242 17 244 C14.375 244.125 14.375 244.125 12 244 C12.34916137 236.38972826 14.124582 230.01070759 16.875 222.9375 C17.58183235 221.07203221 18.28757465 219.20615101 18.9921875 217.33984375 C19.33467529 216.43685547 19.67716309 215.53386719 20.0300293 214.60351562 C22.72024522 207.38265918 24.87640476 200.04602621 26.9375 192.625 C28.51382378 186.99331404 30.10487508 181.44717115 32.25 176 C34.18886879 170.98790349 34.92914376 165.96813178 35.60546875 160.65234375 C36 158 36 158 37 156 C38.56477221 144.40463673 37.85795532 135.13295678 34 124 C33.62488281 122.90042969 33.24976563 121.80085938 32.86328125 120.66796875 C30.29826704 113.62057091 27.05014966 107.0132232 23.62890625 100.35546875 C21.75179866 96.48871714 20.3482239 92.57279219 18.9609375 88.51171875 C17.70915343 85.23977909 16.00136981 82.35310002 14.23046875 79.33984375 C12.36876525 75.79965202 11.14751842 72.07610894 9.89453125 68.28515625 C9.11737081 65.85023699 9.11737081 65.85023699 7 64 C6.293809 62.38584915 5.5934576 60.76877204 4.9296875 59.13671875 C3.46717467 55.77539724 1.71398786 52.56454954 -0.01171875 49.33203125 C-1 47 -1 47 -1 43 C-0.34 43 0.32 43 1 43 C0.6390625 42.31292969 0.278125 41.62585938 -0.09375 40.91796875 C-0.78984375 39.56638672 -0.78984375 39.56638672 -1.5 38.1875 C-1.9640625 37.29417969 -2.428125 36.40085938 -2.90625 35.48046875 C-4 33 -4 33 -4 30 C-4.66 30 -5.32 30 -6 30 C-6.19335938 30.58007812 -6.38671875 31.16015625 -6.5859375 31.7578125 C-8.05729167 36.171875 -9.52864583 40.5859375 -11 45 C-11.66 45 -12.32 45 -13 45 C-13.94607807 47.74961511 -13.94607807 47.74961511 -14 51 C-13.278125 51.721875 -12.55625 52.44375 -11.8125 53.1875 C-3.48070638 61.51929362 -3.23920829 76.12219288 -1.45263672 87.23339844 C-0.85024858 90.9153091 -0.17477877 94.5806625 0.5 98.25 C5.9900966 129.27480463 8.63821037 159.36966653 -1 190 C-1.66 190.66 -2.32 191.32 -3 192 C-3.71966264 193.77104477 -4.37950051 195.56682571 -5 197.375 C-6.15212757 200.71436976 -7.34257854 203.87753636 -9 207 C-9.66 207 -10.32 207 -11 207 C-11.10699219 207.55042969 -11.21398437 208.10085937 -11.32421875 208.66796875 C-12.13773788 211.4753151 -13.38712074 213.76125156 -14.8125 216.3125 C-15.61494141 217.75496094 -15.61494141 217.75496094 -16.43359375 219.2265625 C-18.27750605 222.49134487 -20.12419692 225.75341775 -22 229 C-22.66 229 -23.32 229 -24 229 C-24.103125 229.7425 -24.20625 230.485 -24.3125 231.25 C-25.06730302 234.26921207 -25.7605778 235.84055717 -28 238 C-30.625 238.3125 -30.625 238.3125 -33 238 C-34 237 -34 237 -34.0625 234.4375 C-34.041875 233.633125 -34.02125 232.82875 -34 232 C-33.34 232 -32.68 232 -32 232 C-31.9175 231.29875 -31.835 230.5975 -31.75 229.875 C-30.82451185 226.32729543 -29.05737852 224.02555664 -27 221 C-26.26552673 219.30751811 -25.53283023 217.61380931 -24.84375 215.90234375 C-23.89037239 213.75283034 -22.74919933 211.77969001 -21.5625 209.75 C-18.70305684 204.73297701 -16.82779641 199.46296692 -15 194 C-14.34 194 -13.68 194 -13 194 C-12.80664062 193.02417969 -12.61328125 192.04835937 -12.4140625 191.04296875 C-12.02347656 189.13451172 -12.02347656 189.13451172 -11.625 187.1875 C-11.36976563 185.92292969 -11.11453125 184.65835938 -10.8515625 183.35546875 C-10 180 -10 180 -8 177 C-6.76543662 172.74093434 -5.88676822 168.39310321 -4.9375 164.0625 C-4.66873047 162.88880859 -4.39996094 161.71511719 -4.12304688 160.50585938 C-0.99299908 146.38551909 -0.3698222 132.61664915 -1.75 118.25 C-1.83507812 117.35748535 -1.92015625 116.4649707 -2.0078125 115.54541016 C-2.97784584 106.13838077 -4.67673667 96.88741073 -6.49780273 87.61328125 C-7.20781437 83.91859745 -7.85105872 80.21252714 -8.49243164 76.50537109 C-9.93838321 69.36811519 -12.75121841 62.49756319 -16 56 C-17.485 55.505 -17.485 55.505 -19 55 C-19.33 56.32 -19.66 57.64 -20 59 C-20.66 59 -21.32 59 -22 59 C-22.309375 59.78375 -22.61875 60.5675 -22.9375 61.375 C-24 64 -24 64 -25 66 C-25.66 66 -26.32 66 -27 66 C-27.12375 66.598125 -27.2475 67.19625 -27.375 67.8125 C-28 70 -28 70 -30 73 C-30.66 73 -31.32 73 -32 73 C-32.12375 73.598125 -32.2475 74.19625 -32.375 74.8125 C-33 77 -33 77 -35 80 C-35.66 80 -36.32 80 -37 80 C-37.495 81.98 -37.495 81.98 -38 84 C-38.66 84 -39.32 84 -40 84 C-40 84.99 -40 85.98 -40 87 C-40.66 87 -41.32 87 -42 87 C-42.495 88.98 -42.495 88.98 -43 91 C-43.66 91 -44.32 91 -45 91 C-45.28875 91.5775 -45.5775 92.155 -45.875 92.75 C-46.91666667 94.83333333 -47.95833333 96.91666667 -49 99 C-49.66 99 -50.32 99 -51 99 C-51.309375 99.61875 -51.61875 100.2375 -51.9375 100.875 C-52.625 102.25 -53.3125 103.625 -54 105 C-54.66 105 -55.32 105 -56 105 C-56.2475 105.5775 -56.495 106.155 -56.75 106.75 C-58.16599656 109.29879381 -59.94723215 110.94723215 -62 113 C-62.495 114.485 -62.495 114.485 -63 116 C-63.66 116 -64.32 116 -65 116 C-65.495 117.485 -65.495 117.485 -66 119 C-66.66 119 -67.32 119 -68 119 C-68.28875 119.763125 -68.5775 120.52625 -68.875 121.3125 C-70 124 -70 124 -72 127 C-72.66 127 -73.32 127 -74 127 C-75.20628008 129.33214148 -76.1654738 131.49642139 -77 134 C-78.31266518 135.35368596 -79.64567325 136.68799596 -81 138 C-81.33 138.66 -81.66 139.32 -82 140 C-82.66 140 -83.32 140 -84 140 C-85.07525194 142.65228812 -86.09456151 145.28368454 -87 148 C-87.66 148 -88.32 148 -89 148 C-89.268125 148.721875 -89.53625 149.44375 -89.8125 150.1875 C-91 153 -91 153 -92.4453125 155.29296875 C-94.10800549 158.18805981 -95.0766266 160.93987055 -96.0625 164.125 C-97.12833808 167.55794033 -97.99363908 169.99045862 -100 173 C-101.69485806 182.2848746 -100.66532993 191.54186415 -99.70703125 200.84375 C-99.03883447 207.58382189 -98.89363209 214.22791 -99 221 C-100.98 221 -102.96 221 -105 221 C-107.00723632 212.6578689 -108.4940268 204.30471525 -109.6875 195.8125 C-109.81874268 194.91128418 -109.94998535 194.01006836 -110.08520508 193.08154297 C-112.38409152 176.11202974 -109.15668025 163.05490126 -101 148 C-100.32799827 146.66934757 -99.65912319 145.33707847 -99 144 C-98.34 144 -97.68 144 -97 144 C-97 143.01 -97 142.02 -97 141 C-96.34 140.67 -95.68 140.34 -95 140 C-94.67 139.01 -94.34 138.02 -94 137 C-93.34 137 -92.68 137 -92 137 C-91.67 136.01 -91.34 135.02 -91 134 C-90.34 134 -89.68 134 -89 134 C-88.731875 133.195625 -88.46375 132.39125 -88.1875 131.5625 C-87.795625 130.716875 -87.40375 129.87125 -87 129 C-86.01 128.67 -85.02 128.34 -84 128 C-83.64587656 126.67203709 -83.31478446 125.33783393 -83 124 C-81.5625 122.25 -81.5625 122.25 -80 121 C-79.34 121 -78.68 121 -78 121 C-77.731875 120.4225 -77.46375 119.845 -77.1875 119.25 C-75.97070811 116.94449957 -74.69666121 114.97943808 -73 113 C-72.34 113 -71.68 113 -71 113 C-70.34 111.68 -69.68 110.36 -69 109 C-68.34 109 -67.68 109 -67 109 C-67 108.34 -67 107.68 -67 107 C-66.34 107 -65.68 107 -65 107 C-64.73058594 106.41347656 -64.46117187 105.82695312 -64.18359375 105.22265625 C-63.00154813 103.00290721 -61.71899616 101.32160632 -60.0625 99.4375 C-59.55847656 98.85871094 -59.05445313 98.27992188 -58.53515625 97.68359375 C-55.44868421 94.29868421 -55.44868421 94.29868421 -54 93 C-53.34 93 -52.68 93 -52 93 C-51.71125 92.401875 -51.4225 91.80375 -51.125 91.1875 C-50 89 -50 89 -48 86 C-47.34 86 -46.68 86 -46 86 C-45.505 84.02 -45.505 84.02 -45 82 C-44.34 82 -43.68 82 -43 82 C-42.62875 81.13375 -42.62875 81.13375 -42.25 80.25 C-40.83400344 77.70120619 -39.05276785 76.05276785 -37 74 C-36.505 72.515 -36.505 72.515 -36 71 C-35.34 71 -34.68 71 -34 71 C-33.505 69.515 -33.505 69.515 -33 68 C-32.34 68 -31.68 68 -31 68 C-31 67.01 -31 66.02 -31 65 C-30.34 65 -29.68 65 -29 65 C-28.76152344 64.48308594 -28.52304688 63.96617188 -28.27734375 63.43359375 C-26.57020825 60.18116127 -24.5672304 57.13598813 -22.5625 54.0625 C-21.39126408 52.26074556 -20.22206427 50.45792157 -19.0612793 48.64941406 C-18.11094405 47.1724265 -17.14624193 45.70470611 -16.1796875 44.23828125 C-14.69138089 41.98191011 -14.69138089 41.98191011 -15.5625 39.125 C-16.16688539 34.80796147 -14.24103138 32.47826746 -12 29 C-10.98553388 27.00729869 -9.98034504 25.00970734 -9 23 C-8.34 23 -7.68 23 -7 23 C-6.67 16.73 -6.34 10.46 -6 4 C-4.68 3.67 -3.36 3.34 -2 3 C-1.34 2.01 -0.68 1.02 0 0 Z " transform="translate(252,37)" style="fill: #472F18;"/><path d="M0 0 C9.48092499 -0.13554219 18.85658783 0.26918741 28.3125 0.9375 C29.61767578 1.02451172 30.92285156 1.11152344 32.26757812 1.20117188 C38.54229369 1.63138346 44.7711398 2.12369647 51 3 C51 3.66 51 4.32 51 5 C51.93972656 4.98259766 51.93972656 4.98259766 52.8984375 4.96484375 C53.71570313 4.95582031 54.53296875 4.94679688 55.375 4.9375 C56.18710938 4.92589844 56.99921875 4.91429687 57.8359375 4.90234375 C60 5 60 5 62 6 C64.70872518 6.39227838 67.40751693 6.74569498 70.125 7.0625 C70.87910156 7.15337891 71.63320312 7.24425781 72.41015625 7.33789062 C74.27304188 7.56190852 76.13647252 7.78138573 78 8 C78.33 7.01 78.66 6.02 79 5 C79.495 6.98 79.495 6.98 80 9 C81.98 9 83.96 9 86 9 C86 9.99 86 10.98 86 12 C87.65 12.33 89.3 12.66 91 13 C90.35812082 18.13503344 89.31727753 22.9943454 88 28 C87.34 28 86.68 28 86 28 C85.87496094 28.82113281 85.74992187 29.64226562 85.62109375 30.48828125 C84.92298809 34.43543214 84.02668484 38.29850168 83.0625 42.1875 C82.80823242 43.25387695 82.80823242 43.25387695 82.54882812 44.34179688 C81.7184305 47.69811881 80.93710203 50.09434696 79 53 C72.29622856 52.64844598 67.16223703 51.80101683 61 49 C58.57524017 48.42626581 56.14212457 47.98023656 53.69140625 47.53125 C47.24664268 46.25913411 41.09542753 44.43817101 35 42 C35.33 37.38 35.66 32.76 36 28 C36.66 28 37.32 28 38 28 C38.66 20.41 39.32 12.82 40 5 C38.02 5 36.04 5 34 5 C33.67 8.96 33.34 12.92 33 17 C32.34 17 31.68 17 31 17 C30.814375 18.7634375 30.814375 18.7634375 30.625 20.5625 C30.13744559 24.51865577 29.11392009 28.1708997 28 32 C27.66140041 34.33257494 27.3267961 36.66574212 27 39 C26.67 39.33 26.34 39.66 26 40 C18.20029679 39.48001979 9.0465116 38.5232558 2 35 C-0.36950521 34.61076473 -2.7457572 34.2619422 -5.125 33.9375 C-6.40632812 33.76089844 -7.68765625 33.58429688 -9.0078125 33.40234375 C-9.99523437 33.26957031 -10.98265625 33.13679688 -12 33 C-13.12864571 30.17496557 -12.99492545 28.98366296 -12.07421875 26.01953125 C-11.61660156 24.96121094 -11.15898438 23.90289062 -10.6875 22.8125 C-10.23761719 21.74644531 -9.78773438 20.68039062 -9.32421875 19.58203125 C-8 17 -8 17 -6 16 C-5.1625428 13.72102817 -5.1625428 13.72102817 -4.5 11.0625 C-3.21722114 6.21722114 -3.21722114 6.21722114 -1 4 C-0.3574765 1.93125966 -0.3574765 1.93125966 0 0 Z " transform="translate(139,265)" style="fill: #D2AF34;"/><path d="M0 0 C0.97324219 0.08314453 1.94648438 0.16628906 2.94921875 0.25195312 C8.62845884 0.7755439 13.86822712 1.72773046 19.375 3.1875 C21.16125236 3.42101277 22.95347874 3.6168194 24.75 3.75 C29.17062044 4.08531022 29.17062044 4.08531022 31.375 5.1875 C30.2936589 13.98737928 27.40641316 21.8326317 24.20703125 30.02441406 C22.78424637 33.72332076 21.45049699 37.45283383 20.125 41.1875 C19.87911133 41.86893066 19.63322266 42.55036133 19.37988281 43.25244141 C17.75195067 47.84545548 16.49711562 52.44497359 15.375 57.1875 C9.80759659 56.49344033 4.44189315 55.35729585 -1 54 C-1.86399414 53.78512939 -2.72798828 53.57025879 -3.61816406 53.34887695 C-12.15175171 51.16087756 -20.38759706 48.29253142 -28.625 45.1875 C-28.07147099 40.66324757 -27.24103286 36.55550185 -25.75 32.25 C-25.39679688 31.22519531 -25.04359375 30.20039063 -24.6796875 29.14453125 C-23.37066979 25.47443344 -22.02378515 21.8243414 -20.625 18.1875 C-19.965 18.1875 -19.305 18.1875 -18.625 18.1875 C-18.44324219 17.5584375 -18.26148438 16.929375 -18.07421875 16.28125 C-16.47056373 10.82059907 -14.82205195 5.44131989 -12.625 0.1875 C-8.83209395 -1.70895302 -4.1237768 -0.39210556 0 0 Z " transform="translate(167.625,360.8125)" style="fill: #D2AF34;"/><path d="M0 0 C1.65 0 3.3 0 5 0 C5 0.66 5 1.32 5 2 C5.80953125 2.1340625 6.6190625 2.268125 7.453125 2.40625 C11.55413224 3.09276223 15.65296118 3.79022141 19.75 4.5 C20.51699219 4.63019531 21.28398438 4.76039063 22.07421875 4.89453125 C27.77164757 5.88582379 27.77164757 5.88582379 30 7 C32.87551158 7.37329156 35.7414145 7.70472085 38.625 8 C40.20057819 8.16612357 41.77609959 8.33278669 43.3515625 8.5 C44.50640137 8.62181641 44.50640137 8.62181641 45.68457031 8.74609375 C49.12846082 9.12374518 52.56360514 9.55963819 56 10 C57.25541557 13.76624671 56.37061958 15.37188934 55 19 C54.34 19 53.68 19 53 19 C52.90203125 19.63164062 52.8040625 20.26328125 52.703125 20.9140625 C51.38598992 28.79416375 49.29929447 36.35428779 47 44 C43.04 43.67 39.08 43.34 35 43 C35 42.34 35 41.68 35 41 C24.77 41 14.54 41 4 41 C1.72785095 36.4557019 1.96792709 30.55968158 1.4375 25.5625 C1.29892578 24.32822266 1.16035156 23.09394531 1.01757812 21.82226562 C0.2331465 14.51507249 -0.19604931 7.34853429 0 0 Z " transform="translate(76,253)" style="fill: #D2AF34;"/><path d="M0 0 C5.67747671 0.42637177 10.59635871 1.16276196 16 3 C18.81746302 3.53496133 21.64368976 3.97980002 24.4765625 4.42578125 C28.58082986 5.09465852 32.66434327 5.85173112 36.75 6.625 C37.46591309 6.760271 38.18182617 6.89554199 38.91943359 7.03491211 C40.61314569 7.35560644 42.30660174 7.67765261 44 8 C44.495 9.485 44.495 9.485 45 11 C44.34 11 43.68 11 43 11 C42.89429688 11.65484375 42.78859375 12.3096875 42.6796875 12.984375 C41.80489236 16.86564999 40.47987814 20.5138209 39.125 24.25 C38.58011848 25.77061465 38.03584161 27.2914461 37.4921875 28.8125 C37.10305176 29.89917969 37.10305176 29.89917969 36.70605469 31.0078125 C35.85423317 33.41129231 35.04406615 35.82687029 34.25 38.25 C33.25876848 41.22369456 32.1801157 44.09971566 31 47 C28.47818712 46.71542568 25.95778804 46.42254942 23.4375 46.125 C22.73302734 46.04636719 22.02855469 45.96773438 21.30273438 45.88671875 C16.69037749 45.33408613 12.46905487 44.30989539 8 43 C4.53235129 42.23236593 1.04870797 41.55266462 -2.4375 40.875 C-3.35982422 40.69324219 -4.28214844 40.51148438 -5.23242188 40.32421875 C-7.4877747 39.88015965 -9.743623 39.43881982 -12 39 C-9.82461547 29.88189887 -7.16690656 21.16616231 -3.9375 12.375 C-2.43580845 8.2841851 -1.12255828 4.20959356 0 0 Z " transform="translate(171,314)" style="fill: #D2AF34;"/><path d="M0 0 C12.46083244 0.86817275 24.77661445 3.55033084 37 6 C38.31329036 10.2312646 37.21937503 13.14684451 35.75 17.1875 C35.27729231 18.53904451 34.80463583 19.89060693 34.33203125 21.2421875 C33.89246094 22.48226563 33.45289063 23.72234375 33 25 C32.47450358 26.60264518 31.95268322 28.20650987 31.4375 29.8125 C30.10766008 33.82468749 28.51354782 37.71246895 26.91796875 41.625 C25.72576122 44.70951991 24.83430353 47.80183645 24 51 C20.04294544 52.45839897 16.30168612 51.67906093 12.25 51.0625 C11.55261719 50.96259766 10.85523437 50.86269531 10.13671875 50.75976562 C8.42348274 50.51334127 6.71159275 50.25759045 5 50 C5 49.34 5 48.68 5 48 C4.41992188 47.95101562 3.83984375 47.90203125 3.2421875 47.8515625 C-1.43923092 47.40350595 -5.57485459 46.701979 -10 45 C-10.34954063 35.6983355 -8.76134704 28.0624523 -5.72265625 19.328125 C-4.70009076 16.0338059 -4.10182803 12.69165497 -3.46875 9.3046875 C-1.9787234 1.9787234 -1.9787234 1.9787234 0 0 Z " transform="translate(110,352)" style="fill: #D2AF34;"/><path d="M0 0 C5.83944599 0.94184613 11.6385693 2.68809406 16.8125 5.5625 C21.66337164 7.75014799 26.75613185 8.278756 32 9 C31.38287465 16.64098625 29.7066729 23.78536464 27.75 31.1875 C27.43861084 32.37899658 27.12722168 33.57049316 26.80639648 34.7980957 C24.61510888 43.04060012 22.17601886 51.08190689 19 59 C14.6850046 58.43584866 10.97591818 57.80723554 7 56 C7 55.34 7 54.68 7 54 C5.2675 54.0928125 5.2675 54.0928125 3.5 54.1875 C-1.21213121 54.21274356 -4.69559472 52.84474512 -9 51 C-9.32299805 44.82053739 -8.09900766 39.41905501 -6.625 33.4375 C-4.83677685 25.92185178 -3.36985641 18.54138603 -2.40234375 10.875 C-1.88086614 7.14871336 -1.01365642 3.62020149 0 0 Z " transform="translate(97,404)" style="fill: #D2AF34;"/><path d="M0 0 C1.22589844 0.01353516 1.22589844 0.01353516 2.4765625 0.02734375 C3.10304688 0.03894531 3.72953125 0.05054687 4.375 0.0625 C4.045 1.0525 3.715 2.0425 3.375 3.0625 C0.49609375 4.125 0.49609375 4.125 -3.1875 5.0625 C-9.07510662 6.60589538 -9.07510662 6.60589538 -14.8125 8.625 C-18.7591586 10.18511077 -22.80443172 11.22851489 -26.90234375 12.31640625 C-30.87027756 13.40374536 -34.74162185 14.70829634 -38.625 16.0625 C-39.43066406 16.32546875 -40.23632812 16.5884375 -41.06640625 16.859375 C-46.88185636 18.83541468 -52.3766597 21.28223987 -57.875 24 C-58.53636963 24.32379639 -59.19773926 24.64759277 -59.87915039 24.98120117 C-63.28880604 26.70204579 -66.40263604 28.55449909 -69.484375 30.81640625 C-72.625 33.0625 -72.625 33.0625 -74.625 33.0625 C-74.625 33.7225 -74.625 34.3825 -74.625 35.0625 C-76.5 37.1875 -76.5 37.1875 -78.625 39.0625 C-79.285 39.0625 -79.945 39.0625 -80.625 39.0625 C-80.8725 39.619375 -81.12 40.17625 -81.375 40.75 C-82.625 43.0625 -82.625 43.0625 -84.6875 45.625 C-86.78884349 47.98276019 -86.78884349 47.98276019 -87.625 51.0625 C-88.285 51.0625 -88.945 51.0625 -89.625 51.0625 C-89.769375 51.660625 -89.91375 52.25875 -90.0625 52.875 C-90.5122439 54.62400404 -91.05392341 56.34927023 -91.625 58.0625 C-92.285 58.0625 -92.945 58.0625 -93.625 58.0625 C-94.285 61.3625 -94.945 64.6625 -95.625 68.0625 C-96.285 68.0625 -96.945 68.0625 -97.625 68.0625 C-99.26530274 85.91239821 -97.13265501 99.13078596 -89.796875 115.52734375 C-88.41669006 119.69090165 -88.41471299 122.70860309 -88.625 127.0625 C-91.1 127.5575 -91.1 127.5575 -93.625 128.0625 C-96.29610073 125.00981345 -97.51693891 121.94556387 -98.78125 118.16015625 C-99.59252182 115.9645916 -99.59252182 115.9645916 -101.05859375 113.77734375 C-102.94239067 110.51240895 -104.06508603 107.13864547 -105.1875 103.5625 C-106.76881034 98.51159506 -106.76881034 98.51159506 -108.75 93.609375 C-112.74841999 81.97111681 -109.42235322 67.00181275 -104.625 56.0625 C-102.29287565 51.7612472 -99.6176632 47.92616219 -96.625 44.0625 C-95.9959375 43.19109375 -95.366875 42.3196875 -94.71875 41.421875 C-79.46005918 21.03526349 -56.50602091 12.48540517 -32.625 7.0625 C-29.19421419 6.27532061 -25.76375539 5.48673626 -22.33349609 4.69726562 C-19.96751066 4.15436884 -17.60065949 3.61522958 -15.23291016 3.08007812 C-14.14800293 2.83322266 -13.0630957 2.58636719 -11.9453125 2.33203125 C-10.47989014 2.00102417 -10.47989014 2.00102417 -8.98486328 1.66333008 C-2.32158561 -0.03316551 -2.32158561 -0.03316551 0 0 Z " transform="translate(163.625,114.9375)" style="fill: #4A331D;"/><path d="M0 0 C9.25540033 4.01413992 15.97269008 14.26183865 22 22 C22.45197754 22.57024902 22.90395508 23.14049805 23.36962891 23.72802734 C37.7186152 41.9249506 44.17522935 61.43347406 44.1875 84.625 C44.19974609 85.81996094 44.21199219 87.01492187 44.22460938 88.24609375 C44.24252717 99.27150781 43.44029126 109.72417842 38.90234375 119.87890625 C38.03909024 121.90811255 37.47287486 123.85012563 37 126 C36.34 126 35.68 126 35 126 C34.79375 126.804375 34.5875 127.60875 34.375 128.4375 C28.89961555 142.62372335 17.90770681 147.81262453 4.98779297 154.02734375 C1.12913306 155.91544263 -2.65662582 157.95175574 -6.44921875 159.96875 C-9.19034064 161.07695242 -11.07223369 161.28713645 -14 161 C-15 160 -15 160 -15.375 157.6875 C-15 155 -15 155 -12.96875 153.08203125 C-9.49968535 150.64912144 -5.93871287 148.82487943 -2.125 147 C1.95235588 145.02683723 5.97671173 143.04794431 9.8828125 140.75 C13 139 13 139 15 139 C15 138.34 15 137.68 15 137 C16.375 135.375 16.375 135.375 18 134 C18.66 134 19.32 134 20 134 C20.28875 133.278125 20.5775 132.55625 20.875 131.8125 C21.91666667 129.20833333 22.95833333 126.60416667 24 124 C24.66 124 25.32 124 26 124 C26.0825 123.195625 26.165 122.39125 26.25 121.5625 C26.87956318 118.57207492 27.59616995 116.52635308 28.875 113.8125 C37.65128436 94.60041569 37.28916743 68.14655316 30.07104492 48.40527344 C27.29096301 41.19334547 23.66934702 35.14725961 19 29 C18.07364451 27.58964979 17.1569199 26.17292604 16.25 24.75 C13.01311317 19.82391813 9.3236568 15.26451488 5.60644531 10.69628906 C2 6.21131866 2 6.21131866 2 4 C1.01 3.67 0.02 3.34 -1 3 C-0.67 2.01 -0.34 1.02 0 0 Z " transform="translate(321,133)" style="fill: #49321C;"/><path d="M0 0 C6.70822594 0.07443247 13.28981201 1.18513586 19.91015625 2.1875 C21.20501953 2.37828125 22.49988281 2.5690625 23.83398438 2.765625 C27.00610854 3.23383521 30.17723238 3.70793473 33.34765625 4.1875 C33.38496102 5.78237306 33.41153231 7.37749951 33.43359375 8.97265625 C33.45752197 10.30502319 33.45752197 10.30502319 33.48193359 11.66430664 C33.29156976 15.24141608 31.8261769 17.9461278 30.34765625 21.1875 C29.994817 22.92981476 29.68587747 24.68132972 29.41015625 26.4375 C28.45492524 32.32400904 26.54926975 37.66209136 24.34765625 43.1875 C22.36765625 43.1875 20.38765625 43.1875 18.34765625 43.1875 C18.34765625 42.5275 18.34765625 41.8675 18.34765625 41.1875 C17.41824219 41.15011719 16.48882812 41.11273438 15.53125 41.07421875 C8.73573509 40.71283057 3.54961321 40.1129514 -2.65234375 37.1875 C-6.29655617 36.37103711 -9.96183747 35.75475684 -13.65234375 35.1875 C-12.90971597 26.27596666 -10.60472313 0.54441359 0 0 Z " transform="translate(126.65234375,307.8125)" style="fill: #D2AF33;"/><path d="M0 0 C7.24608745 0.7238468 14.3853963 1.83819599 21.5625 3.0625 C22.66658203 3.24876953 23.77066406 3.43503906 24.90820312 3.62695312 C27.60585532 4.0824009 30.30309874 4.54013024 33 5 C33 5.66 33 6.32 33 7 C33.99 7 34.98 7 36 7 C35.54090657 11.83398374 33.16205196 14.79909953 30.1875 18.4375 C29.30409008 19.53884364 28.42256274 20.64170011 27.54296875 21.74609375 C27.11419434 22.28089355 26.68541992 22.81569336 26.24365234 23.36669922 C25.00047741 24.99937302 23.89807618 26.6769695 22.80078125 28.41015625 C22.20652344 29.26480469 21.61226562 30.11945313 21 31 C20.34 31 19.68 31 19 31 C18.7834375 31.67675781 18.566875 32.35351562 18.34375 33.05078125 C16.58693158 36.90658911 14.15297441 39.90727195 11.5 43.1875 C11.00113281 43.81591797 10.50226563 44.44433594 9.98828125 45.09179688 C8.07298513 47.49233557 6.17313341 49.82686659 4 52 C1.45770841 52.17201285 -0.96149996 52.23257617 -3.5 52.1875 C-4.18964844 52.18685547 -4.87929687 52.18621094 -5.58984375 52.18554688 C-10.71888951 52.14055525 -10.71888951 52.14055525 -13 51 C-12.91073914 49.35329099 -12.80258969 47.70760559 -12.6875 46.0625 C-12.62949219 45.14597656 -12.57148438 44.22945313 -12.51171875 43.28515625 C-11.98273802 39.8891807 -11.03110426 36.96069258 -9.90258789 33.7277832 C-7.97916826 27.91486259 -6.47484096 21.97111956 -4.875 16.0625 C-4.16650453 13.44853795 -3.45512266 10.83541677 -2.7421875 8.22265625 C-2.4313623 7.07547119 -2.12053711 5.92828613 -1.80029297 4.74633789 C-1 2 -1 2 0 0 Z " transform="translate(206,369)" style="fill: #D2AF34;"/><path d="M0 0 C8.7975813 -0.28883988 17.08043627 0.54853458 25.75 2 C27.52890625 2.28617187 27.52890625 2.28617187 29.34375 2.578125 C32.23063288 3.04375127 35.11584569 3.51781146 38 4 C37.48501739 8.67984198 36.87483582 13.00051395 35.4375 17.5 C35.16808594 18.3559375 34.89867187 19.211875 34.62109375 20.09375 C34.41613281 20.7228125 34.21117187 21.351875 34 22 C33.34 22 32.68 22 32 22 C31.89042969 22.79664063 31.78085938 23.59328125 31.66796875 24.4140625 C31.43013672 26.00347656 31.43013672 26.00347656 31.1875 27.625 C31.03667969 28.66914063 30.88585937 29.71328125 30.73046875 30.7890625 C29.95097891 34.21548308 28.68350678 36.92817667 27 40 C24.14567529 39.68889371 21.29154475 39.37615574 18.4375 39.0625 C17.63763672 38.97548828 16.83777344 38.88847656 16.01367188 38.79882812 C2.2859805 37.2859805 2.2859805 37.2859805 1 36 C0.75336122 33.34787186 0.57139032 30.72106147 0.4375 28.0625 C0.3950415 27.2679541 0.35258301 26.4734082 0.30883789 25.65478516 C-0.10842638 17.1029665 -0.09105648 8.55930938 0 0 Z " transform="translate(81,302)" style="fill: #D2AF34;"/><path d="M0 0 C5.54320635 0.35022437 9.27794555 0.93066461 14 4 C16.28610576 4.82576418 18.58742422 5.55115032 20.9140625 6.25390625 C23 7 23 7 26 9 C26.1875 12.125 26.1875 12.125 26 15 C25.34 15 24.68 15 24 15 C23.90203125 15.66644531 23.8040625 16.33289063 23.703125 17.01953125 C22.71217646 23.127533 21.17476342 28.63662185 18.953125 34.40625 C17.67268988 37.8907128 16.81915256 41.38207619 16 45 C14.56208484 44.85831863 13.1246763 44.71148957 11.6875 44.5625 C10.88699219 44.48128906 10.08648437 44.40007812 9.26171875 44.31640625 C7 44 7 44 4 43 C4 42.01 4 41.02 4 40 C3.113125 39.855625 2.22625 39.71125 1.3125 39.5625 C-1.47145895 39.08975225 -4.23297423 38.5609473 -7 38 C-7.09507063 31.56688704 -7.15316726 25.34241995 -6 19 C-5.34 19 -4.68 19 -4 19 C-3.96261719 18.29875 -3.92523438 17.5975 -3.88671875 16.875 C-3.45727131 10.67748398 -2.47354239 5.69990204 0 0 Z " transform="translate(87,463)" style="fill: #D2AF34;"/><path d="M0 0 C14.625 1.125 14.625 1.125 22 4 C19.91844133 18.38450245 15.6768076 33.0915053 9 46 C6.03 45.34 3.06 44.68 0 44 C0 29.48 0 14.96 0 0 Z " transform="translate(83,347)" style="fill: #D2AF34;"/><path d="M0 0 C2.9375 0.375 2.9375 0.375 6 1 C6.33 1.66 6.66 2.32 7 3 C8.97275464 3.72334337 10.94584786 4.44580112 12.921875 5.16015625 C15.86525188 6.34967886 17.85517296 7.65409542 20 10 C21.02242571 14.88492282 19.06707954 18.34269732 17.0078125 22.6484375 C15.73323592 25.62244951 15.17281297 28.54743676 14.55859375 31.7109375 C13.96282393 34.15234391 13.07995546 36.26650618 12.0625 38.5625 C9.16681182 45.40586794 8.19414056 52.70850538 7 60 C6.01 60 5.02 60 4 60 C1.91761405 53.80533926 1.34943686 47.74890825 0.875 41.25 C0.79008301 40.12996582 0.70516602 39.00993164 0.61767578 37.85595703 C-0.25191415 25.24252878 -0.19411974 12.63570156 0 0 Z " transform="translate(79,508)" style="fill: #D2B034;"/><path d="M0 0 C4.83855385 -0.03998805 9.23013567 0.04602713 14 1 C13.42884363 5.16843945 11.10313556 7.74798648 8.5625 11 C6.02155227 14.26285423 3.79366483 17.28281226 2 21 C-0.8107941 24.10666717 -3.21916637 26.24633674 -7 28 C-6.96456579 17.49375682 -4.2544847 9.40670471 0 0 Z " transform="translate(190,426)" style="fill: #D4B239;"/><path d="M0 0 C3.49971062 0.49995866 6.25505268 1.78879244 9 4 C9.8619056 8.52500439 8.36728145 12.22674237 6.859375 16.4375 C5.56624882 20.29336714 4.65494742 24.2300322 3.6953125 28.1796875 C2.88120894 31.48183791 1.96353378 34.73880874 1 38 C0.01 38 -0.98 38 -2 38 C-1.88205894 32.7487788 -1.75783398 27.49775903 -1.62768555 22.24682617 C-1.584273 20.4591073 -1.54260271 18.67134526 -1.50268555 16.88354492 C-1.4451354 14.31936609 -1.38139797 11.75540588 -1.31640625 9.19140625 C-1.29969376 8.3872377 -1.28298126 7.58306915 -1.26576233 6.75453186 C-1.11387171 1.11387171 -1.11387171 1.11387171 0 0 Z " transform="translate(82,397)" style="fill: #D4B137;"/><path d="M0 0 C1.85476817 0.11573266 3.70881274 0.24308115 5.5625 0.375 C7.11130859 0.47941406 7.11130859 0.47941406 8.69140625 0.5859375 C12 1 12 1 15.37890625 1.97265625 C19.38776562 3.11001333 23.24428542 3.62508547 27.375 4.0625 C34.87087912 4.87087912 34.87087912 4.87087912 36 6 C36.04063832 7.66617115 36.042721 9.33388095 36 11 C29.4916986 11.25031928 29.4916986 11.25031928 27.06640625 10.015625 C24.63803484 8.82209652 22.88279565 8.73264622 20.1875 8.625 C14.01471958 8.17637262 8.306385 6.61934939 2.3828125 4.9375 C-0.40683823 4.16438663 -3.154547 3.51932222 -6 3 C-6 2.67 -6 2.34 -6 2 C-3.03 2 -0.06 2 3 2 C2.01 1.34 1.02 0.68 0 0 Z " transform="translate(226,321)" style="fill: #E5C659;"/><path d="M0 0 C1.32 0.33 2.64 0.66 4 1 C3.01 1 2.02 1 1 1 C0.87882812 1.75925781 0.75765625 2.51851563 0.6328125 3.30078125 C0.46523437 4.29464844 0.29765625 5.28851563 0.125 6.3125 C-0.03742188 7.29863281 -0.19984375 8.28476562 -0.3671875 9.30078125 C-1 12 -1 12 -3 15 C-3.38499891 16.65549531 -3.72793135 18.3222433 -4 20 C-4.66 20 -5.32 20 -6 20 C-5.938125 20.969375 -5.87625 21.93875 -5.8125 22.9375 C-5.78374119 27.61559946 -7.35228793 31.67475582 -9 36 C-9.495 34.515 -9.495 34.515 -10 33 C-10.495 33.495 -10.495 33.495 -11 34 C-14.62326739 35.2077558 -15.64146369 34.54311128 -19 33 C-16.3333581 31.66667905 -14.83319697 32.32897967 -12 33 C-11.773125 31.700625 -11.54625 30.40125 -11.3125 29.0625 C-9.56165297 20.23214107 -6.8447216 11.53416479 -4 3 C-2.68 3 -1.36 3 0 3 C0 2.01 0 1.02 0 0 Z " transform="translate(115,475)" style="fill: #E2C353;"/><path d="M0 0 C0.66 0 1.32 0 2 0 C4.00420897 4.04056612 4.07863124 6.29459021 2.953125 10.6328125 C2.5509375 12.21255859 2.5509375 12.21255859 2.140625 13.82421875 C1.84671875 14.91347656 1.5528125 16.00273438 1.25 17.125 C0.9715625 18.22199219 0.693125 19.31898438 0.40625 20.44921875 C-1.70155307 28.5523296 -1.70155307 28.5523296 -4 32 C-3.979375 30.88625 -3.95875 29.7725 -3.9375 28.625 C-3.73619282 25.16784079 -3.73619282 25.16784079 -5 23 C-4.49444417 18.31518265 -3.51663551 14.01340043 -1.375 9.8125 C0.30763246 6.37075178 0.22692754 3.78212563 0 0 Z " transform="translate(98,517)" style="fill: #E3C455;"/><path d="M0 0 C2.15164266 3.66636258 1.91648772 5.74688266 0.90527344 9.89086914 C0.7096582 10.62813232 0.51404297 11.36539551 0.3125 12.125 C0.12333008 12.87966553 -0.06583984 13.63433105 -0.26074219 14.41186523 C-1.67746142 19.98855473 -3.2246851 25.52611239 -5 31 C-5.66 31 -6.32 31 -7 31 C-7.66 32.32 -8.32 33.64 -9 35 C-10.28074168 31.15777496 -9.45426955 30.16920111 -7.875 26.5 C-4.39549132 17.89382028 -2.23234649 8.99588138 0 0 Z " transform="translate(126,427)" style="fill: #E3C355;"/><path d="M0 0 C4.13816438 1.76465364 7.44255605 4.53937799 10.9375 7.3125 C11.54529297 7.78623047 12.15308594 8.25996094 12.77929688 8.74804688 C16.43644038 11.63194321 19.77452409 14.63987424 23 18 C22.67 18.99 22.34 19.98 22 21 C21.34 20.67 20.68 20.34 20 20 C20 19.34 20 18.68 20 18 C19.41734375 17.89558594 18.8346875 17.79117188 18.234375 17.68359375 C15.66354577 16.89706383 14.2659942 15.82434109 12.25 14.0625 C11.63640625 13.53785156 11.0228125 13.01320313 10.390625 12.47265625 C9 11 9 11 9 9 C8.443125 8.7525 7.88625 8.505 7.3125 8.25 C4.55839521 6.76129471 2.30825486 5.11590028 0 3 C0 2.01 0 1.02 0 0 Z " transform="translate(282,100)" style="fill: #553F2A;"/><path d="M0 0 C0.33 0.66 0.66 1.32 1 2 C1.66 2 2.32 2 3 2 C1.89950718 7.70961571 0.29717677 12.63992087 -2 18 C-2.77954407 20.97948441 -3.41720958 23.97634617 -4 27 C-4.99 26.67 -5.98 26.34 -7 26 C-6.505 21.545 -6.505 21.545 -6 17 C-5.34 17 -4.68 17 -4 17 C-3.87882812 16.35933594 -3.75765625 15.71867187 -3.6328125 15.05859375 C-2.64320773 9.95071067 -1.51489049 4.97749731 0 0 Z " transform="translate(119,307)" style="fill: #E3C354;"/><path d="M0 0 C4.90689791 0.42787421 7.75603982 2.92088815 11.3125 6.0625 C11.86228516 6.53494141 12.41207031 7.00738281 12.97851562 7.49414062 C14.3262696 8.654381 15.66415117 9.82607224 17 11 C16.01 11.99 15.02 12.98 14 14 C12.62437146 12.71034824 11.29233607 11.37310707 10 10 C10 9.34 10 8.68 10 8 C9.278125 7.7525 8.55625 7.505 7.8125 7.25 C4.72393418 5.87730408 2.48988582 4.27646704 0 2 C0 1.34 0 0.68 0 0 Z " transform="translate(305,121)" style="fill: #553F2A;"/><path d="M0 0 C0.33 0 0.66 0 1 0 C2.19388403 29.34541547 2.19388403 29.34541547 2 41 C1.67 41 1.34 41 1 41 C-0.56818995 35.51936344 -1.24698024 30.71590533 -0.9765625 25 C-0.95153656 24.2788501 -0.92651062 23.5577002 -0.90072632 22.81469727 C-0.81946047 20.54258442 -0.72252101 18.27146713 -0.625 16 C-0.56666443 14.44665344 -0.50936346 12.89326765 -0.453125 11.33984375 C-0.31402372 7.55933764 -0.16087631 3.77963954 0 0 Z " transform="translate(78,508)" style="fill: #E1C152;"/><path d="M0 0 C2.31 0 4.62 0 7 0 C6.01 0.495 6.01 0.495 5 1 C5.02320313 1.77085937 5.04640625 2.54171875 5.0703125 3.3359375 C5.09738281 4.84027344 5.09738281 4.84027344 5.125 6.375 C5.14820313 7.37273437 5.17140625 8.37046875 5.1953125 9.3984375 C5 12 5 12 3 14 C3.33 10.37 3.66 6.74 4 3 C2.35 3 0.7 3 -1 3 C-0.67 2.01 -0.34 1.02 0 0 Z " transform="translate(175,267)" style="fill: #DBBA47;"/><path d="M0 0 C1.46726798 3.81489674 0.43336419 6.29011622 -1 10 C-1.66 10 -2.32 10 -3 10 C-2.25 3.375 -2.25 3.375 0 0 Z " transform="translate(117,318)" style="fill: #E8CA5F;"/><path d="M0 0 C0.33 0.66 0.66 1.32 1 2 C-0.60064843 2.53154742 -2.20568874 3.04988353 -3.8125 3.5625 C-4.70582031 3.85253906 -5.59914062 4.14257812 -6.51953125 4.44140625 C-9 5 -9 5 -12 4 C-7.9728176 1.79463821 -4.56454251 0.54339792 0 0 Z " transform="translate(187,109)" style="fill: #48301A;"/><path d="M0 0 C1.17571451 3.67410785 1.07366746 7.16929183 1 11 C0.01 11 -0.98 11 -2 11 C-1.125 3.375 -1.125 3.375 0 0 Z " transform="translate(183,445)" style="fill: #DFBE4D;"/><path d="M0 0 C1.32 0.66 2.64 1.32 4 2 C4 3.32 4 4.64 4 6 C3.34 5.67 2.68 5.34 2 5 C2 4.34 2 3.68 2 3 C1.01 3 0.02 3 -1 3 C-0.67 2.01 -0.34 1.02 0 0 Z " transform="translate(300,115)" style="fill: #4D351F;"/><path d="M0 0 C1.9375 0.75 1.9375 0.75 4 2 C4.75 4.125 4.75 4.125 5 6 C2.5 4.6875 2.5 4.6875 0 3 C0 2.01 0 1.02 0 0 Z " transform="translate(282,100)" style="fill: #4A331C;"/></svg>