<?xml version="1.0" encoding="UTF-8" standalone="no"?>
<!DOCTYPE svg PUBLIC "-//W3C//DTD SVG 1.1//EN" "http://www.w3.org/Graphics/SVG/1.1/DTD/svg11.dtd">
<svg xmlns="http://www.w3.org/2000/svg" version="1.1" viewBox="0.00 0.00 1500.00 113.00">
<path fill="#98b1ec" d="
  M 963.79 55.13
  Q 967.60 53.63 970.89 51.90
  Q 985.91 44.03 1004.02 37.34
  Q 1015.85 32.97 1022.90 33.18
  C 1035.33 33.55 1043.95 39.39 1052.67 47.87
  Q 1062.08 57.02 1071.50 65.75
  C 1077.21 71.05 1082.98 75.27 1090.94 77.00
  Q 1102.79 79.58 1112.81 76.87
  Q 1121.85 74.43 1132.87 68.71
  Q 1136.13 67.02 1149.86 57.45
  Q 1161.49 49.34 1173.80 42.49
  C 1187.02 35.13 1199.81 27.78 1214.61 37.60
  Q 1221.05 41.87 1226.40 46.78
  Q 1239.19 58.54 1251.48 67.23
  C 1256.91 71.07 1262.60 74.79 1268.98 76.90
  C 1289.11 83.56 1307.93 81.48 1327.23 73.43
  C 1351.22 63.41 1371.73 47.04 1393.58 33.08
  Q 1399.96 29.01 1408.95 27.40
  Q 1412.30 26.80 1413.44 30.01
  Q 1413.60 30.49 1413.59 30.98
  Q 1413.50 34.03 1410.52 34.65
  C 1401.33 36.57 1394.62 40.10 1385.99 45.59
  C 1369.13 56.31 1350.28 67.43 1332.43 75.02
  Q 1325.98 77.77 1318.01 80.57
  C 1305.46 85.00 1293.97 86.93 1281.10 85.82
  Q 1274.97 85.29 1268.83 82.85
  Q 1252.94 76.52 1238.91 64.97
  Q 1228.92 56.75 1218.74 48.97
  C 1211.19 43.19 1202.21 38.24 1192.70 41.04
  Q 1184.41 43.49 1175.68 48.20
  Q 1162.90 55.10 1141.13 69.50
  C 1125.50 79.84 1107.30 89.64 1087.96 83.83
  Q 1077.80 80.78 1070.54 74.29
  Q 1062.14 66.79 1051.12 55.64
  C 1043.84 48.27 1037.12 43.09 1027.76 40.31
  C 1019.83 37.96 1012.15 40.28 1004.14 42.68
  Q 995.51 45.25 989.01 47.94
  C 975.98 53.33 963.06 59.85 949.57 64.47
  C 941.35 67.29 933.48 70.75 925.03 72.78
  Q 911.11 76.13 899.22 76.78
  Q 887.68 77.41 876.77 72.89
  C 867.45 69.04 858.82 64.09 850.19 58.96
  C 841.35 53.72 831.74 48.66 822.26 44.33
  C 807.35 37.53 791.70 41.31 777.72 48.06
  Q 752.97 60.00 727.07 73.55
  Q 714.30 80.24 695.87 86.01
  Q 685.01 89.42 670.85 89.69
  Q 661.41 89.87 651.57 87.43
  C 635.40 83.41 620.41 76.60 606.69 67.41
  Q 598.89 62.18 590.84 56.54
  C 581.48 49.98 571.63 45.92 560.02 47.29
  C 548.96 48.59 539.40 52.48 529.02 57.52
  Q 511.96 65.81 495.91 73.18
  Q 480.97 80.04 477.58 81.35
  Q 460.40 87.98 443.40 89.38
  Q 424.07 90.97 406.97 82.11
  C 402.85 79.98 398.79 76.98 395.09 74.12
  Q 384.94 66.26 374.01 57.23
  Q 364.58 49.42 352.78 53.07
  C 342.32 56.30 332.32 61.38 322.18 65.84
  Q 313.49 69.66 304.84 74.32
  Q 295.70 79.24 286.99 83.01
  C 283.21 84.65 279.00 85.97 274.94 86.46
  Q 262.43 87.98 250.75 86.68
  C 244.38 85.97 237.59 83.73 231.24 81.96
  Q 221.52 79.25 213.83 73.31
  Q 204.76 66.32 192.00 55.12
  Q 184.27 48.33 173.08 41.71
  C 160.51 34.27 147.14 34.53 134.11 41.70
  Q 126.20 46.05 118.13 50.78
  Q 110.68 55.15 103.56 60.97
  C 91.02 71.22 79.96 81.54 68.16 91.58
  C 63.02 95.94 56.98 88.82 62.05 84.08
  Q 79.74 67.54 98.37 50.01
  C 106.99 41.91 117.12 36.59 128.24 31.28
  C 144.65 23.46 162.10 23.35 177.24 33.43
  Q 187.74 40.42 194.33 46.64
  C 203.68 55.48 212.40 65.09 222.79 72.38
  Q 226.41 74.92 231.92 76.92
  C 243.39 81.06 254.64 83.81 266.62 82.76
  Q 276.32 81.91 284.44 79.31
  Q 291.61 77.01 302.86 70.98
  Q 324.80 59.21 346.03 48.84
  Q 350.51 46.65 357.46 45.34
  C 365.89 43.76 373.40 47.14 379.52 52.87
  C 390.07 62.75 400.84 73.68 413.29 80.18
  C 417.56 82.41 422.67 83.57 427.41 84.76
  C 449.02 90.20 472.32 80.96 491.73 71.39
  Q 506.23 64.24 520.44 56.71
  C 542.12 45.22 567.72 30.82 591.12 48.40
  C 601.25 56.01 610.85 64.34 621.76 70.93
  Q 643.42 84.00 667.78 86.20
  Q 681.39 87.43 694.57 83.62
  C 710.53 79.01 724.02 72.77 739.29 63.94
  Q 758.15 53.03 779.55 41.76
  Q 791.73 35.34 805.93 34.26
  Q 814.35 33.62 820.49 36.20
  C 830.14 40.26 839.77 46.57 848.62 52.11
  Q 862.67 60.92 879.74 68.02
  C 890.32 72.42 900.98 73.48 911.79 71.56
  Q 923.45 69.48 936.25 65.80
  C 945.56 63.12 954.64 58.73 963.79 55.13
  Z"
/>
</svg>
