<svg id="svg" version="1.1" xmlns="http://www.w3.org/2000/svg" style="display: block;" viewBox="0 0 1500 113"><path d="M0 0 C0.56203125 0.2371875 1.1240625 0.474375 1.703125 0.71875 C1.50397942 4.49564901 0.72942378 5.69187365 -1.96484375 8.4453125 C-3.12708266 9.42458925 -4.3010946 10.39000489 -5.484375 11.34375 C-6.42398071 12.12371338 -6.42398071 12.12371338 -7.38256836 12.91943359 C-9.34126592 14.53564673 -11.31547474 16.13047689 -13.296875 17.71875 C-13.89854492 18.20214844 -14.50021484 18.68554688 -15.12011719 19.18359375 C-18.5912537 21.96050296 -22.09278621 24.69575079 -25.61181641 27.41162109 C-27.2282964 28.6655524 -28.83231182 29.93377745 -30.43359375 31.20703125 C-51.76507466 47.98850996 -74.91473507 65.46956137 -103.296875 62.71875 C-120.08186017 59.8993236 -133.63253837 48.34144663 -144.296875 35.71875 C-146.45572414 33.17032868 -148.62481343 30.63091329 -150.796875 28.09375 C-151.33070801 27.46025635 -151.86454102 26.8267627 -152.41455078 26.17407227 C-160.59487657 16.60099459 -160.59487657 16.60099459 -172.05859375 12.41796875 C-194.01185425 12.33003847 -212.71244874 26.97107473 -229.88671875 39.28515625 C-245.28768548 50.1689103 -262.44650342 59.86159504 -281.546875 59.96875 C-282.45050781 59.989375 -283.35414063 60.01 -284.28515625 60.03125 C-298.78123728 60.11468068 -309.50862955 52.80603138 -319.890625 43.1796875 C-323.24239337 39.75174258 -326.16965893 36.03500466 -329.16015625 32.29296875 C-336.76143021 23.13530963 -347.89883924 16.09019915 -359.83984375 14.34765625 C-384.767164 13.72171172 -407.75648405 28.38528164 -429.13088989 39.42648315 C-495.26248661 73.57122606 -495.26248661 73.57122606 -528.046875 65.21875 C-538.2792428 61.66773482 -546.23150498 54.89519728 -554.30981445 47.93188477 C-559.77966159 43.24009366 -565.42207701 38.91504548 -571.44140625 34.94921875 C-572.6905111 34.12086501 -573.92750655 33.2739888 -575.15234375 32.41015625 C-587.97989512 23.49699169 -601.01350422 22.75071422 -616.296875 24.71875 C-626.86514658 26.69921196 -636.39071496 31.51713258 -645.8515625 36.44921875 C-660.79062003 44.1807153 -676.33302342 50.773457 -692.01782227 56.82470703 C-693.61088582 57.4496453 -695.19687588 58.09278324 -696.77709961 58.74951172 C-713.02873699 65.47766772 -729.90709228 68.70216238 -746.73828125 62.25390625 C-759.45938035 56.7660995 -770.34936203 47.08016542 -780.70654297 38.0222168 C-795.34036173 25.23520928 -808.16739969 18.26160348 -827.89208984 19.49560547 C-842.82399288 20.8811648 -857.06738712 26.97736608 -871.02294922 32.08154297 C-954.00742215 62.37842933 -954.00742215 62.37842933 -984.21875 48.36328125 C-994.17640629 43.23316275 -1001.80411241 36.3095472 -1009.58203125 28.37890625 C-1015.69343497 22.39060994 -1021.85115685 16.48615462 -1030.734375 16.28125 C-1042.38118794 16.5906863 -1052.79271431 22.76677293 -1062.859375 28.15625 C-1106.09916908 51.05742603 -1106.09916908 51.05742603 -1125.296875 53.71875 C-1126.38355469 53.89664063 -1127.47023438 54.07453125 -1128.58984375 54.2578125 C-1140.11024792 55.69027582 -1151.76289135 56.07707694 -1162.296875 50.71875 C-1163.39515625 50.1825 -1164.4934375 49.64625 -1165.625 49.09375 C-1172.97345428 45.39266738 -1179.88725325 41.11339967 -1186.796875 36.65625 C-1207.76936109 23.19497733 -1228.77817098 17.96850966 -1253.6394043 23.15405273 C-1261.6250476 25.08416071 -1268.09199295 27.03534488 -1273.296875 33.71875 C-1274.03035156 34.60046875 -1274.76382812 35.4821875 -1275.51953125 36.390625 C-1282.59380648 45.22506063 -1288.84057436 54.67946634 -1295.14868164 64.06738281 C-1296.296875 65.71875 -1296.296875 65.71875 -1297.296875 66.71875 C-1300.234375 66.90625 -1300.234375 66.90625 -1303.296875 66.71875 C-1303.956875 66.05875 -1304.616875 65.39875 -1305.296875 64.71875 C-1304.98572563 60.34361661 -1303.76415623 57.30032678 -1301.48828125 53.59375 C-1300.91086182 52.6462085 -1300.33344238 51.69866699 -1299.73852539 50.72241211 C-1299.11840576 49.73120361 -1298.49828613 48.73999512 -1297.859375 47.71875 C-1297.22700928 46.69724854 -1296.59464355 45.67574707 -1295.94311523 44.62329102 C-1283.68865751 24.98977161 -1274.44818309 13.60102099 -1251.32641602 8.08496094 C-1247.79529249 7.44780404 -1244.31372388 7.42234666 -1240.734375 7.46875 C-1239.56092529 7.48107666 -1239.56092529 7.48107666 -1238.36376953 7.49365234 C-1213.85242156 7.95613061 -1196.48486474 16.61986193 -1177.02246094 30.86694336 C-1168.35509795 37.19140406 -1159.64648505 43.51977962 -1149.296875 46.71875 C-1148.71550781 46.90050781 -1148.13414062 47.08226562 -1147.53515625 47.26953125 C-1118.04908584 53.18732898 -1083.5517145 35.94381368 -1059.34179688 20.97460938 C-1050.39257884 15.45914406 -1040.95785276 9.67606278 -1030.234375 9.34375 C-1029.17089844 9.29476563 -1028.10742188 9.24578125 -1027.01171875 9.1953125 C-1017.78191448 10.49583171 -1011.61080679 15.76057582 -1005.484375 22.40625 C-992.11721635 36.3277923 -977.33457882 48.41531298 -957.25952148 49.24707031 C-926.26463544 49.65647536 -896.58663201 38.33254791 -868.10546875 27.3359375 C-819.94796218 8.74930058 -819.94796218 8.74930058 -800.02734375 16.46484375 C-789.71082139 21.20247419 -781.43366693 28.21688562 -772.9453125 35.6484375 C-756.70499726 49.82980186 -742.02642394 61.1192346 -719.50292969 59.90527344 C-694.99031756 57.83271526 -672.7552009 44.68495328 -651.26977539 33.73876953 C-647.09158246 31.61176758 -642.90555121 29.50066643 -638.71484375 27.3984375 C-638.06654602 27.07190186 -637.41824829 26.74536621 -636.75030518 26.40893555 C-621.18190638 18.61284878 -603.47706594 12.60654581 -585.90136719 17.36767578 C-576.45703055 20.89414676 -568.78609118 27.11894141 -561.296875 33.71875 C-541.81731112 50.32171801 -541.81731112 50.32171801 -518.296875 59.71875 C-517.51957031 59.90824219 -516.74226562 60.09773438 -515.94140625 60.29296875 C-488.80095757 64.66270125 -462.17172596 52.00036271 -439.046875 39.23046875 C-433.42534708 36.14022542 -427.76408882 33.12272451 -422.109375 30.09375 C-421.50102814 29.76776825 -420.89268127 29.4417865 -420.26589966 29.10592651 C-373.13901246 3.86328517 -373.13901246 3.86328517 -350.140625 8.33203125 C-337.43290691 13.01490788 -327.92342178 23.77867225 -318.85180664 33.3762207 C-310.40611418 42.2737009 -300.82431982 51.34041802 -288.07788086 53.00927734 C-264.05833733 53.5371794 -243.30827197 44.14532775 -224.296875 29.71875 C-187.34637387 1.97501349 -187.34637387 1.97501349 -168.296875 3.71875 C-154.6747956 7.78147544 -145.40289691 22.44607515 -137.359375 33.34375 C-127.77012535 44.38591626 -115.01149676 51.14720941 -101.296875 55.71875 C-76.0546718 57.46654569 -53.1326097 44.23272781 -34.43603516 28.28198242 C-29.90488575 24.3358658 -25.53753445 20.22104856 -21.171875 16.09375 C-16.53437084 11.71677357 -11.89199834 7.36617558 -7.046875 3.21875 C-6.21671875 2.5071875 -5.3865625 1.795625 -4.53125 1.0625 C-2.296875 -0.28125 -2.296875 -0.28125 0 0 Z " transform="translate(1401.296875,18.28125)" style="fill: #9EB5ED;"/><path d="M0 0 C-0.66 0.33 -1.32 0.66 -2 1 C-1.505 1.99 -1.505 1.99 -1 3 C-2.24523437 3.25910156 -2.24523437 3.25910156 -3.515625 3.5234375 C-19.53430175 7.17623199 -34.90684407 13.10573437 -50.21875 18.99609375 C-66.38157075 25.19520896 -83.44563283 31.64286972 -101 30 C-101 29.67 -101 29.34 -101 29 C-99.07027344 28.70609375 -99.07027344 28.70609375 -97.1015625 28.40625 C-72.79713495 24.47837698 -50.23768694 16.11638844 -27.35693359 7.28662109 C-22.40247024 5.38771041 -17.43119542 3.54302581 -12.4375 1.75 C-11.62877441 1.4502124 -10.82004883 1.1504248 -9.98681641 0.84155273 C-6.20835512 -0.49848774 -3.8303033 -1.22645962 0 0 Z " transform="translate(564,37)" style="fill: #ABBFEF;"/><path d="M0 0 C0.66 0.33 1.32 0.66 2 1 C0.99211909 3.70901512 0.31143559 4.8189646 -2.22387695 6.29272461 C-3.59225708 6.84198608 -3.59225708 6.84198608 -4.98828125 7.40234375 C-5.99938965 7.81564941 -7.01049805 8.22895508 -8.05224609 8.65478516 C-9.66607178 9.289729 -9.66607178 9.289729 -11.3125 9.9375 C-12.39869629 10.37626465 -13.48489258 10.8150293 -14.60400391 11.26708984 C-17.73060998 12.52548921 -20.86403032 13.76515642 -24 15 C-25.47017914 15.58692142 -26.94025204 16.17410914 -28.41015625 16.76171875 C-36.64040115 20 -36.64040115 20 -39 20 C-39 19.34 -39 18.68 -39 18 C-39.99 18.33 -40.98 18.66 -42 19 C-43.39439664 19.06665376 -44.79169875 19.08538199 -46.1875 19.0625 C-48.0746875 19.0315625 -48.0746875 19.0315625 -50 19 C-50 18.67 -50 18.34 -50 18 C-48.39898438 17.70609375 -48.39898438 17.70609375 -46.765625 17.40625 C-30.95231654 14.30679844 -16.25961086 8.64582179 -2.1171875 0.93359375 C-1.41851563 0.62550781 -0.71984375 0.31742188 0 0 Z " transform="translate(734,60)" style="fill: #A9BEEF;"/><path d="M0 0 C-13.40021969 8.9334798 -35.10246673 13.48781074 -51 12 C-51 11.67 -51 11.34 -51 11 C-49.71351563 10.8040625 -48.42703125 10.608125 -47.1015625 10.40625 C-34.83311029 8.41456591 -23.19792207 5.46706554 -11.39501953 1.5546875 C-10.3429834 1.21050781 -9.29094727 0.86632813 -8.20703125 0.51171875 C-7.2735083 0.19678467 -6.33998535 -0.11814941 -5.37817383 -0.44262695 C-3 -1 -3 -1 0 0 Z " transform="translate(514,55)" style="fill: #B9CAF1;"/><path d="M0 0 C-0.33 0.66 -0.66 1.32 -1 2 C-9.92760877 4.57096263 -18.73026665 5.46607598 -28 5 C-28 4.67 -28 4.34 -28 4 C-24.45995797 3.3245086 -20.91773831 2.66119202 -17.375 2 C-16.37597656 1.80921875 -15.37695312 1.6184375 -14.34765625 1.421875 C-9.50947407 0.52472864 -4.94607582 -0.27009288 0 0 Z " transform="translate(491,62)" style="fill: #AFC2F0;"/><path d="M0 0 C-2 2 -2 2 -4 3 C-4 2.34 -4 1.68 -4 1 C-4.99 1.33 -5.98 1.66 -7 2 C-8.39439664 2.06665376 -9.79169875 2.08538199 -11.1875 2.0625 C-13.0746875 2.0315625 -13.0746875 2.0315625 -15 2 C-15 1.67 -15 1.34 -15 1 C-13.25215171 0.63536268 -11.50159498 0.2836922 -9.75 -0.0625 C-8.28820312 -0.35833984 -8.28820312 -0.35833984 -6.796875 -0.66015625 C-4.131881 -0.98397535 -2.51128277 -0.85503199 0 0 Z " transform="translate(699,77)" style="fill: #B9C9F1;"/><path d="M0 0 C0 0.66 0 1.32 0 2 C-1.26607607 2.53229326 -2.53810412 3.05044544 -3.8125 3.5625 C-4.52019531 3.85253906 -5.22789062 4.14257812 -5.95703125 4.44140625 C-8 5 -8 5 -11 4 C-10.030625 3.525625 -9.06125 3.05125 -8.0625 2.5625 C-3.04 0 -3.04 0 0 0 Z " transform="translate(712,72)" style="fill: #9FB6ED;"/></svg>