<svg id="svg" version="1.1" xmlns="http://www.w3.org/2000/svg" style="display: block;" viewBox="0 0 400 400"><path d="M0 0 C0.75294342 0.11426331 1.50588684 0.22852661 2.28164673 0.34625244 C18.18623658 2.76170706 33.64586314 5.41392024 49 10.3125 C56.92428679 12.83398293 64.52375631 14.5546823 72.76928711 15.5559082 C81.44740418 16.63978344 89.98898096 18.30155308 98.5625 20 C100.1086145 20.30450459 101.65475731 20.60886545 103.20092773 20.91308594 C106.37446295 21.53832011 109.5476812 22.16513512 112.72070312 22.79296875 C139.04155181 27.99812194 165.08219228 32.58200212 191.83276367 34.98168945 C200.6510372 35.79647141 209.38577961 37.10089045 218.14355469 38.39746094 C227.99836474 39.83370899 237.81701835 40.94813663 247.76953125 41.40625 C250.5625 41.75 250.5625 41.75 253.5625 43.75 C253.5625 44.41 253.5625 45.07 253.5625 45.75 C254.325625 45.54375 255.08875 45.3375 255.875 45.125 C258.5625 44.75 258.5625 44.75 261.5625 46.75 C261.55505814 53.69325796 261.55505814 53.69325796 259.08251953 56.32568359 C256.98842921 57.82191831 254.84837689 59.14098933 252.625 60.4375 C250.97316144 61.46799721 249.32348087 62.50196024 247.67578125 63.5390625 C246.82709473 64.06532227 245.9784082 64.59158203 245.10400391 65.13378906 C241.06072159 67.70502143 237.18511279 70.49301019 233.3125 73.3125 C232.56323242 73.85519531 231.81396484 74.39789063 231.04199219 74.95703125 C226.39753023 78.34442195 221.86351408 81.84707171 217.375 85.4375 C202.12296237 97.59938396 185.13951031 107.88911269 167.87475586 116.91821289 C162.31446319 119.83997327 156.99453439 123.06700386 151.68505859 126.41845703 C149.06520545 128.06196739 146.43287927 129.68476763 143.80078125 131.30859375 C141.67954269 132.62216202 139.55845033 133.9359664 137.4375 135.25 C136.435979 135.86689697 135.43445801 136.48379395 134.40258789 137.11938477 C127.5603242 141.37578186 121.01581842 145.92610346 114.5625 150.75 C113.88429199 151.25499023 113.20608398 151.75998047 112.50732422 152.28027344 C110.68842423 153.64001033 108.87477665 155.00645151 107.0625 156.375 C101.19662251 160.79156084 95.29564668 165.15721087 89.375 169.5 C70.70020365 183.22037575 52.35748302 197.3612746 34.41674805 212.02685547 C28.58800485 216.77206403 22.62439637 221.3069055 16.5625 225.75 C11.09866604 222.95455007 9.33091681 219.87313803 6.80029297 214.36376953 C4.92589832 210.40572829 2.5234746 206.84285974 0.125 203.1875 C-6.7145113 192.5592878 -12.85141153 181.56767039 -18.92626953 170.48925781 C-20.16848912 168.23760938 -21.43148017 166.00172114 -22.71484375 163.7734375 C-29.51932824 151.66729946 -34.44364878 138.68257799 -39.4375 125.75 C-39.72254395 125.01281738 -40.00758789 124.27563477 -40.30126953 123.51611328 C-53.51646474 88.6092634 -61.86986685 45.41905166 -61.5 8.0625 C-61.49097656 6.86238281 -61.48195312 5.66226563 -61.47265625 4.42578125 C-61.46105469 3.54277344 -61.44945312 2.65976563 -61.4375 1.75 C-54.03797431 0.68916753 -46.68531291 0.43382258 -39.21875 0.23242188 C-38.27515625 0.19826172 -37.3315625 0.16410156 -36.359375 0.12890625 C-35.08465332 0.09132202 -35.08465332 0.09132202 -33.78417969 0.05297852 C-31.41819163 -0.12154265 -31.41819163 -0.12154265 -29.42504883 -1.25708008 C-21.37663198 -5.27782831 -8.62680957 -1.33172439 0 0 Z " transform="translate(111.4375,107.25)" style="fill: #4C2E1D;"/><path d="M0 0 C0.75294342 0.11426331 1.50588684 0.22852661 2.28164673 0.34625244 C18.18623658 2.76170706 33.64586314 5.41392024 49 10.3125 C56.92428679 12.83398293 64.52375631 14.5546823 72.76928711 15.5559082 C81.44740418 16.63978344 89.98898096 18.30155308 98.5625 20 C100.1086145 20.30450459 101.65475731 20.60886545 103.20092773 20.91308594 C106.37446295 21.53832011 109.5476812 22.16513512 112.72070312 22.79296875 C139.04155181 27.99812194 165.08219228 32.58200212 191.83276367 34.98168945 C200.6510372 35.79647141 209.38577961 37.10089045 218.14355469 38.39746094 C227.99836474 39.83370899 237.81701835 40.94813663 247.76953125 41.40625 C250.5625 41.75 250.5625 41.75 253.5625 43.75 C253.5625 44.41 253.5625 45.07 253.5625 45.75 C254.325625 45.54375 255.08875 45.3375 255.875 45.125 C258.5625 44.75 258.5625 44.75 261.5625 46.75 C261.55505814 53.69325796 261.55505814 53.69325796 259.08251953 56.32568359 C256.98842921 57.82191831 254.84837689 59.14098933 252.625 60.4375 C250.97316144 61.46799721 249.32348087 62.50196024 247.67578125 63.5390625 C246.82709473 64.06532227 245.9784082 64.59158203 245.10400391 65.13378906 C241.06072159 67.70502143 237.18511279 70.49301019 233.3125 73.3125 C232.56323242 73.85519531 231.81396484 74.39789063 231.04199219 74.95703125 C226.39753023 78.34442195 221.86351408 81.84707171 217.375 85.4375 C202.12296237 97.59938396 185.13951031 107.88911269 167.87475586 116.91821289 C162.31446319 119.83997327 156.99453439 123.06700386 151.68505859 126.41845703 C149.06520545 128.06196739 146.43287927 129.68476763 143.80078125 131.30859375 C141.67954269 132.62216202 139.55845033 133.9359664 137.4375 135.25 C136.435979 135.86689697 135.43445801 136.48379395 134.40258789 137.11938477 C127.5603242 141.37578186 121.01581842 145.92610346 114.5625 150.75 C113.88429199 151.25499023 113.20608398 151.75998047 112.50732422 152.28027344 C110.68842423 153.64001033 108.87477665 155.00645151 107.0625 156.375 C101.19662251 160.79156084 95.29564668 165.15721087 89.375 169.5 C70.70020365 183.22037575 52.35748302 197.3612746 34.41674805 212.02685547 C28.58800485 216.77206403 22.62439637 221.3069055 16.5625 225.75 C11.09866604 222.95455007 9.33091681 219.87313803 6.80029297 214.36376953 C4.92589832 210.40572829 2.5234746 206.84285974 0.125 203.1875 C-6.7145113 192.5592878 -12.85141153 181.56767039 -18.92626953 170.48925781 C-20.16848912 168.23760938 -21.43148017 166.00172114 -22.71484375 163.7734375 C-29.51932824 151.66729946 -34.44364878 138.68257799 -39.4375 125.75 C-39.72254395 125.01281738 -40.00758789 124.27563477 -40.30126953 123.51611328 C-53.51646474 88.6092634 -61.86986685 45.41905166 -61.5 8.0625 C-61.49097656 6.86238281 -61.48195312 5.66226563 -61.47265625 4.42578125 C-61.46105469 3.54277344 -61.44945312 2.65976563 -61.4375 1.75 C-54.03797431 0.68916753 -46.68531291 0.43382258 -39.21875 0.23242188 C-38.27515625 0.19826172 -37.3315625 0.16410156 -36.359375 0.12890625 C-35.08465332 0.09132202 -35.08465332 0.09132202 -33.78417969 0.05297852 C-31.41819163 -0.12154265 -31.41819163 -0.12154265 -29.42504883 -1.25708008 C-21.37663198 -5.27782831 -8.62680957 -1.33172439 0 0 Z M-44.4375 7.75 C-44.80833249 17.73702788 -43.68905338 27.32639975 -42.3125 37.1875 C-42.20179169 37.99447327 -42.09108337 38.80144653 -41.97702026 39.63287354 C-39.83262554 55.16583486 -36.99902868 70.47376738 -33.4375 85.75 C-33.20450195 86.7615918 -32.97150391 87.77318359 -32.73144531 88.81542969 C-22.95679907 130.57481397 -3.31560261 168.36502893 20.5625 203.75 C20.98080078 203.38285889 21.39910156 203.01571777 21.83007812 202.63745117 C26.1098266 198.91992326 30.51033881 195.43875712 35.0625 192.0625 C35.75609619 191.54558594 36.44969238 191.02867187 37.16430664 190.49609375 C39.29460574 188.91075489 41.42807738 187.32978143 43.5625 185.75 C44.19784668 185.27868652 44.83319336 184.80737305 45.48779297 184.32177734 C54.71330847 177.48472908 64.05092467 170.8126603 73.45776367 164.22753906 C74.8573579 163.2450145 76.25339108 162.25739701 77.64575195 161.26464844 C85.50405549 155.69253524 93.56559081 150.42965636 101.6184082 145.14501953 C104.09627127 143.51885402 106.57267579 141.89048768 109.04882812 140.26171875 C113.88222582 137.08426331 118.72050899 133.91434395 123.5625 130.75 C124.34112396 130.24113251 125.11974792 129.73226501 125.92196655 129.20797729 C141.90288485 118.77739857 141.90288485 118.77739857 149.75 114.3125 C150.52134277 113.86841797 151.29268555 113.42433594 152.08740234 112.96679688 C157.30296897 109.98290598 162.57462378 107.11239124 167.8671875 104.26782227 C182.82971749 96.21535958 196.7015824 87.26927901 210.31030273 77.10229492 C217.52996303 71.71988261 224.93244595 66.63426706 232.390625 61.58984375 C236.15906955 59.03268495 239.90484998 56.46420855 243.5625 53.75 C243.5625 53.42 243.5625 53.09 243.5625 52.75 C235.4182027 50.69810712 227.20820657 49.81834905 218.875 48.9375 C217.3050395 48.76743316 215.73513529 48.596846 214.1652832 48.42578125 C208.96504667 47.86068364 203.76382629 47.30496387 198.5625 46.75 C125.46769154 38.94297374 125.46769154 38.94297374 107.0625 34.7421875 C102.07168014 33.60931556 97.04102441 32.75109589 92 31.875 C74.41193935 28.74189787 57.16354676 24.79222838 40.20507812 19.15405273 C33.58068108 16.98232935 27.0739864 15.49988236 20.203125 14.359375 C16.70254925 13.77344172 13.27234568 13.03852297 9.8125 12.25 C-8.43756115 8.37006574 -25.76705989 7.33871037 -44.4375 7.75 Z " transform="translate(111.4375,107.25)" style="fill: #030302;"/><path d="M0 0 C6.3724632 4.4160052 9.76152261 9.95139841 11.2265625 17.54296875 C12.29845438 26.58126697 10.48057568 34.64943717 4.8515625 41.91796875 C0.20524022 46.56429103 -4.32582119 49.59293098 -10.9609375 49.98046875 C-15.70506594 49.90332845 -18.41844996 48.4550457 -22.01171875 45.43359375 C-24.39002565 42.8812644 -25.81186405 40.16181578 -27.3515625 37.05078125 C-29.66120364 32.97718342 -32.74336511 29.56622954 -35.78515625 26.0234375 C-38.96589507 22.05532522 -40.42331796 18.92118938 -40.27734375 13.6953125 C-38.90832869 7.84781405 -33.51449448 3.82406303 -28.7109375 0.66796875 C-19.20889058 -4.71773342 -9.66029286 -5.47416595 0 0 Z " transform="translate(154.7734375,186.45703125)" style="fill: #F7F3E3;"/><path d="M0 0 C0.99 0.33 1.98 0.66 3 1 C2.30161011 1.51046875 2.30161011 1.51046875 1.58911133 2.03125 C-21.36186764 18.82641962 -43.82205289 36.20173152 -66 54 C-66.99 52.68 -67.98 51.36 -69 50 C-62.42898938 44.3044375 -55.90020001 38.73456566 -48.69140625 33.8515625 C-46.05828598 32.04009805 -43.49043434 30.16162816 -40.92456055 28.25708008 C-32.17006405 21.75921661 -23.21072282 15.58569665 -14.17822266 9.48193359 C-12.18383382 8.12506964 -10.20464544 6.74931447 -8.23046875 5.36328125 C-7.16441406 4.62464844 -6.09835938 3.88601563 -5 3.125 C-4.0925 2.48820312 -3.185 1.85140625 -2.25 1.1953125 C-1.5075 0.80085938 -0.765 0.40640625 0 0 Z " transform="translate(207,269)" style="fill: #4F3222;"/><path d="M0 0 C-20.4135118 15.06326022 -20.4135118 15.06326022 -30 22 C-30 19 -30 19 -28.13671875 16.765625 C-24.07719688 12.94792872 -19.39160494 9.90079026 -14.8125 6.75 C-13.89791016 6.11320312 -12.98332031 5.47640625 -12.04101562 4.8203125 C-3.43978293 -1.14659431 -3.43978293 -1.14659431 0 0 Z " transform="translate(210,270)" style="fill: #533728;"/><path d="M0 0 C-1.33333333 1 -2.66666667 2 -4 3 C-4.680625 3.5775 -5.36125 4.155 -6.0625 4.75 C-6.701875 5.1625 -7.34125 5.575 -8 6 C-8.99 5.67 -9.98 5.34 -11 5 C-10 2 -10 2 -8.3125 0.8125 C-5.45030907 -0.19313465 -3.01172092 -0.13689641 0 0 Z " transform="translate(142,199)" style="fill: #614635;"/><path d="M0 0 C-2.97 1.98 -5.94 3.96 -9 6 C-8 2 -8 2 -5.625 0.1875 C-3 -1 -3 -1 0 0 Z " transform="translate(210,270)" style="fill: #583D2F;"/></svg>