<svg id="svg" version="1.1" xmlns="http://www.w3.org/2000/svg" style="display: block;" viewBox="0 0 400 400"><path d="M0 0 C3.29136978 0.01186079 4.37060722 0.5779016 6.92578125 2.7421875 C9.86971058 5.98966437 12.65409417 9.15901237 14.78344727 13.0065918 C16.81039154 16.17226881 19.26071655 18.66177345 21.9453125 21.2578125 C22.47462372 21.77955048 23.00393494 22.30128845 23.54928589 22.83883667 C25.79350124 25.05073802 28.04920718 27.25076724 30.3046875 29.45117188 C37.54938935 36.53431347 44.24745502 43.69613015 50.5 51.6875 C51.4031589 52.79573121 52.30778108 53.90277416 53.21484375 55.0078125 C60.5689848 64.28773038 66.34128086 74.30849003 72.14453125 84.60546875 C78.2207942 95.13431006 86.47860397 103.86550813 94.73046875 112.703125 C96.84632022 114.97227856 98.91275264 117.27368049 100.9375 119.625 C104.7559151 124.04385384 108.76047759 128.2874743 112.74414062 132.55664062 C115.52339091 135.54057678 118.27828797 138.53273563 120.9375 141.625 C125.97959564 147.45995589 131.31767546 153.03050931 136.59423828 158.65234375 C138.47330374 160.65899115 140.34501538 162.67224601 142.21484375 164.6875 C149.14505854 172.14184868 156.19941472 179.43388788 163.4284668 186.59887695 C167.0236063 190.17395056 170.49068535 193.79374891 173.765625 197.66796875 C176.11244434 200.40063902 178.55814781 203.04012117 181 205.6875 C186.15095595 211.28817004 191.21358028 216.9431222 196.08984375 222.78515625 C200.76016736 228.37107071 205.43232425 233.79021614 210.671875 238.859375 C212.55765132 240.74515132 214.27632581 242.71575389 216 244.75 C218.95885821 248.20200125 222.18640951 251.09565757 225.65234375 254.02734375 C227.35232745 255.55481325 228.76325273 257.09357473 230.1875 258.875 C232.41958015 261.58969208 234.68785863 263.5984807 237.5 265.6875 C237.4375 268.5 237.4375 268.5 236.5 271.6875 C234.818598 272.44101719 233.13153338 273.18513674 231.41479492 273.85424805 C228.36589494 275.18102296 225.82061942 277.19184371 223.1875 279.1875 C201.54386345 295.02494996 177.6671699 306.59764844 152.5 315.6875 C151.20304199 316.16678955 151.20304199 316.16678955 149.87988281 316.65576172 C126.61318358 325.14664223 101.43507729 329.10683798 76.76879883 330.4855957 C74.40481208 330.66151049 74.40481208 330.66151049 71.72177124 331.19104004 C68.64966538 331.66443726 65.7875562 331.82071881 62.68286133 331.83276367 C61.55382889 331.83905289 60.42479645 331.8453421 59.2615509 331.8518219 C58.04730942 331.85302536 56.83306793 331.85422882 55.58203125 331.85546875 C54.30788864 331.85961288 53.03374603 331.86375702 51.72099304 331.86802673 C47.58481578 331.87938811 43.44868794 331.87769209 39.3125 331.875 C37.89713542 331.87505599 36.48177083 331.87511703 35.06640625 331.87518311 C18.69865186 331.8694894 2.34363078 331.7996325 -14 330.8125 C-15.3099292 330.73410889 -16.6198584 330.65571777 -17.96948242 330.57495117 C-26.21792319 330.00524561 -34.33231148 328.96077202 -42.5 327.6875 C-41.57128906 321.96923828 -41.57128906 321.96923828 -40.9296875 319.43359375 C-40.40975224 316.11073478 -40.49179371 312.95293682 -40.56542969 309.59594727 C-40.99320097 289.15934975 -38.58479789 268.958258 -34.91333008 248.8840332 C-33.3630889 239.93562616 -32.82241313 230.96911778 -32.32684326 221.91601562 C-31.7548602 211.53630747 -30.60323469 201.46934365 -28.89990234 191.22607422 C-26.29449553 174.68698993 -24.46203362 158.06049973 -24.375 141.3125 C-24.36786987 140.20575928 -24.36786987 140.20575928 -24.3605957 139.07666016 C-24.37323838 134.92892545 -24.70724683 130.97029077 -25.27294922 126.85351562 C-25.73377161 122.45736915 -25.64696224 118.04050785 -25.625 113.625 C-25.61774902 112.0927478 -25.61774902 112.0927478 -25.61035156 110.52954102 C-25.50879603 97.66753251 -24.38440661 85.50205172 -21.94238281 72.86425781 C-20.92906217 67.49495044 -20.2288715 62.33358521 -20 56.875 C-19.68537676 49.79231868 -18.77180181 42.8803495 -17.6875 35.875 C-17.53410156 34.83690186 -17.38070312 33.79880371 -17.22265625 32.72924805 C-14.13305518 13.51272632 -14.13305518 13.51272632 -6.5 7.6875 C-5.84 7.6875 -5.18 7.6875 -4.5 7.6875 C-4.520625 6.718125 -4.54125 5.74875 -4.5625 4.75 C-4.47369644 0.39862565 -4.36031206 0.85648987 0 0 Z " transform="translate(112.5,25.3125)" style="fill: #4C2D1D;"/><path d="M0 0 C3.29136978 0.01186079 4.37060722 0.5779016 6.92578125 2.7421875 C9.86971058 5.98966437 12.65409417 9.15901237 14.78344727 13.0065918 C16.81039154 16.17226881 19.26071655 18.66177345 21.9453125 21.2578125 C22.47462372 21.77955048 23.00393494 22.30128845 23.54928589 22.83883667 C25.79350124 25.05073802 28.04920718 27.25076724 30.3046875 29.45117188 C37.54938935 36.53431347 44.24745502 43.69613015 50.5 51.6875 C51.4031589 52.79573121 52.30778108 53.90277416 53.21484375 55.0078125 C60.5689848 64.28773038 66.34128086 74.30849003 72.14453125 84.60546875 C78.2207942 95.13431006 86.47860397 103.86550813 94.73046875 112.703125 C96.84632022 114.97227856 98.91275264 117.27368049 100.9375 119.625 C104.7559151 124.04385384 108.76047759 128.2874743 112.74414062 132.55664062 C115.52339091 135.54057678 118.27828797 138.53273563 120.9375 141.625 C125.97959564 147.45995589 131.31767546 153.03050931 136.59423828 158.65234375 C138.47330374 160.65899115 140.34501538 162.67224601 142.21484375 164.6875 C149.14505854 172.14184868 156.19941472 179.43388788 163.4284668 186.59887695 C167.0236063 190.17395056 170.49068535 193.79374891 173.765625 197.66796875 C176.11244434 200.40063902 178.55814781 203.04012117 181 205.6875 C186.15095595 211.28817004 191.21358028 216.9431222 196.08984375 222.78515625 C200.76016736 228.37107071 205.43232425 233.79021614 210.671875 238.859375 C212.55765132 240.74515132 214.27632581 242.71575389 216 244.75 C218.95885821 248.20200125 222.18640951 251.09565757 225.65234375 254.02734375 C227.35232745 255.55481325 228.76325273 257.09357473 230.1875 258.875 C232.41958015 261.58969208 234.68785863 263.5984807 237.5 265.6875 C237.4375 268.5 237.4375 268.5 236.5 271.6875 C234.818598 272.44101719 233.13153338 273.18513674 231.41479492 273.85424805 C228.36589494 275.18102296 225.82061942 277.19184371 223.1875 279.1875 C201.54386345 295.02494996 177.6671699 306.59764844 152.5 315.6875 C151.20304199 316.16678955 151.20304199 316.16678955 149.87988281 316.65576172 C126.61318358 325.14664223 101.43507729 329.10683798 76.76879883 330.4855957 C74.40481208 330.66151049 74.40481208 330.66151049 71.72177124 331.19104004 C68.64966538 331.66443726 65.7875562 331.82071881 62.68286133 331.83276367 C61.55382889 331.83905289 60.42479645 331.8453421 59.2615509 331.8518219 C58.04730942 331.85302536 56.83306793 331.85422882 55.58203125 331.85546875 C54.30788864 331.85961288 53.03374603 331.86375702 51.72099304 331.86802673 C47.58481578 331.87938811 43.44868794 331.87769209 39.3125 331.875 C37.89713542 331.87505599 36.48177083 331.87511703 35.06640625 331.87518311 C18.69865186 331.8694894 2.34363078 331.7996325 -14 330.8125 C-15.3099292 330.73410889 -16.6198584 330.65571777 -17.96948242 330.57495117 C-26.21792319 330.00524561 -34.33231148 328.96077202 -42.5 327.6875 C-41.57128906 321.96923828 -41.57128906 321.96923828 -40.9296875 319.43359375 C-40.40975224 316.11073478 -40.49179371 312.95293682 -40.56542969 309.59594727 C-40.99320097 289.15934975 -38.58479789 268.958258 -34.91333008 248.8840332 C-33.3630889 239.93562616 -32.82241313 230.96911778 -32.32684326 221.91601562 C-31.7548602 211.53630747 -30.60323469 201.46934365 -28.89990234 191.22607422 C-26.29449553 174.68698993 -24.46203362 158.06049973 -24.375 141.3125 C-24.36786987 140.20575928 -24.36786987 140.20575928 -24.3605957 139.07666016 C-24.37323838 134.92892545 -24.70724683 130.97029077 -25.27294922 126.85351562 C-25.73377161 122.45736915 -25.64696224 118.04050785 -25.625 113.625 C-25.61774902 112.0927478 -25.61774902 112.0927478 -25.61035156 110.52954102 C-25.50879603 97.66753251 -24.38440661 85.50205172 -21.94238281 72.86425781 C-20.92906217 67.49495044 -20.2288715 62.33358521 -20 56.875 C-19.68537676 49.79231868 -18.77180181 42.8803495 -17.6875 35.875 C-17.53410156 34.83690186 -17.38070312 33.79880371 -17.22265625 32.72924805 C-14.13305518 13.51272632 -14.13305518 13.51272632 -6.5 7.6875 C-5.84 7.6875 -5.18 7.6875 -4.5 7.6875 C-4.520625 6.718125 -4.54125 5.74875 -4.5625 4.75 C-4.47369644 0.39862565 -4.36031206 0.85648987 0 0 Z M-3.5 18.6875 C-5.23353357 23.05451735 -5.95943194 27.2408798 -6.5 31.89453125 C-6.58053116 32.57270905 -6.66106232 33.25088684 -6.74403381 33.94961548 C-7.00185916 36.13243803 -7.25089683 38.31616665 -7.5 40.5 C-7.67702097 42.0073172 -7.85467602 43.51456006 -8.03295898 45.02172852 C-8.81471855 51.65391891 -9.57813141 58.28824465 -10.30883789 64.92626953 C-10.39254639 65.65185059 -10.47625488 66.37743164 -10.5625 67.125 C-10.69462891 68.30562012 -10.82675781 69.48624023 -10.96289062 70.70263672 C-11.27797421 73.25240442 -11.70816022 75.66068132 -12.24780273 78.18359375 C-14.35769924 88.27755209 -14.74938387 98.15775059 -14.6875 108.44140625 C-14.6832646 109.15460463 -14.6790292 109.867803 -14.67466545 110.60261345 C-14.63233489 116.56804523 -14.55147388 122.53287951 -14.46887207 128.49786377 C-14.20695295 147.79730611 -14.50211467 166.55264257 -17.5 185.6875 C-17.70869217 187.04043404 -17.70869217 187.04043404 -17.92160034 188.42070007 C-18.29952001 190.86417807 -18.68062703 193.30713743 -19.0625 195.75 C-20.28837896 203.71207023 -20.81754011 211.62367171 -21.21258545 219.66714478 C-21.87740154 233.11027843 -23.52720756 246.12161624 -25.84176636 259.37786865 C-27.89046166 271.16194787 -29.38718116 282.89163244 -30.375 294.8125 C-30.46695145 295.91908966 -30.46695145 295.91908966 -30.5607605 297.04803467 C-31.2432403 304.85788091 -31.2432403 304.85788091 -31.5 312.6875 C-11.84199601 314.12497193 7.79018663 315.23579217 27.5 315.6875 C28.44681641 315.71086426 29.39363281 315.73422852 30.36914062 315.75830078 C79.15921146 316.81702041 128.17405048 310.79185579 172.5 289.6875 C173.76577881 289.09146973 173.76577881 289.09146973 175.05712891 288.48339844 C187.17607421 282.74686616 198.41110922 276.21144986 209.5 268.6875 C211.35351637 267.45735294 213.20754132 266.22797109 215.0625 265 C216.20920875 264.23046956 217.35548628 263.46029131 218.5 262.6875 C215.87582045 259.32526995 213.25516764 256.38361664 210 253.625 C206.20280995 250.37334198 202.61408574 246.95234876 199.0625 243.4375 C198.54945313 242.93726318 198.03640625 242.43702637 197.5078125 241.92163086 C194.22569085 238.6482056 191.28511684 235.2094855 188.39868164 231.58178711 C183.80431753 225.94295686 178.85988674 220.80523056 173.6796875 215.70703125 C172.77678986 214.80933517 171.87389221 213.9116391 170.94363403 212.98674011 C168.57275489 210.6305109 166.19790208 208.27846362 163.82043457 205.92889404 C160.47074105 202.61753204 157.12643471 199.30076166 153.78494263 195.98112488 C152.01471556 194.22299745 150.24182359 192.46754762 148.46578979 190.71528625 C144.22324719 186.50689612 140.17749531 182.22418797 136.28387451 177.69300842 C132.84240042 173.82395529 129.11113916 170.23979933 125.41796875 166.61328125 C123.66311477 164.87595067 121.90856713 163.13831062 120.15429688 161.40039062 C117.42611278 158.70302794 114.69569787 156.00805847 111.9597168 153.31860352 C102.0606992 143.57868525 92.51731939 134.05701578 84.5 122.6875 C83.35826509 121.16066537 82.21398643 119.63572741 81.06640625 118.11328125 C72.63114837 106.63374031 65.01915401 94.7651394 58.05078125 82.33984375 C52.52117743 72.54530893 46.23521144 63.97802458 38.94970703 55.41357422 C37.00428465 53.09728318 35.16112387 50.70637454 33.3125 48.3125 C29.80349303 43.9003309 25.90049431 39.99427187 21.875 36.0546875 C17.72192949 31.91527841 13.98378412 27.42315335 10.17578125 22.96875 C9.37527344 22.0509375 8.57476562 21.133125 7.75 20.1875 C7.01265625 19.3315625 6.2753125 18.475625 5.515625 17.59375 C2.01611964 14.28414028 -0.38115021 15.66925826 -3.5 18.6875 Z " transform="translate(112.5,25.3125)" style="fill: #030202;"/><path d="M0 0 C8.17517674 3.80888916 13.25730126 8.57431977 17.65625 16.37890625 C19.83446736 23.68234092 19.13227596 29.56989677 16.03515625 36.51953125 C11.44780987 44.9591596 4.90141639 49.61629569 -4.17578125 52.5546875 C-15.95508701 54.71823346 -28.8874393 52.70566486 -39.171875 46.53125 C-43.97529939 42.91089125 -49.3962688 38.14791917 -50.28125 31.94140625 C-51.04904097 21.60575851 -49.79068949 14.49161897 -43.171875 6.484375 C-38.05911609 2.31177217 -32.32627253 1.4173954 -25.96875 0.81640625 C-4.35589314 -1.40529409 -4.35589314 -1.40529409 0 0 Z " transform="translate(194.28125,238.05859375)" style="fill: #F8F3E3;"/><path d="M0 0 C0.25652344 0.58265625 0.51304687 1.1653125 0.77734375 1.765625 C2.97367855 5.77937421 6.13894873 8.59012616 10 11 C13.16971067 11.77197792 15.84057836 11.84685528 19 11 C20.65670412 9.09663191 20.65670412 9.09663191 22 7 C25.4375 6.3125 25.4375 6.3125 29 6 C30.33917261 5.69096017 31.67653254 5.37057089 33 5 C33.8125 7.625 33.8125 7.625 34 11 C31.48403006 14.73801248 29.25244227 17.45236659 25 19 C22.20082125 19.24564222 19.54809561 19.38074744 16.75 19.375 C15.98800293 19.37411377 15.22600586 19.37322754 14.44091797 19.37231445 C7.81775469 19.23240847 3.53775222 17.94261633 -1.671875 13.609375 C-3.62333632 11.24466305 -3.40289017 8.90385356 -3.3046875 5.94140625 C-2.89639174 3.33982944 -1.84391446 1.84391446 0 0 Z " transform="translate(162,255)" style="fill: #553726;"/><path d="M0 0 C4.19145806 3.2713819 7.65052123 6.74247681 11.1015625 10.78125 C17.10802778 17.80115181 23.42405822 24.55153351 29.70239258 31.32739258 C32.30381561 34.14107514 34.87461276 36.97050977 37.375 39.875 C42.44303633 45.72650089 47.79744714 51.32145734 53.09423828 56.96484375 C54.97330374 58.97149115 56.84501538 60.98474601 58.71484375 63 C65.64038472 70.44932138 72.68665582 77.74016178 79.9152832 84.89599609 C83.65197296 88.60821735 87.23517466 92.38846252 90.63671875 96.4140625 C92.63653763 98.74049937 94.79848824 100.86520072 97 103 C96.67 103.66 96.34 104.32 96 105 C91.71000632 100.73490138 87.42344263 96.46639432 83.13989258 92.19482422 C81.68507983 90.74501083 80.22936717 89.29609983 78.77270508 87.84814453 C76.66765449 85.75535357 74.56596381 83.65923626 72.46484375 81.5625 C71.82288559 80.92570312 71.18092743 80.28890625 70.51951599 79.6328125 C67.42945014 76.54312303 64.45309554 73.41072399 61.60595703 70.0949707 C57.5929419 65.45079772 53.23324809 61.19924048 48.83984375 56.91796875 C47.05732241 55.16273909 45.27544247 53.40685788 43.49414062 51.65039062 C40.73176935 48.93086569 37.96601959 46.21526981 35.1887207 43.51098633 C23.72867281 32.33833775 13.33857417 21.09620785 4.29347229 7.86201477 C3.35134777 6.50578179 2.35796898 5.18473196 1.33628845 3.88737488 C0 2 0 2 0 0 Z " transform="translate(196,127)" style="fill: #533626;"/><path d="M0 0 C7.053488 5.90189812 13.35237064 12.16759257 19.35546875 19.1328125 C21.47130895 21.53512038 23.7024661 23.77208834 26 26 C25.67 26.66 25.34 27.32 25 28 C21.43006485 24.50412202 17.87002014 20.99857861 14.31884766 17.48364258 C13.10896483 16.28886299 11.89640547 15.09678755 10.68115234 13.9074707 C8.93660109 12.1992346 7.20185048 10.48156148 5.46875 8.76171875 C4.92190552 8.23035812 4.37506104 7.6989975 3.81164551 7.15153503 C2.48293962 5.82343068 1.23370373 4.41679061 0 3 C0 2.01 0 1.02 0 0 Z " transform="translate(267,204)" style="fill: #5D4233;"/></svg>