<svg id="svg" version="1.1" xmlns="http://www.w3.org/2000/svg" style="display: block;" viewBox="0 0 400 400"><path d="M0 0 C2.9938148 1.92459523 3.96893452 4.80063041 4.75 8.125 C4.5697727 13.53181895 3.19337174 18.38913146 1.7109375 23.5703125 C0.14658769 29.35713498 -1.18265447 35.20054549 -2.53613281 41.03979492 C-2.84695801 42.36781128 -2.84695801 42.36781128 -3.1640625 43.72265625 C-3.3492041 44.52195557 -3.5343457 45.32125488 -3.72509766 46.14477539 C-4.25 48.125 -4.25 48.125 -5.25 50.125 C-5.53058204 52.58314268 -5.7725332 55.0368595 -6 57.5 C-7.38699775 71.22096123 -9.69950038 85.05726696 -12.79663086 98.49707031 C-14.85197971 107.47905262 -15.17621713 116.7081559 -15.8125 125.875 C-16.00049064 128.52810544 -16.19033322 131.18105197 -16.38328552 133.83380127 C-16.50222228 135.47415929 -16.61816801 137.11473792 -16.73060608 138.7555542 C-17.02973543 142.93576799 -17.52818616 146.99209378 -18.25 151.125 C-18.3604445 152.47844991 -18.44535359 153.83440585 -18.49609375 155.19140625 C-18.52896484 155.92552734 -18.56183594 156.65964844 -18.59570312 157.41601562 C-18.65579155 158.9028844 -18.71318864 160.38986498 -18.76757812 161.87695312 C-18.97797689 166.45411866 -19.50151108 170.86950209 -20.2578125 175.390625 C-21.32764028 182.05297632 -21.57495426 188.57523073 -21.6875 195.3125 C-22.01414764 208.46602217 -22.8043701 221.56464822 -23.75 234.6875 C-23.81589325 235.61871674 -23.8817865 236.54993347 -23.94967651 237.5093689 C-24.13929131 240.1745446 -24.33408269 242.8392796 -24.53125 245.50390625 C-24.61718163 246.70048355 -24.61718163 246.70048355 -24.70484924 247.92123413 C-24.92657987 250.82871851 -25.15378749 253.67446528 -25.76345825 256.52937317 C-26.2780462 259.27462226 -26.38840513 261.81022495 -26.40771484 264.60205078 C-26.41797699 265.67311066 -26.42823914 266.74417053 -26.43881226 267.84768677 C-26.44976425 269.56663651 -26.44976425 269.56663651 -26.4609375 271.3203125 C-26.48898738 273.75130903 -26.51765169 276.18229854 -26.546875 278.61328125 C-26.58825999 282.4428705 -26.62515282 286.27232582 -26.65136719 290.10205078 C-26.67886887 293.80007863 -26.724718 297.49751167 -26.7734375 301.1953125 C-26.77669037 302.34532745 -26.77994324 303.49534241 -26.78329468 304.6802063 C-26.79986115 305.74496185 -26.81642761 306.80971741 -26.83349609 307.90673828 C-26.84562637 309.31308029 -26.84562637 309.31308029 -26.85800171 310.74783325 C-27.32106294 313.5559418 -27.96213298 314.47302249 -30.25 316.125 C-32.9375 316.3125 -32.9375 316.3125 -35.25 316.125 C-35.91 318.105 -36.57 320.085 -37.25 322.125 C-45.78827262 320.98644899 -53.94117857 319.36016629 -62.1875 316.875 C-63.31647705 316.53637939 -64.4454541 316.19775879 -65.60864258 315.84887695 C-134.70751623 294.56887801 -199.62219432 259.5517905 -247.25 204.125 C-248.3898625 202.81704344 -249.53048162 201.50974585 -250.671875 200.203125 C-251.78144328 198.9272514 -252.89081915 197.65121043 -254 196.375 C-254.84498047 195.40626953 -254.84498047 195.40626953 -255.70703125 194.41796875 C-258.33368108 191.39390619 -260.9131539 188.38341921 -263.25 185.125 C-261.84334469 181.76700195 -260.30329401 180.12878559 -257.35546875 178.0234375 C-256.57131592 177.4560083 -255.78716309 176.8885791 -254.97924805 176.30395508 C-254.14047119 175.7086499 -253.30169434 175.11334473 -252.4375 174.5 C-250.69717434 173.24191165 -248.95759284 171.98279327 -247.21875 170.72265625 C-246.36667969 170.10793457 -245.51460937 169.49321289 -244.63671875 168.85986328 C-237.0185682 163.32236555 -229.65078966 157.44765772 -222.25 151.625 C-215.61975706 146.41013064 -208.98785653 141.20059814 -202.25 136.125 C-201.5904834 135.62742188 -200.9309668 135.12984375 -200.25146484 134.6171875 C-190.9909016 127.67229962 -181.54444317 121.36079825 -171.56542969 115.49560547 C-163.5143623 110.74694067 -155.88159021 105.51398858 -148.25 100.125 C-120.48343504 80.57046001 -92.03298074 62.07224836 -63.125 44.25 C-44.9693531 33.04283111 -28.54118486 20.47791602 -12.8125 6.0625 C-8.99048798 2.71517042 -5.22440568 0.29024476 0 0 Z " transform="translate(329.25,30.875)" style="fill: #4C2E1D;"/><path d="M0 0 C2.9938148 1.92459523 3.96893452 4.80063041 4.75 8.125 C4.5697727 13.53181895 3.19337174 18.38913146 1.7109375 23.5703125 C0.14658769 29.35713498 -1.18265447 35.20054549 -2.53613281 41.03979492 C-2.84695801 42.36781128 -2.84695801 42.36781128 -3.1640625 43.72265625 C-3.3492041 44.52195557 -3.5343457 45.32125488 -3.72509766 46.14477539 C-4.25 48.125 -4.25 48.125 -5.25 50.125 C-5.53058204 52.58314268 -5.7725332 55.0368595 -6 57.5 C-7.38699775 71.22096123 -9.69950038 85.05726696 -12.79663086 98.49707031 C-14.85197971 107.47905262 -15.17621713 116.7081559 -15.8125 125.875 C-16.00049064 128.52810544 -16.19033322 131.18105197 -16.38328552 133.83380127 C-16.50222228 135.47415929 -16.61816801 137.11473792 -16.73060608 138.7555542 C-17.02973543 142.93576799 -17.52818616 146.99209378 -18.25 151.125 C-18.3604445 152.47844991 -18.44535359 153.83440585 -18.49609375 155.19140625 C-18.52896484 155.92552734 -18.56183594 156.65964844 -18.59570312 157.41601562 C-18.65579155 158.9028844 -18.71318864 160.38986498 -18.76757812 161.87695312 C-18.97797689 166.45411866 -19.50151108 170.86950209 -20.2578125 175.390625 C-21.32764028 182.05297632 -21.57495426 188.57523073 -21.6875 195.3125 C-22.01414764 208.46602217 -22.8043701 221.56464822 -23.75 234.6875 C-23.81589325 235.61871674 -23.8817865 236.54993347 -23.94967651 237.5093689 C-24.13929131 240.1745446 -24.33408269 242.8392796 -24.53125 245.50390625 C-24.61718163 246.70048355 -24.61718163 246.70048355 -24.70484924 247.92123413 C-24.92657987 250.82871851 -25.15378749 253.67446528 -25.76345825 256.52937317 C-26.2780462 259.27462226 -26.38840513 261.81022495 -26.40771484 264.60205078 C-26.41797699 265.67311066 -26.42823914 266.74417053 -26.43881226 267.84768677 C-26.44976425 269.56663651 -26.44976425 269.56663651 -26.4609375 271.3203125 C-26.48898738 273.75130903 -26.51765169 276.18229854 -26.546875 278.61328125 C-26.58825999 282.4428705 -26.62515282 286.27232582 -26.65136719 290.10205078 C-26.67886887 293.80007863 -26.724718 297.49751167 -26.7734375 301.1953125 C-26.77669037 302.34532745 -26.77994324 303.49534241 -26.78329468 304.6802063 C-26.79986115 305.74496185 -26.81642761 306.80971741 -26.83349609 307.90673828 C-26.84562637 309.31308029 -26.84562637 309.31308029 -26.85800171 310.74783325 C-27.32106294 313.5559418 -27.96213298 314.47302249 -30.25 316.125 C-32.9375 316.3125 -32.9375 316.3125 -35.25 316.125 C-35.91 318.105 -36.57 320.085 -37.25 322.125 C-45.78827262 320.98644899 -53.94117857 319.36016629 -62.1875 316.875 C-63.31647705 316.53637939 -64.4454541 316.19775879 -65.60864258 315.84887695 C-134.70751623 294.56887801 -199.62219432 259.5517905 -247.25 204.125 C-248.3898625 202.81704344 -249.53048162 201.50974585 -250.671875 200.203125 C-251.78144328 198.9272514 -252.89081915 197.65121043 -254 196.375 C-254.84498047 195.40626953 -254.84498047 195.40626953 -255.70703125 194.41796875 C-258.33368108 191.39390619 -260.9131539 188.38341921 -263.25 185.125 C-261.84334469 181.76700195 -260.30329401 180.12878559 -257.35546875 178.0234375 C-256.57131592 177.4560083 -255.78716309 176.8885791 -254.97924805 176.30395508 C-254.14047119 175.7086499 -253.30169434 175.11334473 -252.4375 174.5 C-250.69717434 173.24191165 -248.95759284 171.98279327 -247.21875 170.72265625 C-246.36667969 170.10793457 -245.51460937 169.49321289 -244.63671875 168.85986328 C-237.0185682 163.32236555 -229.65078966 157.44765772 -222.25 151.625 C-215.61975706 146.41013064 -208.98785653 141.20059814 -202.25 136.125 C-201.5904834 135.62742188 -200.9309668 135.12984375 -200.25146484 134.6171875 C-190.9909016 127.67229962 -181.54444317 121.36079825 -171.56542969 115.49560547 C-163.5143623 110.74694067 -155.88159021 105.51398858 -148.25 100.125 C-120.48343504 80.57046001 -92.03298074 62.07224836 -63.125 44.25 C-44.9693531 33.04283111 -28.54118486 20.47791602 -12.8125 6.0625 C-8.99048798 2.71517042 -5.22440568 0.29024476 0 0 Z M-8.25 15.125 C-8.97703125 15.86943359 -8.97703125 15.86943359 -9.71875 16.62890625 C-13.70380875 20.66761002 -17.76479179 24.52862 -22.0703125 28.22265625 C-24.57590269 30.40943478 -27.00101285 32.67403875 -29.4375 34.9375 C-34.81826172 39.83311107 -40.46353475 44.28888484 -46.28320312 48.64257812 C-48.49890516 50.31260578 -50.69455075 52.00737686 -52.890625 53.703125 C-63.01394466 61.47151499 -73.31900061 68.44659877 -84.29443359 74.94335938 C-87.11082329 76.64514791 -89.83708506 78.46936224 -92.5625 80.3125 C-98.67754906 84.44203517 -104.93454633 88.31112214 -111.25 92.125 C-111.99314453 92.57391602 -112.73628906 93.02283203 -113.50195312 93.48535156 C-121.55504936 98.34385797 -129.6181468 103.1831917 -137.74414062 107.91894531 C-146.2220609 112.86239741 -154.53162361 118.04023005 -162.80859375 123.3125 C-166.5290806 125.67943529 -170.28586733 127.9739249 -174.0625 130.25 C-185.16530958 137.07170096 -195.41510703 144.92446008 -205.52734375 153.12109375 C-208.51471337 155.54196035 -211.53507264 157.91562191 -214.57250977 160.27319336 C-220.0919449 164.56126862 -225.50002985 168.95748357 -230.8125 173.5 C-231.67016968 174.23186523 -231.67016968 174.23186523 -232.54516602 174.97851562 C-235.92897026 177.89712833 -239.12810622 180.92752964 -242.25 184.125 C-234.50215674 193.5384065 -226.22608222 202.36819028 -217.625 211 C-217.14489471 211.4851004 -216.66478943 211.97020081 -216.1701355 212.47000122 C-209.54409019 219.15252613 -202.61737859 225.26854361 -195.25 231.125 C-194.0295636 232.13703189 -192.81169625 233.15217875 -191.59765625 234.171875 C-154.82166434 264.63663928 -110.28741186 283.19191972 -65.4375 298.1875 C-64.73149658 298.42365021 -64.02549316 298.65980042 -63.2980957 298.90310669 C-50.55363175 303.51471697 -50.55363175 303.51471697 -37.25 305.125 C-37.2345388 303.75103813 -37.2345388 303.75103813 -37.21876526 302.34931946 C-37.12074247 293.71243773 -37.0182212 285.0756236 -36.91066074 276.43885517 C-36.85552271 271.99873091 -36.80211747 267.55859995 -36.75268555 263.1184082 C-36.70490726 258.8325 -36.65255993 254.54666963 -36.59705925 250.26085472 C-36.5766966 248.62663908 -36.55797366 246.99240216 -36.54092598 245.35814857 C-36.51674669 243.06721949 -36.48671129 240.77643579 -36.45532227 238.4855957 C-36.43977798 237.18209671 -36.4242337 235.87859772 -36.40821838 234.53559875 C-36.27174705 231.59378544 -35.88459376 228.98814852 -35.25 226.125 C-35.14922209 223.87388859 -35.09552224 221.62045289 -35.07421875 219.3671875 C-35.05414695 218.02081541 -35.03285444 216.6744611 -35.01049805 215.328125 C-34.99932953 214.62365234 -34.98816101 213.91917969 -34.97665405 213.19335938 C-34.75769277 200.9274316 -33.9290085 189.07681049 -31.90966797 176.95703125 C-30.17782422 166.34461698 -29.09100215 155.70056091 -28.0625 145 C-27.97809662 144.13681152 -27.89369324 143.27362305 -27.80673218 142.38427734 C-27.03648911 134.47653645 -26.28869802 126.58526961 -25.94172668 118.64633179 C-25.49386033 108.68807961 -23.80613333 99.14105216 -21.875 89.375 C-21.22398449 86.00513076 -20.58123711 82.63372799 -19.94140625 79.26171875 C-19.78697556 78.4511351 -19.63254486 77.64055145 -19.47343445 76.80540466 C-18.37148332 70.95332458 -17.51305482 65.10125861 -16.8125 59.1875 C-15.5382816 48.68020165 -12.66712447 38.52104688 -9.85375977 28.34008789 C-9.67581375 27.68606491 -9.49786774 27.03204193 -9.31452942 26.35820007 C-8.82467247 24.56281841 -8.32427098 22.77032344 -7.82324219 20.97802734 C-6.99280566 18.06839942 -6.99280566 18.06839942 -8.25 15.125 Z " transform="translate(329.25,30.875)" style="fill: #030202;"/><path d="M0 0 C8.93539504 5.18379655 14.32665404 11.80735465 17.75390625 21.59765625 C18.876335 27.14019201 17.91764129 31.77731612 15.1484375 36.6796875 C11.06716188 42.29287049 5.52483225 46.79001986 -1.24609375 48.59765625 C-5.46076604 49.05029545 -9.63519838 49.07292279 -13.87109375 49.03515625 C-15.03157227 49.02830811 -16.19205078 49.02145996 -17.38769531 49.0144043 C-27.16747492 48.83098191 -35.1925388 47.89867196 -43.53515625 42.44921875 C-46.40603514 39.42941819 -46.96530373 37.94911465 -46.97998047 33.82446289 C-46.94404785 33.1102417 -46.90811523 32.39602051 -46.87109375 31.66015625 C-46.84418457 30.91306396 -46.81727539 30.16597168 -46.78955078 29.39624023 C-45.88923171 12.37514766 -45.88923171 12.37514766 -40.76318359 7.06005859 C-28.60283691 -3.39212271 -15.07787465 -7.20766578 0 0 Z " transform="translate(234.24609375,204.40234375)" style="fill: #F8F3E3;"/><path d="M0 0 C0.99 0.495 0.99 0.495 2 1 C-12.34096325 12.77336721 -27.03789625 23.42253135 -43.03637695 32.84277344 C-47.26786576 35.33825624 -51.39200927 37.86576534 -55.375 40.75 C-59.4525103 43.70194756 -63.70440552 46.19875507 -68.10009766 48.64916992 C-71.873915 50.76057755 -75.58602083 52.95141972 -79.2734375 55.2109375 C-80.17916504 55.76434814 -81.08489258 56.31775879 -82.01806641 56.88793945 C-83.82371907 57.9947287 -85.62556765 59.10775076 -87.42333984 60.22729492 C-88.24785645 60.73107666 -89.07237305 61.2348584 -89.921875 61.75390625 C-91.02934082 62.43948608 -91.02934082 62.43948608 -92.15917969 63.13891602 C-92.76665039 63.42307373 -93.37412109 63.70723145 -94 64 C-94.66 63.67 -95.32 63.34 -96 63 C-68.3617091 43.23874463 -39.66426403 24.91491391 -10.69726562 7.17236328 C-9.87677734 6.66817871 -9.05628906 6.16399414 -8.2109375 5.64453125 C-7.13271729 4.98481323 -7.13271729 4.98481323 -6.03271484 4.31176758 C-3.94433343 2.96407681 -1.97021673 1.51408137 0 0 Z " transform="translate(280,66)" style="fill: #523525;"/><path d="M0 0 C5.27440258 0.31966076 8.43823349 3.39036029 12 7 C13.41441874 9.82883747 13.31900332 11.87376745 13 15 C10.16746984 18.15936057 7.10303158 18.53374641 3 19 C3.10699219 18.443125 3.21398437 17.88625 3.32421875 17.3125 C4.41029697 10.39896983 3.12701689 6.25403378 0 0 Z " transform="translate(222,219)" style="fill: #563827;"/><path d="M0 0 C0.33 0 0.66 0 1 0 C1.44797718 16.18690882 0.7391196 32.17318679 -0.4375 48.3125 C-0.50498444 49.2496283 -0.57246887 50.18675659 -0.64199829 51.15228271 C-0.83820999 53.84803266 -1.04046664 56.54323439 -1.24609375 59.23828125 C-1.30656891 60.04877426 -1.36704407 60.85926727 -1.42935181 61.69432068 C-1.73324633 65.5323478 -2.12764046 69.23921337 -3 73 C-3.33 73 -3.66 73 -4 73 C-4.34607312 54.23514621 -4.34607312 54.23514621 -3.0625 45.6875 C-1.65841213 36.08630756 -1.56260329 26.42319203 -1.34204102 16.73706055 C-1.31037842 15.43937744 -1.27871582 14.14169434 -1.24609375 12.8046875 C-1.22216553 11.63921387 -1.1982373 10.47374023 -1.17358398 9.27294922 C-1.00592659 6.11174671 -0.58508718 3.10847828 0 0 Z " transform="translate(306,217)" style="fill: #503729;"/><path d="M0 0 C0.66 0.33 1.32 0.66 2 1 C-0.97 3.64 -3.94 6.28 -7 9 C-7.66 8.34 -8.32 7.68 -9 7 C-6.03 4.69 -3.06 2.38 0 0 Z " transform="translate(88,197)" style="fill: #563B2C;"/></svg>