<svg id="svg" version="1.1" xmlns="http://www.w3.org/2000/svg" style="display: block;" viewBox="0 0 400 400"><path d="M0 0 C3.74605462 2.61293567 5.97600717 5.11841539 8.19921875 9.0859375 C8.76318359 10.08665283 9.32714844 11.08736816 9.90820312 12.1184082 C10.78895508 13.73042114 10.78895508 13.73042114 11.6875 15.375 C12.30689453 16.50059326 12.92628906 17.62618652 13.56445312 18.78588867 C42.10908344 71.30874795 62.24308675 132.68964941 62.1328125 192.80859375 C62.13424759 194.56321678 62.13424759 194.56321678 62.13571167 196.35328674 C62.13638705 198.80282648 62.13457797 201.25236808 62.13037109 203.7019043 C62.12497958 207.45170063 62.13035529 211.20137904 62.13671875 214.95117188 C62.13605852 217.3411461 62.13477849 219.73112025 62.1328125 222.12109375 C62.13483673 223.23882675 62.13686096 224.35655975 62.13894653 225.50816345 C62.13579437 226.5501741 62.13264221 227.59218475 62.12939453 228.66577148 C62.12820114 230.03378151 62.12820114 230.03378151 62.12698364 231.4294281 C61.99792105 234.04208479 61.57845176 236.45223202 61 239 C45.39784942 239.51372935 29.91259581 238.04621284 14.38330078 236.74047852 C11.51634613 236.50129221 8.64881183 236.2695218 5.78123856 236.03788853 C3.00319197 235.81300057 0.22541313 235.58494499 -2.55228424 235.35578728 C-4.50699966 235.19469251 -6.46184223 235.03514295 -8.41668701 234.87562561 C-9.60272522 234.77559738 -10.78876343 234.67556915 -12.01074219 234.57250977 C-13.04978699 234.48590591 -14.08883179 234.39930206 -15.15936279 234.31007385 C-17.82382361 234.01923079 -20.37431552 233.52577998 -23 233 C-24.61904472 232.8494626 -26.24139666 232.73176736 -27.86499023 232.64282227 C-28.80998383 232.58922043 -29.75497742 232.53561859 -30.72860718 232.48039246 C-31.74500275 232.42627701 -32.76139832 232.37216156 -33.80859375 232.31640625 C-34.87445709 232.25661087 -35.94032043 232.19681549 -37.03848267 232.13520813 C-40.50465537 231.94117298 -43.9710668 231.75181909 -47.4375 231.5625 C-52.20584882 231.29768879 -56.97404641 231.03024255 -61.7421875 230.76171875 C-62.90917679 230.69619812 -64.07616608 230.63067749 -65.27851868 230.56317139 C-73.8796228 230.0755984 -82.47044991 229.5005027 -91.0625 228.875 C-98.92280659 228.30380932 -106.74191864 227.94195438 -114.62275696 227.84159851 C-132.6887844 227.60009027 -150.52880582 226.18263906 -168.5 224.3125 C-169.66480896 224.19620239 -170.82961792 224.07990479 -172.02972412 223.96008301 C-188.33362736 222.31304989 -204.10154175 219.53946504 -220.03422546 215.7106781 C-223.83020409 214.80106112 -227.63464043 213.93045956 -231.44017029 213.06182861 C-242.74506892 210.45326199 -253.87206123 207.27141333 -265 204 C-277.22602191 200.412776 -289.48529375 197.40124161 -302 195 C-300.71034824 193.62437146 -299.37310707 192.29233607 -298 191 C-297.34 191 -296.68 191 -296 191 C-296 190.34 -296 189.68 -296 189 C-292.17171781 185.93737425 -288.29513151 183.60538536 -283.9375 181.375 C-278.58501309 178.53057731 -274.09451375 175.04530464 -269.41064453 171.24633789 C-264.81204443 167.54980459 -260.03839033 164.32995875 -255.03979492 161.20385742 C-251.41669436 158.93172627 -247.93356545 156.54878138 -244.5 154 C-240.49764589 151.03485918 -236.39609441 148.2857122 -232.1875 145.625 C-227.37035098 142.57652965 -222.68091339 139.40442169 -218.0625 136.0625 C-208.88433686 129.43204401 -199.50632265 123.13598733 -189.86352539 117.20019531 C-182.8711008 112.89537208 -176.24484262 108.34359537 -169.73632812 103.32373047 C-166.17186347 100.60627724 -162.54962426 97.96605287 -158.9375 95.3125 C-153.94335366 91.64106816 -148.95135372 87.96716846 -143.9765625 84.26953125 C-136.38281581 78.63268079 -128.7946896 73.07462481 -120.8671875 67.9140625 C-118.20828929 66.13904871 -115.63154538 64.2891165 -113.05444336 62.39941406 C-106.04726015 57.27292544 -98.78741176 52.82286191 -91.26953125 48.48828125 C-87.22174418 46.14905278 -83.26148095 43.68893968 -79.3125 41.1875 C-72.26070165 36.73862039 -65.11185542 32.46790165 -57.91845703 28.25219727 C-52.64855783 25.16314796 -47.40372043 22.03819282 -42.1875 18.859375 C-8.68976924 -1.49131353 -8.68976924 -1.49131353 0 0 Z " transform="translate(315,69)" style="fill: #4C2E1D;"/><path d="M0 0 C3.74605462 2.61293567 5.97600717 5.11841539 8.19921875 9.0859375 C8.76318359 10.08665283 9.32714844 11.08736816 9.90820312 12.1184082 C10.78895508 13.73042114 10.78895508 13.73042114 11.6875 15.375 C12.30689453 16.50059326 12.92628906 17.62618652 13.56445312 18.78588867 C42.10908344 71.30874795 62.24308675 132.68964941 62.1328125 192.80859375 C62.13424759 194.56321678 62.13424759 194.56321678 62.13571167 196.35328674 C62.13638705 198.80282648 62.13457797 201.25236808 62.13037109 203.7019043 C62.12497958 207.45170063 62.13035529 211.20137904 62.13671875 214.95117188 C62.13605852 217.3411461 62.13477849 219.73112025 62.1328125 222.12109375 C62.13483673 223.23882675 62.13686096 224.35655975 62.13894653 225.50816345 C62.13579437 226.5501741 62.13264221 227.59218475 62.12939453 228.66577148 C62.12820114 230.03378151 62.12820114 230.03378151 62.12698364 231.4294281 C61.99792105 234.04208479 61.57845176 236.45223202 61 239 C45.39784942 239.51372935 29.91259581 238.04621284 14.38330078 236.74047852 C11.51634613 236.50129221 8.64881183 236.2695218 5.78123856 236.03788853 C3.00319197 235.81300057 0.22541313 235.58494499 -2.55228424 235.35578728 C-4.50699966 235.19469251 -6.46184223 235.03514295 -8.41668701 234.87562561 C-9.60272522 234.77559738 -10.78876343 234.67556915 -12.01074219 234.57250977 C-13.04978699 234.48590591 -14.08883179 234.39930206 -15.15936279 234.31007385 C-17.82382361 234.01923079 -20.37431552 233.52577998 -23 233 C-24.61904472 232.8494626 -26.24139666 232.73176736 -27.86499023 232.64282227 C-28.80998383 232.58922043 -29.75497742 232.53561859 -30.72860718 232.48039246 C-31.74500275 232.42627701 -32.76139832 232.37216156 -33.80859375 232.31640625 C-34.87445709 232.25661087 -35.94032043 232.19681549 -37.03848267 232.13520813 C-40.50465537 231.94117298 -43.9710668 231.75181909 -47.4375 231.5625 C-52.20584882 231.29768879 -56.97404641 231.03024255 -61.7421875 230.76171875 C-62.90917679 230.69619812 -64.07616608 230.63067749 -65.27851868 230.56317139 C-73.8796228 230.0755984 -82.47044991 229.5005027 -91.0625 228.875 C-98.92280659 228.30380932 -106.74191864 227.94195438 -114.62275696 227.84159851 C-132.6887844 227.60009027 -150.52880582 226.18263906 -168.5 224.3125 C-169.66480896 224.19620239 -170.82961792 224.07990479 -172.02972412 223.96008301 C-188.33362736 222.31304989 -204.10154175 219.53946504 -220.03422546 215.7106781 C-223.83020409 214.80106112 -227.63464043 213.93045956 -231.44017029 213.06182861 C-242.74506892 210.45326199 -253.87206123 207.27141333 -265 204 C-277.22602191 200.412776 -289.48529375 197.40124161 -302 195 C-300.71034824 193.62437146 -299.37310707 192.29233607 -298 191 C-297.34 191 -296.68 191 -296 191 C-296 190.34 -296 189.68 -296 189 C-292.17171781 185.93737425 -288.29513151 183.60538536 -283.9375 181.375 C-278.58501309 178.53057731 -274.09451375 175.04530464 -269.41064453 171.24633789 C-264.81204443 167.54980459 -260.03839033 164.32995875 -255.03979492 161.20385742 C-251.41669436 158.93172627 -247.93356545 156.54878138 -244.5 154 C-240.49764589 151.03485918 -236.39609441 148.2857122 -232.1875 145.625 C-227.37035098 142.57652965 -222.68091339 139.40442169 -218.0625 136.0625 C-208.88433686 129.43204401 -199.50632265 123.13598733 -189.86352539 117.20019531 C-182.8711008 112.89537208 -176.24484262 108.34359537 -169.73632812 103.32373047 C-166.17186347 100.60627724 -162.54962426 97.96605287 -158.9375 95.3125 C-153.94335366 91.64106816 -148.95135372 87.96716846 -143.9765625 84.26953125 C-136.38281581 78.63268079 -128.7946896 73.07462481 -120.8671875 67.9140625 C-118.20828929 66.13904871 -115.63154538 64.2891165 -113.05444336 62.39941406 C-106.04726015 57.27292544 -98.78741176 52.82286191 -91.26953125 48.48828125 C-87.22174418 46.14905278 -83.26148095 43.68893968 -79.3125 41.1875 C-72.26070165 36.73862039 -65.11185542 32.46790165 -57.91845703 28.25219727 C-52.64855783 25.16314796 -47.40372043 22.03819282 -42.1875 18.859375 C-8.68976924 -1.49131353 -8.68976924 -1.49131353 0 0 Z M-20.6875 17.8125 C-21.8163562 18.41928589 -21.8163562 18.41928589 -22.96801758 19.03833008 C-30.4443895 23.12647222 -37.52988897 27.7445263 -44.62939453 32.44628906 C-49.09351339 35.3721029 -53.61438563 38.20912904 -58.125 41.0625 C-65.03189832 45.44197902 -71.88566792 49.88362987 -78.66503906 54.45776367 C-83.00421336 57.37266079 -87.42259737 60.13701583 -91.875 62.875 C-99.05375 67.30512951 -105.92992543 72.09737025 -112.7890625 77.00390625 C-116.77722064 79.85533856 -120.82031083 82.61944983 -124.875 85.375 C-130.80101054 89.41946913 -136.60789522 93.60731906 -142.375 97.875 C-143.17276855 98.46506836 -143.97053711 99.05513672 -144.79248047 99.66308594 C-147.95904969 102.00684584 -151.12497476 104.35147383 -154.29003906 106.69726562 C-163.14392137 113.24060374 -172.10846899 119.44745825 -181.45727539 125.26342773 C-195.42510455 133.9671926 -209.26987075 142.96043822 -222.3125 153.0078125 C-226.45108084 156.07565586 -230.80331875 158.79231448 -235.15234375 161.546875 C-246.36125656 168.65711589 -257.33774137 176.09459249 -268 184 C-270.32707342 185.67565674 -272.66303077 187.33815521 -275 189 C-271.4104942 192.27778556 -267.34978117 193.19199179 -262.75 194.3125 C-261.50186523 194.62670898 -261.50186523 194.62670898 -260.22851562 194.94726562 C-258.42602262 195.40021339 -256.62259601 195.84945853 -254.81835938 196.29541016 C-251.99255175 197.00186206 -249.17580773 197.73759343 -246.359375 198.48046875 C-212.38796652 207.35851345 -177.03146186 212.54142715 -142 215 C-140.8251001 215.0825 -139.6502002 215.165 -138.43969727 215.25 C-125.50928363 216.10609399 -112.57328008 216.32228893 -99.61938477 216.55224609 C-96.74748434 216.6044146 -93.87570757 216.66141904 -91.00390625 216.71875 C-90.14640274 216.73232544 -89.28889923 216.74590088 -88.40541077 216.7598877 C-83.34036392 216.86248845 -78.36473765 217.22951784 -73.32844543 217.77163696 C-70.1165579 218.08664387 -66.91720672 218.17997029 -63.69140625 218.24609375 C-61.72167847 218.29334595 -61.72167847 218.29334595 -59.7121582 218.34155273 C-58.69661362 218.3646199 -58.69661362 218.3646199 -57.66055298 218.38815308 C-47.63366474 218.62398892 -37.68209933 218.93574738 -27.72387695 220.20336914 C-22.29856302 220.85233577 -16.88907723 221.18571671 -11.43359375 221.43359375 C-10.26362602 221.48704704 -10.26362602 221.48704704 -9.07002258 221.5415802 C-7.45060502 221.6152148 -5.8311846 221.68878658 -4.21176147 221.76229858 C10.13657694 222.41917703 23.92879219 223.75782879 38.02734375 226.65722656 C40.37497307 227.06515621 42.62275131 227.14614234 45 227 C53.57425201 154.73130449 28.32809305 75.37177652 -9 14 C-13.74501883 14 -16.6372496 15.61023077 -20.6875 17.8125 Z " transform="translate(315,69)" style="fill: #030202;"/><path d="M0 0 C5.133748 4.76173728 8.20611664 9.29424077 8.48217773 16.43188477 C8.57335754 27.01248944 5.94331317 34.98130928 -1.3125 43 C-8.14141028 49.08502027 -14.80135478 50.64291628 -23.859375 50.31640625 C-33.16182342 49.37921928 -41.12852199 45.16183886 -47.5 38.3125 C-50.44043591 33.77932798 -50.65629596 29.2503677 -50 24 C-47.91996602 20.06279283 -45.36686784 16.91795213 -42 14 C-41.34 14 -40.68 14 -40 14 C-39.9175 13.319375 -39.835 12.63875 -39.75 11.9375 C-37.87486372 4.59321625 -34.50318795 1.18816051 -28.31640625 -2.8359375 C-19.05121657 -7.49196874 -8.24586683 -5.77643911 0 0 Z " transform="translate(298,173)" style="fill: #F8F4E4;"/><path d="M0 0 C1.17369141 0.10054687 1.17369141 0.10054687 2.37109375 0.203125 C5.00777998 0.86112156 5.9710537 1.55989051 7.5625 3.75 C8.71436148 8.61661477 7.87650595 12.85586839 5.375 17.125 C3.132927 20.26264965 1.29359993 22.44845351 -2.4375 23.75 C-5.21242352 23.67752065 -7.69036192 23.26217829 -10.4375 22.75 C-10.4375 22.42 -10.4375 22.09 -10.4375 21.75 C-9.15875 21.5025 -7.88 21.255 -6.5625 21 C-3.31183891 20.20410055 -3.31183891 20.20410055 -0.875 18 C-0.25061467 14.78887545 -0.43178497 12.89285946 -1.4375 9.75 C-3.2857428 7.49729409 -5.2518162 5.70316425 -7.4375 3.75 C-5.94884549 -0.71596353 -4.28722243 -0.42238645 0 0 Z " transform="translate(282.4375,183.25)" style="fill: #573A29;"/><path d="M0 0 C14.01758005 -0.18535805 27.932985 0.2710676 41.92504883 1.11694336 C45.16633971 1.31123162 48.40821287 1.4911226 51.65039062 1.66992188 C68.09178071 2.61739181 84.84793485 3.6238588 101 7 C101 7.33 101 7.66 101 8 C92.97248683 8.10746894 85.06532782 7.8242588 77.06640625 7.16015625 C75.98544174 7.07374374 74.90447723 6.98733124 73.79075623 6.89830017 C71.52934569 6.71647077 69.26811992 6.53232962 67.00708008 6.34594727 C63.54749218 6.06126504 60.08730585 5.78497926 56.62695312 5.50976562 C54.41923098 5.33122127 52.2115472 5.15220176 50.00390625 4.97265625 C48.97366837 4.89032242 47.94343048 4.80798859 46.88197327 4.72315979 C45.92004562 4.64315231 44.95811798 4.56314484 43.96704102 4.48071289 C42.70562035 4.37745445 42.70562035 4.37745445 41.41871643 4.27210999 C38.90503378 3.98931613 36.47839528 3.50029194 34 3 C31.35527681 2.78697279 28.72254345 2.60718765 26.07421875 2.46484375 C24.95283257 2.40037804 24.95283257 2.40037804 23.80879211 2.33460999 C21.43520269 2.19891912 19.0613723 2.06813876 16.6875 1.9375 C15.0722472 1.84602783 13.45701257 1.75423443 11.84179688 1.66210938 C7.89473178 1.43768652 3.94744328 1.21766543 0 1 C0 0.67 0 0.34 0 0 Z " transform="translate(258,299)" style="fill: #584134;"/><path d="M0 0 C6.28260706 -0.23268915 11.88019467 0.59545452 18 2 C18 2.33 18 2.66 18 3 C5.33029613 3.18451025 5.33029613 3.18451025 0 2 C0 1.34 0 0.68 0 0 Z " transform="translate(341,304)" style="fill: #4E3426;"/></svg>