<svg id="svg" version="1.1" xmlns="http://www.w3.org/2000/svg" style="display: block;" viewBox="0 0 400 400"><path d="M0 0 C6.18405738 1.30064809 12.24659623 2.85781995 18.3125 4.625 C19.1998584 4.87934814 20.0872168 5.13369629 21.00146484 5.39575195 C26.31900544 6.92187246 31.62506377 8.48286549 36.92578125 10.06640625 C49.41140512 13.76528296 61.59075781 16.99464305 74.5078125 18.65820312 C78.34943052 19.1850708 82.16930262 19.83580336 85.99414062 20.47167969 C106.76610849 23.9082652 127.64120866 26.23922088 148.57885742 28.38330078 C156.94430498 29.24229244 165.30033261 30.14171079 173.6484375 31.15625 C207.59365386 35.22187156 241.67596187 37.38083435 275.77734375 39.66796875 C276.64527935 39.72633408 277.51321495 39.7846994 278.40745163 39.84483337 C287.39753186 40.44824413 296.38795427 41.02989945 305.38330078 41.54931641 C307.5376141 41.67675983 309.69189292 41.80477162 311.8461628 41.93294716 C313.81975462 42.04735235 315.79390318 42.15202374 317.76805115 42.25639343 C318.93586624 42.32558487 320.10368134 42.39477631 321.30688477 42.46606445 C322.31695084 42.52147903 323.32701691 42.57689362 324.36769104 42.63398743 C327.0139777 43.00194355 328.68561781 43.71791147 331 45 C333.35564596 45.44811137 333.35564596 45.44811137 335.75 45.625 C336.54921875 45.69976562 337.3484375 45.77453125 338.171875 45.8515625 C338.77515625 45.90054688 339.3784375 45.94953125 340 46 C336.7636393 82.24723988 322.65639973 118.10001702 305.97070312 150.12792969 C305.00150003 151.99710709 304.05450069 153.87636664 303.109375 155.7578125 C295.71716714 170.27369572 286.10594376 183.27277556 276 196 C275.26136719 196.93328125 274.52273438 197.8665625 273.76171875 198.828125 C268.61780563 205.2237541 263.17273081 211.27009864 257.58300781 217.2734375 C256.39886435 218.56496473 255.22855006 219.86919549 254.06542969 221.1796875 C248.4973407 227.45035081 242.70886316 233.44650556 236.76904297 239.36132812 C235.2341598 240.89078419 233.70478473 242.42560577 232.17578125 243.9609375 C231.18521678 244.9508421 230.19434266 245.94043696 229.203125 246.9296875 C228.32301758 247.80866699 227.44291016 248.68764648 226.53613281 249.59326172 C224.12209424 251.88413506 221.63063299 253.96412395 219 256 C215.99125902 254.66196542 214.01614357 253.22415624 211.79296875 250.8046875 C211.21015137 250.17546387 210.62733398 249.54624023 210.02685547 248.89794922 C209.11637451 247.89658936 209.11637451 247.89658936 208.1875 246.875 C207.24221436 245.84850342 207.24221436 245.84850342 206.27783203 244.80126953 C202.7384911 240.94626013 199.2489775 237.05337994 195.8359375 233.0859375 C193.27507497 230.17636178 190.63568394 227.34173482 188 224.5 C182.63830958 218.71156948 177.41024813 212.83365967 172.296875 206.82421875 C166.12498683 199.57887116 159.84990612 192.46742946 153.37646484 185.48974609 C151.94803782 183.9437614 150.52947547 182.38922563 149.11328125 180.83203125 C144.70626257 175.98946554 140.26901077 171.2120483 135.59375 166.625 C133.89667109 164.89464503 132.32474828 163.09215836 130.75 161.25 C127.81718417 157.84159241 124.69900575 154.65629467 121.5 151.5 C117.81190421 147.8558617 114.28577656 144.13821172 110.9140625 140.19921875 C108.47458148 137.39630484 105.96028849 134.66515814 103.4375 131.9375 C102.93202637 131.39085693 102.42655273 130.84421387 101.90576172 130.28100586 C99.06575247 127.21553627 96.21574518 124.15960275 93.359375 121.109375 C82.25538982 109.25127914 82.25538982 109.25127914 77.6875 103.9296875 C75.59051547 101.53174686 73.41626854 99.21050827 71.25 96.875 C65.97607499 91.09043777 61.17105306 84.99740239 56.39111328 78.80273438 C54.10448478 75.83950783 51.80583344 72.88580161 49.5 69.9375 C49.04560547 69.35621338 48.59121094 68.77492676 48.12304688 68.17602539 C45.02835046 64.24235898 41.82574656 60.41926896 38.5625 56.625 C29.11497604 45.58158778 20.73186115 33.78488284 12.60327148 21.74926758 C8.99271988 16.40701804 5.25489767 11.21814691 1.29296875 6.12890625 C0 4 0 4 0 0 Z " transform="translate(28,72)" style="fill: #4C2E1D;"/><path d="M0 0 C6.18405738 1.30064809 12.24659623 2.85781995 18.3125 4.625 C19.1998584 4.87934814 20.0872168 5.13369629 21.00146484 5.39575195 C26.31900544 6.92187246 31.62506377 8.48286549 36.92578125 10.06640625 C49.41140512 13.76528296 61.59075781 16.99464305 74.5078125 18.65820312 C78.34943052 19.1850708 82.16930262 19.83580336 85.99414062 20.47167969 C106.76610849 23.9082652 127.64120866 26.23922088 148.57885742 28.38330078 C156.94430498 29.24229244 165.30033261 30.14171079 173.6484375 31.15625 C207.59365386 35.22187156 241.67596187 37.38083435 275.77734375 39.66796875 C276.64527935 39.72633408 277.51321495 39.7846994 278.40745163 39.84483337 C287.39753186 40.44824413 296.38795427 41.02989945 305.38330078 41.54931641 C307.5376141 41.67675983 309.69189292 41.80477162 311.8461628 41.93294716 C313.81975462 42.04735235 315.79390318 42.15202374 317.76805115 42.25639343 C318.93586624 42.32558487 320.10368134 42.39477631 321.30688477 42.46606445 C322.31695084 42.52147903 323.32701691 42.57689362 324.36769104 42.63398743 C327.0139777 43.00194355 328.68561781 43.71791147 331 45 C333.35564596 45.44811137 333.35564596 45.44811137 335.75 45.625 C336.54921875 45.69976562 337.3484375 45.77453125 338.171875 45.8515625 C338.77515625 45.90054688 339.3784375 45.94953125 340 46 C336.7636393 82.24723988 322.65639973 118.10001702 305.97070312 150.12792969 C305.00150003 151.99710709 304.05450069 153.87636664 303.109375 155.7578125 C295.71716714 170.27369572 286.10594376 183.27277556 276 196 C275.26136719 196.93328125 274.52273438 197.8665625 273.76171875 198.828125 C268.61780563 205.2237541 263.17273081 211.27009864 257.58300781 217.2734375 C256.39886435 218.56496473 255.22855006 219.86919549 254.06542969 221.1796875 C248.4973407 227.45035081 242.70886316 233.44650556 236.76904297 239.36132812 C235.2341598 240.89078419 233.70478473 242.42560577 232.17578125 243.9609375 C231.18521678 244.9508421 230.19434266 245.94043696 229.203125 246.9296875 C228.32301758 247.80866699 227.44291016 248.68764648 226.53613281 249.59326172 C224.12209424 251.88413506 221.63063299 253.96412395 219 256 C215.99125902 254.66196542 214.01614357 253.22415624 211.79296875 250.8046875 C211.21015137 250.17546387 210.62733398 249.54624023 210.02685547 248.89794922 C209.11637451 247.89658936 209.11637451 247.89658936 208.1875 246.875 C207.24221436 245.84850342 207.24221436 245.84850342 206.27783203 244.80126953 C202.7384911 240.94626013 199.2489775 237.05337994 195.8359375 233.0859375 C193.27507497 230.17636178 190.63568394 227.34173482 188 224.5 C182.63830958 218.71156948 177.41024813 212.83365967 172.296875 206.82421875 C166.12498683 199.57887116 159.84990612 192.46742946 153.37646484 185.48974609 C151.94803782 183.9437614 150.52947547 182.38922563 149.11328125 180.83203125 C144.70626257 175.98946554 140.26901077 171.2120483 135.59375 166.625 C133.89667109 164.89464503 132.32474828 163.09215836 130.75 161.25 C127.81718417 157.84159241 124.69900575 154.65629467 121.5 151.5 C117.81190421 147.8558617 114.28577656 144.13821172 110.9140625 140.19921875 C108.47458148 137.39630484 105.96028849 134.66515814 103.4375 131.9375 C102.93202637 131.39085693 102.42655273 130.84421387 101.90576172 130.28100586 C99.06575247 127.21553627 96.21574518 124.15960275 93.359375 121.109375 C82.25538982 109.25127914 82.25538982 109.25127914 77.6875 103.9296875 C75.59051547 101.53174686 73.41626854 99.21050827 71.25 96.875 C65.97607499 91.09043777 61.17105306 84.99740239 56.39111328 78.80273438 C54.10448478 75.83950783 51.80583344 72.88580161 49.5 69.9375 C49.04560547 69.35621338 48.59121094 68.77492676 48.12304688 68.17602539 C45.02835046 64.24235898 41.82574656 60.41926896 38.5625 56.625 C29.11497604 45.58158778 20.73186115 33.78488284 12.60327148 21.74926758 C8.99271988 16.40701804 5.25489767 11.21814691 1.29296875 6.12890625 C0 4 0 4 0 0 Z M19 16 C20.72207816 19.99522132 23.37698921 23.24570177 26.0625 26.625 C26.80113281 27.55759644 26.80113281 27.55759644 27.5546875 28.5090332 C34.35359439 37.02413704 41.73276321 44.85004429 49.51953125 52.45703125 C51.86730412 54.8639606 53.90320555 57.37591735 56 60 C57.64100821 61.69193605 59.31176885 63.35518051 61 65 C77.26964933 80.93409915 77.26964933 80.93409915 84 89.5 C86.04965627 92.06207033 88.21237825 94.46445144 90.4375 96.875 C94.25274399 101.06052764 97.71464245 105.45506258 101.12646484 109.96777344 C104.93374896 114.97866951 108.96572652 119.76666456 113.06640625 124.5390625 C114.71241394 126.45554996 116.3131968 128.39342782 117.88691711 130.37028503 C123.36432428 137.22770767 129.22873709 143.48070746 135.4765625 149.63671875 C136.45636178 150.6102194 137.43562888 151.58425593 138.41439819 152.55879211 C140.96205481 155.09331598 143.5152554 157.62216935 146.07025146 160.14929199 C150.16529669 164.2007712 154.25334248 168.25928276 158.33811569 172.32111549 C159.74855374 173.72149877 161.16263119 175.1182135 162.57681274 176.51481628 C167.60725087 181.50755069 172.39977693 186.6100456 177 192 C178.6607536 193.83869148 180.32676908 195.6726557 182 197.5 C185.45835664 201.29219499 188.87375353 205.11333935 192.234375 208.9921875 C193.49830104 210.42948393 194.7819338 211.84954461 196.078125 213.2578125 C200.92376243 218.52701963 205.38775562 223.95598832 209.63793945 229.7097168 C211.6333131 232.37929657 213.1913434 234.12756227 216 236 C220.25675888 231.79322565 224.5064851 227.57950734 228.75024414 223.35961914 C230.19045656 221.92937359 231.63246976 220.50093873 233.07641602 219.07446289 C241.20908165 211.0376415 248.95801552 203.02192388 256 194 C257.07068451 192.71620974 258.14700061 191.43708236 259.23046875 190.1640625 C272.44194965 174.43830109 283.60733792 157.25534282 293 139 C293.40669922 138.21254395 293.81339844 137.42508789 294.23242188 136.61376953 C307.37828942 110.85012507 317.70874725 82.67251011 322 54 C313.27732268 53.09292738 304.5418847 52.62335195 295.78643799 52.18405151 C283.18467881 51.54884426 270.59914274 50.86089257 258.03271484 49.69750977 C253.41248818 49.28700482 248.80319479 48.98078769 244.16772461 48.81811523 C228.46710064 48.26463272 212.93245074 46.84052582 197.3125 45.1875 C194.68770658 44.91445473 192.06286882 44.64183544 189.43798828 44.36962891 C181.95744775 43.59102146 174.47842562 42.79864315 167 42 C166.01928528 41.89540466 165.03857056 41.79080933 164.02813721 41.68304443 C153.69098458 40.57849628 143.35888164 39.43448251 133.03222656 38.23571777 C130.9330764 37.99223754 128.83373164 37.7504819 126.734375 37.50878906 C95.90709812 33.94820628 65.43153646 30.26936549 35.99072266 19.98242188 C30.41049236 18.05345338 24.86712566 16.74954469 19 16 Z " transform="translate(28,72)" style="fill: #030302;"/><path d="M0 0 C7.91611315 2.28789397 14.00646657 4.76468176 18.8125 11.6875 C22.34794372 18.49942182 22.21839091 26.55608282 21 34 C18.18688155 42.63371625 12.4981224 49.11348574 4.5 53.3125 C-2.90618007 56.41276142 -11.44709158 57.81220571 -19.23828125 55.26953125 C-23.69344704 52.9322387 -26.77115379 49.45769241 -29 45 C-30.46145508 30.63839335 -24.37316302 19.1672946 -16 8 C-11.35816332 2.60583971 -7.50389097 -1.55252917 0 0 Z " transform="translate(256,164)" style="fill: #F8F3E3;"/><path d="M0 0 C3.43930583 1.48126357 5.66954338 3.42427446 8.30078125 6.0703125 C9.11353516 6.885 9.92628906 7.6996875 10.76367188 8.5390625 C11.60478516 9.39242187 12.44589844 10.24578125 13.3125 11.125 C14.14201172 11.95515625 14.97152344 12.7853125 15.82617188 13.640625 C20.19740053 18.04290421 24.42351334 22.51925182 28.46948242 27.22216797 C30.59702973 29.69350303 32.79791366 32.09508991 35 34.5 C37.84524228 37.61907011 40.6719958 40.74755391 43.4375 43.9375 C45.9055336 46.78388781 48.43736512 49.56246858 51 52.32397461 C57.90726131 59.77673125 64.55987383 67.3864669 70 76 C65.79593256 74.40225465 63.23174865 71.27032414 60.3125 68 C59.78358154 67.41694092 59.25466309 66.83388184 58.7097168 66.2331543 C57.13412988 64.49379584 55.5665081 62.74753361 54 61 C53.1853125 60.09894531 52.370625 59.19789063 51.53125 58.26953125 C50.06551212 56.64638137 48.60320089 55.02012982 47.14453125 53.390625 C45.6905406 51.76978296 44.22934894 50.1553772 42.76171875 48.546875 C38.98140005 44.39440057 35.32160982 40.19726569 31.8125 35.8125 C26.42034815 29.14549614 20.51560366 22.98137513 14.63769531 16.74658203 C9.55756347 11.32868352 4.6036543 5.83129545 0 0 Z " transform="translate(166,240)" style="fill: #533728;"/><path d="M0 0 C4.08105265 1.61683709 6.80660453 4.54240661 9.8125 7.625 C10.34657471 8.16697021 10.88064941 8.70894043 11.4309082 9.26733398 C17.96060452 15.93779497 23.85759672 23.03239867 29.7421875 30.2734375 C31.79788728 32.75592616 33.90521577 35.1683375 36.0625 37.5625 C39.59147658 41.48514727 42.89525753 45.5537181 46.16796875 49.69140625 C48.39850648 52.50216914 50.68878916 55.25543712 53 58 C52.505 58.99 52.505 58.99 52 60 C47.14839988 55.24741213 42.4343967 50.4515113 38.01171875 45.296875 C35.39718706 42.31173979 32.69927239 39.40840596 30 36.5 C23.19305022 29.14329809 16.65779068 21.63503017 10.3125 13.875 C9.75312744 13.19332764 9.19375488 12.51165527 8.61743164 11.80932617 C5.51632451 7.99347264 2.65143238 4.1416535 0 0 Z " transform="translate(78,142)" style="fill: #503525;"/><path d="M0 0 C3.29284927 0.21475104 5.34578201 0.43301108 7.875 2.625 C9.45785905 5.96659132 9.37905715 8.33578088 9 12 C6.93932455 17.53128673 3.92140151 20.05239899 -0.875 23.25 C-3.93459743 24.32985792 -6.78711296 24.12357258 -10 24 C-9.67 23.01 -9.34 22.02 -9 21 C-7.1128125 20.87625 -7.1128125 20.87625 -5.1875 20.75 C-2.31802487 20.37925366 -1.25709411 20.21692316 1 18.3125 C2.33254411 15.23099174 2.55389107 13.32334645 2 10 C-0.37842577 7.59593616 -0.37842577 7.59593616 -3 6 C-1.125 1.125 -1.125 1.125 0 0 Z " transform="translate(253,180)" style="fill: #543625;"/><path d="M0 0 C2.97 0 5.94 0 9 0 C6 3 6 3 2.3125 3.1875 C0.6728125 3.0946875 0.6728125 3.0946875 -1 3 C-0.67 2.01 -0.34 1.02 0 0 Z " transform="translate(244,201)" style="fill: #7C6554;"/></svg>