<svg id="svg" version="1.1" xmlns="http://www.w3.org/2000/svg" style="display: block;" viewBox="0 0 400 400"><path d="M0 0 C3 -0.3125 3 -0.3125 6 0 C6.66 0.66 7.32 1.32 8 2 C7.76341485 8.86096922 6.02467443 15.33234583 4.30078125 21.94921875 C3.27731363 25.8796921 2.3097862 29.82170516 1.35546875 33.76953125 C-4.05852602 56.05577399 -4.05852602 56.05577399 -7.8828125 66.06640625 C-12.86331303 79.14457373 -16.20356738 92.90877491 -18.4375 106.70092773 C-19.45420328 112.66391014 -20.70415899 118.57872047 -21.9375 124.5 C-22.18951172 125.72847656 -22.44152344 126.95695312 -22.70117188 128.22265625 C-22.95318359 129.43824219 -23.20519531 130.65382812 -23.46484375 131.90625 C-23.687771 132.98197266 -23.91069824 134.05769531 -24.14038086 135.16601562 C-24.8513241 138.33689114 -25.63422621 141.46874021 -26.44750977 144.61401367 C-28.08429593 151.11752417 -29.26681757 157.65811878 -30.375 164.26953125 C-30.58560059 165.50757004 -30.79620117 166.74560883 -31.01318359 168.02116394 C-31.45575262 170.6302072 -31.89646491 173.23947912 -32.33398438 175.84936523 C-32.99066662 179.76488735 -33.65947983 183.67829951 -34.328125 187.59179688 C-37.4577505 206.04086906 -40.23752175 224.49185256 -42 243.125 C-42.64346318 249.86374913 -43.45347467 256.55221839 -44.4375 263.25 C-47.20382129 282.1779263 -49.45372925 300.86168686 -50 320 C-50.61875 320.0825 -51.2375 320.165 -51.875 320.25 C-54.18437567 320.81258459 -54.18437567 320.81258459 -55.25 323.0625 C-55.4975 323.701875 -55.745 324.34125 -56 325 C-56.43231934 324.43192627 -56.86463867 323.86385254 -57.31005859 323.27856445 C-57.91672363 322.481521 -58.52338867 321.68447754 -59.1484375 320.86328125 C-59.8189917 319.98220703 -60.4895459 319.10113281 -61.18041992 318.19335938 C-62.65318683 316.26003537 -64.12732638 314.3277563 -65.6027832 312.39648438 C-71.95800917 304.07650946 -71.95800917 304.07650946 -74.83203125 300.16796875 C-79.54783671 293.82548413 -84.59103628 288.28915742 -90.24584961 282.80493164 C-95.49008428 277.66009902 -99.74888772 271.98480611 -104 266 C-110.76956387 256.8082986 -117.82140204 247.87354471 -125 239 C-125.7734375 238.0409375 -126.546875 237.081875 -127.34375 236.09375 C-131.98445039 230.37694517 -136.74595762 224.7733806 -141.55419922 219.19775391 C-144.63748473 215.61516682 -147.655303 211.99051696 -150.625 208.3125 C-154.47461137 203.57022513 -158.52712671 199.05071039 -162.66015625 194.5546875 C-164.65834848 192.37302185 -166.62148889 190.16988691 -168.5625 187.9375 C-179.63913891 175.22366734 -191.07164338 162.7796172 -203.0859375 150.9453125 C-205.62300721 148.36682124 -207.96613738 145.64316701 -210.3203125 142.8984375 C-212.49553299 140.43993248 -214.82375756 138.16287209 -217.16699219 135.8659668 C-218.89416636 134.10773662 -220.4915809 132.29641161 -222.0859375 130.41796875 C-226.5272117 125.31015075 -231.3179235 120.57342289 -236.125 115.8125 C-237.00542969 114.93658203 -237.88585937 114.06066406 -238.79296875 113.15820312 C-240.47526904 111.48478376 -242.15863976 109.81243956 -243.84326172 108.14135742 C-245.50964615 106.48685687 -247.17137739 104.82818626 -248.828125 103.1640625 C-250.29898841 101.69848997 -251.78663801 100.2496064 -253.2890625 98.81640625 C-258.26090146 94.01916364 -262.73237182 89.05195565 -267 83.625 C-267.46873535 83.03017822 -267.9374707 82.43535645 -268.42041016 81.82250977 C-270.59964768 79.00182572 -272.57817965 76.27988103 -274 73 C-241.97429066 48.87780762 -203.54388489 32.98762184 -165 23 C-164.30084473 22.81727539 -163.60168945 22.63455078 -162.88134766 22.44628906 C-158.26673152 21.24491983 -153.63692729 20.11134575 -149 19 C-148.08331543 18.77844238 -147.16663086 18.55688477 -146.22216797 18.32861328 C-129.5798641 14.32515371 -112.90006949 10.73556468 -96 8 C-94.83355957 7.80631836 -93.66711914 7.61263672 -92.46533203 7.41308594 C-69.67345648 3.77696812 -46.83524138 3.46338995 -23.80403996 3.42010021 C-21.8276414 3.41514497 -19.85126306 3.40354498 -17.87489319 3.39179993 C-15.41866227 3.3782371 -12.96232201 3.37726577 -10.50608826 3.39030457 C-9.41353226 3.3832399 -8.32097626 3.37617523 -7.1953125 3.36889648 C-6.23641113 3.36985825 -5.27750977 3.37082001 -4.28955078 3.37181091 C-3.53399902 3.24911331 -2.77844727 3.12641571 -2 3 C-1.34 2.01 -0.68 1.02 0 0 Z " transform="translate(325,34)" style="fill: #4C2E1D;"/><path d="M0 0 C3 -0.3125 3 -0.3125 6 0 C6.66 0.66 7.32 1.32 8 2 C7.76341485 8.86096922 6.02467443 15.33234583 4.30078125 21.94921875 C3.27731363 25.8796921 2.3097862 29.82170516 1.35546875 33.76953125 C-4.05852602 56.05577399 -4.05852602 56.05577399 -7.8828125 66.06640625 C-12.86331303 79.14457373 -16.20356738 92.90877491 -18.4375 106.70092773 C-19.45420328 112.66391014 -20.70415899 118.57872047 -21.9375 124.5 C-22.18951172 125.72847656 -22.44152344 126.95695312 -22.70117188 128.22265625 C-22.95318359 129.43824219 -23.20519531 130.65382812 -23.46484375 131.90625 C-23.687771 132.98197266 -23.91069824 134.05769531 -24.14038086 135.16601562 C-24.8513241 138.33689114 -25.63422621 141.46874021 -26.44750977 144.61401367 C-28.08429593 151.11752417 -29.26681757 157.65811878 -30.375 164.26953125 C-30.58560059 165.50757004 -30.79620117 166.74560883 -31.01318359 168.02116394 C-31.45575262 170.6302072 -31.89646491 173.23947912 -32.33398438 175.84936523 C-32.99066662 179.76488735 -33.65947983 183.67829951 -34.328125 187.59179688 C-37.4577505 206.04086906 -40.23752175 224.49185256 -42 243.125 C-42.64346318 249.86374913 -43.45347467 256.55221839 -44.4375 263.25 C-47.20382129 282.1779263 -49.45372925 300.86168686 -50 320 C-50.61875 320.0825 -51.2375 320.165 -51.875 320.25 C-54.18437567 320.81258459 -54.18437567 320.81258459 -55.25 323.0625 C-55.4975 323.701875 -55.745 324.34125 -56 325 C-56.43231934 324.43192627 -56.86463867 323.86385254 -57.31005859 323.27856445 C-57.91672363 322.481521 -58.52338867 321.68447754 -59.1484375 320.86328125 C-59.8189917 319.98220703 -60.4895459 319.10113281 -61.18041992 318.19335938 C-62.65318683 316.26003537 -64.12732638 314.3277563 -65.6027832 312.39648438 C-71.95800917 304.07650946 -71.95800917 304.07650946 -74.83203125 300.16796875 C-79.54783671 293.82548413 -84.59103628 288.28915742 -90.24584961 282.80493164 C-95.49008428 277.66009902 -99.74888772 271.98480611 -104 266 C-110.76956387 256.8082986 -117.82140204 247.87354471 -125 239 C-125.7734375 238.0409375 -126.546875 237.081875 -127.34375 236.09375 C-131.98445039 230.37694517 -136.74595762 224.7733806 -141.55419922 219.19775391 C-144.63748473 215.61516682 -147.655303 211.99051696 -150.625 208.3125 C-154.47461137 203.57022513 -158.52712671 199.05071039 -162.66015625 194.5546875 C-164.65834848 192.37302185 -166.62148889 190.16988691 -168.5625 187.9375 C-179.63913891 175.22366734 -191.07164338 162.7796172 -203.0859375 150.9453125 C-205.62300721 148.36682124 -207.96613738 145.64316701 -210.3203125 142.8984375 C-212.49553299 140.43993248 -214.82375756 138.16287209 -217.16699219 135.8659668 C-218.89416636 134.10773662 -220.4915809 132.29641161 -222.0859375 130.41796875 C-226.5272117 125.31015075 -231.3179235 120.57342289 -236.125 115.8125 C-237.00542969 114.93658203 -237.88585937 114.06066406 -238.79296875 113.15820312 C-240.47526904 111.48478376 -242.15863976 109.81243956 -243.84326172 108.14135742 C-245.50964615 106.48685687 -247.17137739 104.82818626 -248.828125 103.1640625 C-250.29898841 101.69848997 -251.78663801 100.2496064 -253.2890625 98.81640625 C-258.26090146 94.01916364 -262.73237182 89.05195565 -267 83.625 C-267.46873535 83.03017822 -267.9374707 82.43535645 -268.42041016 81.82250977 C-270.59964768 79.00182572 -272.57817965 76.27988103 -274 73 C-241.97429066 48.87780762 -203.54388489 32.98762184 -165 23 C-164.30084473 22.81727539 -163.60168945 22.63455078 -162.88134766 22.44628906 C-158.26673152 21.24491983 -153.63692729 20.11134575 -149 19 C-148.08331543 18.77844238 -147.16663086 18.55688477 -146.22216797 18.32861328 C-129.5798641 14.32515371 -112.90006949 10.73556468 -96 8 C-94.83355957 7.80631836 -93.66711914 7.61263672 -92.46533203 7.41308594 C-69.67345648 3.77696812 -46.83524138 3.46338995 -23.80403996 3.42010021 C-21.8276414 3.41514497 -19.85126306 3.40354498 -17.87489319 3.39179993 C-15.41866227 3.3782371 -12.96232201 3.37726577 -10.50608826 3.39030457 C-9.41353226 3.3832399 -8.32097626 3.37617523 -7.1953125 3.36889648 C-6.23641113 3.36985825 -5.27750977 3.37082001 -4.28955078 3.37181091 C-3.53399902 3.24911331 -2.77844727 3.12641571 -2 3 C-1.34 2.01 -0.68 1.02 0 0 Z M-178 44 C-178.93457031 44.28552734 -179.86914062 44.57105469 -180.83203125 44.86523438 C-195.0184932 49.21859072 -208.51038755 54.83872915 -222 61 C-222.85932129 61.38978027 -223.71864258 61.77956055 -224.60400391 62.18115234 C-235.72890046 67.24894429 -246.44182489 72.83985094 -257 79 C-249.02486426 88.52585658 -240.73505952 97.702452 -231.37109375 105.8828125 C-228.94472331 108.04935744 -226.65722197 110.30766692 -224.375 112.625 C-219.79512157 117.2612214 -214.95543053 121.51630165 -209.96875 125.70703125 C-205.86208013 129.20559808 -202.26885412 132.85105617 -198.78125 136.96484375 C-196.9355077 139.07368528 -194.99860583 141.03598542 -193 143 C-188.6453001 147.30483693 -184.66918181 151.86250541 -180.703125 156.52441406 C-179.21997232 158.26732219 -177.73541253 160.00901744 -176.25 161.75 C-175.73630859 162.35247559 -175.22261719 162.95495117 -174.69335938 163.57568359 C-170.85137943 168.05998709 -166.88864273 172.41440194 -162.86645508 176.73681641 C-160.07212341 179.76261619 -157.46448377 182.87385054 -154.9375 186.125 C-152.181019 189.65217059 -149.26470424 192.80919278 -146.0625 195.9375 C-141.79511669 200.11367206 -137.99968347 204.49578327 -134.27734375 209.16015625 C-131.92570362 212.09264745 -129.49899188 214.95028722 -127.0625 217.8125 C-123.08065718 222.5735324 -119.45080096 227.48702482 -115.89526367 232.57080078 C-112.24572168 237.75075005 -108.31881184 242.67307933 -104.32958984 247.59375 C-101.36319123 251.26360063 -98.50415288 254.97828717 -95.75 258.8125 C-89.82926766 267.04792194 -83.63206146 274.52375551 -76.3828125 281.62890625 C-70.8655427 287.11904193 -66.06149247 293.10223421 -61.3828125 299.3125 C-60.92648437 299.869375 -60.47015625 300.42625 -60 301 C-59.67 301 -59.34 301 -59 301 C-58.96036133 300.41959961 -58.92072266 299.83919922 -58.87988281 299.24121094 C-58.04781152 287.44050927 -56.91254562 275.75857365 -55.125 264.0625 C-53.46333376 253.15844356 -52.30461133 242.26907779 -51.30511475 231.28826904 C-49.77277403 214.46721568 -47.63435498 197.97447749 -44.59814453 181.35009766 C-44.00606322 178.033959 -43.46089516 174.71372774 -42.93359375 171.38671875 C-41.37747996 161.57181199 -39.60918401 152.0131425 -37.05859375 142.40625 C-35.62605216 136.72450757 -34.6587887 130.95224834 -33.625 125.1875 C-26.80660384 87.50229063 -26.80660384 87.50229063 -21.15625 72.99609375 C-19.50296356 68.71207113 -18.2192378 64.3331234 -16.8984375 59.9375 C-16.15174898 57.49615319 -15.34796957 55.09463942 -14.5 52.6875 C-12.84777838 47.82112048 -11.65607751 42.83663719 -10.4453125 37.84643555 C-9.66238374 34.62123055 -8.83162163 31.43795654 -7.87890625 28.2578125 C-6.82635225 24.91872697 -6.82635225 24.91872697 -7 21 C-63.90258787 15.37447681 -123.77731502 27.03308606 -178 44 Z " transform="translate(325,34)" style="fill: #040303;"/><path d="M0 0 C4.88768454 3.60466734 7.49365317 8.35535089 8.640625 14.21875 C9.22401907 22.47907962 5.65750514 29.83917534 0.359375 36.04296875 C-9.08935399 44.87714626 -20.470191 48.42248993 -33.17578125 48.2109375 C-39.97830494 47.63370939 -43.77417129 45.31002439 -48.25 40.27734375 C-52.78964728 34.61206186 -52.56070014 29.01024511 -51.8125 21.90234375 C-49.9604608 17.16853157 -46.72363226 13.13914286 -42.8125 9.90234375 C-42.1525 9.90234375 -41.4925 9.90234375 -40.8125 9.90234375 C-40.72097656 9.15210937 -40.62945312 8.401875 -40.53515625 7.62890625 C-39.15509964 2.42198995 -34.41266063 -0.56339998 -29.92578125 -3.2109375 C-19.89489298 -7.64808095 -9.07716138 -5.49716023 0 0 Z " transform="translate(228.8125,105.09765625)" style="fill: #F8F3E3;"/><path d="M0 0 C0.66 0.33 1.32 0.66 2 1 C1.5786512 6.37219726 0.67752352 9.07399516 -3 13 C-9.27659826 17.13358828 -15.42946613 20.23881463 -23 19 C-25 17.8125 -25 17.8125 -26 16 C-26.1875 13.3125 -26.1875 13.3125 -26 11 C-25.175 11.165 -24.35 11.33 -23.5 11.5 C-15.50862314 12.64162527 -11.53786304 12.52526289 -4.921875 7.734375 C-2.4168697 5.47376046 -1.12904297 3.1613203 0 0 Z " transform="translate(218,119)" style="fill: #5A3D2C;"/><path d="M0 0 C4.32504836 1.65863505 7.09418825 4.871041 10.25 8.125 C11.08144531 8.96998047 11.08144531 8.96998047 11.9296875 9.83203125 C13.29104485 11.21686028 14.64614859 12.60783204 16 14 C15.67 14.99 15.34 15.98 15 17 C12.4960012 14.35792609 9.9974834 11.7107324 7.5 9.0625 C6.78457031 8.30775391 6.06914063 7.55300781 5.33203125 6.77539062 C4.65527344 6.05673828 3.97851562 5.33808594 3.28125 4.59765625 C2.65283203 3.93258057 2.02441406 3.26750488 1.37695312 2.58227539 C0 1 0 1 0 0 Z " transform="translate(110,171)" style="fill: #543A2C;"/></svg>