<svg id="svg" version="1.1" xmlns="http://www.w3.org/2000/svg" style="display: block;" viewBox="0 0 400 400"><path d="M0 0 C1.5078125 1.3984375 1.5078125 1.3984375 3.125 3.375 C5.91551357 6.71058204 8.76011879 9.97075656 11.6875 13.1875 C13.87718852 15.59499057 15.98027886 17.97403449 17.94921875 20.56640625 C20.13986826 23.165977 22.32221297 24.83789457 25.125 26.75 C29.95643892 30.16610395 34.33088827 33.84870456 38.67578125 37.859375 C40.70522324 39.72850812 42.77272106 41.52664655 44.875 43.3125 C52.72310729 50.19735871 59.96315043 57.41275738 66.25 65.75 C71.07591818 72.14781428 76.50645973 77.74451355 82.25488281 83.31933594 C86.18238393 87.13265407 89.88025688 91.04984994 93.45019531 95.20068359 C95.33450236 97.38835577 97.29108058 99.50412268 99.25 101.625 C109.29548474 112.7847738 118.116767 125.04681354 127.1875 136.99609375 C129.44052883 139.96098618 131.70426722 142.91570906 134 145.84765625 C137.75534664 150.64653994 141.35577932 155.4359429 144.5625 160.625 C148.94150392 167.6885681 154.31253677 173.85899568 159.703125 180.16015625 C168.38116294 190.3142375 176.22645595 200.77448631 183.5625 211.9375 C188.58389898 219.55494023 193.806502 226.9744262 199.3125 234.25 C199.94551025 235.09425537 200.57852051 235.93851074 201.23071289 236.80834961 C206.87288234 244.17295024 213.20122755 250.66134739 220.25 256.6875 C223.60146354 259.59568379 226.51052142 262.30593501 229 266 C228.81395349 270.18604651 228.81395349 270.18604651 227 272 C217.10091135 272.72123391 207.38930806 271.30162739 197.625 269.875 C194.37301364 269.41354424 191.12010618 268.95873736 187.8671875 268.50390625 C187.01169312 268.38349472 186.15619873 268.26308319 185.27478027 268.13902283 C178.33868238 267.1689678 171.39440288 266.27402737 164.4453125 265.40234375 C162.86135178 265.20327423 162.86135178 265.20327423 161.24539185 265.00018311 C157.04901099 264.47375324 152.8524876 263.94862864 148.65509033 263.43035889 C145.72271321 263.0679276 142.79101807 262.70034605 139.859375 262.33203125 C138.56303635 262.17443581 138.56303635 262.17443581 137.24050903 262.01365662 C132.40454321 261.40191206 127.70419757 260.54708488 122.956604 259.44309998 C120.7100912 258.93434615 118.47259288 258.57572843 116.1875 258.2890625 C115.35412109 258.18070068 114.52074219 258.07233887 113.66210938 257.96069336 C112.78361328 257.84991455 111.90511719 257.73913574 111 257.625 C105.08976882 256.86430184 99.20522553 256.06797318 93.34375 254.98828125 C79.03634158 252.38550156 64.94527807 251.36658184 50.44824219 250.71630859 C35.22934525 250.02668698 20.14696938 248.6553608 5 247 C3.8773877 246.88011719 2.75477539 246.76023437 1.59814453 246.63671875 C-10.7708714 245.30957894 -23.07203811 243.71528616 -35.375 241.875 C-45.3042684 240.39150533 -55.08814962 239.46143995 -65.12109375 239.17578125 C-69 239 -69 239 -71.33691406 238.51806641 C-74.39892181 237.9223953 -77.37404332 237.7167516 -80.48828125 237.53515625 C-81.74535889 237.4585376 -83.00243652 237.38191895 -84.29760742 237.30297852 C-84.95441498 237.26391388 -85.61122253 237.22484924 -86.28793335 237.18460083 C-105.00048872 236.05605387 -105.00048872 236.05605387 -113.6875 235.0625 C-114.86699219 234.92972656 -116.04648438 234.79695312 -117.26171875 234.66015625 C-120.27043115 233.93480333 -120.9434333 233.16987616 -123 231 C-124.65668738 230.62016344 -126.32397384 230.28253352 -128 230 C-128.63684421 179.24514956 -128.63684421 179.24514956 -125 157 C-124.88253418 156.25991699 -124.76506836 155.51983398 -124.64404297 154.75732422 C-123.93769661 150.45652824 -123.02358526 146.23536836 -122 142 C-121.81679199 141.21061035 -121.63358398 140.4212207 -121.44482422 139.60791016 C-120.83632264 137.00446636 -120.20357625 134.40810085 -119.5625 131.8125 C-119.27270264 130.58950195 -119.27270264 130.58950195 -118.97705078 129.34179688 C-117.83720895 124.91641912 -116.9008957 121.75614687 -113 119 C-109.15106474 118.04528364 -105.87783744 118.47329754 -102.5 120.5 C-102.005 120.995 -101.51 121.49 -101 122 C-100.91363281 120.87464844 -100.82726562 119.74929687 -100.73828125 118.58984375 C-100.09220556 113.5093902 -98.3032308 109.19637332 -96.1875 104.5625 C-95.79006592 103.68924072 -95.39263184 102.81598145 -94.9831543 101.91625977 C-91.07479801 93.65328506 -86.1455072 86.44454759 -80.63867188 79.18017578 C-78.91847185 76.89153063 -77.24510708 74.57374698 -75.578125 72.24609375 C-65.18134666 57.78385263 -53.91739455 44.77028268 -41.375 32.125 C-40.08710571 30.82296631 -40.08710571 30.82296631 -38.77319336 29.49462891 C-32.82418673 23.57566491 -26.58329089 18.19969632 -20 13 C-19.20384277 12.36578125 -18.40768555 11.7315625 -17.58740234 11.078125 C-15.40315322 9.34910359 -13.20466747 7.64037387 -11 5.9375 C-10.26394531 5.35806641 -9.52789062 4.77863281 -8.76953125 4.18164062 C-8.06183594 3.63572266 -7.35414063 3.08980469 -6.625 2.52734375 C-5.99851562 2.03999756 -5.37203125 1.55265137 -4.7265625 1.05053711 C-3 0 -3 0 0 0 Z " transform="translate(154,48)" style="fill: #4C2E1D;"/><path d="M0 0 C1.5078125 1.3984375 1.5078125 1.3984375 3.125 3.375 C5.91551357 6.71058204 8.76011879 9.97075656 11.6875 13.1875 C13.87718852 15.59499057 15.98027886 17.97403449 17.94921875 20.56640625 C20.13986826 23.165977 22.32221297 24.83789457 25.125 26.75 C29.95643892 30.16610395 34.33088827 33.84870456 38.67578125 37.859375 C40.70522324 39.72850812 42.77272106 41.52664655 44.875 43.3125 C52.72310729 50.19735871 59.96315043 57.41275738 66.25 65.75 C71.07591818 72.14781428 76.50645973 77.74451355 82.25488281 83.31933594 C86.18238393 87.13265407 89.88025688 91.04984994 93.45019531 95.20068359 C95.33450236 97.38835577 97.29108058 99.50412268 99.25 101.625 C109.29548474 112.7847738 118.116767 125.04681354 127.1875 136.99609375 C129.44052883 139.96098618 131.70426722 142.91570906 134 145.84765625 C137.75534664 150.64653994 141.35577932 155.4359429 144.5625 160.625 C148.94150392 167.6885681 154.31253677 173.85899568 159.703125 180.16015625 C168.38116294 190.3142375 176.22645595 200.77448631 183.5625 211.9375 C188.58389898 219.55494023 193.806502 226.9744262 199.3125 234.25 C199.94551025 235.09425537 200.57852051 235.93851074 201.23071289 236.80834961 C206.87288234 244.17295024 213.20122755 250.66134739 220.25 256.6875 C223.60146354 259.59568379 226.51052142 262.30593501 229 266 C228.81395349 270.18604651 228.81395349 270.18604651 227 272 C217.10091135 272.72123391 207.38930806 271.30162739 197.625 269.875 C194.37301364 269.41354424 191.12010618 268.95873736 187.8671875 268.50390625 C187.01169312 268.38349472 186.15619873 268.26308319 185.27478027 268.13902283 C178.33868238 267.1689678 171.39440288 266.27402737 164.4453125 265.40234375 C162.86135178 265.20327423 162.86135178 265.20327423 161.24539185 265.00018311 C157.04901099 264.47375324 152.8524876 263.94862864 148.65509033 263.43035889 C145.72271321 263.0679276 142.79101807 262.70034605 139.859375 262.33203125 C138.56303635 262.17443581 138.56303635 262.17443581 137.24050903 262.01365662 C132.40454321 261.40191206 127.70419757 260.54708488 122.956604 259.44309998 C120.7100912 258.93434615 118.47259288 258.57572843 116.1875 258.2890625 C115.35412109 258.18070068 114.52074219 258.07233887 113.66210938 257.96069336 C112.78361328 257.84991455 111.90511719 257.73913574 111 257.625 C105.08976882 256.86430184 99.20522553 256.06797318 93.34375 254.98828125 C79.03634158 252.38550156 64.94527807 251.36658184 50.44824219 250.71630859 C35.22934525 250.02668698 20.14696938 248.6553608 5 247 C3.8773877 246.88011719 2.75477539 246.76023437 1.59814453 246.63671875 C-10.7708714 245.30957894 -23.07203811 243.71528616 -35.375 241.875 C-45.3042684 240.39150533 -55.08814962 239.46143995 -65.12109375 239.17578125 C-69 239 -69 239 -71.33691406 238.51806641 C-74.39892181 237.9223953 -77.37404332 237.7167516 -80.48828125 237.53515625 C-81.74535889 237.4585376 -83.00243652 237.38191895 -84.29760742 237.30297852 C-84.95441498 237.26391388 -85.61122253 237.22484924 -86.28793335 237.18460083 C-105.00048872 236.05605387 -105.00048872 236.05605387 -113.6875 235.0625 C-114.86699219 234.92972656 -116.04648438 234.79695312 -117.26171875 234.66015625 C-120.27043115 233.93480333 -120.9434333 233.16987616 -123 231 C-124.65668738 230.62016344 -126.32397384 230.28253352 -128 230 C-128.63684421 179.24514956 -128.63684421 179.24514956 -125 157 C-124.88253418 156.25991699 -124.76506836 155.51983398 -124.64404297 154.75732422 C-123.93769661 150.45652824 -123.02358526 146.23536836 -122 142 C-121.81679199 141.21061035 -121.63358398 140.4212207 -121.44482422 139.60791016 C-120.83632264 137.00446636 -120.20357625 134.40810085 -119.5625 131.8125 C-119.27270264 130.58950195 -119.27270264 130.58950195 -118.97705078 129.34179688 C-117.83720895 124.91641912 -116.9008957 121.75614687 -113 119 C-109.15106474 118.04528364 -105.87783744 118.47329754 -102.5 120.5 C-102.005 120.995 -101.51 121.49 -101 122 C-100.91363281 120.87464844 -100.82726562 119.74929687 -100.73828125 118.58984375 C-100.09220556 113.5093902 -98.3032308 109.19637332 -96.1875 104.5625 C-95.79006592 103.68924072 -95.39263184 102.81598145 -94.9831543 101.91625977 C-91.07479801 93.65328506 -86.1455072 86.44454759 -80.63867188 79.18017578 C-78.91847185 76.89153063 -77.24510708 74.57374698 -75.578125 72.24609375 C-65.18134666 57.78385263 -53.91739455 44.77028268 -41.375 32.125 C-40.08710571 30.82296631 -40.08710571 30.82296631 -38.77319336 29.49462891 C-32.82418673 23.57566491 -26.58329089 18.19969632 -20 13 C-19.20384277 12.36578125 -18.40768555 11.7315625 -17.58740234 11.078125 C-15.40315322 9.34910359 -13.20466747 7.64037387 -11 5.9375 C-10.26394531 5.35806641 -9.52789062 4.77863281 -8.76953125 4.18164062 C-8.06183594 3.63572266 -7.35414063 3.08980469 -6.625 2.52734375 C-5.99851562 2.03999756 -5.37203125 1.55265137 -4.7265625 1.05053711 C-3 0 -3 0 0 0 Z M-3 17 C-12.18644076 24.12052455 -21.23910798 31.35955978 -30 39 C-30.75361816 39.65669678 -30.75361816 39.65669678 -31.52246094 40.32666016 C-43.81703348 51.12140683 -54.59078505 63.06555879 -64.49755859 76.06494141 C-66.148128 78.19078039 -67.84541583 80.27336307 -69.55078125 82.35546875 C-70.16445557 83.11569336 -70.77812988 83.87591797 -71.41040039 84.65917969 C-72.58437305 86.11312963 -73.76877528 87.55876126 -74.96655273 88.99316406 C-84.40027579 100.80836219 -88.84249279 115.60563108 -93.5625 129.75 C-94.10538011 131.35181338 -94.64899845 132.95337676 -95.19335938 134.5546875 C-95.73503008 136.15602856 -96.27604751 137.75759075 -96.81640625 139.359375 C-97.08087555 140.14316528 -97.34534485 140.92695557 -97.61782837 141.73449707 C-99.01796363 145.92519572 -100.34811329 150.12688842 -101.59716797 154.36523438 C-101.85843979 155.23811096 -102.11971161 156.11098755 -102.38890076 157.01031494 C-102.88696272 158.6855265 -103.3721867 160.36462442 -103.84266663 162.04779053 C-105.53283929 167.70400818 -105.53283929 167.70400818 -108.1262207 169.34716797 C-108.74456787 169.56260254 -109.36291504 169.77803711 -110 170 C-110.69798535 172.41660964 -111.03170418 174.39509112 -111.25 176.875 C-111.32589355 177.61862793 -111.40178711 178.36225586 -111.47998047 179.12841797 C-112.73911048 194.00099896 -112.15675694 209.08879757 -112 224 C-109.50583029 225.24708485 -107.58996809 225.25928209 -104.80126953 225.43310547 C-103.71057159 225.50342987 -102.61987366 225.57375427 -101.49612427 225.64620972 C-100.30373138 225.71913239 -99.1113385 225.79205505 -97.8828125 225.8671875 C-95.32812073 226.03248608 -92.77343339 226.19785315 -90.21875 226.36328125 C-86.21599451 226.61819544 -82.21301824 226.86950023 -78.20996094 227.11962891 C-32.87302583 229.97104441 -32.87302583 229.97104441 -12.3742218 233.90884399 C-1.87468588 235.85656317 8.80966836 236.58069229 19.4375 237.5 C21.24012299 237.65958191 21.24012299 237.65958191 23.0791626 237.8223877 C47.40840649 239.95549121 71.75824943 241.13798161 96.15795898 242.09960938 C97.5428519 242.15500572 98.92774468 242.21040522 100.31263733 242.26580811 C102.89264968 242.367468 105.47284002 242.46473588 108.0532074 242.5569458 C109.76202843 242.62302032 109.76202843 242.62302032 111.50537109 242.69042969 C112.49926849 242.72642273 113.49316589 242.76241577 114.5171814 242.79949951 C117 243 117 243 120 244 C121.91632589 244.16014265 123.83674464 244.27306831 125.7578125 244.359375 C150.78852523 245.66072386 174.07322372 250.74157186 198.23706055 257.32324219 C201.14304956 258.03503874 204.04408431 258.54344165 207 259 C206.34 258.34 205.68 257.68 205 257 C204.53851563 256.53335938 204.07703125 256.06671875 203.6015625 255.5859375 C202.5126173 254.50761616 201.40207106 253.45077116 200.2734375 252.4140625 C190.0886284 242.81603253 182.76733717 230.77957895 175.40893555 218.98803711 C168.61291274 208.12780154 161.30172441 198.15174773 152.82763672 188.54077148 C146.05490163 180.84611961 139.80237417 172.87789644 134.25 164.25 C130.3083443 158.20132103 125.76735855 152.74483095 121.13818359 147.21240234 C117.23712586 142.54014437 113.57709614 137.7747364 110.0546875 132.80859375 C106.01667477 127.28895277 101.66162797 122.01462709 97.36181641 116.69824219 C96.21856316 115.27255742 95.09688018 113.82961261 93.98046875 112.3828125 C89.21253764 106.21254871 83.93154194 100.61053131 78.56811523 94.9621582 C74.20032129 90.34234467 70.11679568 85.58003757 66.140625 80.6171875 C54.01610307 65.79341068 40.12483986 51.73798921 25 40 C23.12151545 38.46258108 21.24655727 36.92084427 19.375 35.375 C14.64404862 31.50237837 9.83875509 27.73637742 5 24 C2.16070874 21.77794597 -0.47592966 19.56734012 -3 17 Z " transform="translate(154,48)" style="fill: #030202;"/><path d="M0 0 C0.91265625 0.26167969 1.8253125 0.52335938 2.765625 0.79296875 C4.9375 1.5 4.9375 1.5 8 3 C8.36183438 4.32588264 8.69703352 5.65944034 9 7 C10.051875 7.37125 10.051875 7.37125 11.125 7.75 C16.58782501 10.12514131 19.82252114 15.13882373 22.9375 20.0625 C25.66384957 27.53852776 25.28783544 37.22792667 22.0625 44.4375 C16.39907259 53.96091705 8.20676582 58.44919555 -2 62 C-3.155 62.433125 -4.31 62.86625 -5.5 63.3125 C-16.02354179 65.37962428 -26.04223552 64.10773492 -35.35546875 58.609375 C-44.70463878 51.94392545 -49.12816713 43.6261389 -51.55859375 32.42578125 C-52.28966396 23.39930209 -47.03898834 14.94498998 -41.70703125 8.0234375 C-28.69356874 -6.75567068 -17.59560138 -5.10420926 0 0 Z " transform="translate(141,158)" style="fill: #F8F3E3;"/><path d="M0 0 C0.33 0.66 0.66 1.32 1 2 C0.67 2.66 0.34 3.32 0 4 C-0.46740945 9.20166447 -0.46740945 9.20166447 1.0625 14 C4.14126742 15.58904125 6.60155579 15.35773097 10 15 C13.43161465 13.3795153 13.97390046 12.0635467 15.4375 8.5 C17.22275137 4.50103693 18.13521229 3.82639757 22 2 C27.58944148 1.10806785 32.41161964 0.99198938 37.25 4.0625 C39.44810144 7.75217028 39.60485655 9.76600414 39 14 C36.80581003 19.11977661 32.90264662 22.62793917 27.92578125 24.98046875 C20.39599109 27.77950069 13.25504401 28.14830553 5.7890625 24.98046875 C2.09490594 22.9559419 -0.25515466 20.31234655 -2.3125 16.6875 C-3.66830366 11.38754025 -3.62559078 7.45971182 -1.5 2.5 C-1.005 1.675 -0.51 0.85 0 0 Z " transform="translate(109,178)" style="fill: #513322;"/><path d="M0 0 C1.35404497 -0.02763357 2.70826555 -0.04667422 4.0625 -0.0625 C4.81660156 -0.07410156 5.57070312 -0.08570313 6.34765625 -0.09765625 C9 0 9 0 12.171875 0.48046875 C16.85223422 1.11566036 21.47069003 1.23532591 26.1875 1.375 C51.08881869 2.31096239 75.75840873 3.94321314 100 10 C101.47256258 10.35715727 102.94521316 10.71395195 104.41796875 11.0703125 C107.00568657 11.70393255 109.58464484 12.3595071 112.1640625 13.02734375 C114.98815709 13.74343291 117.80794413 14.42253774 120.6484375 15.06640625 C121.42646729 15.24357178 122.20449707 15.4207373 123.00610352 15.60327148 C124.50546452 15.94244101 126.00591198 16.27685499 127.50756836 16.60571289 C130.85307077 17.36643593 133.10925776 18.07283851 136 20 C77.92518077 13.19252321 77.92518077 13.19252321 54.11083984 9.48388672 C50.89394766 8.98350371 47.67569764 8.49273912 44.45703125 8.00390625 C29.62579811 5.74571583 14.81056203 3.38966785 0 1 C0 0.67 0 0.34 0 0 Z " transform="translate(228,299)" style="fill: #523626;"/><path d="M0 0 C3.26008643 3.16952847 6.22237877 6.39937989 9 10 C5.40094092 9.44449305 4.00090201 8.25112752 1.75 5.4375 C1.22921875 4.79683594 0.7084375 4.15617187 0.171875 3.49609375 C-0.21484375 3.00238281 -0.6015625 2.50867187 -1 2 C-0.67 1.34 -0.34 0.68 0 0 Z " transform="translate(161,57)" style="fill: #573C2E;"/></svg>