<svg id="svg" version="1.1" xmlns="http://www.w3.org/2000/svg" viewBox="0 0 400 400" style="display: block;"><path d="M0 0 C27.65635569 1.06166433 56.82944172 8.18592501 83 17 C84.5592351 17.45409785 86.11919821 17.90569978 87.6796875 18.35546875 C124.09288146 29.21127848 157.04029992 48.80908174 186.34667969 72.65527344 C187.92414704 73.93830506 189.51260039 75.20779427 191.1015625 76.4765625 C199.55003041 83.37380217 207.23176098 91.04802593 214.9375 98.75 C215.75427719 99.56528168 215.75427719 99.56528168 216.58755493 100.39703369 C222.6086972 106.41942462 228.46979874 112.51851773 234 119 C236.35207277 121.60827434 238.71524246 124.20586824 241.08203125 126.80078125 C243 129 243 129 245 132 C246.65204456 132.70211894 248.31923769 133.36971413 250 134 C252 136 252 136 252.125 139.625 C252.08375 140.73875 252.0425 141.8525 252 143 C251.47494873 143.28496338 250.94989746 143.56992676 250.40893555 143.86352539 C217.83870862 161.55370452 185.6953781 179.47642752 154.86727905 200.08552551 C147.77175483 204.82724978 140.637287 209.5089705 133.5 214.1875 C132.10342317 215.10358011 130.70685758 216.01967737 129.31030273 216.93579102 C119.99883387 223.04225088 110.67821904 229.13454984 101.34375 235.20581055 C92.95846223 240.6634487 84.65063246 246.19674219 76.5 252 C69.8460905 256.71622067 63.14641976 261.3293233 56.2890625 265.74609375 C47.22087164 271.66064868 38.71170383 278.21288362 30.41796875 285.1640625 C19.34142076 294.38533462 6.49516816 300.86483807 -6.13208008 307.68066406 C-11.80171853 310.75454652 -17.31817059 313.91683045 -22.68359375 317.5 C-24.50757416 318.68112728 -26.3897241 319.77243572 -28.2890625 320.828125 C-32.40708202 323.1568825 -36.15326857 325.92018219 -39.9375 328.75 C-40.62134766 329.25660156 -41.30519531 329.76320313 -42.00976562 330.28515625 C-43.67569833 331.52004343 -45.3382122 332.75954064 -47 334 C-48.32 333.34 -49.64 332.68 -51 332 C-50.66061617 322.09935434 -49.89044207 312.53080028 -48.09106445 302.78515625 C-46.97221045 296.47926474 -46.52566729 290.23155974 -46.29101562 283.8359375 C-46.08505157 278.33016659 -46.08505157 278.33016659 -45.49121094 276.02490234 C-44.97451862 273.89495895 -44.90516177 272.09454535 -44.9296875 269.90625 C-44.79134345 248.32251289 -40.64376888 227.20904215 -37 206 C-36.86146606 205.19314758 -36.72293213 204.38629517 -36.5802002 203.55499268 C-35.58318302 197.75550857 -34.58499008 191.9561882 -33.57226562 186.15942383 C-31.16314325 172.36655411 -29.0809431 158.53014138 -27.09155273 144.67089844 C-25.9106221 136.51946752 -24.55832562 128.48059537 -22.7565918 120.43774414 C-21.94008005 116.72774031 -21.20794306 113.00527128 -20.5 109.2734375 C-20.37626511 108.62435928 -20.25253021 107.97528107 -20.12504578 107.30653381 C-19.62233455 104.6651472 -19.12192124 102.02334159 -18.625 99.38085938 C-17.18417308 91.73397066 -15.59461966 84.16465863 -13.65185547 76.62744141 C-12.77687104 73.10063152 -12.15401861 69.58585197 -11.5625 66 C-10.80248087 61.47765647 -10.0131598 56.9710255 -9.0625 52.484375 C-6.64034744 41.04636596 -4.87973678 29.59787795 -3.39477539 17.99902344 C-2.59730708 11.86542464 -1.67460875 5.95745768 0 0 Z " transform="translate(120,31)" style="fill: #4C2E1D;"/><path d="M0 0 C27.65635569 1.06166433 56.82944172 8.18592501 83 17 C84.5592351 17.45409785 86.11919821 17.90569978 87.6796875 18.35546875 C124.09288146 29.21127848 157.04029992 48.80908174 186.34667969 72.65527344 C187.92414704 73.93830506 189.51260039 75.20779427 191.1015625 76.4765625 C199.55003041 83.37380217 207.23176098 91.04802593 214.9375 98.75 C215.75427719 99.56528168 215.75427719 99.56528168 216.58755493 100.39703369 C222.6086972 106.41942462 228.46979874 112.51851773 234 119 C236.35207277 121.60827434 238.71524246 124.20586824 241.08203125 126.80078125 C243 129 243 129 245 132 C246.65204456 132.70211894 248.31923769 133.36971413 250 134 C252 136 252 136 252.125 139.625 C252.08375 140.73875 252.0425 141.8525 252 143 C251.47494873 143.28496338 250.94989746 143.56992676 250.40893555 143.86352539 C217.83870862 161.55370452 185.6953781 179.47642752 154.86727905 200.08552551 C147.77175483 204.82724978 140.637287 209.5089705 133.5 214.1875 C132.10342317 215.10358011 130.70685758 216.01967737 129.31030273 216.93579102 C119.99883387 223.04225088 110.67821904 229.13454984 101.34375 235.20581055 C92.95846223 240.6634487 84.65063246 246.19674219 76.5 252 C69.8460905 256.71622067 63.14641976 261.3293233 56.2890625 265.74609375 C47.22087164 271.66064868 38.71170383 278.21288362 30.41796875 285.1640625 C19.34142076 294.38533462 6.49516816 300.86483807 -6.13208008 307.68066406 C-11.80171853 310.75454652 -17.31817059 313.91683045 -22.68359375 317.5 C-24.50757416 318.68112728 -26.3897241 319.77243572 -28.2890625 320.828125 C-32.40708202 323.1568825 -36.15326857 325.92018219 -39.9375 328.75 C-40.62134766 329.25660156 -41.30519531 329.76320313 -42.00976562 330.28515625 C-43.67569833 331.52004343 -45.3382122 332.75954064 -47 334 C-48.32 333.34 -49.64 332.68 -51 332 C-50.66061617 322.09935434 -49.89044207 312.53080028 -48.09106445 302.78515625 C-46.97221045 296.47926474 -46.52566729 290.23155974 -46.29101562 283.8359375 C-46.08505157 278.33016659 -46.08505157 278.33016659 -45.49121094 276.02490234 C-44.97451862 273.89495895 -44.90516177 272.09454535 -44.9296875 269.90625 C-44.79134345 248.32251289 -40.64376888 227.20904215 -37 206 C-36.86146606 205.19314758 -36.72293213 204.38629517 -36.5802002 203.55499268 C-35.58318302 197.75550857 -34.58499008 191.9561882 -33.57226562 186.15942383 C-31.16314325 172.36655411 -29.0809431 158.53014138 -27.09155273 144.67089844 C-25.9106221 136.51946752 -24.55832562 128.48059537 -22.7565918 120.43774414 C-21.94008005 116.72774031 -21.20794306 113.00527128 -20.5 109.2734375 C-20.37626511 108.62435928 -20.25253021 107.97528107 -20.12504578 107.30653381 C-19.62233455 104.6651472 -19.12192124 102.02334159 -18.625 99.38085938 C-17.18417308 91.73397066 -15.59461966 84.16465863 -13.65185547 76.62744141 C-12.77687104 73.10063152 -12.15401861 69.58585197 -11.5625 66 C-10.80248087 61.47765647 -10.0131598 56.9710255 -9.0625 52.484375 C-6.64034744 41.04636596 -4.87973678 29.59787795 -3.39477539 17.99902344 C-2.59730708 11.86542464 -1.67460875 5.95745768 0 0 Z M10 18 C9.83165649 19.07991211 9.83165649 19.07991211 9.65991211 20.18164062 C8.88262409 25.0518431 7.872105 29.61222104 6.1875 34.25 C1.55063234 47.58964539 -0.77908098 61.8018669 -2.84057617 75.74023438 C-3.79705851 82.0649985 -5.04560591 88.30628932 -6.375 94.5625 C-10.13983241 112.30144593 -13.61951501 130.06594678 -16.41259766 147.9855957 C-17.8288983 157.04865904 -19.37356862 166.08655012 -20.9375 175.125 C-23.12311911 187.77256378 -25.2421323 200.42806454 -27.24365234 213.10620117 C-28.11513578 218.61162339 -28.99740185 224.10576265 -30.05859375 229.578125 C-33.17052078 245.9651138 -34.35436227 262.48181756 -35.60571289 279.09741211 C-37.01157548 297.57793483 -37.01157548 297.57793483 -38.61621094 305.77734375 C-39.15530727 308.89943857 -39.14357023 311.84145502 -39 315 C-30.3428119 310.40028451 -21.90634958 305.4587478 -13.47607422 300.4609375 C-10.81434203 298.89045777 -8.14416155 297.33504225 -5.47265625 295.78125 C12.98610277 285.08198856 12.98610277 285.08198856 29.73046875 271.94140625 C38.15524381 264.73467096 47.38980149 258.65207744 56.87890625 252.9609375 C61.14262182 250.28210744 65.10975309 247.27942184 69.1015625 244.21484375 C71.86299337 242.10469375 74.66918466 240.07813786 77.5 238.0625 C81.35027942 235.2856982 84.9682072 232.34989214 88.5625 229.25 C96.23565723 222.78839391 104.57640101 217.42483736 113 212 C113.82757813 211.46391113 114.65515625 210.92782227 115.5078125 210.37548828 C130.10668568 200.93030752 144.95099913 191.9038185 159.83300781 182.91552734 C164.10497776 180.33166393 168.36655033 177.73106635 172.625 175.125 C173.68448853 174.47772949 173.68448853 174.47772949 174.76538086 173.81738281 C178.30086232 171.65651366 181.83118599 169.4876826 185.35546875 167.30859375 C193.49764351 162.28481288 201.70042375 157.38497527 210 152.625 C210.84796143 152.13717041 211.69592285 151.64934082 212.56958008 151.14672852 C218.28305718 147.89187627 224.09093828 144.88381071 230 142 C226.84089336 136.88525592 223.09167429 132.70464376 218.9375 128.375 C217.58793538 126.95370044 216.23898157 125.53182066 214.890625 124.109375 C213.89772461 123.06426758 213.89772461 123.06426758 212.88476562 121.99804688 C210.28268195 119.23956853 207.73398617 116.43467568 205.1875 113.625 C197.87336073 105.62719489 190.32670786 97.94562749 182 91 C181.46165527 90.54786133 180.92331055 90.09572266 180.36865234 89.62988281 C166.33062257 77.87833609 151.71307694 67.09166081 135.79003906 58.02050781 C134.07902396 57.04505185 132.37904606 56.05031169 130.6796875 55.0546875 C103.24206039 39.61711598 72.53076739 30.93049373 42 24.0625 C41.14773834 23.87073181 40.29547668 23.67896362 39.41738892 23.48138428 C29.6519045 21.30094491 19.92063897 19.34360539 10 18 Z " transform="translate(120,31)" style="fill: #030303;"/><path d="M0 0 C5.27937888 4.30284637 10.47562084 9.63082853 13.90234375 15.52734375 C14.26721143 19.17151602 14.36646808 20.82187477 12.33984375 23.90234375 C9.00292245 26.12695795 6.83329082 26.0276461 2.90234375 25.52734375 C1.1875 24 1.1875 24 -0.09765625 22.52734375 C-0.28199219 23.27757812 -0.46632812 24.0278125 -0.65625 24.80078125 C-3.76100002 35.75709911 -10.00965136 43.33368684 -19.71875 49.27734375 C-27.99918581 53.62831166 -35.93576818 56.09725037 -45.25390625 54.0546875 C-51.45956217 52.06171723 -56.32797903 48.37457618 -59.765625 42.84375 C-61.33855632 38.92756616 -61.63438073 35.43836722 -61.59765625 31.27734375 C-61.59193604 30.52590088 -61.58621582 29.77445801 -61.58032227 29.00024414 C-61.37405236 22.55448316 -59.8994105 17.80917026 -56.09765625 12.52734375 C-55.60136719 11.82351562 -55.10507813 11.1196875 -54.59375 10.39453125 C-42.0539054 -5.49934408 -17.26511808 -12.12094882 0 0 Z " transform="translate(227.09765625,116.47265625)" style="fill: #F9F4E4;"/><path d="M0 0 C0.99 0.495 0.99 0.495 2 1 C-11.58518011 10.12404011 -25.29433249 19.05852909 -39 28 C-40.14095396 28.74446088 -41.28190449 29.48892701 -42.42285156 30.23339844 C-48.94751518 34.49054703 -55.47323901 38.74606768 -62 43 C-62.33 42.34 -62.66 41.68 -63 41 C-43.20521861 26.16851188 -22.18970598 11.09485299 0 0 Z " transform="translate(276,228)" style="fill: #513525;"/><path d="M0 0 C0.33 1.65 0.66 3.3 1 5 C-0.2375 5.0825 -1.475 5.165 -2.75 5.25 C-5.98882964 5.63475459 -6.87907883 5.90024003 -9.5 8.0625 C-9.995 8.701875 -10.49 9.34125 -11 10 C-10.69029053 6.59319587 -10.31233339 4.43958033 -8.3125 1.625 C-5.37550387 -0.43883512 -3.51387796 -0.31944345 0 0 Z " transform="translate(208,132)" style="fill: #614534;"/><path d="M0 0 C3.24960325 4.33280433 3.57706148 4.90262358 3 10 C2.13098373 13.05154562 1.10949225 16.02814576 0 19 C-0.66 19 -1.32 19 -2 19 C-1.34 12.73 -0.68 6.46 0 0 Z " transform="translate(117,44)" style="fill: #553C2E;"/><path d="M0 0 C0.99 0.33 1.98 0.66 3 1 C-0.63256954 3.99232073 -4.38413175 6.65986709 -8.3125 9.25 C-9.38113281 9.95640625 -10.44976562 10.6628125 -11.55078125 11.390625 C-12.35902344 11.92171875 -13.16726562 12.4528125 -14 13 C-14.33 12.34 -14.66 11.68 -15 11 C-12.5749902 9.12902366 -10.1332018 7.2813211 -7.6875 5.4375 C-6.65206055 4.63795898 -6.65206055 4.63795898 -5.59570312 3.82226562 C-4.92861328 3.32275391 -4.26152344 2.82324219 -3.57421875 2.30859375 C-2.65515747 1.60947876 -2.65515747 1.60947876 -1.7175293 0.89624023 C-0.86735229 0.45260132 -0.86735229 0.45260132 0 0 Z " transform="translate(228,258)" style="fill: #563B2C;"/><path d="M0 0 C0.66 0.33 1.32 0.66 2 1 C-3.94 4.96 -3.94 4.96 -10 9 C-10 8.01 -10 7.02 -10 6 C-7.8828125 4.359375 -7.8828125 4.359375 -5.125 2.75 C-3.76761719 1.93789062 -3.76761719 1.93789062 -2.3828125 1.109375 C-1.20332031 0.56023437 -1.20332031 0.56023437 0 0 Z " transform="translate(276,228)" style="fill: #593F31;"/><path d="M0 0 C2.00531963 4.01063926 2.28227139 5.67183871 2 10 C1.67 10.66 1.34 11.32 1 12 C0.34 12 -0.32 12 -1 12 C-0.67 8.04 -0.34 4.08 0 0 Z " transform="translate(116,51)" style="fill: #5F4638;"/></svg>